<svg id="Layer_1" data-name="Layer 1" xmlns="http://www.w3.org/2000/svg" viewBox="0 0 11.63 11.64"><defs><style>.cls-1{fill:#8e191f;}.cls-2{fill:#2a660a;}</style></defs><title>tomato</title><path class="cls-1" d="M7,4.45A2.17,2.17,0,0,1,6.24,5.7a.23.23,0,0,1-.26,0A3.49,3.49,0,0,1,4.93,4.5a4,4,0,0,1-1.36-.27A.22.22,0,0,1,3.45,4a.2.2,0,0,1,.13-.12,4.92,4.92,0,0,0,.81-.37,2.69,2.69,0,0,1-.28-.53,7.37,7.37,0,0,0-1.6.77,4.39,4.39,0,0,0,0,7.33,7,7,0,0,0,7.68,0,4.39,4.39,0,0,0,0-7.33,8.15,8.15,0,0,0-1.13-.6A1.65,1.65,0,0,1,8,3.62a3.7,3.7,0,0,0,.65.6.21.21,0,0,1,0,.29.22.22,0,0,1-.13.08A2.53,2.53,0,0,1,7,4.45Z" transform="translate(-0.53 -0.53)"/><path class="cls-2" d="M4.17,2.1a2.42,2.42,0,0,0,.44,1.25.21.21,0,0,1,0,.29h0A5,5,0,0,1,3.74,4,3.88,3.88,0,0,0,5,4.26a.19.19,0,0,1,.18.11,3.37,3.37,0,0,0,1,1.13,1.93,1.93,0,0,0,.68-1.14A.21.21,0,0,1,7,4.19l.05,0a2.25,2.25,0,0,0,1.38.16,4.13,4.13,0,0,1-.68-.64.22.22,0,0,1,0-.3.25.25,0,0,1,.12,0,1.44,1.44,0,0,0,1.21-.82,2.86,2.86,0,0,0-2.4.58,3.59,3.59,0,0,0,0,.47.12.12,0,0,1-.1.14.12.12,0,0,1-.14-.1,2.66,2.66,0,0,1,.89-2.43.39.39,0,0,0,0-.56A.4.4,0,0,0,6.89.62a3.47,3.47,0,0,0-1.18,3,.11.11,0,0,1-.11.13.12.12,0,0,1-.13-.1,4.12,4.12,0,0,1,0-.86,3.57,3.57,0,0,0-1.3-.7Z" transform="translate(-0.53 -0.53)"/></svg>