<?xml version="1.0" encoding="utf-8"?>
<!-- Generator: Adobe Illustrator 24.0.0, SVG Export Plug-In . SVG Version: 6.00 Build 0)  -->
<svg version="1.1" xmlns="http://www.w3.org/2000/svg" xmlns:xlink="http://www.w3.org/1999/xlink" x="0px" y="0px"
	 viewBox="0 0 12.7 13.1" style="enable-background:new 0 0 12.7 13.1;" xml:space="preserve">
<style type="text/css">
	.st0{display:none;}
	.st1{display:inline;fill:#8E191F;}
	.st2{display:inline;fill:#2A660A;}
	.st3{display:inline;fill:#F77F00;}
	.st4{display:inline;}
	.st5{fill:#6D0E34;}
	.st6{fill:#2A660A;}
	.st7{display:inline;fill:#6DB234;}
	.st8{fill:#F77F00;}
	.st9{display:inline;fill:#6D0E34;}
	.st10{display:inline;fill:#DAB146;}
	.st11{display:inline;fill:#764E35;}
	.st12{display:inline;fill:#C65E09;}
</style>
<g id="Veggies" xmlns:cc="http://creativecommons.org/ns#" xmlns:dc="http://purl.org/dc/elements/1.1/" xmlns:inkscape="http://www.inkscape.org/namespaces/inkscape" xmlns:rdf="http://www.w3.org/1999/02/22-rdf-syntax-ns#" xmlns:sodipodi="http://sodipodi.sourceforge.net/DTD/sodipodi-0.dtd" xmlns:svg="http://www.w3.org/2000/svg">
	<g id="Tomato" transform="translate(0,-284.29999)" class="st0">
		<path class="st1" d="M7,289c-0.1,0.5-0.4,0.9-0.8,1.3c-0.1,0.1-0.2,0.1-0.3,0c-0.4-0.3-0.8-0.7-1-1.2c-0.5,0-0.9-0.1-1.4-0.3
			c-0.1,0-0.2-0.2-0.1-0.3c0-0.1,0.1-0.1,0.1-0.1c0.3-0.1,0.6-0.2,0.8-0.4c-0.1-0.2-0.2-0.3-0.3-0.5c-0.6,0.2-1.1,0.4-1.6,0.8
			c-2,1.3-2.6,4-1.3,6.1c0.3,0.5,0.8,0.9,1.3,1.3c2.3,1.5,5.3,1.5,7.6,0c2-1.3,2.6-4,1.3-6.1c-0.3-0.5-0.8-0.9-1.3-1.3
			c-0.4-0.2-0.7-0.4-1.1-0.6c-0.3,0.3-0.7,0.5-1.1,0.5c0.2,0.2,0.4,0.4,0.6,0.6c0.1,0.1,0.1,0.2,0,0.3c0,0-0.1,0.1-0.1,0.1
			C8,289.2,7.5,289.2,7,289L7,289z"/>
		<path class="st2" d="M4.2,286.6c0,0.5,0.2,0.9,0.4,1.2c0.1,0.1,0,0.2,0,0.3c0,0,0,0,0,0c-0.3,0.2-0.5,0.3-0.8,0.4
			c0.4,0.1,0.8,0.2,1.2,0.2c0.1,0,0.1,0,0.2,0.1c0.2,0.4,0.6,0.8,1,1.1c0.4-0.3,0.6-0.7,0.7-1.1c0-0.1,0.1-0.2,0.2-0.2c0,0,0,0,0,0
			c0.4,0.2,0.9,0.3,1.4,0.2c-0.2-0.2-0.5-0.4-0.7-0.6c-0.1-0.1-0.1-0.2,0-0.3c0,0,0.1,0,0.1,0c0.5,0,1-0.3,1.2-0.8
			c-0.8-0.2-1.7,0-2.4,0.6c0,0.2,0,0.3,0,0.5c0,0.1,0,0.1-0.1,0.1c-0.1,0-0.1,0-0.1-0.1c-0.1-0.9,0.2-1.8,0.9-2.4
			c0.2-0.1,0.2-0.4,0-0.6c-0.1-0.2-0.4-0.2-0.6,0c-0.9,0.7-1.3,1.9-1.2,3c0,0.1,0,0.1-0.1,0.1c-0.1,0-0.1,0-0.1-0.1
			c0-0.3,0-0.6,0-0.9C5.1,287,4.7,286.8,4.2,286.6L4.2,286.6z"/>
	</g>
	<g id="Pepper" transform="translate(0,-284.29999)" class="st0">
		<path class="st3" d="M7.4,296.1c1-2,1.5-4.3,1.3-6.6c-0.1-1.3-1.2-2.2-2.5-2.1c-1.1,0.1-1.9,1-2,2.1c-0.2,2.3,0.2,4.6,1.3,6.6
			c0.3,0.6,1,0.8,1.6,0.5C7.1,296.5,7.3,296.3,7.4,296.1z"/>
		<path class="st3" d="M7.6,296c1-2,1.4-4.3,1.2-6.6c-0.1-0.7-0.5-1.4-1.1-1.8c1.1-0.5,2.5,0,3,1.1c0.1,0.2,0.2,0.5,0.2,0.7
			c0.2,2.3-0.2,4.6-1.3,6.6c-0.3,0.6-1,0.8-1.6,0.5C8,296.5,7.8,296.3,7.6,296C7.7,296,7.7,296,7.6,296L7.6,296z"/>
		<path class="st3" d="M5.1,296C5,296,5,296,5.1,296c-0.3,0.6-1,0.9-1.6,0.6c-0.2-0.1-0.4-0.3-0.5-0.5c-1-2-1.5-4.3-1.3-6.6
			c0.1-1.3,1.2-2.2,2.5-2.1c0.3,0,0.5,0.1,0.7,0.2c-0.6,0.4-1,1.1-1.1,1.8C3.6,291.7,4,294,5.1,296L5.1,296z"/>
		<path class="st2" d="M6.9,287.2c-0.4-0.1-0.9-0.1-1.3,0c0.1-0.7,0.4-1.4,0.9-2c0.2-0.3,0.6-0.3,0.9-0.1c0.3,0.2,0.3,0.6,0.1,0.9
			C7.2,286.4,7,286.8,6.9,287.2z"/>
	</g>
	<g id="Beetroot" transform="translate(0,-284.29999)" class="st0">
		<g transform="matrix(1.0003834,0,0,1.0003834,2162.4098,-145.93264)" class="st4">
			<path class="st5" d="M-2158.3,435.6c-0.3,0.2-0.6,0.5-0.8,0.9h2.7c0.1,0,0.1,0.1,0.1,0.1c0,0.1-0.1,0.1-0.1,0.1h-2.8
				c-0.6,1.3-0.2,2.8,0.9,3.6c0.6,0.5,1.3,0.8,2.1,0.9c0.2,0,0.4,0.2,0.5,0.4l0.3,0.7c0,0.1,0.1,0.1,0.2,0.1c0,0,0.1,0,0.1-0.1
				l0.3-0.7c0.1-0.2,0.3-0.3,0.5-0.4c0.8-0.1,1.5-0.4,2.1-0.9c0.3-0.2,0.6-0.6,0.8-0.9h-3.7c-0.1,0-0.1-0.1-0.1-0.1
				c0-0.1,0.1-0.1,0.1-0.1h3.9c0.6-1.3,0.2-2.8-1-3.6C-2154,434.3-2156.5,434.3-2158.3,435.6L-2158.3,435.6z"/>
			<path class="st6" d="M-2158.1,431.6c-0.1,0-0.1,0-0.1,0.1s0,0.1,0.1,0.1l0,0c1.4,0.1,2.6,1.2,2.7,2.6l0.3,0
				c0.3-0.8,1-1.3,1.9-1.3c0.1,0,0.1-0.1,0.1-0.1c0-0.1-0.1-0.1-0.1-0.1c-0.8,0-1.5,0.4-1.9,1.1v-3c0-0.1-0.1-0.1-0.1-0.1
				c-0.1,0-0.1,0.1-0.1,0.1v2.5C-2155.8,432.4-2156.9,431.6-2158.1,431.6L-2158.1,431.6z"/>
		</g>
	</g>
	<g id="Cabbage" transform="translate(0,-284.29999)" class="st0">
		<path class="st2" d="M4.7,295.6c-0.1,0.2-0.1,0.5,0,0.8c-0.5-0.2-0.9-0.4-1.4-0.6C3.8,295.7,4.2,295.7,4.7,295.6L4.7,295.6z"/>
		<path class="st7" d="M7.8,296.7c0.1,0,0.1,0,0.2,0c0,0,0.1,0,0.1,0c0.7-0.2,1.4-0.6,1.9-1.2c0.2-0.7,0-1.5-0.5-2.1
			c0,0,0-0.1,0-0.1c0,0,0.1,0,0.1,0c0,0,0,0,0,0c0.4,0.6,0.6,1.3,0.5,2c0.6-0.7,1.1-1.6,1.2-2.5c-0.4-0.5-0.7-1.2-0.7-1.8
			c0,0,0-0.1,0.1-0.1c0,0,0.1,0,0.1,0.1c0,0,0,0,0,0c0.1,0.6,0.3,1.1,0.6,1.6c0-0.3,0-0.5,0-0.8c0-1-0.3-2-0.8-2.8
			c-0.3-0.5-0.2-1.1,0.1-1.6c0,0,0,0,0,0c0,0,0,0,0,0c-0.1,0-0.3,0-0.4,0.1L9.9,288c-0.1,0.1-0.2,0.3-0.1,0.5
			c0.1,0.2,0.1,0.4,0.2,0.6c0,0.2-0.1,0.4-0.3,0.4c-0.1,0-0.2,0-0.3,0.1c0,0,0,0.1,0,0.1c0,0,0,0,0,0c0.3,0.3,0.5,0.7,0.6,1.1
			c0.1,0.2,0,0.4-0.2,0.5c0,0,0,0-0.1,0c0,0-0.1,0-0.1,0c-0.1,0-0.1,0.1-0.1,0.2c0,0.3,0,0.5,0.1,0.8c0.1,0.4-0.1,0.8-0.5,0.9
			c-0.1,0-0.2,0-0.3,0c-0.6-0.1-1.1,0.1-1.6,0.4c0,0.1-0.1,0.1-0.1,0.2c-0.4,0.8-1.1,1.4-1.9,1.7c-0.3,0.1-0.4,0.4-0.3,0.7
			c0.1,0.2,0.2,0.3,0.4,0.3c0.8,0.2,1.6,0.3,2.4,0.2c0.2-0.4,0.3-0.7,0.4-1.1c-0.3-0.3-0.5-0.6-0.6-1c0,0,0-0.1,0.1-0.1
			c0,0,0.1,0,0.1,0.1c0,0,0,0,0,0c0,0.3,0.2,0.7,0.5,0.9c0.1-0.4,0.1-0.7,0.1-1.1c0,0,0-0.1,0.1-0.1c0,0,0.1,0,0.1,0.1
			C8.3,295.1,8.1,295.9,7.8,296.7L7.8,296.7z"/>
		<path class="st2" d="M7.2,293.2c0.3-0.6,0.4-1.3,0.4-2c0-0.2,0-0.4-0.1-0.5c-0.2-0.4-0.4-0.7-0.6-1c-0.1-0.1-0.1-0.3,0-0.4
			c0,0,0.1-0.1,0.1-0.1c0.2,0,0.4-0.1,0.5-0.2c0.3-0.2,0.4-0.7,0.2-1.1c-0.2-0.3-0.5-0.6-0.9-0.9c-0.1,0-0.1-0.1-0.1-0.2
			c1.1,0.1,2.1,0.5,2.9,1.1c-0.1,0.2-0.1,0.3,0,0.5c0.1,0.2,0.1,0.4,0.1,0.6c0,0.1-0.1,0.2-0.2,0.2c-0.1,0-0.2,0.1-0.3,0.1
			c-0.1,0.1-0.2,0.2-0.1,0.3c0,0,0,0,0,0.1c0.3,0.3,0.5,0.6,0.6,1c0,0.1,0,0.2-0.1,0.3c0,0,0,0,0,0c0,0-0.1,0-0.1,0
			c-0.1,0-0.3,0.2-0.3,0.3c0,0.3,0,0.6,0.1,0.8c0.1,0.3-0.1,0.6-0.4,0.7c-0.1,0-0.2,0-0.2,0C8.2,292.9,7.7,293,7.2,293.2L7.2,293.2z
			"/>
		<path class="st7" d="M3.2,292.1c-0.1,0.6,0.1,1.1,0.5,1.5c0,0,0,0.1,0,0.1c0,0-0.1,0-0.1,0c-0.5-0.5-0.7-1.1-0.6-1.7
			c-0.1,0-0.3,0-0.4,0.1c-0.3,0.2-0.6,0.5-0.9,0.8c0,0.4,0,0.8,0,1.2c0.3,0.6,0.7,1,1.2,1.4c0,0,0,0,0.1,0.1
			c1.5,0.2,3.1-0.5,3.9-1.9c0.4-0.7,0.6-1.6,0.6-2.4c0-0.2,0-0.3-0.1-0.5c-0.1-0.3-0.3-0.7-0.6-0.9c-0.2-0.2-0.1-0.4,0-0.6
			c0.1-0.1,0.1-0.1,0.2-0.1c0.2,0,0.3-0.1,0.5-0.2c0.3-0.2,0.3-0.6,0.2-0.8c-0.2-0.3-0.5-0.6-0.8-0.8c-0.2-0.1-0.2-0.4-0.1-0.6
			c0,0,0,0,0-0.1c0.1-0.2,0.1-0.4,0-0.5c-0.1-0.1-0.2-0.1-0.4-0.1c-0.1,0-0.2,0-0.2-0.1c0,0,0-0.1,0-0.1c0.1-0.3,0-0.6-0.3-0.7
			c-0.1,0-0.1,0-0.2,0c0,0,0,0,0,0c-0.2,0.6-0.7,1.2-1.3,1.5c-1.9,0.9-3.2,2.8-3.2,5c0,0.7,0.1,1.4,0.4,2.1
			c-0.1-2.5,1.1-4.8,3.2-6.2c0,0,0.1,0,0.1,0c0,0,0,0.1,0,0.1c-1.1,0.8-2,1.9-2.5,3.1c0.4,0,0.7,0,1.1-0.2c0.1-0.1,0.2-0.1,0.3-0.2
			c0.3-0.2,0.6-0.4,0.9-0.6c0,0,0.1,0,0.1,0c0,0,0,0.1,0,0.1c-0.2,0.1-0.5,0.2-0.7,0.4c0.1,0,0.3,0.1,0.4,0.2c0,0,0,0.1,0,0.1
			c0,0-0.1,0-0.1,0c0,0,0,0,0,0c-0.1-0.1-0.3-0.2-0.5-0.2c-0.1,0.1-0.2,0.2-0.4,0.2c-0.4,0.2-0.8,0.2-1.2,0.2
			c-0.2,0.6-0.4,1.1-0.4,1.7c0.2-0.2,0.5-0.5,0.8-0.6c0.2-0.1,0.5-0.1,0.7,0c0.3,0.2,0.7,0.4,1,0.5c0,0,0.1,0,0.1,0.1
			c0,0,0,0.1-0.1,0.1c0,0,0,0,0,0C3.9,292.5,3.5,292.3,3.2,292.1L3.2,292.1z"/>
	</g>
	<g id="Carrot" transform="translate(0,-284.29999)">
		<path class="st6" d="M9.5,288.5l1.9-1.5l0.8,1.2l-2.3,1.1C9.8,289,9.6,288.7,9.5,288.5z"/>
		<path class="st6" d="M9.4,288.3c-0.1-0.2-0.3-0.3-0.5-0.5l2.1-2.6l1,1L9.4,288.3z"/>
		<path class="st6" d="M8.8,287.7c-0.2-0.2-0.5-0.3-0.8-0.4l1.1-2.3l1.2,0.8L8.8,287.7z"/>
		<path class="st8" d="M0.6,295.6c0.4-1,0.8-2,1.3-2.9L3,294c0,0,0.1,0,0.1,0s0-0.1,0-0.1l0,0L2,292.5c0.4-0.7,0.8-1.3,1.3-1.9
			l1.3,1.5c0,0,0.1,0,0.1,0c0,0,0-0.1,0-0.1l-1.3-1.6c0.3-0.4,0.6-0.7,0.9-1.1l0.9,1c0,0,0.1,0,0.1,0c0,0,0-0.1,0-0.1l-0.9-1.1
			c0.3-0.4,0.6-0.7,1-1c1-1,2.7-1,3.7,0.1c1,1,1,2.6,0,3.7c-0.1,0.1-0.3,0.3-0.4,0.4l-1.7-1.4c0,0-0.1,0-0.1,0c0,0,0,0.1,0,0.1
			l1.7,1.4c-0.4,0.4-0.9,0.8-1.3,1.2L6,292.7c0,0-0.1,0-0.1,0c0,0,0,0.1,0,0.1l1.1,0.9c-0.3,0.3-0.7,0.5-1.1,0.8l-1.4-1.2
			c0,0-0.1,0-0.1,0c0,0,0,0.1,0,0.1l1.4,1.1c-0.9,0.6-1.8,1.1-2.8,1.5l-0.7-0.5c0,0-0.1,0-0.1,0c0,0,0,0.1,0,0.1l0.6,0.5
			c-0.4,0.2-0.8,0.3-1.2,0.5c-0.4,0.1-0.9-0.1-1-0.5C0.5,296,0.5,295.8,0.6,295.6L0.6,295.6z"/>
	</g>
	<g id="Eggplant" transform="translate(0,-284.29999)" class="st0">
		<path class="st2" d="M9.8,288.9c0.3,0.5,0.8,0.8,1.4,0.8c0,0,0,0,0,0c0.3-1.5-0.7-3-2.2-3.2c-1.2-0.2-2.4,0.4-3,1.5c0,0,0,0,0,0
			c0.4,0.3,1,0.4,1.5,0.2c0.1,0,0.2,0,0.2,0.1c0,0,0,0,0,0c0,0.5,0.2,0.9,0.5,1.3c0.1,0.1,0.1,0.1,0.2,0.1c0.5-0.1,0.9-0.4,1.2-0.8
			C9.6,288.8,9.7,288.8,9.8,288.9C9.8,288.8,9.8,288.8,9.8,288.9L9.8,288.9z"/>
		<path class="st9" d="M8,289.6c0.1,0.1,0.3,0.2,0.4,0.1c0.5-0.1,0.9-0.4,1.2-0.8c0.2,0.3,0.5,0.6,0.9,0.7c-0.7,3.3-3.1,5.9-6.3,6.9
			c-1.4,0.4-2.9-0.3-3.4-1.8s0.3-3,1.8-3.4c0,0,0.1,0,0.1,0c1.6-0.4,2.9-1.5,3.7-3c0.4,0.1,0.7,0.1,1.1,0
			C7.5,288.8,7.7,289.2,8,289.6L8,289.6z"/>
		<path class="st7" d="M11.9,285.3c0,0,0.1,0,0.1-0.1c0,0,0-0.1-0.1-0.1c-0.9-0.3-1.8,0.1-2.1,1c0,0.1-0.1,0.2-0.1,0.3l0.2,0.1
			c0.1-0.8,0.8-1.4,1.6-1.3C11.7,285.3,11.8,285.3,11.9,285.3L11.9,285.3z"/>
	</g>
	<g id="Lettuce" transform="translate(0,-284.29999)" class="st0">
		<path class="st2" d="M5.7,296.5c-1.2-0.4-2.1-1.3-2.6-2.4c0,0-0.1-0.1-0.1-0.1c-0.6,0-1.1-0.4-1.1-1c0-0.1,0-0.2,0-0.4
			c0,0,0-0.1,0-0.1c-0.7-0.4-1-1.3-0.6-2.1c0.1-0.2,0.2-0.3,0.4-0.4c0,0,0.1-0.1,0-0.2c0,0,0,0,0,0c-0.6-0.7-0.5-1.6,0.1-2.2
			c0,0,0.1-0.1,0.1-0.1c0,0,0.1-0.1,0-0.1c0,0,0,0,0,0c-0.4-0.4-0.3-1.1,0.1-1.5c0.3-0.3,0.8-0.3,1.2-0.1c0.1,0,0.1,0,0.1,0
			c0,0,0,0,0,0c0.1-0.5,0.6-0.8,1-0.7c0.4,0.1,0.7,0.5,0.7,0.9c-0.6,0.3-0.9,0.9-0.8,1.5c-0.9,0.1-1.5,0.9-1.4,1.7
			c0,0.2,0.1,0.4,0.2,0.6c-0.5,0.5-0.6,1.2-0.1,1.7c0.1,0.1,0.3,0.2,0.4,0.3C3.5,293.6,4.3,295.4,5.7,296.5L5.7,296.5z"/>
		<path class="st7" d="M6.9,288.8c0.6-0.1,1.3,0,1.8,0.3c0,0,0.1,0.1,0,0.1c0,0-0.1,0.1-0.1,0c0,0,0,0,0,0c-0.6-0.3-1.2-0.4-1.9-0.2
			c-0.4,0.8-0.7,1.7-0.8,2.6c0.4-0.3,0.8-0.4,1.2-0.4c0,0,0.1,0,0.1,0.1c0,0,0,0.1-0.1,0.1c-0.5,0-0.9,0.1-1.3,0.5
			c-0.2,1.7,0.1,3.3,0.9,4.8c0.4-0.2,0.6-0.7,0.4-1.1c0,0,0,0,0-0.1c-0.6-1.1-0.2-2.5,0.9-3.1c0.3-0.2,0.7-0.3,1.1-0.3h1.1
			c0,0,0.1,0,0.1-0.1c0,0,0,0,0,0c0-0.5-0.3-0.9-0.7-1.1c-0.1,0-0.1-0.1-0.1-0.1c0,0,0.1-0.1,0.1-0.1c1,0,1.8-0.7,1.8-1.7
			c0-0.8-0.5-1.5-1.2-1.7c0,0-0.1-0.1-0.1-0.1c0-0.7-0.6-1.2-1.2-1.2c-0.1,0-0.1-0.1-0.1-0.1c0,0,0,0,0,0c0-0.4-0.3-0.8-0.7-0.9
			c-0.3,0-0.5,0.1-0.7,0.3c0,0-0.1,0-0.2,0c0,0,0,0,0,0c-0.3-0.3-0.9-0.3-1.2,0c-0.1,0.2-0.2,0.3-0.3,0.6c0,0.1,0,0.1-0.1,0.1
			c-0.7,0.1-1.2,0.8-1.1,1.5c0,0,0,0,0,0c0,0.1,0,0.1-0.1,0.1c0,0,0,0,0,0c-0.8,0.1-1.3,0.7-1.3,1.5c0,0.2,0.1,0.4,0.2,0.6
			c0,0,0,0.1,0,0.1c-0.5,0.4-0.5,1-0.1,1.5c0.1,0.1,0.3,0.2,0.4,0.3c0,0,0.1,0.1,0.1,0.1c-0.1,1.9,0.7,3.6,2.2,4.8
			c0.2,0.1,0.4,0.2,0.7,0.1c-0.5-0.9-0.8-1.8-0.9-2.7c-0.4-0.1-0.7-0.4-0.9-0.8c0,0,0-0.1,0-0.1s0.1,0,0.1,0c0,0,0,0,0,0
			c0.1,0.3,0.4,0.6,0.7,0.7c-0.1-1.2,0-2.4,0.3-3.5c-0.6-0.3-1-1-0.9-1.7c0,0,0-0.1,0.1-0.1c0,0,0.1,0,0.1,0.1c0,0,0,0,0,0
			c-0.1,0.6,0.2,1.2,0.7,1.5c0.1-0.4,0.3-0.8,0.5-1.2c0-0.1,0.1-0.2,0.1-0.2c0.6-0.7,1.5-1,2.4-0.8c0,0,0.1,0.1,0.1,0.1
			c0,0-0.1,0.1-0.1,0.1C8.3,287.8,7.5,288.1,6.9,288.8C6.9,288.7,6.9,288.7,6.9,288.8L6.9,288.8z"/>
	</g>
	<g id="Turmeric" transform="translate(0,-284.29999)" class="st0">
		<path class="st10" d="M5,286.2v-0.5c0-0.3,0.3-0.6,0.6-0.6c0.3,0,0.6,0.3,0.6,0.6v0.5C5.8,286,5.4,286,5,286.2z"/>
		<path class="st10" d="M3.1,290.3c-0.1,0-0.2,0-0.3-0.1c-0.4-0.1-0.6-0.4-0.5-0.8c0.1-0.3,0.3-0.5,0.6-0.5c0.1,0,0.3,0,0.4,0
			C3.4,289.4,3.3,289.9,3.1,290.3L3.1,290.3z"/>
		<path class="st10" d="M8.7,290.4c-0.5-0.4-0.9-1-0.9-1.6c0.2-0.1,0.4-0.3,0.6-0.4c0.1,0.6,0.6,1.2,1.2,1.4
			C9.3,290,9,290.2,8.7,290.4z"/>
		<path class="st10" d="M8.6,288.2c0.2-0.1,0.3-0.3,0.4-0.4c0.3-0.3,0.9-0.3,1.2,0c0.3,0.3,0.3,0.7,0.1,1.1
			c-0.2,0.3-0.4,0.5-0.6,0.7C9.1,289.4,8.7,288.9,8.6,288.2z"/>
		<path class="st10" d="M8.2,292.1c0.2,0,0.4,0,0.6-0.1c0.4-0.1,0.7,0.2,0.8,0.5c0.1,0.4-0.1,0.7-0.5,0.8c-0.2,0.1-0.5,0.1-0.7,0.1
			C8.1,293.1,8,292.6,8.2,292.1L8.2,292.1z"/>
		<path class="st10" d="M5,286.3v1.1c0.3-0.3,0.7-0.4,1.2-0.4v-0.7C5.8,286.1,5.4,286.1,5,286.3z"/>
		<path class="st10" d="M7.2,295.5v-0.3c-0.8-0.3-1.6-0.3-2.4,0v0.3c0,0.7,0.5,1.2,1.2,1.2C6.7,296.7,7.2,296.1,7.2,295.5z"/>
		<path class="st10" d="M7.2,295.1c-0.8-0.3-1.6-0.3-2.4,0v-0.8c0.8-0.3,1.6-0.3,2.4,0V295.1z"/>
		<path class="st10" d="M3.5,292.6c-0.1,0.1-0.3,0.2-0.4,0.3c-0.3,0.2-0.5,0.6-0.3,0.9c0.2,0.3,0.6,0.5,0.9,0.3c0,0,0,0,0.1,0
			l0.4-0.3C4.2,293.3,3.9,292.8,3.5,292.6z"/>
		<path class="st10" d="M3.2,290.3c0.3-0.4,0.3-0.9,0.2-1.4c0.3-0.1,0.6-0.2,0.9-0.3c0.2,0.4,0.3,0.9,0.3,1.4
			C4.2,290.2,3.7,290.3,3.2,290.3L3.2,290.3z"/>
		<path class="st10" d="M8,292.1c-0.1,0.5-0.1,1,0.2,1.4c-0.3,0-0.6,0-0.8,0c-0.1,0-0.2,0-0.2,0.1c0,0,0,0,0,0v0.4
			c-0.8-0.3-1.6-0.3-2.4,0v-0.4c0-0.1-0.1-0.2-0.2-0.2c0,0-0.1,0-0.1,0l-0.2,0.1c0-0.5-0.3-0.9-0.7-1.2c0.3-0.2,0.6-0.5,0.8-0.8
			c0.5-1,0.5-2.1,0.1-3.1c0.1,0,0.2-0.1,0.2-0.2c0.8-0.4,1.8-0.2,2.5,0.5c0.1,0.1,0.2,0.1,0.3,0.1c0.1,0,0.1-0.1,0.2-0.1
			c0,0.6,0.3,1.2,0.9,1.6c-0.3,0.1-0.7,0.2-1,0.3c-0.3,0-0.5,0.3-0.5,0.5c0,0.1,0,0.2,0,0.3c0,0.3,0.3,0.5,0.6,0.5
			C7.7,292.1,7.9,292.1,8,292.1L8,292.1z"/>
		<path class="st10" d="M4.7,288.2c0.9-0.4,1.9-0.2,2.5,0.5c0-0.6-0.3-1.1-0.8-1.4c0,0-0.1,0-0.1,0C5.6,287.1,4.9,287.5,4.7,288.2
			L4.7,288.2z"/>
	</g>
	<g id="Beans" transform="translate(0,-284.29999)" class="st0">
		<path class="st2" d="M4,294.6c0.5-0.7,1-1.3,1.6-2c0.2-0.7,0.3-1.4,0.4-2.2c-0.5,0.4-0.9,0.8-1.4,1.1C4.4,292.6,4.2,293.6,4,294.6
			L4,294.6z"/>
		<path class="st2" d="M2.6,293.1c-0.4,0.2-0.9,0.4-1.4,0.4c-0.2,0.5-0.4,0.9-0.6,1.4c-0.1,0.1,0,0.3,0.1,0.3c0.1,0,0.1,0,0.2,0
			c0.6-0.3,1.1-0.8,1.4-1.4C2.3,293.6,2.5,293.3,2.6,293.1z"/>
		<path class="st2" d="M3.8,294.8c0,0-0.1,0.1-0.1,0.1c-0.2-0.1-0.5-0.2-0.7-0.3c-0.1-0.1-0.1-0.2-0.1-0.3c0-0.1,0.1-0.1,0.2-0.1
			c0.3,0,0.6-0.1,0.8-0.1c0,0.2-0.1,0.4-0.1,0.6C3.8,294.8,3.8,294.8,3.8,294.8L3.8,294.8z"/>
		<path class="st7" d="M5.6,286.5c0.1-0.2,0.1-0.4,0-0.7c0,0,0-0.1,0-0.1c0,0,0.1,0,0.1,0c0,0,0,0,0,0c0.1,0.2,0.1,0.5,0,0.7
			L5.6,286.5z"/>
		<path class="st2" d="M6.3,288.3c-0.4,0.3-0.9,0.7-1.3,1c0.1-0.9,0.3-1.7,0.4-2.6c0-0.1,0.1-0.2,0.2-0.2l0.2,0
			c0.1,0,0.1,0.1,0.1,0.1C6.2,287.2,6.3,287.8,6.3,288.3z"/>
		<path class="st2" d="M3.8,287.2c-0.1,0-0.2,0.1-0.3,0.2c-0.6,1.5-1.2,3-1.8,4.5c0.6-0.5,1.2-0.9,1.8-1.4l0,0
			c0.1-0.4,0.3-0.7,0.4-1.1c0.2-0.6,0.2-1.3,0.1-1.9c0-0.1-0.1-0.1-0.1-0.2L3.8,287.2z"/>
		<path class="st7" d="M4,287.2c0.1-0.2,0.2-0.4,0.2-0.7c0,0,0-0.1-0.1-0.1c0,0-0.1,0-0.1,0.1c0,0,0,0,0,0c0,0.2,0,0.4-0.2,0.6
			L4,287.2z"/>
		<path class="st2" d="M11.3,292.9l0.1,0.2c0,0.1,0,0.2-0.1,0.2c-0.5,0.5-1,0.8-1.7,1c-1.3,0.3-2.7,0.6-4.1,0.7
			c0.4-0.5,0.7-0.9,1.1-1.4c1.5-0.2,2.9-0.5,4.4-0.8C11.2,292.9,11.2,292.9,11.3,292.9L11.3,292.9z"/>
		<path class="st7" d="M12.2,292.8c0,0,0,0.1,0,0.1c-0.2,0.1-0.4,0.2-0.7,0.2l-0.1-0.2c0.2,0,0.5,0,0.7-0.2c0,0,0,0,0,0
			C12.1,292.7,12.1,292.7,12.2,292.8z"/>
		<path class="st2" d="M8.8,289.2c0,0,0.1,0.1,0.1,0.2c0,0.7-0.2,1.3-0.6,1.9c-0.9,1.3-1.9,2.6-2.9,3.8c-0.4,0.5-1,0.8-1.7,0.9
			c-0.1,0-0.1,0-0.2,0c-0.1-0.1-0.1-0.2,0-0.3c1.7-2.1,3.4-4.2,5-6.4c0.1-0.1,0.2-0.1,0.3-0.1L8.8,289.2z"/>
		<path class="st7" d="M8.8,289.2l-0.1-0.1c0.2-0.1,0.3-0.3,0.3-0.5c0,0,0,0,0,0c0,0,0-0.1,0.1-0.1c0,0,0.1,0,0.1,0.1
			C9.1,288.8,9,289,8.8,289.2z"/>
		<path class="st2" d="M7.5,288c0,0.1,0,0.1,0,0.2c-0.2,0.6-0.5,1.2-1,1.7c-1.2,1.1-2.5,2-3.8,3c-0.5,0.4-1.2,0.6-1.9,0.5
			c-0.1,0-0.1,0-0.2-0.1c-0.1-0.1,0-0.2,0-0.3c2.2-1.6,4.3-3.3,6.4-5c0.1-0.1,0.2-0.1,0.3,0L7.5,288z"/>
		<path class="st7" d="M8,287.4c-0.1,0.2-0.3,0.4-0.5,0.5l-0.1-0.1c0.2-0.1,0.4-0.2,0.5-0.5c0,0,0.1-0.1,0.1,0
			C8,287.3,8,287.4,8,287.4z"/>
	</g>
	<g id="Cucumber" transform="translate(0,-284.29999)" class="st0">
		<path class="st2" d="M1.6,296.1c4.5-1.2,8.2-4.6,9.7-9c-0.2-0.2-0.4-0.4-0.7-0.6c-1.4,4.4-5,7.7-9.5,8.8
			C1.2,295.7,1.4,295.9,1.6,296.1z"/>
		<path class="st2" d="M9.5,286.4c-1.3,3.9-4.5,6.9-8.5,7.9c-0.1,0.3,0,0.6,0,0.9c4.4-1.1,8-4.4,9.4-8.7
			C10.1,286.4,9.8,286.3,9.5,286.4L9.5,286.4z"/>
		<path class="st2" d="M1,294.1c0.2-0.6,0.6-1.1,1.2-1.3c2.5-1,4.5-2.9,5.7-5.3c0.3-0.6,0.8-1,1.4-1.1C8,290.2,4.9,293.1,1,294.1
			L1,294.1z"/>
		<path class="st2" d="M1.8,296.3c4.5-1.2,8.1-4.6,9.7-9c0.4,0.6,0.4,1.4,0.1,2c-1.6,3.3-4.4,5.8-7.8,7.2
			C3.1,296.8,2.3,296.7,1.8,296.3L1.8,296.3z"/>
		<path class="st7" d="M10.8,286.4c0.3-0.4,0.4-0.8,0.3-1.3c0-0.1-0.1-0.1-0.1-0.1c-0.1,0-0.1,0.1-0.1,0.1c0.1,0.4,0,0.8-0.3,1.2
			L10.8,286.4z"/>
	</g>
	<g id="Mushroom" transform="translate(0,-284.29999)" class="st0">
		<path class="st11" d="M11,289.7c-0.4-1.6-1.3-3.1-2.7-4.1c-1.2-0.8-2.8-0.8-3.9,0c-1.4,1-2.3,2.4-2.7,4.1
			c-0.2,0.8,0.3,1.6,1.1,1.8c0,0,0,0,0,0c2.3,0.5,4.7,0.5,7,0C10.7,291.4,11.2,290.6,11,289.7C11,289.8,11,289.8,11,289.7z"/>
		<path class="st10" d="M7.8,292.1c-0.1,0.8,0.1,1.6,0.6,2.2c0.5,0.7,0.3,1.6-0.3,2.1c-0.7,0.5-1.6,0.4-2.1-0.3
			c-0.9-1.2-1.3-2.6-1.2-4C5.9,292.1,6.9,292.1,7.8,292.1L7.8,292.1z"/>
	</g>
	<g id="Pumpkin" transform="translate(0,-284.29999)" class="st0">
		<path class="st3" d="M4,296.1c-0.2-0.1-0.4-0.3-0.6-0.5c-1.7-2.1-1.7-5,0-7.1c0.2-0.2,0.4-0.4,0.6-0.5c-0.6-0.1-1.2,0.1-1.7,0.4
			c-2,1.6-2.3,4.4-0.7,6.4c0.2,0.3,0.5,0.5,0.7,0.7C2.8,296.1,3.4,296.2,4,296.1L4,296.1z"/>
		<path class="st3" d="M7.2,288.6c-0.2-0.4-0.8-0.6-1.2-0.4c-0.2,0.1-0.3,0.2-0.4,0.4c-1.1,2.2-1.1,4.8,0,7.1
			c0.2,0.4,0.8,0.6,1.2,0.4c0.2-0.1,0.3-0.2,0.4-0.4C8.2,293.4,8.2,290.8,7.2,288.6z"/>
		<path class="st12" d="M5.4,295.7c0,0.1,0.1,0.1,0.1,0.2c-0.7,0.3-1.5,0.2-2-0.4c-1.6-2-1.6-4.9,0-6.8c0.5-0.6,1.3-0.8,2-0.4
			c0,0.1-0.1,0.1-0.1,0.2C4.3,290.8,4.3,293.5,5.4,295.7z"/>
		<path class="st12" d="M7.2,295.9c0-0.1,0.1-0.1,0.1-0.2c1.1-2.3,1.1-5,0-7.2c0-0.1-0.1-0.1-0.1-0.2c0.7-0.3,1.5-0.2,2,0.4
			c1.6,2,1.6,4.9,0,6.8C8.7,296.1,7.9,296.3,7.2,295.9z"/>
		<path class="st3" d="M8.7,296.1c0.6,0.1,1.2-0.1,1.7-0.4c2-1.6,2.3-4.4,0.7-6.4c-0.2-0.3-0.5-0.5-0.7-0.7
			c-0.5-0.4-1.1-0.5-1.7-0.4c0.2,0.1,0.4,0.3,0.6,0.5c1.7,2.1,1.7,5,0,7.1C9.1,295.9,8.9,296,8.7,296.1L8.7,296.1z"/>
		<path class="st2" d="M6.4,286.4c0.1,0.3,0.4,0.5,0.8,0.5c0.3-0.1,0.5-0.4,0.5-0.8c-0.1-0.2-0.2-0.4-0.5-0.5
			c-0.7-0.1-1.3,0.3-1.6,0.9c-0.1,0-0.2-0.1-0.2-0.1c-0.1,0-0.1,0-0.1,0.1c0,0.1,0,0.1,0.1,0.1c0.6,0.2,1,0.7,1,1.3l0.2,0
			c0-0.6-0.3-1.1-0.8-1.3c0.2-0.5,0.8-0.9,1.4-0.8c0.2,0.1,0.4,0.3,0.3,0.5c-0.1,0.2-0.3,0.4-0.5,0.3c-0.2,0-0.3-0.2-0.3-0.3
			c0-0.1-0.1-0.1-0.1-0.1C6.4,286.3,6.4,286.3,6.4,286.4L6.4,286.4z"/>
	</g>
</g>
<g id="Colors" class="st0">
	<rect x="12.9" y="0" class="st1" width="1.1" height="1.1"/>
	<rect x="12.9" y="1.4" class="st2" width="1.1" height="1.1"/>
	<rect x="12.9" y="2.7" class="st7" width="1.1" height="1.1"/>
	<rect x="12.9" y="4" class="st9" width="1.1" height="1.1"/>
	<rect x="12.9" y="5.3" class="st3" width="1.1" height="1.1"/>
	<rect x="12.9" y="6.7" class="st12" width="1.1" height="1.1"/>
	<rect x="12.9" y="8" class="st11" width="1.1" height="1.1"/>
	<rect x="12.9" y="9.3" class="st10" width="1.1" height="1.1"/>
</g>
</svg>
