<?xml version="1.0" encoding="utf-8"?>
<!-- Generator: Adobe Illustrator 24.0.0, SVG Export Plug-In . SVG Version: 6.00 Build 0)  -->
<svg version="1.1" id="Layer_1" xmlns="http://www.w3.org/2000/svg" xmlns:xlink="http://www.w3.org/1999/xlink" x="0px" y="0px"
	 viewBox="0 0 1200 1200" style="enable-background:new 0 0 1200 1200;" xml:space="preserve">
<style type="text/css">
	.st0{display:none;}
	.st1{display:inline;}
	.st2{fill:#08544D;}
	.st3{fill:#68C63C;}
	.st4{display:inline;fill:#08544D;}
	.st5{fill:#FFFFFF;}
	.st6{display:none;fill:#08544D;}
</style>
<g class="st0">
	<g class="st1">
		<path class="st2" d="M3926.4,1923.9h0.8c0,0,9,10.6,24.3,10.6c11.2,0,15-5.9,15-12.1c0-18-41-15.7-41-40.7
			c0-15.1,14.2-23.4,28.6-23.4c6.2,0,22.7,2.3,22.7,8.7c0,2.9-1.8,6.6-4.5,9.3h-0.8c0,0-7.7-11.8-19.9-11.8
			c-7.8,0-13.4,5.5-13.4,12.8c0,17.8,41,13.9,41,40.2c0,15.9-15,24.2-29.4,24.2c-9.7,0-26.3-3.9-26.3-11.1
			C3923.7,1928.5,3925.4,1925.7,3926.4,1923.9z"/>
		<path class="st2" d="M4033.4,1908.3c0-6.9-0.5-30.8-0.7-36.3c-0.6-11.1-1.1-12-1.1-12h21c17.5,0,25.2-1.1,25.2-1.1
			c-0.7,5.6-1,9.5-9.3,9.5c-13.6,0-21.7-1.8-21.7-1.8c0,4.7-0.1,16.8-0.2,28.1h17.6c4.7,0,6.7-1.1,6.7-1.1c-0.2,5.4-0.9,8.5-6.9,8.5
			c-5.9,0-17.6-0.7-17.6-0.7v11.9c0,6.2,0.3,12.3,0.5,19.3l20.9-0.6c7.4-0.2,12.5-1,15.3-2.5c0.1,1.3,0.1,2.3,0.1,3.2
			c0,7.3-2.5,8-10.9,8l-40.3-0.6C4032.2,1940,4033.4,1936.8,4033.4,1908.3z"/>
		<path class="st2" d="M4134.1,1908.3c0-6.9-0.5-30.8-0.7-36.3c-0.6-11.1-1.1-12-1.1-12c1.4-0.5,4.2-0.9,6.6-0.9
			c3.9,0,7.8,0.3,8.8,2.2c1.4,2.6,3.1,5.5,4.8,8.6l14.6,25.8c2.6,4.7,4.6,8.6,5.4,10.7h0.6c2.4-6.5,13.6-26.7,21-41.1
			c2.3-4.5,4.7-6.2,8.8-6.2c1.8,0,4.1,0,7,0.6c0,9.9-0.1,25.6-0.1,35.2c0,15,0,29.9,1.9,45.1c-2.9,0.5-5.3,1.1-7.7,1.1
			c-4,0-7.4-1.6-7.4-7.8v-58.3l-0.5-0.3c-0.7,1.8-2.7,5.5-5.3,10.3l-11.5,22c-3.3,6.3-7,18.3-7,18.3h-1.8c-1,0-2.1-0.1-2.4-0.8
			c-2.6-6.1-6.5-12.8-10.2-19.1l-9.5-16.4c-3.3-5.7-6.1-10.5-7.4-13.7l-0.5,0.5c0,17.8,1,38.7,1,57.5c0,6.2-0.2,7.8-4.2,7.8
			c-2.4,0-5-1.1-5-1.1S4134.1,1936.8,4134.1,1908.3z"/>
		<path class="st2" d="M4268.3,1908.3c0-6.9-0.5-30.8-0.7-36.3c-0.6-11.1-1.1-12.2-1.1-12.2s4.5,0.2,9.1,0.2h14.2
			c19.3,0,26.8,8.8,26.8,18.5c0,6.3-3.7,13.8-10.7,18.5v0.6c9.7,2.4,18.3,8.7,18.3,19.5c0,13.4-10.1,24.2-26.7,24.2
			c-8.1,0-11.7-1.4-30.4-1.4C4267.1,1940,4268.3,1936.8,4268.3,1908.3z M4293.9,1934.7c13.7,0,15.5-8.5,15.5-16
			c0-15.1-13.6-18.6-28-19c0,1.4-0.1,2.7-0.1,4.2c0,2.7,0.1,5.6,0.1,8.7c0,5,0.2,10.6,0.3,16.2
			C4281.9,1933.6,4289.3,1934.7,4293.9,1934.7z M4301,1896.2c2.4-4.2,3.8-8.9,3.8-13.3c0-9.1-3.8-16.9-19.4-16.9h-2.3
			c-0.7,0-1.3,0.1-1.3,0.1c0,9-0.2,18-0.3,28.3C4288,1894.6,4294.8,1895,4301,1896.2z"/>
		<path class="st2" d="M4376.5,1908.3c0-9.5-0.2-29-0.6-36.3c-0.6-11.1-1.1-12.2-1.1-12.2s4.5,0.2,9.1,0.2h14.2
			c19.8,0,29.6,9.1,29.6,20.6c0,20.2-18.5,23-18.5,23v0.6c0,0,19.3,28.8,28.9,34.3v0.8c0,0-6.7,1.5-10.1,1.5
			c-18,0-26.8-34.5-36.8-37.4l-1.6-0.5c0,2.7,0.6,17.9,0.6,30.5c0,6.2-3.4,7.8-7.4,7.8c-2.4,0-4.9-0.7-7.8-1.1
			C4375,1940,4376.5,1936.8,4376.5,1908.3z M4399.5,1898.6c8.1,0,14.7-4.1,14.7-15.6c0-9.1-5.4-16.9-20.6-16.9h-3.5
			c-0.3,9.6-0.5,22.8-0.5,31.3C4393,1898.5,4396.3,1898.6,4399.5,1898.6z"/>
		<path class="st2" d="M4474.5,1939.4c0,0,3.2-2.4,7.4-14.3l23.9-66.6c0,0,11.7,0.5,15.6,13.8c4.3,14.4,14.5,45.1,20.2,57.8
			c3.2,7.2,3.9,8.6,5.3,9.3v0.6c0,0-4.3,1.1-8.3,1.1c-5,0-9.1-1.9-10.5-6.9c-1.5-5.1-3.7-12.6-6.4-20.9c-3.5-0.1-7.5-0.2-11.4-0.2
			c-5.8,0-11.7,0.2-16.5,0.5c-6.9,20.8-6.3,27.5-15.2,27.5c-1.9,0-4.1-1.1-4.1-1.1V1939.4z M4507.9,1907.5c4,0,8-0.1,11.8-0.2
			c-4.1-12.1-8.6-25-12.2-34.4h-0.6c-4.9,14.2-8.3,25.4-11.2,34.4C4499.3,1907.4,4503.5,1907.5,4507.9,1907.5z"/>
		<path class="st2" d="M4594.1,1908.3c0-6.9-0.5-30.8-0.7-36.3c-0.6-11.1-1.1-12-1.1-12c1.4-0.5,3.4-0.9,5.8-0.9
			c2.4,0,4.8,0.2,5.9,1.9c3.1,4.6,7.3,10.2,12.1,15.9l22.2,26.7c5.8,7.1,10.3,12.8,11.4,15.2l0.5-0.5c-0.5-9-0.3-34.6-0.9-46.4
			c-0.6-11.1-1.1-12.1-1.1-12.1s1.9-1,4.2-1c4.9,0,5.3,2.4,5.3,6.5c0,13.8-0.6,27.1-0.6,45c0,12.8,0.1,25.5,1,29.6
			c0,0-2.5,0.7-5.6,0.7c-1.7,0-3.9-0.8-5.4-3.1c-2.9-4.5-7.3-10.2-12.6-16.5l-22.6-27.1c-5.9-7.2-10.3-12.8-10.9-15l-0.5,0.5
			c0,17.8,1,35,1,53.7c0,6.2-0.2,7.8-4.2,7.8c-2.4,0-5-1.1-5-1.1S4594.1,1936.8,4594.1,1908.3z"/>
		<path class="st2" d="M4703.9,1939.4c0,0,3.2-2.4,7.4-14.3l23.9-66.6c0,0,11.7,0.5,15.6,13.8c4.3,14.4,14.5,45.1,20.2,57.8
			c3.2,7.2,3.9,8.6,5.3,9.3v0.6c0,0-4.3,1.1-8.3,1.1c-5,0-9.1-1.9-10.5-6.9c-1.5-5.1-3.7-12.6-6.4-20.9c-3.5-0.1-7.5-0.2-11.4-0.2
			c-5.8,0-11.7,0.2-16.5,0.5c-6.9,20.8-6.3,27.5-15.2,27.5c-1.9,0-4.1-1.1-4.1-1.1V1939.4z M4737.3,1907.5c4,0,8-0.1,11.8-0.2
			c-4.1-12.1-8.6-25-12.2-34.4h-0.6c-4.9,14.2-8.3,25.4-11.2,34.4C4728.7,1907.4,4732.9,1907.5,4737.3,1907.5z"/>
	</g>
	<g class="st1">
		<path class="st3" d="M4167.2,2053.3c3.5,1.6,7.4,2.6,11.7,2.6c4.5,0,11.9-1.8,13.7-10.1c0.5-2.3,0.5-6.9,0.5-8.8
			c-2.3,2.3-6.5,4.9-11.7,4.9c-9.1,0-17.1-5.8-17.1-19.2c0-11.9,10-20.1,21-20.1c5.6,0,10.8,1.3,13,2.4v35.9
			c0,16.9-12.9,19.6-19.3,19.6c-5.4,0-9.8-1.1-13.4-2.7L4167.2,2053.3z M4193.1,2032.2v-23.7c-2.6-1.1-5.9-1.3-8.1-1.3
			c-9.9,0-15.2,7.3-15.2,15.3c0,10.8,6.6,14.6,12.6,14.6C4186.9,2037.1,4190.9,2034.4,4193.1,2032.2z"/>
		<path class="st3" d="M4241,2041.5c-4.4-0.2-6.7-2.3-7.6-5.4c-3.4,3.2-8.3,5.6-13.3,5.6c-5.8,0-11.5-2.7-11.5-10.1
			c0-9.3,12.3-12.4,23.2-12.4h1.1c0-8.3-1.5-12.4-9-12.4c-4.1,0-8.5,1.6-10.8,3l-1.8-4.5c4.6-1.8,8.1-2.9,13.9-2.9
			c9.8,0,13,4.3,13,16.1v10.5c0,5.5,0.7,7.4,3.7,8.3L4241,2041.5z M4232.7,2023.6c-1.3-0.1-2.7-0.2-4-0.2c-8.5,0-14.7,2.3-14.7,8
			c0,4.7,4.1,5.9,7.2,5.9c4.9,0,9-2.8,11.5-5.5V2023.6z"/>
		<path class="st3" d="M4271.1,2008.1c-6.5,0.2-11.6,5.6-14.5,9.8v22.9h-5.2v-37.4h5.2v8.5c2.8-4,7.2-8.8,14.5-8.8V2008.1z"/>
		<path class="st3" d="M4303.8,2040.9v-4.1c-2.3,2.3-6.6,5-11.9,5c-9.1,0-17-5.8-17-19.2c0-11.9,10.1-20.1,20.8-20.1
			c3.5,0,6.2,0.7,8.2,1.4v-19.2h5.2v56.2H4303.8z M4303.8,2032.1v-22.9c-2.7-1.6-6.6-2-8.3-2c-9.9,0-15.2,7.3-15.2,15.3
			c0,10.8,6.6,14.6,12.5,14.6C4297.5,2037.1,4301.5,2034.3,4303.8,2032.1z"/>
		<path class="st3" d="M4351.4,2039.9c-3.4,1.2-6.9,1.8-11.9,1.8c-10.9,0-19.7-6-19.7-19.7c0-12.9,9.5-19.5,18.7-19.5
			c9.1,0,13.7,4.8,13.7,16.5c0,1.6-0.1,3-0.2,4.4h-26.8c0.5,9.3,7.3,14,15.1,14c3.5,0,6.6-0.5,9.5-1.7L4351.4,2039.9z
			 M4347.5,2019.4c0-9.3-3.8-12.6-9.1-12.6c-5.4,0-11.9,3.7-13,12.6H4347.5z"/>
		<path class="st3" d="M4389.7,2040.9v-18.7c0-8.7-0.5-14.7-6.6-14.7c-5.1,0-10.9,5.9-14.1,9.6v23.8h-5.2v-37.4h5.2v7.3
			c3.8-3.8,9.6-8.3,15.1-8.3c9,0,10.9,6.3,10.9,17.1v21.3H4389.7z"/>
		<path class="st3" d="M4437.6,2041.3c-8.7,0-10.8-3.4-10.8-11.1v-45.5h5.2v44.2c0,4.2,0.5,7.6,5.9,8L4437.6,2041.3z"/>
		<path class="st3" d="M4450,1988.4c2.2,0,3.5,1.3,3.5,3.5c0,2.1-1.4,3.5-3.5,3.5c-2.2,0-3.5-1.3-3.5-3.5
			C4446.5,1989.8,4447.9,1988.4,4450,1988.4z M4447.3,2040.9v-37.4h5.2v37.4H4447.3z"/>
		<path class="st3" d="M4468.4,2040.9v-33.2h-6.9v-4.3h6.9v-3.3c0-10.5,4.8-15.9,15.2-15.9c2.5,0,5.7,0.5,7.5,1l-1,4.4
			c-2.3-0.7-5.1-1.1-7-1.1c-5.1,0-9.4,2.3-9.4,12v2.9h10.8v4.3h-10.8v33.2H4468.4z"/>
		<path class="st3" d="M4522,2039.9c-3.4,1.2-6.9,1.8-11.9,1.8c-10.9,0-19.7-6-19.7-19.7c0-12.9,9.5-19.5,18.7-19.5
			c9.1,0,13.7,4.8,13.7,16.5c0,1.6-0.1,3-0.2,4.4h-26.8c0.5,9.3,7.3,14,15.1,14c3.5,0,6.6-0.5,9.5-1.7L4522,2039.9z M4518,2019.4
			c0-9.3-3.8-12.6-9.1-12.6c-5.4,0-11.9,3.7-13,12.6H4518z"/>
	</g>
	<g class="st1">
		<g>
			<path class="st3" d="M4283.3,1641.9c0,14.5-7.8,26.2-7.8,26.2s-7.7-11.8-7.7-26.2s7.7-26.2,7.7-26.2S4283.3,1627.4,4283.3,1641.9
				z"/>
		</g>
		<g>
			<g>
				<path class="st3" d="M4299.4,1662.4c-9.8,10.7-23.5,14.1-23.5,14.1s2.3-13.9,12.1-24.5c9.8-10.7,23.4-14.1,23.4-14.1
					S4309.2,1651.7,4299.4,1662.4z"/>
			</g>
			<g>
				<path class="st3" d="M4251.6,1662.4c9.8,10.7,23.5,14.1,23.5,14.1s-2.3-13.9-12.1-24.5c-9.8-10.7-23.4-14.1-23.4-14.1
					S4241.8,1651.7,4251.6,1662.4z"/>
			</g>
		</g>
		<g>
			<path class="st3" d="M4283.3,1706.1c0,14.5-7.8,26.2-7.8,26.2s-7.7-11.8-7.7-26.2c0-14.5,7.7-26.2,7.7-26.2
				S4283.3,1691.6,4283.3,1706.1z"/>
		</g>
		<g>
			<g>
				<path class="st3" d="M4299.4,1726.7c-9.8,10.7-23.5,14.1-23.5,14.1s2.3-13.9,12.1-24.5s23.4-14.1,23.4-14.1
					S4309.2,1716,4299.4,1726.7z"/>
			</g>
			<g>
				<path class="st3" d="M4251.6,1726.7c9.8,10.7,23.5,14.1,23.5,14.1s-2.3-13.9-12.1-24.5c-9.8-10.7-23.4-14.1-23.4-14.1
					S4241.8,1716,4251.6,1726.7z"/>
			</g>
		</g>
		<g>
			<path class="st3" d="M4283.3,1770.4c0,14.5-7.8,26.2-7.8,26.2s-7.7-11.8-7.7-26.2c0-14.5,7.7-26.2,7.7-26.2
				S4283.3,1755.9,4283.3,1770.4z"/>
		</g>
		<g>
			<g>
				<path class="st3" d="M4299.4,1790.9c-9.8,10.7-23.5,14.1-23.5,14.1s2.3-13.9,12.1-24.5c9.8-10.7,23.4-14.1,23.4-14.1
					S4309.2,1780.2,4299.4,1790.9z"/>
			</g>
			<g>
				<path class="st3" d="M4251.6,1790.9c9.8,10.7,23.5,14.1,23.5,14.1s-2.3-13.9-12.1-24.5c-9.8-10.7-23.4-14.1-23.4-14.1
					S4241.8,1780.2,4251.6,1790.9z"/>
			</g>
		</g>
		<g>
			<path class="st3" d="M4357.2,1641.9c0,14.5-7.8,26.2-7.8,26.2s-7.7-11.8-7.7-26.2s7.7-26.2,7.7-26.2S4357.2,1627.4,4357.2,1641.9
				z"/>
		</g>
		<g>
			<g>
				<path class="st3" d="M4373.4,1662.4c-9.8,10.7-23.5,14.1-23.5,14.1s2.3-13.9,12.1-24.5c9.8-10.7,23.4-14.1,23.4-14.1
					S4383.2,1651.7,4373.4,1662.4z"/>
			</g>
			<g>
				<path class="st3" d="M4325.6,1662.4c9.8,10.7,23.5,14.1,23.5,14.1s-2.3-13.9-12.1-24.5c-9.8-10.7-23.4-14.1-23.4-14.1
					S4315.8,1651.7,4325.6,1662.4z"/>
			</g>
		</g>
		<g>
			<path class="st3" d="M4357.2,1706.1c0,14.5-7.8,26.2-7.8,26.2s-7.7-11.8-7.7-26.2c0-14.5,7.7-26.2,7.7-26.2
				S4357.2,1691.6,4357.2,1706.1z"/>
		</g>
		<g>
			<g>
				<path class="st3" d="M4373.4,1726.7c-9.8,10.7-23.5,14.1-23.5,14.1s2.3-13.9,12.1-24.5s23.4-14.1,23.4-14.1
					S4383.2,1716,4373.4,1726.7z"/>
			</g>
			<g>
				<path class="st3" d="M4325.6,1726.7c9.8,10.7,23.5,14.1,23.5,14.1s-2.3-13.9-12.1-24.5c-9.8-10.7-23.4-14.1-23.4-14.1
					S4315.8,1716,4325.6,1726.7z"/>
			</g>
		</g>
		<g>
			<path class="st3" d="M4357.2,1770.4c0,14.5-7.8,26.2-7.8,26.2s-7.7-11.8-7.7-26.2c0-14.5,7.7-26.2,7.7-26.2
				S4357.2,1755.9,4357.2,1770.4z"/>
		</g>
		<g>
			<g>
				<path class="st3" d="M4373.4,1790.9c-9.8,10.7-23.5,14.1-23.5,14.1s2.3-13.9,12.1-24.5c9.8-10.7,23.4-14.1,23.4-14.1
					S4383.2,1780.2,4373.4,1790.9z"/>
			</g>
			<g>
				<path class="st3" d="M4325.6,1790.9c9.8,10.7,23.5,14.1,23.5,14.1s-2.3-13.9-12.1-24.5c-9.8-10.7-23.4-14.1-23.4-14.1
					S4315.8,1780.2,4325.6,1790.9z"/>
			</g>
		</g>
		<g>
			<path class="st3" d="M4431.2,1641.9c0,14.5-7.8,26.2-7.8,26.2s-7.7-11.8-7.7-26.2s7.7-26.2,7.7-26.2S4431.2,1627.4,4431.2,1641.9
				z"/>
		</g>
		<g>
			<g>
				<path class="st3" d="M4447.3,1662.4c-9.8,10.7-23.5,14.1-23.5,14.1s2.3-13.9,12.1-24.5c9.8-10.7,23.4-14.1,23.4-14.1
					S4457.1,1651.7,4447.3,1662.4z"/>
			</g>
			<g>
				<path class="st3" d="M4399.6,1662.4c9.8,10.7,23.5,14.1,23.5,14.1s-2.3-13.9-12.1-24.5c-9.8-10.7-23.4-14.1-23.4-14.1
					S4389.7,1651.7,4399.6,1662.4z"/>
			</g>
		</g>
		<g>
			<path class="st3" d="M4431.2,1706.1c0,14.5-7.8,26.2-7.8,26.2s-7.7-11.8-7.7-26.2c0-14.5,7.7-26.2,7.7-26.2
				S4431.2,1691.6,4431.2,1706.1z"/>
		</g>
		<g>
			<g>
				<path class="st3" d="M4447.3,1726.7c-9.8,10.7-23.5,14.1-23.5,14.1s2.3-13.9,12.1-24.5s23.4-14.1,23.4-14.1
					S4457.1,1716,4447.3,1726.7z"/>
			</g>
			<g>
				<path class="st3" d="M4399.6,1726.7c9.8,10.7,23.5,14.1,23.5,14.1s-2.3-13.9-12.1-24.5s-23.4-14.1-23.4-14.1
					S4389.7,1716,4399.6,1726.7z"/>
			</g>
		</g>
		<g>
			<path class="st3" d="M4431.2,1770.4c0,14.5-7.8,26.2-7.8,26.2s-7.7-11.8-7.7-26.2c0-14.5,7.7-26.2,7.7-26.2
				S4431.2,1755.9,4431.2,1770.4z"/>
		</g>
		<g>
			<g>
				<path class="st3" d="M4447.3,1790.9c-9.8,10.7-23.5,14.1-23.5,14.1s2.3-13.9,12.1-24.5c9.8-10.7,23.4-14.1,23.4-14.1
					S4457.1,1780.2,4447.3,1790.9z"/>
			</g>
			<g>
				<path class="st3" d="M4399.6,1790.9c9.8,10.7,23.5,14.1,23.5,14.1s-2.3-13.9-12.1-24.5c-9.8-10.7-23.4-14.1-23.4-14.1
					S4389.7,1780.2,4399.6,1790.9z"/>
			</g>
		</g>
	</g>
</g>
<g class="st0">
	<g class="st1">
		<path class="st3" d="M2937.1,1681.6c0,35.7-19.1,64.6-19.1,64.6s-19-28.9-19-64.6s19-64.6,19-64.6S2937.1,1646,2937.1,1681.6z"/>
	</g>
	<g class="st1">
		<g>
			<path class="st3" d="M2976.8,1732.1c-24.1,26.3-57.8,34.6-57.8,34.6s5.6-34.1,29.7-60.4c24.1-26.3,57.7-34.7,57.7-34.7
				S3000.9,1705.9,2976.8,1732.1z"/>
		</g>
		<g>
			<path class="st3" d="M2859.3,1732.1c24.1,26.3,57.8,34.6,57.8,34.6s-5.6-34.1-29.7-60.4c-24.1-26.3-57.7-34.7-57.7-34.7
				S2835.2,1705.9,2859.3,1732.1z"/>
		</g>
	</g>
	<g class="st1">
		<path class="st3" d="M2937.1,1839.7c0,35.7-19.1,64.6-19.1,64.6s-19-28.9-19-64.6s19-64.6,19-64.6S2937.1,1804.1,2937.1,1839.7z"
			/>
	</g>
	<g class="st1">
		<g>
			<path class="st3" d="M2976.8,1890.2c-24.1,26.3-57.8,34.6-57.8,34.6s5.6-34.1,29.7-60.4c24.1-26.3,57.7-34.7,57.7-34.7
				S3000.9,1864,2976.8,1890.2z"/>
		</g>
		<g>
			<path class="st3" d="M2859.3,1890.2c24.1,26.3,57.8,34.6,57.8,34.6s-5.6-34.1-29.7-60.4c-24.1-26.3-57.7-34.7-57.7-34.7
				S2835.2,1864,2859.3,1890.2z"/>
		</g>
	</g>
	<g class="st1">
		<path class="st3" d="M2937.1,1997.8c0,35.7-19.1,64.6-19.1,64.6s-19-28.9-19-64.6c0-35.7,19-64.6,19-64.6
			S2937.1,1962.2,2937.1,1997.8z"/>
	</g>
	<g class="st1">
		<g>
			<path class="st3" d="M2976.8,2048.3c-24.1,26.3-57.8,34.6-57.8,34.6s5.6-34.1,29.7-60.4s57.7-34.7,57.7-34.7
				S3000.9,2022.1,2976.8,2048.3z"/>
		</g>
		<g>
			<path class="st3" d="M2859.3,2048.3c24.1,26.3,57.8,34.6,57.8,34.6s-5.6-34.1-29.7-60.4s-57.7-34.7-57.7-34.7
				S2835.2,2022.1,2859.3,2048.3z"/>
		</g>
	</g>
	<g class="st1">
		<path class="st3" d="M3119.1,1681.6c0,35.7-19.1,64.6-19.1,64.6s-19-28.9-19-64.6s19-64.6,19-64.6S3119.1,1646,3119.1,1681.6z"/>
	</g>
	<g class="st1">
		<g>
			<path class="st3" d="M3158.8,1732.1c-24.1,26.3-57.8,34.6-57.8,34.6s5.6-34.1,29.7-60.4c24.1-26.3,57.7-34.7,57.7-34.7
				S3182.9,1705.9,3158.8,1732.1z"/>
		</g>
		<g>
			<path class="st3" d="M3041.2,1732.1c24.1,26.3,57.8,34.6,57.8,34.6s-5.6-34.1-29.7-60.4c-24.1-26.3-57.7-34.7-57.7-34.7
				S3017.1,1705.9,3041.2,1732.1z"/>
		</g>
	</g>
	<g class="st1">
		<path class="st3" d="M3119.1,1839.7c0,35.7-19.1,64.6-19.1,64.6s-19-28.9-19-64.6s19-64.6,19-64.6S3119.1,1804.1,3119.1,1839.7z"
			/>
	</g>
	<g class="st1">
		<g>
			<path class="st3" d="M3158.8,1890.2c-24.1,26.3-57.8,34.6-57.8,34.6s5.6-34.1,29.7-60.4c24.1-26.3,57.7-34.7,57.7-34.7
				S3182.9,1864,3158.8,1890.2z"/>
		</g>
		<g>
			<path class="st3" d="M3041.2,1890.2c24.1,26.3,57.8,34.6,57.8,34.6s-5.6-34.1-29.7-60.4c-24.1-26.3-57.7-34.7-57.7-34.7
				S3017.1,1864,3041.2,1890.2z"/>
		</g>
	</g>
	<g class="st1">
		<path class="st3" d="M3119.1,1997.8c0,35.7-19.1,64.6-19.1,64.6s-19-28.9-19-64.6c0-35.7,19-64.6,19-64.6
			S3119.1,1962.2,3119.1,1997.8z"/>
	</g>
	<g class="st1">
		<g>
			<path class="st3" d="M3158.8,2048.3c-24.1,26.3-57.8,34.6-57.8,34.6s5.6-34.1,29.7-60.4s57.7-34.7,57.7-34.7
				S3182.9,2022.1,3158.8,2048.3z"/>
		</g>
		<g>
			<path class="st3" d="M3041.2,2048.3c24.1,26.3,57.8,34.6,57.8,34.6s-5.6-34.1-29.7-60.4s-57.7-34.7-57.7-34.7
				S3017.1,2022.1,3041.2,2048.3z"/>
		</g>
	</g>
	<g class="st1">
		<path class="st3" d="M3301,1681.6c0,35.7-19.1,64.6-19.1,64.6s-19-28.9-19-64.6s19-64.6,19-64.6S3301,1646,3301,1681.6z"/>
	</g>
	<g class="st1">
		<g>
			<path class="st3" d="M3340.7,1732.1c-24.1,26.3-57.8,34.6-57.8,34.6s5.6-34.1,29.7-60.4c24.1-26.3,57.7-34.7,57.7-34.7
				S3364.8,1705.9,3340.7,1732.1z"/>
		</g>
		<g>
			<path class="st3" d="M3223.2,1732.1c24.1,26.3,57.8,34.6,57.8,34.6s-5.6-34.1-29.7-60.4c-24.1-26.3-57.7-34.7-57.7-34.7
				S3199.1,1705.9,3223.2,1732.1z"/>
		</g>
	</g>
	<g class="st1">
		<path class="st3" d="M3301,1839.7c0,35.7-19.1,64.6-19.1,64.6s-19-28.9-19-64.6s19-64.6,19-64.6S3301,1804.1,3301,1839.7z"/>
	</g>
	<g class="st1">
		<g>
			<path class="st3" d="M3340.7,1890.2c-24.1,26.3-57.8,34.6-57.8,34.6s5.6-34.1,29.7-60.4c24.1-26.3,57.7-34.7,57.7-34.7
				S3364.8,1864,3340.7,1890.2z"/>
		</g>
		<g>
			<path class="st3" d="M3223.2,1890.2c24.1,26.3,57.8,34.6,57.8,34.6s-5.6-34.1-29.7-60.4c-24.1-26.3-57.7-34.7-57.7-34.7
				S3199.1,1864,3223.2,1890.2z"/>
		</g>
	</g>
	<g class="st1">
		<path class="st3" d="M3301,1997.8c0,35.7-19.1,64.6-19.1,64.6s-19-28.9-19-64.6c0-35.7,19-64.6,19-64.6S3301,1962.2,3301,1997.8z"
			/>
	</g>
	<g class="st1">
		<g>
			<path class="st3" d="M3340.7,2048.3c-24.1,26.3-57.8,34.6-57.8,34.6s5.6-34.1,29.7-60.4s57.7-34.7,57.7-34.7
				S3364.8,2022.1,3340.7,2048.3z"/>
		</g>
		<g>
			<path class="st3" d="M3223.2,2048.3c24.1,26.3,57.8,34.6,57.8,34.6s-5.6-34.1-29.7-60.4s-57.7-34.7-57.7-34.7
				S3199.1,2022.1,3223.2,2048.3z"/>
		</g>
	</g>
</g>
<g class="st0">
	<g class="st1">
		<g>
			<path class="st3" d="M1410.8,1804c0,12.3-6.6,22.2-6.6,22.2s-6.5-9.9-6.5-22.2s6.5-22.2,6.5-22.2S1410.8,1791.7,1410.8,1804z"/>
		</g>
		<g>
			<g>
				<path class="st3" d="M1424.4,1821.3c-8.3,9-19.8,11.9-19.8,11.9s1.9-11.7,10.2-20.7c8.3-9,19.8-11.9,19.8-11.9
					S1432.7,1812.3,1424.4,1821.3z"/>
			</g>
			<g>
				<path class="st3" d="M1384,1821.3c8.3,9,19.8,11.9,19.8,11.9s-1.9-11.7-10.2-20.7c-8.3-9-19.8-11.9-19.8-11.9
					S1375.7,1812.3,1384,1821.3z"/>
			</g>
		</g>
		<g>
			<path class="st3" d="M1410.8,1858.3c0,12.3-6.6,22.2-6.6,22.2s-6.5-9.9-6.5-22.2c0-12.3,6.5-22.2,6.5-22.2
				S1410.8,1846.1,1410.8,1858.3z"/>
		</g>
		<g>
			<g>
				<path class="st3" d="M1424.4,1875.7c-8.3,9-19.8,11.9-19.8,11.9s1.9-11.7,10.2-20.7s19.8-11.9,19.8-11.9
					S1432.7,1866.6,1424.4,1875.7z"/>
			</g>
			<g>
				<path class="st3" d="M1384,1875.7c8.3,9,19.8,11.9,19.8,11.9s-1.9-11.7-10.2-20.7s-19.8-11.9-19.8-11.9
					S1375.7,1866.6,1384,1875.7z"/>
			</g>
		</g>
		<g>
			<path class="st3" d="M1410.8,1912.6c0,12.3-6.6,22.2-6.6,22.2s-6.5-9.9-6.5-22.2s6.5-22.2,6.5-22.2S1410.8,1900.4,1410.8,1912.6z
				"/>
		</g>
		<g>
			<g>
				<path class="st3" d="M1424.4,1930c-8.3,9-19.8,11.9-19.8,11.9s1.9-11.7,10.2-20.7s19.8-11.9,19.8-11.9S1432.7,1921,1424.4,1930z
					"/>
			</g>
			<g>
				<path class="st3" d="M1384,1930c8.3,9,19.8,11.9,19.8,11.9s-1.9-11.7-10.2-20.7s-19.8-11.9-19.8-11.9S1375.7,1921,1384,1930z"/>
			</g>
		</g>
		<g>
			<path class="st3" d="M1473.3,1804c0,12.3-6.6,22.2-6.6,22.2s-6.5-9.9-6.5-22.2s6.5-22.2,6.5-22.2S1473.3,1791.7,1473.3,1804z"/>
		</g>
		<g>
			<g>
				<path class="st3" d="M1486.9,1821.3c-8.3,9-19.8,11.9-19.8,11.9s1.9-11.7,10.2-20.7c8.3-9,19.8-11.9,19.8-11.9
					S1495.2,1812.3,1486.9,1821.3z"/>
			</g>
			<g>
				<path class="st3" d="M1446.5,1821.3c8.3,9,19.8,11.9,19.8,11.9s-1.9-11.7-10.2-20.7c-8.3-9-19.8-11.9-19.8-11.9
					S1438.2,1812.3,1446.5,1821.3z"/>
			</g>
		</g>
		<g>
			<path class="st3" d="M1473.3,1858.3c0,12.3-6.6,22.2-6.6,22.2s-6.5-9.9-6.5-22.2c0-12.3,6.5-22.2,6.5-22.2
				S1473.3,1846.1,1473.3,1858.3z"/>
		</g>
		<g>
			<g>
				<path class="st3" d="M1486.9,1875.7c-8.3,9-19.8,11.9-19.8,11.9s1.9-11.7,10.2-20.7s19.8-11.9,19.8-11.9
					S1495.2,1866.6,1486.9,1875.7z"/>
			</g>
			<g>
				<path class="st3" d="M1446.5,1875.7c8.3,9,19.8,11.9,19.8,11.9s-1.9-11.7-10.2-20.7s-19.8-11.9-19.8-11.9
					S1438.2,1866.6,1446.5,1875.7z"/>
			</g>
		</g>
		<g>
			<path class="st3" d="M1473.3,1912.6c0,12.3-6.6,22.2-6.6,22.2s-6.5-9.9-6.5-22.2s6.5-22.2,6.5-22.2S1473.3,1900.4,1473.3,1912.6z
				"/>
		</g>
		<g>
			<g>
				<path class="st3" d="M1486.9,1930c-8.3,9-19.8,11.9-19.8,11.9s1.9-11.7,10.2-20.7s19.8-11.9,19.8-11.9S1495.2,1921,1486.9,1930z
					"/>
			</g>
			<g>
				<path class="st3" d="M1446.5,1930c8.3,9,19.8,11.9,19.8,11.9s-1.9-11.7-10.2-20.7s-19.8-11.9-19.8-11.9S1438.2,1921,1446.5,1930
					z"/>
			</g>
		</g>
		<g>
			<path class="st3" d="M1535.8,1804c0,12.3-6.6,22.2-6.6,22.2s-6.5-9.9-6.5-22.2s6.5-22.2,6.5-22.2S1535.8,1791.7,1535.8,1804z"/>
		</g>
		<g>
			<g>
				<path class="st3" d="M1549.4,1821.3c-8.3,9-19.8,11.9-19.8,11.9s1.9-11.7,10.2-20.7c8.3-9,19.8-11.9,19.8-11.9
					S1557.7,1812.3,1549.4,1821.3z"/>
			</g>
			<g>
				<path class="st3" d="M1509,1821.3c8.3,9,19.8,11.9,19.8,11.9s-1.9-11.7-10.2-20.7c-8.3-9-19.8-11.9-19.8-11.9
					S1500.8,1812.3,1509,1821.3z"/>
			</g>
		</g>
		<g>
			<path class="st3" d="M1535.8,1858.3c0,12.3-6.6,22.2-6.6,22.2s-6.5-9.9-6.5-22.2c0-12.3,6.5-22.2,6.5-22.2
				S1535.8,1846.1,1535.8,1858.3z"/>
		</g>
		<g>
			<g>
				<path class="st3" d="M1549.4,1875.7c-8.3,9-19.8,11.9-19.8,11.9s1.9-11.7,10.2-20.7s19.8-11.9,19.8-11.9
					S1557.7,1866.6,1549.4,1875.7z"/>
			</g>
			<g>
				<path class="st3" d="M1509,1875.7c8.3,9,19.8,11.9,19.8,11.9s-1.9-11.7-10.2-20.7s-19.8-11.9-19.8-11.9
					S1500.8,1866.6,1509,1875.7z"/>
			</g>
		</g>
		<g>
			<path class="st3" d="M1535.8,1912.6c0,12.3-6.6,22.2-6.6,22.2s-6.5-9.9-6.5-22.2s6.5-22.2,6.5-22.2S1535.8,1900.4,1535.8,1912.6z
				"/>
		</g>
		<g>
			<g>
				<path class="st3" d="M1549.4,1930c-8.3,9-19.8,11.9-19.8,11.9s1.9-11.7,10.2-20.7s19.8-11.9,19.8-11.9S1557.7,1921,1549.4,1930z
					"/>
			</g>
			<g>
				<path class="st3" d="M1509,1930c8.3,9,19.8,11.9,19.8,11.9s-1.9-11.7-10.2-20.7s-19.8-11.9-19.8-11.9S1500.8,1921,1509,1930z"/>
			</g>
		</g>
	</g>
	<g class="st1">
		<path class="st3" d="M2079.6,1945.7c2.4,1.1,5,1.7,7.9,1.7c3.1,0,8.1-1.2,9.3-6.9c0.3-1.5,0.3-4.7,0.3-6c-1.6,1.5-4.4,3.3-7.9,3.3
			c-6.2,0-11.6-3.9-11.6-13c0-8.1,6.8-13.7,14.3-13.7c3.8,0,7.4,0.9,8.8,1.6v24.4c0,11.5-8.7,13.3-13.1,13.3c-3.7,0-6.6-0.7-9.1-1.9
			L2079.6,1945.7z M2097.1,1931.4v-16.1c-1.7-0.7-4-0.9-5.5-0.9c-6.7,0-10.3,4.9-10.3,10.4c0,7.3,4.5,9.9,8.5,9.9
			C2093,1934.7,2095.7,1932.9,2097.1,1931.4z"/>
		<path class="st3" d="M2129.7,1937.7c-3-0.2-4.6-1.6-5.2-3.7c-2.3,2.2-5.6,3.8-9.1,3.8c-3.9,0-7.8-1.9-7.8-6.8
			c0-6.3,8.4-8.4,15.7-8.4h0.7c0-5.7-1-8.4-6.1-8.4c-2.8,0-5.8,1.1-7.4,2.1l-1.2-3.1c3.1-1.2,5.5-2,9.4-2c6.7,0,8.8,2.9,8.8,10.9
			v7.1c0,3.8,0.5,5,2.5,5.6L2129.7,1937.7z M2124.1,1925.6c-0.9-0.1-1.8-0.1-2.7-0.1c-5.8,0-10,1.5-10,5.4c0,3.2,2.8,4,4.9,4
			c3.3,0,6.1-1.9,7.8-3.7V1925.6z"/>
		<path class="st3" d="M2150.1,1915.1c-4.4,0.1-7.9,3.8-9.9,6.7v15.6h-3.6v-25.4h3.6v5.8c1.9-2.7,4.9-6,9.9-6V1915.1z"/>
		<path class="st3" d="M2172.3,1937.3v-2.8c-1.5,1.5-4.5,3.4-8.1,3.4c-6.1,0-11.6-3.9-11.6-13c0-8.1,6.8-13.7,14.1-13.7
			c2.4,0,4.2,0.5,5.6,1v-13h3.6v38.2H2172.3z M2172.3,1931.3v-15.6c-1.8-1.1-4.5-1.3-5.6-1.3c-6.7,0-10.3,4.9-10.3,10.4
			c0,7.3,4.5,9.9,8.5,9.9C2168.1,1934.7,2170.8,1932.9,2172.3,1931.3z"/>
		<path class="st3" d="M2204.7,1936.6c-2.3,0.8-4.7,1.2-8.1,1.2c-7.4,0-13.4-4.1-13.4-13.4c0-8.7,6.5-13.2,12.7-13.2
			c6.2,0,9.3,3.3,9.3,11.2c0,1.1-0.1,2-0.2,3H2187c0.4,6.3,5,9.5,10.3,9.5c2.4,0,4.5-0.3,6.5-1.2L2204.7,1936.6z M2202,1922.7
			c0-6.3-2.6-8.6-6.2-8.6c-3.7,0-8.1,2.5-8.8,8.6H2202z"/>
		<path class="st3" d="M2230.7,1937.3v-12.7c0-5.9-0.4-10-4.5-10c-3.4,0-7.4,4-9.6,6.5v16.2h-3.6v-25.4h3.6v5
			c2.6-2.6,6.5-5.6,10.2-5.6c6.1,0,7.4,4.3,7.4,11.6v14.5H2230.7z"/>
		<path class="st3" d="M2263.2,1937.6c-5.9,0-7.3-2.3-7.3-7.5v-30.9h3.6v30c0,2.9,0.3,5.1,4,5.4L2263.2,1937.6z"/>
		<path class="st3" d="M2271.6,1901.7c1.5,0,2.4,0.9,2.4,2.4c0,1.4-1,2.4-2.4,2.4c-1.5,0-2.4-0.9-2.4-2.4
			C2269.3,1902.6,2270.3,1901.7,2271.6,1901.7z M2269.8,1937.3v-25.4h3.5v25.4H2269.8z"/>
		<path class="st3" d="M2284.1,1937.3v-22.5h-4.7v-2.9h4.7v-2.2c0-7.2,3.3-10.8,10.3-10.8c1.7,0,3.9,0.4,5.1,0.7l-0.7,3
			c-1.5-0.5-3.5-0.7-4.8-0.7c-3.5,0-6.4,1.6-6.4,8.2v2h7.4v2.9h-7.4v22.5H2284.1z"/>
		<path class="st3" d="M2320.6,1936.6c-2.3,0.8-4.7,1.2-8.1,1.2c-7.4,0-13.4-4.1-13.4-13.4c0-8.7,6.5-13.2,12.7-13.2
			c6.2,0,9.3,3.3,9.3,11.2c0,1.1-0.1,2-0.2,3h-18.2c0.4,6.3,5,9.5,10.3,9.5c2.4,0,4.5-0.3,6.5-1.2L2320.6,1936.6z M2317.9,1922.7
			c0-6.3-2.6-8.6-6.2-8.6c-3.7,0-8.1,2.5-8.8,8.6H2317.9z"/>
	</g>
	<g class="st1">
		<path class="st2" d="M1607.7,1865h0.7c0,0,7.6,9,20.6,9c9.5,0,12.7-5,12.7-10.2c0-15.3-34.7-13.2-34.7-34.4
			c0-12.7,12-19.8,24.1-19.8c5.2,0,19.2,1.9,19.2,7.3c0,2.4-1.5,5.6-3.8,7.8h-0.7c0,0-6.5-9.9-16.8-9.9c-6.6,0-11.3,4.6-11.3,10.8
			c0,15.1,34.7,11.8,34.7,34c0,13.4-12.7,20.5-24.8,20.5c-8.2,0-22.2-3.3-22.2-9.4C1605.4,1869,1606.9,1866.6,1607.7,1865z"/>
		<path class="st2" d="M1698.2,1851.9c0-5.8-0.4-26.1-0.6-30.7c-0.5-9.4-1-10.1-1-10.1h17.8c14.8,0,21.3-1,21.3-1
			c-0.6,4.7-0.9,8-7.8,8c-11.5,0-18.3-1.5-18.3-1.5c0,4-0.1,14.2-0.2,23.8h14.9c4,0,5.7-1,5.7-1c-0.2,4.5-0.8,7.1-5.8,7.1
			c-5,0-14.9-0.6-14.9-0.6v10c0,5.2,0.3,10.4,0.4,16.3l17.7-0.5c6.3-0.2,10.5-0.9,12.9-2.1c0.1,1.1,0.1,1.9,0.1,2.7
			c0,6.2-2.1,6.8-9.2,6.8l-34.1-0.5C1697.2,1878.6,1698.2,1875.9,1698.2,1851.9z"/>
		<path class="st2" d="M1783.3,1851.9c0-5.8-0.4-26.1-0.6-30.7c-0.5-9.4-1-10.1-1-10.1c1.2-0.4,3.6-0.8,5.6-0.8
			c3.3,0,6.6,0.3,7.4,1.8c1.2,2.2,2.6,4.6,4.1,7.2l12.4,21.8c2.2,4,3.9,7.2,4.5,9.1h0.5c2-5.5,11.5-22.6,17.8-34.8
			c1.9-3.8,4-5.2,7.4-5.2c1.5,0,3.5,0,5.9,0.5c0,8.4-0.1,21.6-0.1,29.7c0,12.7,0,25.3,1.6,38.1c-2.4,0.4-4.4,1-6.5,1
			c-3.4,0-6.3-1.4-6.3-6.6v-49.2l-0.4-0.3c-0.6,1.5-2.3,4.6-4.4,8.7l-9.8,18.6c-2.8,5.3-5.9,15.5-5.9,15.5h-1.5
			c-0.9,0-1.7-0.1-2-0.7c-2.2-5.1-5.5-10.8-8.6-16.1l-8-13.9c-2.8-4.8-5.1-8.9-6.3-11.6l-0.4,0.4c0,15.1,0.9,32.7,0.9,48.6
			c0,5.2-0.2,6.6-3.6,6.6c-2,0-4.2-1-4.2-1S1783.3,1875.9,1783.3,1851.9z"/>
		<path class="st2" d="M1896.8,1851.9c0-5.8-0.4-26.1-0.6-30.7c-0.5-9.4-1-10.3-1-10.3s3.8,0.2,7.7,0.2h12
			c16.3,0,22.7,7.4,22.7,15.6c0,5.3-3.1,11.7-9.1,15.6v0.5c8.2,2,15.5,7.3,15.5,16.5c0,11.3-8.5,20.5-22.6,20.5
			c-6.9,0-9.8-1.2-25.7-1.2C1895.7,1878.6,1896.8,1875.9,1896.8,1851.9z M1918.4,1874.2c11.6,0,13.1-7.1,13.1-13.5
			c0-12.7-11.5-15.7-23.7-16c0,1.2-0.1,2.3-0.1,3.6c0,2.3,0.1,4.7,0.1,7.3c0,4.2,0.2,9,0.3,13.7
			C1908.2,1873.2,1914.5,1874.2,1918.4,1874.2z M1924.4,1841.6c2-3.6,3.2-7.5,3.2-11.2c0-7.7-3.2-14.3-16.4-14.3h-1.9
			c-0.6,0-1.1,0.1-1.1,0.1c0,7.6-0.2,15.3-0.3,23.9C1913.4,1840.3,1919.2,1840.6,1924.4,1841.6z"/>
		<path class="st2" d="M1988.2,1851.9c0-8-0.2-24.5-0.5-30.7c-0.5-9.4-1-10.3-1-10.3s3.8,0.2,7.7,0.2h12c16.7,0,25,7.7,25,17.4
			c0,17.1-15.6,19.4-15.6,19.4v0.5c0,0,16.3,24.3,24.4,29v0.7c0,0-5.7,1.3-8.5,1.3c-15.3,0-22.7-29.2-31.1-31.6l-1.4-0.4
			c0,2.3,0.5,15.2,0.5,25.8c0,5.2-2.9,6.6-6.3,6.6c-2,0-4.2-0.6-6.6-1C1986.9,1878.6,1988.2,1875.9,1988.2,1851.9z M2007.6,1843.7
			c6.9,0,12.5-3.5,12.5-13.2c0-7.7-4.5-14.3-17.4-14.3h-3c-0.3,8.1-0.4,19.3-0.4,26.5C2002.1,1843.6,2004.9,1843.7,2007.6,1843.7z"
			/>
		<path class="st2" d="M2071.1,1878.1c0,0,2.7-2,6.3-12.1l20.2-56.3c0,0,9.8,0.4,13.2,11.7c3.7,12.2,12.3,38.1,17.1,48.9
			c2.7,6.1,3.3,7.2,4.4,7.8v0.5c0,0-3.7,1-7,1c-4.2,0-7.7-1.6-8.9-5.8c-1.3-4.3-3.1-10.6-5.4-17.7c-3-0.1-6.4-0.2-9.7-0.2
			c-4.9,0-9.8,0.2-13.9,0.4c-5.8,17.6-5.3,23.3-12.8,23.3c-1.6,0-3.5-1-3.5-1V1878.1z M2099.2,1851.2c3.4,0,6.8-0.1,9.9-0.2
			c-3.5-10.2-7.2-21.1-10.3-29.1h-0.5c-4.2,12-7,21.4-9.5,29.1C2092,1851.1,2095.6,1851.2,2099.2,1851.2z"/>
		<path class="st2" d="M2172.2,1851.9c0-5.8-0.4-26.1-0.6-30.7c-0.5-9.4-1-10.1-1-10.1c1.2-0.4,2.9-0.8,4.9-0.8c2,0,4.1,0.2,5,1.6
			c2.6,3.9,6.2,8.6,10.2,13.4l18.7,22.6c4.9,6,8.7,10.8,9.7,12.8l0.4-0.4c-0.4-7.6-0.3-29.3-0.8-39.2c-0.5-9.4-1-10.2-1-10.2
			s1.6-0.9,3.6-0.9c4.2,0,4.4,2,4.4,5.5c0,11.7-0.5,22.9-0.5,38c0,10.8,0.1,21.5,0.9,25c0,0-2.1,0.6-4.7,0.6c-1.4,0-3.3-0.7-4.5-2.6
			c-2.4-3.8-6.2-8.6-10.6-13.9l-19.1-22.9c-5-6.1-8.7-10.8-9.2-12.7l-0.4,0.4c0,15.1,0.9,29.5,0.9,45.4c0,5.2-0.2,6.6-3.6,6.6
			c-2,0-4.2-1-4.2-1S2172.2,1875.9,2172.2,1851.9z"/>
		<path class="st2" d="M2264.9,1878.1c0,0,2.7-2,6.3-12.1l20.2-56.3c0,0,9.8,0.4,13.2,11.7c3.7,12.2,12.3,38.1,17.1,48.9
			c2.7,6.1,3.3,7.2,4.4,7.8v0.5c0,0-3.7,1-7,1c-4.2,0-7.7-1.6-8.9-5.8c-1.3-4.3-3.1-10.6-5.4-17.7c-3-0.1-6.4-0.2-9.7-0.2
			c-4.9,0-9.8,0.2-13.9,0.4c-5.8,17.6-5.3,23.3-12.8,23.3c-1.6,0-3.5-1-3.5-1V1878.1z M2293.1,1851.2c3.4,0,6.8-0.1,9.9-0.2
			c-3.5-10.2-7.2-21.1-10.3-29.1h-0.5c-4.2,12-7,21.4-9.5,29.1C2285.9,1851.1,2289.5,1851.2,2293.1,1851.2z"/>
	</g>
</g>
<g class="st0">
	<g class="st1">
		<path class="st2" d="M360.3,1877h0.7c0,0,7.5,8.8,20.2,8.8c9.3,0,12.4-4.9,12.4-10c0-15-34-13-34-33.7c0-12.5,11.7-19.4,23.7-19.4
			c5.1,0,18.9,1.9,18.9,7.2c0,2.4-1.5,5.5-3.7,7.7h-0.7c0,0-6.3-9.8-16.5-9.8c-6.4,0-11.1,4.5-11.1,10.6c0,14.8,34,11.6,34,33.3
			c0,13.2-12.4,20.1-24.3,20.1c-8.1,0-21.8-3.2-21.8-9.2C358.1,1880.9,359.5,1878.5,360.3,1877z"/>
		<path class="st2" d="M449.1,1864.1c0-5.7-0.4-25.6-0.6-30.1c-0.5-9.2-0.9-9.9-0.9-9.9H465c14.5,0,20.9-0.9,20.9-0.9
			c-0.6,4.6-0.9,7.9-7.7,7.9c-11.3,0-18-1.5-18-1.5c0,3.9-0.1,13.9-0.2,23.3h14.6c3.9,0,5.6-0.9,5.6-0.9c-0.2,4.5-0.8,7-5.7,7
			c-4.9,0-14.6-0.6-14.6-0.6v9.9c0,5.1,0.3,10.2,0.4,16l17.3-0.5c6.2-0.2,10.3-0.9,12.7-2.1c0.1,1,0.1,1.9,0.1,2.7
			c0,6.1-2.1,6.6-9,6.6l-33.4-0.5C448.1,1890.4,449.1,1887.7,449.1,1864.1z"/>
		<path class="st2" d="M532.6,1864.1c0-5.7-0.4-25.6-0.6-30.1c-0.5-9.2-0.9-9.9-0.9-9.9c1.1-0.4,3.5-0.8,5.5-0.8
			c3.2,0,6.4,0.3,7.3,1.8c1.1,2.2,2.6,4.5,4,7.1l12.1,21.4c2.2,3.9,3.8,7.1,4.5,8.9h0.5c2-5.4,11.3-22.2,17.4-34.1
			c1.9-3.7,3.9-5.1,7.3-5.1c1.5,0,3.4,0,5.8,0.5c0,8.2-0.1,21.2-0.1,29.2c0,12.4,0,24.8,1.6,37.4c-2.4,0.4-4.4,0.9-6.3,0.9
			c-3.3,0-6.2-1.3-6.2-6.4v-48.3l-0.4-0.3c-0.6,1.5-2.3,4.5-4.4,8.5l-9.6,18.3c-2.7,5.2-5.8,15.2-5.8,15.2h-1.5
			c-0.9,0-1.7-0.1-2-0.7c-2.2-5-5.4-10.6-8.4-15.8l-7.9-13.6c-2.7-4.7-5-8.7-6.2-11.4l-0.4,0.4c0,14.8,0.9,32.1,0.9,47.7
			c0,5.1-0.2,6.4-3.5,6.4c-2,0-4.2-0.9-4.2-0.9S532.6,1887.7,532.6,1864.1z"/>
		<path class="st2" d="M643.9,1864.1c0-5.7-0.4-25.6-0.6-30.1c-0.5-9.2-0.9-10.1-0.9-10.1s3.7,0.2,7.6,0.2h11.7
			c16,0,22.3,7.3,22.3,15.3c0,5.2-3,11.5-8.9,15.3v0.5c8.1,2,15.2,7.2,15.2,16.2c0,11.1-8.3,20.1-22.2,20.1c-6.7,0-9.7-1.1-25.2-1.1
			C642.8,1890.4,643.9,1887.7,643.9,1864.1z M665.1,1886c11.4,0,12.9-7,12.9-13.3c0-12.5-11.3-15.4-23.2-15.7c0,1.1-0.1,2.3-0.1,3.5
			c0,2.3,0.1,4.6,0.1,7.2c0,4.2,0.2,8.8,0.3,13.5C655.2,1885.1,661.3,1886,665.1,1886z M671,1854.1c2-3.5,3.1-7.4,3.1-11
			c0-7.6-3.1-14-16.1-14h-1.9c-0.6,0-1,0.1-1,0.1c0,7.5-0.2,15-0.3,23.5C660.2,1852.8,665.9,1853.1,671,1854.1z"/>
		<path class="st2" d="M733.6,1864.1c0-7.9-0.2-24.1-0.5-30.1c-0.5-9.2-0.9-10.1-0.9-10.1s3.7,0.2,7.6,0.2h11.7
			c16.4,0,24.5,7.6,24.5,17.1c0,16.8-15.3,19-15.3,19v0.5c0,0,16,23.9,24,28.4v0.7c0,0-5.6,1.2-8.3,1.2c-15,0-22.3-28.6-30.5-31
			l-1.3-0.4c0,2.3,0.5,14.9,0.5,25.3c0,5.1-2.8,6.4-6.2,6.4c-2,0-4.1-0.6-6.4-0.9C732.4,1890.4,733.6,1887.7,733.6,1864.1z
			 M752.6,1856.1c6.7,0,12.2-3.4,12.2-13c0-7.6-4.5-14-17.1-14h-2.9c-0.3,8-0.4,18.9-0.4,26C747.2,1856,750,1856.1,752.6,1856.1z"/>
		<path class="st2" d="M814.9,1889.9c0,0,2.7-2,6.2-11.8l19.8-55.2c0,0,9.7,0.4,13,11.5c3.6,11.9,12,37.4,16.8,47.9
			c2.7,6,3.2,7.1,4.4,7.7v0.5c0,0-3.6,0.9-6.9,0.9c-4.2,0-7.6-1.6-8.7-5.7c-1.2-4.3-3-10.4-5.3-17.3c-2.9-0.1-6.3-0.2-9.5-0.2
			c-4.8,0-9.7,0.2-13.6,0.4c-5.7,17.2-5.2,22.8-12.6,22.8c-1.6,0-3.4-0.9-3.4-0.9V1889.9z M842.5,1863.5c3.3,0,6.6-0.1,9.8-0.2
			c-3.4-10-7.1-20.7-10.1-28.5h-0.5c-4.1,11.7-6.9,21-9.3,28.5C835.4,1863.4,838.9,1863.5,842.5,1863.5z"/>
		<path class="st2" d="M914.1,1864.1c0-5.7-0.4-25.6-0.6-30.1c-0.5-9.2-0.9-9.9-0.9-9.9c1.1-0.4,2.8-0.8,4.8-0.8c2,0,4,0.2,4.9,1.6
			c2.6,3.8,6.1,8.4,10,13.2l18.4,22.2c4.8,5.9,8.5,10.6,9.5,12.6l0.4-0.4c-0.4-7.5-0.3-28.7-0.8-38.5c-0.5-9.2-0.9-10-0.9-10
			s1.6-0.9,3.5-0.9c4.1,0,4.4,2,4.4,5.4c0,11.5-0.5,22.5-0.5,37.3c0,10.6,0.1,21.1,0.9,24.5c0,0-2.1,0.6-4.6,0.6
			c-1.4,0-3.2-0.7-4.5-2.6c-2.4-3.7-6.1-8.4-10.4-13.6l-18.8-22.5c-4.9-6-8.5-10.6-9-12.4l-0.4,0.4c0,14.8,0.9,29,0.9,44.5
			c0,5.1-0.2,6.4-3.5,6.4c-2,0-4.2-0.9-4.2-0.9S914.1,1887.7,914.1,1864.1z"/>
		<path class="st2" d="M1005.1,1889.9c0,0,2.7-2,6.2-11.8l19.8-55.2c0,0,9.7,0.4,13,11.5c3.6,11.9,12,37.4,16.8,47.9
			c2.7,6,3.2,7.1,4.4,7.7v0.5c0,0-3.6,0.9-6.9,0.9c-4.2,0-7.6-1.6-8.7-5.7c-1.2-4.3-3-10.4-5.3-17.3c-2.9-0.1-6.3-0.2-9.5-0.2
			c-4.8,0-9.7,0.2-13.6,0.4c-5.7,17.2-5.2,22.8-12.6,22.8c-1.6,0-3.4-0.9-3.4-0.9V1889.9z M1032.8,1863.5c3.3,0,6.6-0.1,9.8-0.2
			c-3.4-10-7.1-20.7-10.1-28.5h-0.5c-4.1,11.7-6.9,21-9.3,28.5C1025.7,1863.4,1029.2,1863.5,1032.8,1863.5z"/>
	</g>
	<g class="st1">
		<g>
			<path class="st3" d="M171,1795.2c0,12-6.4,21.8-6.4,21.8s-6.4-9.7-6.4-21.8s6.4-21.8,6.4-21.8S171,1783.2,171,1795.2z"/>
		</g>
		<g>
			<g>
				<path class="st3" d="M184.4,1812.3c-8.1,8.9-19.5,11.7-19.5,11.7s1.9-11.5,10-20.4c8.1-8.9,19.4-11.7,19.4-11.7
					S192.6,1803.4,184.4,1812.3z"/>
			</g>
			<g>
				<path class="st3" d="M144.8,1812.3c8.1,8.9,19.5,11.7,19.5,11.7s-1.9-11.5-10-20.4c-8.1-8.9-19.4-11.7-19.4-11.7
					S136.7,1803.4,144.8,1812.3z"/>
			</g>
		</g>
		<g>
			<path class="st3" d="M171,1848.5c0,12-6.4,21.8-6.4,21.8s-6.4-9.7-6.4-21.8s6.4-21.8,6.4-21.8S171,1836.5,171,1848.5z"/>
		</g>
		<g>
			<g>
				<path class="st3" d="M184.4,1865.6c-8.1,8.9-19.5,11.7-19.5,11.7s1.9-11.5,10-20.4c8.1-8.9,19.4-11.7,19.4-11.7
					S192.6,1856.7,184.4,1865.6z"/>
			</g>
			<g>
				<path class="st3" d="M144.8,1865.6c8.1,8.9,19.5,11.7,19.5,11.7s-1.9-11.5-10-20.4c-8.1-8.9-19.4-11.7-19.4-11.7
					S136.7,1856.7,144.8,1865.6z"/>
			</g>
		</g>
		<g>
			<path class="st3" d="M171,1901.8c0,12-6.4,21.8-6.4,21.8s-6.4-9.7-6.4-21.8c0-12,6.4-21.8,6.4-21.8S171,1889.8,171,1901.8z"/>
		</g>
		<g>
			<g>
				<path class="st3" d="M184.4,1918.9c-8.1,8.9-19.5,11.7-19.5,11.7s1.9-11.5,10-20.4c8.1-8.9,19.4-11.7,19.4-11.7
					S192.6,1910,184.4,1918.9z"/>
			</g>
			<g>
				<path class="st3" d="M144.8,1918.9c8.1,8.9,19.5,11.7,19.5,11.7s-1.9-11.5-10-20.4c-8.1-8.9-19.4-11.7-19.4-11.7
					S136.7,1910,144.8,1918.9z"/>
			</g>
		</g>
		<g>
			<path class="st3" d="M232.4,1795.2c0,12-6.4,21.8-6.4,21.8s-6.4-9.7-6.4-21.8s6.4-21.8,6.4-21.8S232.4,1783.2,232.4,1795.2z"/>
		</g>
		<g>
			<g>
				<path class="st3" d="M245.8,1812.3c-8.1,8.9-19.5,11.7-19.5,11.7s1.9-11.5,10-20.4c8.1-8.9,19.4-11.7,19.4-11.7
					S253.9,1803.4,245.8,1812.3z"/>
			</g>
			<g>
				<path class="st3" d="M206.1,1812.3c8.1,8.9,19.5,11.7,19.5,11.7s-1.9-11.5-10-20.4c-8.1-8.9-19.4-11.7-19.4-11.7
					S198,1803.4,206.1,1812.3z"/>
			</g>
		</g>
		<g>
			<path class="st3" d="M232.4,1848.5c0,12-6.4,21.8-6.4,21.8s-6.4-9.7-6.4-21.8s6.4-21.8,6.4-21.8S232.4,1836.5,232.4,1848.5z"/>
		</g>
		<g>
			<g>
				<path class="st3" d="M245.8,1865.6c-8.1,8.9-19.5,11.7-19.5,11.7s1.9-11.5,10-20.4c8.1-8.9,19.4-11.7,19.4-11.7
					S253.9,1856.7,245.8,1865.6z"/>
			</g>
			<g>
				<path class="st3" d="M206.1,1865.6c8.1,8.9,19.5,11.7,19.5,11.7s-1.9-11.5-10-20.4c-8.1-8.9-19.4-11.7-19.4-11.7
					S198,1856.7,206.1,1865.6z"/>
			</g>
		</g>
		<g>
			<path class="st3" d="M232.4,1901.8c0,12-6.4,21.8-6.4,21.8s-6.4-9.7-6.4-21.8c0-12,6.4-21.8,6.4-21.8S232.4,1889.8,232.4,1901.8z
				"/>
		</g>
		<g>
			<g>
				<path class="st3" d="M245.8,1918.9c-8.1,8.9-19.5,11.7-19.5,11.7s1.9-11.5,10-20.4c8.1-8.9,19.4-11.7,19.4-11.7
					S253.9,1910,245.8,1918.9z"/>
			</g>
			<g>
				<path class="st3" d="M206.1,1918.9c8.1,8.9,19.5,11.7,19.5,11.7s-1.9-11.5-10-20.4c-8.1-8.9-19.4-11.7-19.4-11.7
					S198,1910,206.1,1918.9z"/>
			</g>
		</g>
		<g>
			<path class="st3" d="M293.7,1795.2c0,12-6.4,21.8-6.4,21.8s-6.4-9.7-6.4-21.8s6.4-21.8,6.4-21.8S293.7,1783.2,293.7,1795.2z"/>
		</g>
		<g>
			<g>
				<path class="st3" d="M307.1,1812.3c-8.1,8.9-19.5,11.7-19.5,11.7s1.9-11.5,10-20.4c8.1-8.9,19.4-11.7,19.4-11.7
					S315.2,1803.4,307.1,1812.3z"/>
			</g>
			<g>
				<path class="st3" d="M267.5,1812.3c8.1,8.9,19.5,11.7,19.5,11.7s-1.9-11.5-10-20.4c-8.1-8.9-19.4-11.7-19.4-11.7
					S259.4,1803.4,267.5,1812.3z"/>
			</g>
		</g>
		<g>
			<path class="st3" d="M293.7,1848.5c0,12-6.4,21.8-6.4,21.8s-6.4-9.7-6.4-21.8s6.4-21.8,6.4-21.8S293.7,1836.5,293.7,1848.5z"/>
		</g>
		<g>
			<g>
				<path class="st3" d="M307.1,1865.6c-8.1,8.9-19.5,11.7-19.5,11.7s1.9-11.5,10-20.4c8.1-8.9,19.4-11.7,19.4-11.7
					S315.2,1856.7,307.1,1865.6z"/>
			</g>
			<g>
				<path class="st3" d="M267.5,1865.6c8.1,8.9,19.5,11.7,19.5,11.7s-1.9-11.5-10-20.4c-8.1-8.9-19.4-11.7-19.4-11.7
					S259.4,1856.7,267.5,1865.6z"/>
			</g>
		</g>
		<g>
			<path class="st3" d="M293.7,1901.8c0,12-6.4,21.8-6.4,21.8s-6.4-9.7-6.4-21.8c0-12,6.4-21.8,6.4-21.8S293.7,1889.8,293.7,1901.8z
				"/>
		</g>
		<g>
			<g>
				<path class="st3" d="M307.1,1918.9c-8.1,8.9-19.5,11.7-19.5,11.7s1.9-11.5,10-20.4c8.1-8.9,19.4-11.7,19.4-11.7
					S315.2,1910,307.1,1918.9z"/>
			</g>
			<g>
				<path class="st3" d="M267.5,1918.9c8.1,8.9,19.5,11.7,19.5,11.7s-1.9-11.5-10-20.4c-8.1-8.9-19.4-11.7-19.4-11.7
					S259.4,1910,267.5,1918.9z"/>
			</g>
		</g>
	</g>
</g>
<g class="st0">
	<rect x="3745.5" y="-4" class="st4" width="1209" height="1209"/>
	<g class="st1">
		<path class="st5" d="M3926.4,665.9h0.8c0,0,9,10.6,24.3,10.6c11.2,0,15-5.9,15-12.1c0-18-41-15.7-41-40.7
			c0-15.1,14.2-23.4,28.6-23.4c6.2,0,22.7,2.3,22.7,8.7c0,2.9-1.8,6.6-4.5,9.3h-0.8c0,0-7.7-11.8-19.9-11.8
			c-7.8,0-13.4,5.5-13.4,12.8c0,17.8,41,13.9,41,40.2c0,15.9-15,24.2-29.4,24.2c-9.7,0-26.3-3.9-26.3-11.1
			C3923.7,670.5,3925.4,667.7,3926.4,665.9z"/>
		<path class="st5" d="M4033.4,650.3c0-6.9-0.5-30.8-0.7-36.3c-0.6-11.1-1.1-12-1.1-12h21c17.5,0,25.2-1.1,25.2-1.1
			c-0.7,5.6-1,9.5-9.3,9.5c-13.6,0-21.7-1.8-21.7-1.8c0,4.7-0.1,16.8-0.2,28.1h17.6c4.7,0,6.7-1.1,6.7-1.1c-0.2,5.4-0.9,8.5-6.9,8.5
			c-5.9,0-17.6-0.7-17.6-0.7v11.9c0,6.2,0.3,12.3,0.5,19.3l20.9-0.6c7.4-0.2,12.5-1,15.3-2.5c0.1,1.3,0.1,2.3,0.1,3.2
			c0,7.3-2.5,8-10.9,8l-40.3-0.6C4032.2,682,4033.4,678.8,4033.4,650.3z"/>
		<path class="st5" d="M4134.1,650.3c0-6.9-0.5-30.8-0.7-36.3c-0.6-11.1-1.1-12-1.1-12c1.4-0.5,4.2-0.9,6.6-0.9
			c3.9,0,7.8,0.3,8.8,2.2c1.4,2.6,3.1,5.5,4.8,8.6l14.6,25.8c2.6,4.7,4.6,8.6,5.4,10.7h0.6c2.4-6.5,13.6-26.7,21-41.1
			c2.3-4.5,4.7-6.2,8.8-6.2c1.8,0,4.1,0,7,0.6c0,9.9-0.1,25.6-0.1,35.2c0,15,0,29.9,1.9,45.1c-2.9,0.5-5.3,1.1-7.7,1.1
			c-4,0-7.4-1.6-7.4-7.8v-58.3l-0.5-0.3c-0.7,1.8-2.7,5.5-5.3,10.3l-11.5,22c-3.3,6.3-7,18.3-7,18.3h-1.8c-1,0-2.1-0.1-2.4-0.8
			c-2.6-6.1-6.5-12.8-10.2-19.1l-9.5-16.4c-3.3-5.7-6.1-10.5-7.4-13.7l-0.5,0.5c0,17.8,1,38.7,1,57.5c0,6.2-0.2,7.8-4.2,7.8
			c-2.4,0-5-1.1-5-1.1S4134.1,678.8,4134.1,650.3z"/>
		<path class="st5" d="M4268.3,650.3c0-6.9-0.5-30.8-0.7-36.3c-0.6-11.1-1.1-12.2-1.1-12.2s4.5,0.2,9.1,0.2h14.2
			c19.3,0,26.8,8.8,26.8,18.5c0,6.3-3.7,13.8-10.7,18.5v0.6c9.7,2.4,18.3,8.7,18.3,19.5c0,13.4-10.1,24.2-26.7,24.2
			c-8.1,0-11.7-1.4-30.4-1.4C4267.1,682,4268.3,678.8,4268.3,650.3z M4293.9,676.7c13.7,0,15.5-8.5,15.5-16c0-15.1-13.6-18.6-28-19
			c0,1.4-0.1,2.7-0.1,4.2c0,2.7,0.1,5.6,0.1,8.7c0,5,0.2,10.6,0.3,16.2C4281.9,675.6,4289.3,676.7,4293.9,676.7z M4301,638.2
			c2.4-4.2,3.8-8.9,3.8-13.3c0-9.1-3.8-16.9-19.4-16.9h-2.3c-0.7,0-1.3,0.1-1.3,0.1c0,9-0.2,18-0.3,28.3
			C4288,636.6,4294.8,637,4301,638.2z"/>
		<path class="st5" d="M4376.5,650.3c0-9.5-0.2-29-0.6-36.3c-0.6-11.1-1.1-12.2-1.1-12.2s4.5,0.2,9.1,0.2h14.2
			c19.8,0,29.6,9.1,29.6,20.6c0,20.2-18.5,23-18.5,23v0.6c0,0,19.3,28.8,28.9,34.3v0.8c0,0-6.7,1.5-10.1,1.5
			c-18,0-26.8-34.5-36.8-37.4l-1.6-0.5c0,2.7,0.6,17.9,0.6,30.5c0,6.2-3.4,7.8-7.4,7.8c-2.4,0-4.9-0.7-7.8-1.1
			C4375,682,4376.5,678.8,4376.5,650.3z M4399.5,640.6c8.1,0,14.7-4.1,14.7-15.6c0-9.1-5.4-16.9-20.6-16.9h-3.5
			c-0.3,9.6-0.5,22.8-0.5,31.3C4393,640.5,4396.3,640.6,4399.5,640.6z"/>
		<path class="st5" d="M4474.5,681.4c0,0,3.2-2.4,7.4-14.3l23.9-66.6c0,0,11.7,0.5,15.6,13.8c4.3,14.4,14.5,45.1,20.2,57.8
			c3.2,7.2,3.9,8.6,5.3,9.3v0.6c0,0-4.3,1.1-8.3,1.1c-5,0-9.1-1.9-10.5-6.9c-1.5-5.1-3.7-12.6-6.4-20.9c-3.5-0.1-7.5-0.2-11.4-0.2
			c-5.8,0-11.7,0.2-16.5,0.5c-6.9,20.8-6.3,27.5-15.2,27.5c-1.9,0-4.1-1.1-4.1-1.1V681.4z M4507.9,649.5c4,0,8-0.1,11.8-0.2
			c-4.1-12.1-8.6-25-12.2-34.4h-0.6c-4.9,14.2-8.3,25.4-11.2,34.4C4499.3,649.4,4503.5,649.5,4507.9,649.5z"/>
		<path class="st5" d="M4594.1,650.3c0-6.9-0.5-30.8-0.7-36.3c-0.6-11.1-1.1-12-1.1-12c1.4-0.5,3.4-0.9,5.8-0.9
			c2.4,0,4.8,0.2,5.9,1.9c3.1,4.6,7.3,10.2,12.1,15.9l22.2,26.7c5.8,7.1,10.3,12.8,11.4,15.2l0.5-0.5c-0.5-9-0.3-34.6-0.9-46.4
			c-0.6-11.1-1.1-12.1-1.1-12.1s1.9-1,4.2-1c4.9,0,5.3,2.4,5.3,6.5c0,13.8-0.6,27.1-0.6,45c0,12.8,0.1,25.5,1,29.6
			c0,0-2.5,0.7-5.6,0.7c-1.7,0-3.9-0.8-5.4-3.1c-2.9-4.5-7.3-10.2-12.6-16.5l-22.6-27.1c-5.9-7.2-10.3-12.8-10.9-15l-0.5,0.5
			c0,17.8,1,35,1,53.7c0,6.2-0.2,7.8-4.2,7.8c-2.4,0-5-1.1-5-1.1S4594.1,678.8,4594.1,650.3z"/>
		<path class="st5" d="M4703.9,681.4c0,0,3.2-2.4,7.4-14.3l23.9-66.6c0,0,11.7,0.5,15.6,13.8c4.3,14.4,14.5,45.1,20.2,57.8
			c3.2,7.2,3.9,8.6,5.3,9.3v0.6c0,0-4.3,1.1-8.3,1.1c-5,0-9.1-1.9-10.5-6.9c-1.5-5.1-3.7-12.6-6.4-20.9c-3.5-0.1-7.5-0.2-11.4-0.2
			c-5.8,0-11.7,0.2-16.5,0.5c-6.9,20.8-6.3,27.5-15.2,27.5c-1.9,0-4.1-1.1-4.1-1.1V681.4z M4737.3,649.5c4,0,8-0.1,11.8-0.2
			c-4.1-12.1-8.6-25-12.2-34.4h-0.6c-4.9,14.2-8.3,25.4-11.2,34.4C4728.7,649.4,4732.9,649.5,4737.3,649.5z"/>
	</g>
	<g class="st1">
		<path class="st3" d="M4167.2,795.3c3.5,1.6,7.4,2.6,11.7,2.6c4.5,0,11.9-1.8,13.7-10.1c0.5-2.3,0.5-6.9,0.5-8.8
			c-2.3,2.3-6.5,4.9-11.7,4.9c-9.1,0-17.1-5.8-17.1-19.2c0-11.9,10-20.1,21-20.1c5.6,0,10.8,1.3,13,2.4v35.9
			c0,16.9-12.9,19.6-19.3,19.6c-5.4,0-9.8-1.1-13.4-2.7L4167.2,795.3z M4193.1,774.2v-23.7c-2.6-1.1-5.9-1.3-8.1-1.3
			c-9.9,0-15.2,7.3-15.2,15.3c0,10.8,6.6,14.6,12.6,14.6C4186.9,779.1,4190.9,776.4,4193.1,774.2z"/>
		<path class="st3" d="M4241,783.5c-4.4-0.2-6.7-2.3-7.6-5.4c-3.4,3.2-8.3,5.6-13.3,5.6c-5.8,0-11.5-2.7-11.5-10.1
			c0-9.3,12.3-12.4,23.2-12.4h1.1c0-8.3-1.5-12.4-9-12.4c-4.1,0-8.5,1.6-10.8,3l-1.8-4.5c4.6-1.8,8.1-2.9,13.9-2.9
			c9.8,0,13,4.3,13,16.1V771c0,5.5,0.7,7.4,3.7,8.3L4241,783.5z M4232.7,765.6c-1.3-0.1-2.7-0.2-4-0.2c-8.5,0-14.7,2.3-14.7,8
			c0,4.7,4.1,5.9,7.2,5.9c4.9,0,9-2.8,11.5-5.5V765.6z"/>
		<path class="st3" d="M4271.1,750.1c-6.5,0.2-11.6,5.6-14.5,9.8v22.9h-5.2v-37.4h5.2v8.5c2.8-4,7.2-8.8,14.5-8.8V750.1z"/>
		<path class="st3" d="M4303.8,782.9v-4.1c-2.3,2.3-6.6,5-11.9,5c-9.1,0-17-5.8-17-19.2c0-11.9,10.1-20.1,20.8-20.1
			c3.5,0,6.2,0.7,8.2,1.4v-19.2h5.2v56.2H4303.8z M4303.8,774.1v-22.9c-2.7-1.6-6.6-2-8.3-2c-9.9,0-15.2,7.3-15.2,15.3
			c0,10.8,6.6,14.6,12.5,14.6C4297.5,779.1,4301.5,776.3,4303.8,774.1z"/>
		<path class="st3" d="M4351.4,781.9c-3.4,1.2-6.9,1.8-11.9,1.8c-10.9,0-19.7-6-19.7-19.7c0-12.9,9.5-19.5,18.7-19.5
			c9.1,0,13.7,4.8,13.7,16.5c0,1.6-0.1,3-0.2,4.4h-26.8c0.5,9.3,7.3,14,15.1,14c3.5,0,6.6-0.5,9.5-1.7L4351.4,781.9z M4347.5,761.4
			c0-9.3-3.8-12.6-9.1-12.6c-5.4,0-11.9,3.7-13,12.6H4347.5z"/>
		<path class="st3" d="M4389.7,782.9v-18.7c0-8.7-0.5-14.7-6.6-14.7c-5.1,0-10.9,5.9-14.1,9.6v23.8h-5.2v-37.4h5.2v7.3
			c3.8-3.8,9.6-8.3,15.1-8.3c9,0,10.9,6.3,10.9,17.1v21.3H4389.7z"/>
		<path class="st3" d="M4437.6,783.3c-8.7,0-10.8-3.4-10.8-11.1v-45.5h5.2V771c0,4.2,0.5,7.6,5.9,8L4437.6,783.3z"/>
		<path class="st3" d="M4450,730.4c2.2,0,3.5,1.3,3.5,3.5c0,2.1-1.4,3.5-3.5,3.5c-2.2,0-3.5-1.3-3.5-3.5
			C4446.5,731.8,4447.9,730.4,4450,730.4z M4447.3,782.9v-37.4h5.2v37.4H4447.3z"/>
		<path class="st3" d="M4468.4,782.9v-33.2h-6.9v-4.3h6.9v-3.3c0-10.5,4.8-15.9,15.2-15.9c2.5,0,5.7,0.5,7.5,1l-1,4.4
			c-2.3-0.7-5.1-1.1-7-1.1c-5.1,0-9.4,2.3-9.4,12v2.9h10.8v4.3h-10.8v33.2H4468.4z"/>
		<path class="st3" d="M4522,781.9c-3.4,1.2-6.9,1.8-11.9,1.8c-10.9,0-19.7-6-19.7-19.7c0-12.9,9.5-19.5,18.7-19.5
			c9.1,0,13.7,4.8,13.7,16.5c0,1.6-0.1,3-0.2,4.4h-26.8c0.5,9.3,7.3,14,15.1,14c3.5,0,6.6-0.5,9.5-1.7L4522,781.9z M4518,761.4
			c0-9.3-3.8-12.6-9.1-12.6c-5.4,0-11.9,3.7-13,12.6H4518z"/>
	</g>
	<g class="st1">
		<g>
			<path class="st3" d="M4283.3,383.9c0,14.5-7.8,26.2-7.8,26.2s-7.7-11.8-7.7-26.2c0-14.5,7.7-26.2,7.7-26.2
				S4283.3,369.4,4283.3,383.9z"/>
		</g>
		<g>
			<g>
				<path class="st3" d="M4299.4,404.4c-9.8,10.7-23.5,14.1-23.5,14.1s2.3-13.9,12.1-24.5s23.4-14.1,23.4-14.1
					S4309.2,393.7,4299.4,404.4z"/>
			</g>
			<g>
				<path class="st3" d="M4251.6,404.4c9.8,10.7,23.5,14.1,23.5,14.1s-2.3-13.9-12.1-24.5c-9.8-10.7-23.4-14.1-23.4-14.1
					S4241.8,393.7,4251.6,404.4z"/>
			</g>
		</g>
		<g>
			<path class="st3" d="M4283.3,448.1c0,14.5-7.8,26.2-7.8,26.2s-7.7-11.8-7.7-26.2c0-14.5,7.7-26.2,7.7-26.2
				S4283.3,433.6,4283.3,448.1z"/>
		</g>
		<g>
			<g>
				<path class="st3" d="M4299.4,468.7c-9.8,10.7-23.5,14.1-23.5,14.1s2.3-13.9,12.1-24.5s23.4-14.1,23.4-14.1
					S4309.2,458,4299.4,468.7z"/>
			</g>
			<g>
				<path class="st3" d="M4251.6,468.7c9.8,10.7,23.5,14.1,23.5,14.1s-2.3-13.9-12.1-24.5c-9.8-10.7-23.4-14.1-23.4-14.1
					S4241.8,458,4251.6,468.7z"/>
			</g>
		</g>
		<g>
			<path class="st3" d="M4283.3,512.4c0,14.5-7.8,26.2-7.8,26.2s-7.7-11.8-7.7-26.2c0-14.5,7.7-26.2,7.7-26.2
				S4283.3,497.9,4283.3,512.4z"/>
		</g>
		<g>
			<g>
				<path class="st3" d="M4299.4,532.9c-9.8,10.7-23.5,14.1-23.5,14.1s2.3-13.9,12.1-24.5c9.8-10.7,23.4-14.1,23.4-14.1
					S4309.2,522.2,4299.4,532.9z"/>
			</g>
			<g>
				<path class="st3" d="M4251.6,532.9c9.8,10.7,23.5,14.1,23.5,14.1s-2.3-13.9-12.1-24.5c-9.8-10.7-23.4-14.1-23.4-14.1
					S4241.8,522.2,4251.6,532.9z"/>
			</g>
		</g>
		<g>
			<path class="st3" d="M4357.2,383.9c0,14.5-7.8,26.2-7.8,26.2s-7.7-11.8-7.7-26.2c0-14.5,7.7-26.2,7.7-26.2
				S4357.2,369.4,4357.2,383.9z"/>
		</g>
		<g>
			<g>
				<path class="st3" d="M4373.4,404.4c-9.8,10.7-23.5,14.1-23.5,14.1s2.3-13.9,12.1-24.5s23.4-14.1,23.4-14.1
					S4383.2,393.7,4373.4,404.4z"/>
			</g>
			<g>
				<path class="st3" d="M4325.6,404.4c9.8,10.7,23.5,14.1,23.5,14.1s-2.3-13.9-12.1-24.5c-9.8-10.7-23.4-14.1-23.4-14.1
					S4315.8,393.7,4325.6,404.4z"/>
			</g>
		</g>
		<g>
			<path class="st3" d="M4357.2,448.1c0,14.5-7.8,26.2-7.8,26.2s-7.7-11.8-7.7-26.2c0-14.5,7.7-26.2,7.7-26.2
				S4357.2,433.6,4357.2,448.1z"/>
		</g>
		<g>
			<g>
				<path class="st3" d="M4373.4,468.7c-9.8,10.7-23.5,14.1-23.5,14.1s2.3-13.9,12.1-24.5s23.4-14.1,23.4-14.1
					S4383.2,458,4373.4,468.7z"/>
			</g>
			<g>
				<path class="st3" d="M4325.6,468.7c9.8,10.7,23.5,14.1,23.5,14.1s-2.3-13.9-12.1-24.5c-9.8-10.7-23.4-14.1-23.4-14.1
					S4315.8,458,4325.6,468.7z"/>
			</g>
		</g>
		<g>
			<path class="st3" d="M4357.2,512.4c0,14.5-7.8,26.2-7.8,26.2s-7.7-11.8-7.7-26.2c0-14.5,7.7-26.2,7.7-26.2
				S4357.2,497.9,4357.2,512.4z"/>
		</g>
		<g>
			<g>
				<path class="st3" d="M4373.4,532.9c-9.8,10.7-23.5,14.1-23.5,14.1s2.3-13.9,12.1-24.5c9.8-10.7,23.4-14.1,23.4-14.1
					S4383.2,522.2,4373.4,532.9z"/>
			</g>
			<g>
				<path class="st3" d="M4325.6,532.9c9.8,10.7,23.5,14.1,23.5,14.1s-2.3-13.9-12.1-24.5c-9.8-10.7-23.4-14.1-23.4-14.1
					S4315.8,522.2,4325.6,532.9z"/>
			</g>
		</g>
		<g>
			<path class="st3" d="M4431.2,383.9c0,14.5-7.8,26.2-7.8,26.2s-7.7-11.8-7.7-26.2c0-14.5,7.7-26.2,7.7-26.2
				S4431.2,369.4,4431.2,383.9z"/>
		</g>
		<g>
			<g>
				<path class="st3" d="M4447.3,404.4c-9.8,10.7-23.5,14.1-23.5,14.1s2.3-13.9,12.1-24.5s23.4-14.1,23.4-14.1
					S4457.1,393.7,4447.3,404.4z"/>
			</g>
			<g>
				<path class="st3" d="M4399.6,404.4c9.8,10.7,23.5,14.1,23.5,14.1s-2.3-13.9-12.1-24.5s-23.4-14.1-23.4-14.1
					S4389.7,393.7,4399.6,404.4z"/>
			</g>
		</g>
		<g>
			<path class="st3" d="M4431.2,448.1c0,14.5-7.8,26.2-7.8,26.2s-7.7-11.8-7.7-26.2c0-14.5,7.7-26.2,7.7-26.2
				S4431.2,433.6,4431.2,448.1z"/>
		</g>
		<g>
			<g>
				<path class="st3" d="M4447.3,468.7c-9.8,10.7-23.5,14.1-23.5,14.1s2.3-13.9,12.1-24.5s23.4-14.1,23.4-14.1
					S4457.1,458,4447.3,468.7z"/>
			</g>
			<g>
				<path class="st3" d="M4399.6,468.7c9.8,10.7,23.5,14.1,23.5,14.1s-2.3-13.9-12.1-24.5s-23.4-14.1-23.4-14.1
					S4389.7,458,4399.6,468.7z"/>
			</g>
		</g>
		<g>
			<path class="st3" d="M4431.2,512.4c0,14.5-7.8,26.2-7.8,26.2s-7.7-11.8-7.7-26.2c0-14.5,7.7-26.2,7.7-26.2
				S4431.2,497.9,4431.2,512.4z"/>
		</g>
		<g>
			<g>
				<path class="st3" d="M4447.3,532.9c-9.8,10.7-23.5,14.1-23.5,14.1s2.3-13.9,12.1-24.5c9.8-10.7,23.4-14.1,23.4-14.1
					S4457.1,522.2,4447.3,532.9z"/>
			</g>
			<g>
				<path class="st3" d="M4399.6,532.9c9.8,10.7,23.5,14.1,23.5,14.1s-2.3-13.9-12.1-24.5c-9.8-10.7-23.4-14.1-23.4-14.1
					S4389.7,522.2,4399.6,532.9z"/>
			</g>
		</g>
	</g>
</g>
<g class="st0">
	<rect x="2495.5" y="-4" class="st4" width="1209" height="1209"/>
	<g class="st1">
		<path class="st3" d="M2937.1,431.6c0,35.7-19.1,64.6-19.1,64.6s-19-28.9-19-64.6s19-64.6,19-64.6S2937.1,396,2937.1,431.6z"/>
	</g>
	<g class="st1">
		<g>
			<path class="st3" d="M2976.8,482.1c-24.1,26.3-57.8,34.6-57.8,34.6s5.6-34.1,29.7-60.4c24.1-26.3,57.7-34.7,57.7-34.7
				S3000.9,455.9,2976.8,482.1z"/>
		</g>
		<g>
			<path class="st3" d="M2859.3,482.1c24.1,26.3,57.8,34.6,57.8,34.6s-5.6-34.1-29.7-60.4c-24.1-26.3-57.7-34.7-57.7-34.7
				S2835.2,455.9,2859.3,482.1z"/>
		</g>
	</g>
	<g class="st1">
		<path class="st3" d="M2937.1,589.7c0,35.7-19.1,64.6-19.1,64.6s-19-28.9-19-64.6c0-35.7,19-64.6,19-64.6
			S2937.1,554.1,2937.1,589.7z"/>
	</g>
	<g class="st1">
		<g>
			<path class="st3" d="M2976.8,640.2c-24.1,26.3-57.8,34.6-57.8,34.6s5.6-34.1,29.7-60.4c24.1-26.3,57.7-34.7,57.7-34.7
				S3000.9,614,2976.8,640.2z"/>
		</g>
		<g>
			<path class="st3" d="M2859.3,640.2c24.1,26.3,57.8,34.6,57.8,34.6s-5.6-34.1-29.7-60.4c-24.1-26.3-57.7-34.7-57.7-34.7
				S2835.2,614,2859.3,640.2z"/>
		</g>
	</g>
	<g class="st1">
		<path class="st3" d="M2937.1,747.8c0,35.7-19.1,64.6-19.1,64.6s-19-28.9-19-64.6s19-64.6,19-64.6S2937.1,712.2,2937.1,747.8z"/>
	</g>
	<g class="st1">
		<g>
			<path class="st3" d="M2976.8,798.3c-24.1,26.3-57.8,34.6-57.8,34.6s5.6-34.1,29.7-60.4s57.7-34.7,57.7-34.7
				S3000.9,772.1,2976.8,798.3z"/>
		</g>
		<g>
			<path class="st3" d="M2859.3,798.3c24.1,26.3,57.8,34.6,57.8,34.6s-5.6-34.1-29.7-60.4s-57.7-34.7-57.7-34.7
				S2835.2,772.1,2859.3,798.3z"/>
		</g>
	</g>
	<g class="st1">
		<path class="st3" d="M3119.1,431.6c0,35.7-19.1,64.6-19.1,64.6s-19-28.9-19-64.6s19-64.6,19-64.6S3119.1,396,3119.1,431.6z"/>
	</g>
	<g class="st1">
		<g>
			<path class="st3" d="M3158.8,482.1c-24.1,26.3-57.8,34.6-57.8,34.6s5.6-34.1,29.7-60.4c24.1-26.3,57.7-34.7,57.7-34.7
				S3182.9,455.9,3158.8,482.1z"/>
		</g>
		<g>
			<path class="st3" d="M3041.2,482.1c24.1,26.3,57.8,34.6,57.8,34.6s-5.6-34.1-29.7-60.4c-24.1-26.3-57.7-34.7-57.7-34.7
				S3017.1,455.9,3041.2,482.1z"/>
		</g>
	</g>
	<g class="st1">
		<path class="st3" d="M3119.1,589.7c0,35.7-19.1,64.6-19.1,64.6s-19-28.9-19-64.6c0-35.7,19-64.6,19-64.6
			S3119.1,554.1,3119.1,589.7z"/>
	</g>
	<g class="st1">
		<g>
			<path class="st3" d="M3158.8,640.2c-24.1,26.3-57.8,34.6-57.8,34.6s5.6-34.1,29.7-60.4c24.1-26.3,57.7-34.7,57.7-34.7
				S3182.9,614,3158.8,640.2z"/>
		</g>
		<g>
			<path class="st3" d="M3041.2,640.2c24.1,26.3,57.8,34.6,57.8,34.6s-5.6-34.1-29.7-60.4c-24.1-26.3-57.7-34.7-57.7-34.7
				S3017.1,614,3041.2,640.2z"/>
		</g>
	</g>
	<g class="st1">
		<path class="st3" d="M3119.1,747.8c0,35.7-19.1,64.6-19.1,64.6s-19-28.9-19-64.6s19-64.6,19-64.6S3119.1,712.2,3119.1,747.8z"/>
	</g>
	<g class="st1">
		<g>
			<path class="st3" d="M3158.8,798.3c-24.1,26.3-57.8,34.6-57.8,34.6s5.6-34.1,29.7-60.4s57.7-34.7,57.7-34.7
				S3182.9,772.1,3158.8,798.3z"/>
		</g>
		<g>
			<path class="st3" d="M3041.2,798.3c24.1,26.3,57.8,34.6,57.8,34.6s-5.6-34.1-29.7-60.4s-57.7-34.7-57.7-34.7
				S3017.1,772.1,3041.2,798.3z"/>
		</g>
	</g>
	<g class="st1">
		<path class="st3" d="M3301,431.6c0,35.7-19.1,64.6-19.1,64.6s-19-28.9-19-64.6s19-64.6,19-64.6S3301,396,3301,431.6z"/>
	</g>
	<g class="st1">
		<g>
			<path class="st3" d="M3340.7,482.1c-24.1,26.3-57.8,34.6-57.8,34.6s5.6-34.1,29.7-60.4c24.1-26.3,57.7-34.7,57.7-34.7
				S3364.8,455.9,3340.7,482.1z"/>
		</g>
		<g>
			<path class="st3" d="M3223.2,482.1c24.1,26.3,57.8,34.6,57.8,34.6s-5.6-34.1-29.7-60.4c-24.1-26.3-57.7-34.7-57.7-34.7
				S3199.1,455.9,3223.2,482.1z"/>
		</g>
	</g>
	<g class="st1">
		<path class="st3" d="M3301,589.7c0,35.7-19.1,64.6-19.1,64.6s-19-28.9-19-64.6c0-35.7,19-64.6,19-64.6S3301,554.1,3301,589.7z"/>
	</g>
	<g class="st1">
		<g>
			<path class="st3" d="M3340.7,640.2c-24.1,26.3-57.8,34.6-57.8,34.6s5.6-34.1,29.7-60.4c24.1-26.3,57.7-34.7,57.7-34.7
				S3364.8,614,3340.7,640.2z"/>
		</g>
		<g>
			<path class="st3" d="M3223.2,640.2c24.1,26.3,57.8,34.6,57.8,34.6s-5.6-34.1-29.7-60.4c-24.1-26.3-57.7-34.7-57.7-34.7
				S3199.1,614,3223.2,640.2z"/>
		</g>
	</g>
	<g class="st1">
		<path class="st3" d="M3301,747.8c0,35.7-19.1,64.6-19.1,64.6s-19-28.9-19-64.6s19-64.6,19-64.6S3301,712.2,3301,747.8z"/>
	</g>
	<g class="st1">
		<g>
			<path class="st3" d="M3340.7,798.3c-24.1,26.3-57.8,34.6-57.8,34.6s5.6-34.1,29.7-60.4s57.7-34.7,57.7-34.7
				S3364.8,772.1,3340.7,798.3z"/>
		</g>
		<g>
			<path class="st3" d="M3223.2,798.3c24.1,26.3,57.8,34.6,57.8,34.6s-5.6-34.1-29.7-60.4s-57.7-34.7-57.7-34.7
				S3199.1,772.1,3223.2,798.3z"/>
		</g>
	</g>
</g>
<g class="st0">
	<rect x="1245.5" y="-4" class="st4" width="1209" height="1209"/>
	<g class="st1">
		<g>
			<path class="st3" d="M1410.8,546c0,12.3-6.6,22.2-6.6,22.2s-6.5-9.9-6.5-22.2c0-12.3,6.5-22.2,6.5-22.2S1410.8,533.7,1410.8,546z
				"/>
		</g>
		<g>
			<g>
				<path class="st3" d="M1424.4,563.3c-8.3,9-19.8,11.9-19.8,11.9s1.9-11.7,10.2-20.7s19.8-11.9,19.8-11.9
					S1432.7,554.3,1424.4,563.3z"/>
			</g>
			<g>
				<path class="st3" d="M1384,563.3c8.3,9,19.8,11.9,19.8,11.9s-1.9-11.7-10.2-20.7s-19.8-11.9-19.8-11.9S1375.7,554.3,1384,563.3z
					"/>
			</g>
		</g>
		<g>
			<path class="st3" d="M1410.8,600.3c0,12.3-6.6,22.2-6.6,22.2s-6.5-9.9-6.5-22.2s6.5-22.2,6.5-22.2S1410.8,588.1,1410.8,600.3z"/>
		</g>
		<g>
			<g>
				<path class="st3" d="M1424.4,617.7c-8.3,9-19.8,11.9-19.8,11.9s1.9-11.7,10.2-20.7c8.3-9,19.8-11.9,19.8-11.9
					S1432.7,608.6,1424.4,617.7z"/>
			</g>
			<g>
				<path class="st3" d="M1384,617.7c8.3,9,19.8,11.9,19.8,11.9s-1.9-11.7-10.2-20.7c-8.3-9-19.8-11.9-19.8-11.9
					S1375.7,608.6,1384,617.7z"/>
			</g>
		</g>
		<g>
			<path class="st3" d="M1410.8,654.6c0,12.3-6.6,22.2-6.6,22.2s-6.5-9.9-6.5-22.2c0-12.3,6.5-22.2,6.5-22.2
				S1410.8,642.4,1410.8,654.6z"/>
		</g>
		<g>
			<g>
				<path class="st3" d="M1424.4,672c-8.3,9-19.8,11.9-19.8,11.9s1.9-11.7,10.2-20.7s19.8-11.9,19.8-11.9S1432.7,663,1424.4,672z"/>
			</g>
			<g>
				<path class="st3" d="M1384,672c8.3,9,19.8,11.9,19.8,11.9s-1.9-11.7-10.2-20.7s-19.8-11.9-19.8-11.9S1375.7,663,1384,672z"/>
			</g>
		</g>
		<g>
			<path class="st3" d="M1473.3,546c0,12.3-6.6,22.2-6.6,22.2s-6.5-9.9-6.5-22.2c0-12.3,6.5-22.2,6.5-22.2S1473.3,533.7,1473.3,546z
				"/>
		</g>
		<g>
			<g>
				<path class="st3" d="M1486.9,563.3c-8.3,9-19.8,11.9-19.8,11.9s1.9-11.7,10.2-20.7s19.8-11.9,19.8-11.9
					S1495.2,554.3,1486.9,563.3z"/>
			</g>
			<g>
				<path class="st3" d="M1446.5,563.3c8.3,9,19.8,11.9,19.8,11.9s-1.9-11.7-10.2-20.7s-19.8-11.9-19.8-11.9
					S1438.2,554.3,1446.5,563.3z"/>
			</g>
		</g>
		<g>
			<path class="st3" d="M1473.3,600.3c0,12.3-6.6,22.2-6.6,22.2s-6.5-9.9-6.5-22.2s6.5-22.2,6.5-22.2S1473.3,588.1,1473.3,600.3z"/>
		</g>
		<g>
			<g>
				<path class="st3" d="M1486.9,617.7c-8.3,9-19.8,11.9-19.8,11.9s1.9-11.7,10.2-20.7c8.3-9,19.8-11.9,19.8-11.9
					S1495.2,608.6,1486.9,617.7z"/>
			</g>
			<g>
				<path class="st3" d="M1446.5,617.7c8.3,9,19.8,11.9,19.8,11.9s-1.9-11.7-10.2-20.7c-8.3-9-19.8-11.9-19.8-11.9
					S1438.2,608.6,1446.5,617.7z"/>
			</g>
		</g>
		<g>
			<path class="st3" d="M1473.3,654.6c0,12.3-6.6,22.2-6.6,22.2s-6.5-9.9-6.5-22.2c0-12.3,6.5-22.2,6.5-22.2
				S1473.3,642.4,1473.3,654.6z"/>
		</g>
		<g>
			<g>
				<path class="st3" d="M1486.9,672c-8.3,9-19.8,11.9-19.8,11.9s1.9-11.7,10.2-20.7s19.8-11.9,19.8-11.9S1495.2,663,1486.9,672z"/>
			</g>
			<g>
				<path class="st3" d="M1446.5,672c8.3,9,19.8,11.9,19.8,11.9s-1.9-11.7-10.2-20.7s-19.8-11.9-19.8-11.9S1438.2,663,1446.5,672z"
					/>
			</g>
		</g>
		<g>
			<path class="st3" d="M1535.8,546c0,12.3-6.6,22.2-6.6,22.2s-6.5-9.9-6.5-22.2c0-12.3,6.5-22.2,6.5-22.2S1535.8,533.7,1535.8,546z
				"/>
		</g>
		<g>
			<g>
				<path class="st3" d="M1549.4,563.3c-8.3,9-19.8,11.9-19.8,11.9s1.9-11.7,10.2-20.7s19.8-11.9,19.8-11.9
					S1557.7,554.3,1549.4,563.3z"/>
			</g>
			<g>
				<path class="st3" d="M1509,563.3c8.3,9,19.8,11.9,19.8,11.9s-1.9-11.7-10.2-20.7s-19.8-11.9-19.8-11.9S1500.8,554.3,1509,563.3z
					"/>
			</g>
		</g>
		<g>
			<path class="st3" d="M1535.8,600.3c0,12.3-6.6,22.2-6.6,22.2s-6.5-9.9-6.5-22.2s6.5-22.2,6.5-22.2S1535.8,588.1,1535.8,600.3z"/>
		</g>
		<g>
			<g>
				<path class="st3" d="M1549.4,617.7c-8.3,9-19.8,11.9-19.8,11.9s1.9-11.7,10.2-20.7c8.3-9,19.8-11.9,19.8-11.9
					S1557.7,608.6,1549.4,617.7z"/>
			</g>
			<g>
				<path class="st3" d="M1509,617.7c8.3,9,19.8,11.9,19.8,11.9s-1.9-11.7-10.2-20.7c-8.3-9-19.8-11.9-19.8-11.9
					S1500.8,608.6,1509,617.7z"/>
			</g>
		</g>
		<g>
			<path class="st3" d="M1535.8,654.6c0,12.3-6.6,22.2-6.6,22.2s-6.5-9.9-6.5-22.2c0-12.3,6.5-22.2,6.5-22.2
				S1535.8,642.4,1535.8,654.6z"/>
		</g>
		<g>
			<g>
				<path class="st3" d="M1549.4,672c-8.3,9-19.8,11.9-19.8,11.9s1.9-11.7,10.2-20.7s19.8-11.9,19.8-11.9S1557.7,663,1549.4,672z"/>
			</g>
			<g>
				<path class="st3" d="M1509,672c8.3,9,19.8,11.9,19.8,11.9s-1.9-11.7-10.2-20.7s-19.8-11.9-19.8-11.9S1500.8,663,1509,672z"/>
			</g>
		</g>
	</g>
	<g class="st1">
		<path class="st3" d="M2079.6,687.7c2.4,1.1,5,1.7,7.9,1.7c3.1,0,8.1-1.2,9.3-6.9c0.3-1.5,0.3-4.7,0.3-6c-1.6,1.5-4.4,3.3-7.9,3.3
			c-6.2,0-11.6-3.9-11.6-13c0-8.1,6.8-13.7,14.3-13.7c3.8,0,7.4,0.9,8.8,1.6v24.4c0,11.5-8.7,13.3-13.1,13.3c-3.7,0-6.6-0.7-9.1-1.9
			L2079.6,687.7z M2097.1,673.4v-16.1c-1.7-0.7-4-0.9-5.5-0.9c-6.7,0-10.3,4.9-10.3,10.4c0,7.3,4.5,9.9,8.5,9.9
			C2093,676.7,2095.7,674.9,2097.1,673.4z"/>
		<path class="st3" d="M2129.7,679.7c-3-0.2-4.6-1.6-5.2-3.7c-2.3,2.2-5.6,3.8-9.1,3.8c-3.9,0-7.8-1.9-7.8-6.8
			c0-6.3,8.4-8.4,15.7-8.4h0.7c0-5.7-1-8.4-6.1-8.4c-2.8,0-5.8,1.1-7.4,2.1l-1.2-3.1c3.1-1.2,5.5-2,9.4-2c6.7,0,8.8,2.9,8.8,10.9
			v7.1c0,3.8,0.5,5,2.5,5.6L2129.7,679.7z M2124.1,667.6c-0.9-0.1-1.8-0.1-2.7-0.1c-5.8,0-10,1.5-10,5.4c0,3.2,2.8,4,4.9,4
			c3.3,0,6.1-1.9,7.8-3.7V667.6z"/>
		<path class="st3" d="M2150.1,657.1c-4.4,0.1-7.9,3.8-9.9,6.7v15.6h-3.6v-25.4h3.6v5.8c1.9-2.7,4.9-6,9.9-6V657.1z"/>
		<path class="st3" d="M2172.3,679.3v-2.8c-1.5,1.5-4.5,3.4-8.1,3.4c-6.1,0-11.6-3.9-11.6-13c0-8.1,6.8-13.7,14.1-13.7
			c2.4,0,4.2,0.5,5.6,1v-13h3.6v38.2H2172.3z M2172.3,673.3v-15.6c-1.8-1.1-4.5-1.3-5.6-1.3c-6.7,0-10.3,4.9-10.3,10.4
			c0,7.3,4.5,9.9,8.5,9.9C2168.1,676.7,2170.8,674.9,2172.3,673.3z"/>
		<path class="st3" d="M2204.7,678.6c-2.3,0.8-4.7,1.2-8.1,1.2c-7.4,0-13.4-4.1-13.4-13.4c0-8.7,6.5-13.2,12.7-13.2
			c6.2,0,9.3,3.3,9.3,11.2c0,1.1-0.1,2-0.2,3H2187c0.4,6.3,5,9.5,10.3,9.5c2.4,0,4.5-0.3,6.5-1.2L2204.7,678.6z M2202,664.7
			c0-6.3-2.6-8.6-6.2-8.6c-3.7,0-8.1,2.5-8.8,8.6H2202z"/>
		<path class="st3" d="M2230.7,679.3v-12.7c0-5.9-0.4-10-4.5-10c-3.4,0-7.4,4-9.6,6.5v16.2h-3.6v-25.4h3.6v5
			c2.6-2.6,6.5-5.6,10.2-5.6c6.1,0,7.4,4.3,7.4,11.6v14.5H2230.7z"/>
		<path class="st3" d="M2263.2,679.6c-5.9,0-7.3-2.3-7.3-7.5v-30.9h3.6v30c0,2.9,0.3,5.1,4,5.4L2263.2,679.6z"/>
		<path class="st3" d="M2271.6,643.7c1.5,0,2.4,0.9,2.4,2.4c0,1.4-1,2.4-2.4,2.4c-1.5,0-2.4-0.9-2.4-2.4
			C2269.3,644.6,2270.3,643.7,2271.6,643.7z M2269.8,679.3v-25.4h3.5v25.4H2269.8z"/>
		<path class="st3" d="M2284.1,679.3v-22.5h-4.7v-2.9h4.7v-2.2c0-7.2,3.3-10.8,10.3-10.8c1.7,0,3.9,0.4,5.1,0.7l-0.7,3
			c-1.5-0.5-3.5-0.7-4.8-0.7c-3.5,0-6.4,1.6-6.4,8.2v2h7.4v2.9h-7.4v22.5H2284.1z"/>
		<path class="st3" d="M2320.6,678.6c-2.3,0.8-4.7,1.2-8.1,1.2c-7.4,0-13.4-4.1-13.4-13.4c0-8.7,6.5-13.2,12.7-13.2
			c6.2,0,9.3,3.3,9.3,11.2c0,1.1-0.1,2-0.2,3h-18.2c0.4,6.3,5,9.5,10.3,9.5c2.4,0,4.5-0.3,6.5-1.2L2320.6,678.6z M2317.9,664.7
			c0-6.3-2.6-8.6-6.2-8.6c-3.7,0-8.1,2.5-8.8,8.6H2317.9z"/>
	</g>
	<g class="st1">
		<path class="st5" d="M1607.7,607h0.7c0,0,7.6,9,20.6,9c9.5,0,12.7-5,12.7-10.2c0-15.3-34.7-13.2-34.7-34.4
			c0-12.7,12-19.8,24.1-19.8c5.2,0,19.2,1.9,19.2,7.3c0,2.4-1.5,5.6-3.8,7.8h-0.7c0,0-6.5-9.9-16.8-9.9c-6.6,0-11.3,4.6-11.3,10.8
			c0,15.1,34.7,11.8,34.7,34c0,13.4-12.7,20.5-24.8,20.5c-8.2,0-22.2-3.3-22.2-9.4C1605.4,611,1606.9,608.6,1607.7,607z"/>
		<path class="st5" d="M1698.2,593.9c0-5.8-0.4-26.1-0.6-30.7c-0.5-9.4-1-10.1-1-10.1h17.8c14.8,0,21.3-1,21.3-1
			c-0.6,4.7-0.9,8-7.8,8c-11.5,0-18.3-1.5-18.3-1.5c0,4-0.1,14.2-0.2,23.8h14.9c4,0,5.7-1,5.7-1c-0.2,4.5-0.8,7.1-5.8,7.1
			c-5,0-14.9-0.6-14.9-0.6v10c0,5.2,0.3,10.4,0.4,16.3l17.7-0.5c6.3-0.2,10.5-0.9,12.9-2.1c0.1,1.1,0.1,1.9,0.1,2.7
			c0,6.2-2.1,6.8-9.2,6.8l-34.1-0.5C1697.2,620.6,1698.2,617.9,1698.2,593.9z"/>
		<path class="st5" d="M1783.3,593.9c0-5.8-0.4-26.1-0.6-30.7c-0.5-9.4-1-10.1-1-10.1c1.2-0.4,3.6-0.8,5.6-0.8
			c3.3,0,6.6,0.3,7.4,1.8c1.2,2.2,2.6,4.6,4.1,7.2l12.4,21.8c2.2,4,3.9,7.2,4.5,9.1h0.5c2-5.5,11.5-22.6,17.8-34.8
			c1.9-3.8,4-5.2,7.4-5.2c1.5,0,3.5,0,5.9,0.5c0,8.4-0.1,21.6-0.1,29.7c0,12.7,0,25.3,1.6,38.1c-2.4,0.4-4.4,1-6.5,1
			c-3.4,0-6.3-1.4-6.3-6.6v-49.2l-0.4-0.3c-0.6,1.5-2.3,4.6-4.4,8.7l-9.8,18.6c-2.8,5.3-5.9,15.5-5.9,15.5h-1.5
			c-0.9,0-1.7-0.1-2-0.7c-2.2-5.1-5.5-10.8-8.6-16.1l-8-13.9c-2.8-4.8-5.1-8.9-6.3-11.6l-0.4,0.4c0,15.1,0.9,32.7,0.9,48.6
			c0,5.2-0.2,6.6-3.6,6.6c-2,0-4.2-1-4.2-1S1783.3,617.9,1783.3,593.9z"/>
		<path class="st5" d="M1896.8,593.9c0-5.8-0.4-26.1-0.6-30.7c-0.5-9.4-1-10.3-1-10.3s3.8,0.2,7.7,0.2h12c16.3,0,22.7,7.4,22.7,15.6
			c0,5.3-3.1,11.7-9.1,15.6v0.5c8.2,2,15.5,7.3,15.5,16.5c0,11.3-8.5,20.5-22.6,20.5c-6.9,0-9.8-1.2-25.7-1.2
			C1895.7,620.6,1896.8,617.9,1896.8,593.9z M1918.4,616.2c11.6,0,13.1-7.1,13.1-13.5c0-12.7-11.5-15.7-23.7-16
			c0,1.2-0.1,2.3-0.1,3.6c0,2.3,0.1,4.7,0.1,7.3c0,4.2,0.2,9,0.3,13.7C1908.2,615.2,1914.5,616.2,1918.4,616.2z M1924.4,583.6
			c2-3.6,3.2-7.5,3.2-11.2c0-7.7-3.2-14.3-16.4-14.3h-1.9c-0.6,0-1.1,0.1-1.1,0.1c0,7.6-0.2,15.3-0.3,23.9
			C1913.4,582.3,1919.2,582.6,1924.4,583.6z"/>
		<path class="st5" d="M1988.2,593.9c0-8-0.2-24.5-0.5-30.7c-0.5-9.4-1-10.3-1-10.3s3.8,0.2,7.7,0.2h12c16.7,0,25,7.7,25,17.4
			c0,17.1-15.6,19.4-15.6,19.4v0.5c0,0,16.3,24.3,24.4,29v0.7c0,0-5.7,1.3-8.5,1.3c-15.3,0-22.7-29.2-31.1-31.6l-1.4-0.4
			c0,2.3,0.5,15.2,0.5,25.8c0,5.2-2.9,6.6-6.3,6.6c-2,0-4.2-0.6-6.6-1C1986.9,620.6,1988.2,617.9,1988.2,593.9z M2007.6,585.7
			c6.9,0,12.5-3.5,12.5-13.2c0-7.7-4.5-14.3-17.4-14.3h-3c-0.3,8.1-0.4,19.3-0.4,26.5C2002.1,585.6,2004.9,585.7,2007.6,585.7z"/>
		<path class="st5" d="M2071.1,620.1c0,0,2.7-2,6.3-12.1l20.2-56.3c0,0,9.8,0.4,13.2,11.7c3.7,12.2,12.3,38.1,17.1,48.9
			c2.7,6.1,3.3,7.2,4.4,7.8v0.5c0,0-3.7,1-7,1c-4.2,0-7.7-1.6-8.9-5.8c-1.3-4.3-3.1-10.6-5.4-17.7c-3-0.1-6.4-0.2-9.7-0.2
			c-4.9,0-9.8,0.2-13.9,0.4c-5.8,17.6-5.3,23.3-12.8,23.3c-1.6,0-3.5-1-3.5-1V620.1z M2099.2,593.2c3.4,0,6.8-0.1,9.9-0.2
			c-3.5-10.2-7.2-21.1-10.3-29.1h-0.5c-4.2,12-7,21.4-9.5,29.1C2092,593.1,2095.6,593.2,2099.2,593.2z"/>
		<path class="st5" d="M2172.2,593.9c0-5.8-0.4-26.1-0.6-30.7c-0.5-9.4-1-10.1-1-10.1c1.2-0.4,2.9-0.8,4.9-0.8c2,0,4.1,0.2,5,1.6
			c2.6,3.9,6.2,8.6,10.2,13.4l18.7,22.6c4.9,6,8.7,10.8,9.7,12.8l0.4-0.4c-0.4-7.6-0.3-29.3-0.8-39.2c-0.5-9.4-1-10.2-1-10.2
			s1.6-0.9,3.6-0.9c4.2,0,4.4,2,4.4,5.5c0,11.7-0.5,22.9-0.5,38c0,10.8,0.1,21.5,0.9,25c0,0-2.1,0.6-4.7,0.6c-1.4,0-3.3-0.7-4.5-2.6
			c-2.4-3.8-6.2-8.6-10.6-13.9l-19.1-22.9c-5-6.1-8.7-10.8-9.2-12.7l-0.4,0.4c0,15.1,0.9,29.5,0.9,45.4c0,5.2-0.2,6.6-3.6,6.6
			c-2,0-4.2-1-4.2-1S2172.2,617.9,2172.2,593.9z"/>
		<path class="st5" d="M2264.9,620.1c0,0,2.7-2,6.3-12.1l20.2-56.3c0,0,9.8,0.4,13.2,11.7c3.7,12.2,12.3,38.1,17.1,48.9
			c2.7,6.1,3.3,7.2,4.4,7.8v0.5c0,0-3.7,1-7,1c-4.2,0-7.7-1.6-8.9-5.8c-1.3-4.3-3.1-10.6-5.4-17.7c-3-0.1-6.4-0.2-9.7-0.2
			c-4.9,0-9.8,0.2-13.9,0.4c-5.8,17.6-5.3,23.3-12.8,23.3c-1.6,0-3.5-1-3.5-1V620.1z M2293.1,593.2c3.4,0,6.8-0.1,9.9-0.2
			c-3.5-10.2-7.2-21.1-10.3-29.1h-0.5c-4.2,12-7,21.4-9.5,29.1C2285.9,593.1,2289.5,593.2,2293.1,593.2z"/>
	</g>
</g>
<g>
	<rect x="-4" y="-4" class="st6" width="1209" height="1209"/>
	<g>
		<g>
			<path class="st5" d="M360.3,619h0.7c0,0,7.5,8.8,20.2,8.8c9.3,0,12.4-4.9,12.4-10c0-15-34-13-34-33.7c0-12.5,11.7-19.4,23.7-19.4
				c5.1,0,18.9,1.9,18.9,7.2c0,2.4-1.5,5.5-3.7,7.7h-0.7c0,0-6.3-9.8-16.5-9.8c-6.4,0-11.1,4.5-11.1,10.6c0,14.8,34,11.6,34,33.3
				c0,13.2-12.4,20.1-24.3,20.1c-8.1,0-21.8-3.2-21.8-9.2C358.1,622.9,359.5,620.5,360.3,619z"/>
			<path class="st5" d="M449.1,606.1c0-5.7-0.4-25.6-0.6-30.1c-0.5-9.2-0.9-9.9-0.9-9.9H465c14.5,0,20.9-0.9,20.9-0.9
				c-0.6,4.6-0.9,7.9-7.7,7.9c-11.3,0-18-1.5-18-1.5c0,3.9-0.1,13.9-0.2,23.3h14.6c3.9,0,5.6-0.9,5.6-0.9c-0.2,4.5-0.8,7-5.7,7
				c-4.9,0-14.6-0.6-14.6-0.6v9.9c0,5.1,0.3,10.2,0.4,16l17.3-0.5c6.2-0.2,10.3-0.9,12.7-2.1c0.1,1,0.1,1.9,0.1,2.7
				c0,6.1-2.1,6.6-9,6.6l-33.4-0.5C448.1,632.4,449.1,629.7,449.1,606.1z"/>
			<path class="st5" d="M532.6,606.1c0-5.7-0.4-25.6-0.6-30.1c-0.5-9.2-0.9-9.9-0.9-9.9c1.1-0.4,3.5-0.8,5.5-0.8
				c3.2,0,6.4,0.3,7.3,1.8c1.1,2.2,2.6,4.5,4,7.1l12.1,21.4c2.2,3.9,3.8,7.1,4.5,8.9h0.5c2-5.4,11.3-22.2,17.4-34.1
				c1.9-3.7,3.9-5.1,7.3-5.1c1.5,0,3.4,0,5.8,0.5c0,8.2-0.1,21.2-0.1,29.2c0,12.4,0,24.8,1.6,37.4c-2.4,0.4-4.4,0.9-6.3,0.9
				c-3.3,0-6.2-1.3-6.2-6.4v-48.3l-0.4-0.3c-0.6,1.5-2.3,4.5-4.4,8.5l-9.6,18.3c-2.7,5.2-5.8,15.2-5.8,15.2h-1.5
				c-0.9,0-1.7-0.1-2-0.7c-2.2-5-5.4-10.6-8.4-15.8l-7.9-13.6c-2.7-4.7-5-8.7-6.2-11.4l-0.4,0.4c0,14.8,0.9,32.1,0.9,47.7
				c0,5.1-0.2,6.4-3.5,6.4c-2,0-4.2-0.9-4.2-0.9S532.6,629.7,532.6,606.1z"/>
			<path class="st5" d="M643.9,606.1c0-5.7-0.4-25.6-0.6-30.1c-0.5-9.2-0.9-10.1-0.9-10.1s3.7,0.2,7.6,0.2h11.7
				c16,0,22.3,7.3,22.3,15.3c0,5.2-3,11.5-8.9,15.3v0.5c8.1,2,15.2,7.2,15.2,16.2c0,11.1-8.3,20.1-22.2,20.1
				c-6.7,0-9.7-1.1-25.2-1.1C642.8,632.4,643.9,629.7,643.9,606.1z M665.1,628c11.4,0,12.9-7,12.9-13.3c0-12.5-11.3-15.4-23.2-15.7
				c0,1.1-0.1,2.3-0.1,3.5c0,2.3,0.1,4.6,0.1,7.2c0,4.2,0.2,8.8,0.3,13.5C655.2,627.1,661.3,628,665.1,628z M671,596.1
				c2-3.5,3.1-7.4,3.1-11c0-7.6-3.1-14-16.1-14h-1.9c-0.6,0-1,0.1-1,0.1c0,7.5-0.2,15-0.3,23.5C660.2,594.8,665.9,595.1,671,596.1z"
				/>
			<path class="st5" d="M733.6,606.1c0-7.9-0.2-24.1-0.5-30.1c-0.5-9.2-0.9-10.1-0.9-10.1s3.7,0.2,7.6,0.2h11.7
				c16.4,0,24.5,7.6,24.5,17.1c0,16.8-15.3,19-15.3,19v0.5c0,0,16,23.9,24,28.4v0.7c0,0-5.6,1.2-8.3,1.2c-15,0-22.3-28.6-30.5-31
				l-1.3-0.4c0,2.3,0.5,14.9,0.5,25.3c0,5.1-2.8,6.4-6.2,6.4c-2,0-4.1-0.6-6.4-0.9C732.4,632.4,733.6,629.7,733.6,606.1z
				 M752.6,598.1c6.7,0,12.2-3.4,12.2-13c0-7.6-4.5-14-17.1-14h-2.9c-0.3,8-0.4,18.9-0.4,26C747.2,598,750,598.1,752.6,598.1z"/>
			<path class="st5" d="M814.9,631.9c0,0,2.7-2,6.2-11.8l19.8-55.2c0,0,9.7,0.4,13,11.5c3.6,11.9,12,37.4,16.8,47.9
				c2.7,6,3.2,7.1,4.4,7.7v0.5c0,0-3.6,0.9-6.9,0.9c-4.2,0-7.6-1.6-8.7-5.7c-1.2-4.3-3-10.4-5.3-17.3c-2.9-0.1-6.3-0.2-9.5-0.2
				c-4.8,0-9.7,0.2-13.6,0.4c-5.7,17.2-5.2,22.8-12.6,22.8c-1.6,0-3.4-0.9-3.4-0.9V631.9z M842.5,605.5c3.3,0,6.6-0.1,9.8-0.2
				c-3.4-10-7.1-20.7-10.1-28.5h-0.5c-4.1,11.7-6.9,21-9.3,28.5C835.4,605.4,838.9,605.5,842.5,605.5z"/>
			<path class="st5" d="M914.1,606.1c0-5.7-0.4-25.6-0.6-30.1c-0.5-9.2-0.9-9.9-0.9-9.9c1.1-0.4,2.8-0.8,4.8-0.8c2,0,4,0.2,4.9,1.6
				c2.6,3.8,6.1,8.4,10,13.2l18.4,22.2c4.8,5.9,8.5,10.6,9.5,12.6l0.4-0.4c-0.4-7.5-0.3-28.7-0.8-38.5c-0.5-9.2-0.9-10-0.9-10
				s1.6-0.9,3.5-0.9c4.1,0,4.4,2,4.4,5.4c0,11.5-0.5,22.5-0.5,37.3c0,10.6,0.1,21.1,0.9,24.5c0,0-2.1,0.6-4.6,0.6
				c-1.4,0-3.2-0.7-4.5-2.6c-2.4-3.7-6.1-8.4-10.4-13.6l-18.8-22.5c-4.9-6-8.5-10.6-9-12.4l-0.4,0.4c0,14.8,0.9,29,0.9,44.5
				c0,5.1-0.2,6.4-3.5,6.4c-2,0-4.2-0.9-4.2-0.9S914.1,629.7,914.1,606.1z"/>
			<path class="st5" d="M1005.1,631.9c0,0,2.7-2,6.2-11.8l19.8-55.2c0,0,9.7,0.4,13,11.5c3.6,11.9,12,37.4,16.8,47.9
				c2.7,6,3.2,7.1,4.4,7.7v0.5c0,0-3.6,0.9-6.9,0.9c-4.2,0-7.6-1.6-8.7-5.7c-1.2-4.3-3-10.4-5.3-17.3c-2.9-0.1-6.3-0.2-9.5-0.2
				c-4.8,0-9.7,0.2-13.6,0.4c-5.7,17.2-5.2,22.8-12.6,22.8c-1.6,0-3.4-0.9-3.4-0.9V631.9z M1032.8,605.5c3.3,0,6.6-0.1,9.8-0.2
				c-3.4-10-7.1-20.7-10.1-28.5h-0.5c-4.1,11.7-6.9,21-9.3,28.5C1025.7,605.4,1029.2,605.5,1032.8,605.5z"/>
		</g>
	</g>
	<g>
		<g>
			<path class="st3" d="M171,537.2c0,12-6.4,21.8-6.4,21.8s-6.4-9.7-6.4-21.8s6.4-21.8,6.4-21.8S171,525.2,171,537.2z"/>
		</g>
		<g>
			<g>
				<path class="st3" d="M184.4,554.3c-8.1,8.9-19.5,11.7-19.5,11.7s1.9-11.5,10-20.4c8.1-8.9,19.4-11.7,19.4-11.7
					S192.6,545.4,184.4,554.3z"/>
			</g>
			<g>
				<path class="st3" d="M144.8,554.3c8.1,8.9,19.5,11.7,19.5,11.7s-1.9-11.5-10-20.4c-8.1-8.9-19.4-11.7-19.4-11.7
					S136.7,545.4,144.8,554.3z"/>
			</g>
		</g>
		<g>
			<path class="st3" d="M171,590.5c0,12-6.4,21.8-6.4,21.8s-6.4-9.7-6.4-21.8c0-12,6.4-21.8,6.4-21.8S171,578.5,171,590.5z"/>
		</g>
		<g>
			<g>
				<path class="st3" d="M184.4,607.6c-8.1,8.9-19.5,11.7-19.5,11.7s1.9-11.5,10-20.4s19.4-11.7,19.4-11.7S192.6,598.7,184.4,607.6z
					"/>
			</g>
			<g>
				<path class="st3" d="M144.8,607.6c8.1,8.9,19.5,11.7,19.5,11.7s-1.9-11.5-10-20.4s-19.4-11.7-19.4-11.7S136.7,598.7,144.8,607.6
					z"/>
			</g>
		</g>
		<g>
			<path class="st3" d="M171,643.8c0,12-6.4,21.8-6.4,21.8s-6.4-9.7-6.4-21.8s6.4-21.8,6.4-21.8S171,631.8,171,643.8z"/>
		</g>
		<g>
			<g>
				<path class="st3" d="M184.4,660.9c-8.1,8.9-19.5,11.7-19.5,11.7s1.9-11.5,10-20.4s19.4-11.7,19.4-11.7S192.6,652,184.4,660.9z"
					/>
			</g>
			<g>
				<path class="st3" d="M144.8,660.9c8.1,8.9,19.5,11.7,19.5,11.7s-1.9-11.5-10-20.4s-19.4-11.7-19.4-11.7S136.7,652,144.8,660.9z"
					/>
			</g>
		</g>
		<g>
			<path class="st3" d="M232.4,537.2c0,12-6.4,21.8-6.4,21.8s-6.4-9.7-6.4-21.8s6.4-21.8,6.4-21.8S232.4,525.2,232.4,537.2z"/>
		</g>
		<g>
			<g>
				<path class="st3" d="M245.8,554.3c-8.1,8.9-19.5,11.7-19.5,11.7s1.9-11.5,10-20.4c8.1-8.9,19.4-11.7,19.4-11.7
					S253.9,545.4,245.8,554.3z"/>
			</g>
			<g>
				<path class="st3" d="M206.1,554.3c8.1,8.9,19.5,11.7,19.5,11.7s-1.9-11.5-10-20.4c-8.1-8.9-19.4-11.7-19.4-11.7
					S198,545.4,206.1,554.3z"/>
			</g>
		</g>
		<g>
			<path class="st3" d="M232.4,590.5c0,12-6.4,21.8-6.4,21.8s-6.4-9.7-6.4-21.8c0-12,6.4-21.8,6.4-21.8S232.4,578.5,232.4,590.5z"/>
		</g>
		<g>
			<g>
				<path class="st3" d="M245.8,607.6c-8.1,8.9-19.5,11.7-19.5,11.7s1.9-11.5,10-20.4c8.1-8.9,19.4-11.7,19.4-11.7
					S253.9,598.7,245.8,607.6z"/>
			</g>
			<g>
				<path class="st3" d="M206.1,607.6c8.1,8.9,19.5,11.7,19.5,11.7s-1.9-11.5-10-20.4c-8.1-8.9-19.4-11.7-19.4-11.7
					S198,598.7,206.1,607.6z"/>
			</g>
		</g>
		<g>
			<path class="st3" d="M232.4,643.8c0,12-6.4,21.8-6.4,21.8s-6.4-9.7-6.4-21.8s6.4-21.8,6.4-21.8S232.4,631.8,232.4,643.8z"/>
		</g>
		<g>
			<g>
				<path class="st3" d="M245.8,660.9c-8.1,8.9-19.5,11.7-19.5,11.7s1.9-11.5,10-20.4c8.1-8.9,19.4-11.7,19.4-11.7
					S253.9,652,245.8,660.9z"/>
			</g>
			<g>
				<path class="st3" d="M206.1,660.9c8.1,8.9,19.5,11.7,19.5,11.7s-1.9-11.5-10-20.4c-8.1-8.9-19.4-11.7-19.4-11.7
					S198,652,206.1,660.9z"/>
			</g>
		</g>
		<g>
			<path class="st3" d="M293.7,537.2c0,12-6.4,21.8-6.4,21.8s-6.4-9.7-6.4-21.8s6.4-21.8,6.4-21.8S293.7,525.2,293.7,537.2z"/>
		</g>
		<g>
			<g>
				<path class="st3" d="M307.1,554.3c-8.1,8.9-19.5,11.7-19.5,11.7s1.9-11.5,10-20.4c8.1-8.9,19.4-11.7,19.4-11.7
					S315.2,545.4,307.1,554.3z"/>
			</g>
			<g>
				<path class="st3" d="M267.5,554.3c8.1,8.9,19.5,11.7,19.5,11.7s-1.9-11.5-10-20.4c-8.1-8.9-19.4-11.7-19.4-11.7
					S259.4,545.4,267.5,554.3z"/>
			</g>
		</g>
		<g>
			<path class="st3" d="M293.7,590.5c0,12-6.4,21.8-6.4,21.8s-6.4-9.7-6.4-21.8c0-12,6.4-21.8,6.4-21.8S293.7,578.5,293.7,590.5z"/>
		</g>
		<g>
			<g>
				<path class="st3" d="M307.1,607.6c-8.1,8.9-19.5,11.7-19.5,11.7s1.9-11.5,10-20.4c8.1-8.9,19.4-11.7,19.4-11.7
					S315.2,598.7,307.1,607.6z"/>
			</g>
			<g>
				<path class="st3" d="M267.5,607.6c8.1,8.9,19.5,11.7,19.5,11.7s-1.9-11.5-10-20.4c-8.1-8.9-19.4-11.7-19.4-11.7
					S259.4,598.7,267.5,607.6z"/>
			</g>
		</g>
		<g>
			<path class="st3" d="M293.7,643.8c0,12-6.4,21.8-6.4,21.8s-6.4-9.7-6.4-21.8s6.4-21.8,6.4-21.8S293.7,631.8,293.7,643.8z"/>
		</g>
		<g>
			<g>
				<path class="st3" d="M307.1,660.9c-8.1,8.9-19.5,11.7-19.5,11.7s1.9-11.5,10-20.4c8.1-8.9,19.4-11.7,19.4-11.7
					S315.2,652,307.1,660.9z"/>
			</g>
			<g>
				<path class="st3" d="M267.5,660.9c8.1,8.9,19.5,11.7,19.5,11.7s-1.9-11.5-10-20.4c-8.1-8.9-19.4-11.7-19.4-11.7
					S259.4,652,267.5,660.9z"/>
			</g>
		</g>
	</g>
</g>
</svg>
