<svg id="Layer_1" data-name="Layer 1" xmlns="http://www.w3.org/2000/svg" viewBox="0 0 428.41 369.15"><defs><style>.cls-1{fill:#fff;}</style></defs><title>leavesWhite</title><path class="cls-1" d="M511,380.56c0,28.26-15.13,51.16-15.13,51.16s-15-22.9-15-51.16,15-51.17,15-51.17S511,352.3,511,380.56Z" transform="translate(-425.82 -329.39)"/><path class="cls-1" d="M542.42,420.58C523.29,441.38,496.65,448,496.65,448s4.43-27.05,23.55-47.85,45.7-27.49,45.7-27.49S561.54,399.77,542.42,420.58Z" transform="translate(-425.82 -329.39)"/><path class="cls-1" d="M449.31,420.58c19.12,20.8,45.76,27.43,45.76,27.43s-4.43-27.05-23.55-47.85-45.7-27.49-45.7-27.49S430.19,399.77,449.31,420.58Z" transform="translate(-425.82 -329.39)"/><path class="cls-1" d="M511,505.83c0,28.26-15.13,51.16-15.13,51.16s-15-22.9-15-51.16,15-51.16,15-51.16S511,477.57,511,505.83Z" transform="translate(-425.82 -329.39)"/><path class="cls-1" d="M542.42,545.85c-19.13,20.8-45.77,27.43-45.77,27.43s4.43-27,23.55-47.85,45.7-27.49,45.7-27.49S561.54,525,542.42,545.85Z" transform="translate(-425.82 -329.39)"/><path class="cls-1" d="M449.31,545.85c19.12,20.8,45.76,27.43,45.76,27.43s-4.43-27-23.55-47.85-45.7-27.49-45.7-27.49S430.19,525,449.31,545.85Z" transform="translate(-425.82 -329.39)"/><path class="cls-1" d="M511,631.1c0,28.26-15.13,51.17-15.13,51.17s-15-22.91-15-51.17,15-51.16,15-51.16S511,602.84,511,631.1Z" transform="translate(-425.82 -329.39)"/><path class="cls-1" d="M542.42,671.12c-19.13,20.8-45.77,27.43-45.77,27.43s4.43-27,23.55-47.85,45.7-27.49,45.7-27.49S561.54,650.31,542.42,671.12Z" transform="translate(-425.82 -329.39)"/><path class="cls-1" d="M449.31,671.12c19.12,20.8,45.76,27.43,45.76,27.43s-4.43-27-23.55-47.85-45.7-27.49-45.7-27.49S430.19,650.31,449.31,671.12Z" transform="translate(-425.82 -329.39)"/><path class="cls-1" d="M655.14,380.56c0,28.26-15.13,51.16-15.13,51.16s-15-22.9-15-51.16,15-51.17,15-51.17S655.14,352.3,655.14,380.56Z" transform="translate(-425.82 -329.39)"/><path class="cls-1" d="M686.59,420.58C667.47,441.38,640.82,448,640.82,448s4.43-27.05,23.55-47.85,45.7-27.49,45.7-27.49S705.71,399.77,686.59,420.58Z" transform="translate(-425.82 -329.39)"/><path class="cls-1" d="M593.48,420.58C612.6,441.38,639.24,448,639.24,448s-4.43-27.05-23.55-47.85S570,372.67,570,372.67,574.36,399.77,593.48,420.58Z" transform="translate(-425.82 -329.39)"/><path class="cls-1" d="M655.14,505.83C655.14,534.09,640,557,640,557s-15-22.9-15-51.16,15-51.16,15-51.16S655.14,477.57,655.14,505.83Z" transform="translate(-425.82 -329.39)"/><path class="cls-1" d="M686.59,545.85c-19.12,20.8-45.77,27.43-45.77,27.43s4.43-27,23.55-47.85,45.7-27.49,45.7-27.49S705.71,525,686.59,545.85Z" transform="translate(-425.82 -329.39)"/><path class="cls-1" d="M593.48,545.85c19.12,20.8,45.76,27.43,45.76,27.43s-4.43-27-23.55-47.85S570,497.94,570,497.94,574.36,525,593.48,545.85Z" transform="translate(-425.82 -329.39)"/><path class="cls-1" d="M655.14,631.1c0,28.26-15.13,51.17-15.13,51.17s-15-22.91-15-51.17,15-51.16,15-51.16S655.14,602.84,655.14,631.1Z" transform="translate(-425.82 -329.39)"/><path class="cls-1" d="M686.59,671.12c-19.12,20.8-45.77,27.43-45.77,27.43s4.43-27,23.55-47.85,45.7-27.49,45.7-27.49S705.71,650.31,686.59,671.12Z" transform="translate(-425.82 -329.39)"/><path class="cls-1" d="M593.48,671.12c19.12,20.8,45.76,27.43,45.76,27.43s-4.43-27-23.55-47.85S570,623.21,570,623.21,574.36,650.31,593.48,671.12Z" transform="translate(-425.82 -329.39)"/><path class="cls-1" d="M799.31,380.56c0,28.26-15.13,51.16-15.13,51.16s-15-22.9-15-51.16,15-51.17,15-51.17S799.31,352.3,799.31,380.56Z" transform="translate(-425.82 -329.39)"/><path class="cls-1" d="M830.76,420.58C811.64,441.38,785,448,785,448s4.43-27.05,23.55-47.85,45.7-27.49,45.7-27.49S849.88,399.77,830.76,420.58Z" transform="translate(-425.82 -329.39)"/><path class="cls-1" d="M737.65,420.58c19.12,20.8,45.76,27.43,45.76,27.43S779,421,759.86,400.16s-45.69-27.49-45.69-27.49S718.53,399.77,737.65,420.58Z" transform="translate(-425.82 -329.39)"/><path class="cls-1" d="M799.31,505.83c0,28.26-15.13,51.16-15.13,51.16s-15-22.9-15-51.16,15-51.16,15-51.16S799.31,477.57,799.31,505.83Z" transform="translate(-425.82 -329.39)"/><path class="cls-1" d="M830.76,545.85C811.64,566.65,785,573.28,785,573.28s4.43-27,23.55-47.85,45.7-27.49,45.7-27.49S849.88,525,830.76,545.85Z" transform="translate(-425.82 -329.39)"/><path class="cls-1" d="M737.65,545.85c19.12,20.8,45.76,27.43,45.76,27.43s-4.43-27-23.55-47.85-45.69-27.49-45.69-27.49S718.53,525,737.65,545.85Z" transform="translate(-425.82 -329.39)"/><path class="cls-1" d="M799.31,631.1c0,28.26-15.13,51.17-15.13,51.17s-15-22.91-15-51.17,15-51.16,15-51.16S799.31,602.84,799.31,631.1Z" transform="translate(-425.82 -329.39)"/><path class="cls-1" d="M830.76,671.12C811.64,691.92,785,698.55,785,698.55s4.43-27,23.55-47.85,45.7-27.49,45.7-27.49S849.88,650.31,830.76,671.12Z" transform="translate(-425.82 -329.39)"/><path class="cls-1" d="M737.65,671.12c19.12,20.8,45.76,27.43,45.76,27.43s-4.43-27-23.55-47.85-45.69-27.49-45.69-27.49S718.53,650.31,737.65,671.12Z" transform="translate(-425.82 -329.39)"/></svg>