<?xml version="1.0" encoding="utf-8"?>
<!-- Generator: Adobe Illustrator 24.0.0, SVG Export Plug-In . SVG Version: 6.00 Build 0)  -->
<svg version="1.1" id="Layer_1" xmlns="http://www.w3.org/2000/svg" xmlns:xlink="http://www.w3.org/1999/xlink" x="0px" y="0px"
	 viewBox="0 0 83.8 71.3" style="enable-background:new 0 0 83.8 71.3;" xml:space="preserve">
<style type="text/css">
	.st0{display:none;}
	.st1{display:inline;}
	.st2{fill:none;stroke:#000000;stroke-width:3;stroke-linecap:round;stroke-linejoin:round;}
</style>
<g transform="matrix( 1, 0, 0, 1, 0,0) " class="st0">
	<g class="st1">
		<path id="a" class="st2" d="M72.9,29.2l-1.6-1.5c-0.6,0.5-1.3,1-2.2,1.5c0.6,1.1,1,1.8,1.2,2.1 M53,30l1.5-1.6l2.5,1.5l2.9,1
			c0.9,0.2,1.9,0.3,3,0.2c1.1-0.1,2.3-0.3,3.4-0.7c1.1-0.4,2-0.8,2.8-1.3 M59.3,32.9l0.6-2 M56.1,31.9l0.8-2 M66.9,32.8l-0.7-2.2
			 M62.9,33.4c0.1-1.5,0.1-2.2,0-2.2 M50,15c2.3-2.5,5.1-4.4,8.6-5.8c7-2.6,13.4-0.8,19.2,5.5 M7.6,30l1.6-1.6l2.4,1.5l2.9,1
			c0.9,0.2,1.9,0.3,3,0.2c1.1-0.1,2.3-0.3,3.4-0.7c1-0.4,2-0.8,2.9-1.3c0.8-0.5,1.5-1,2.2-1.5l1.6,1.5 M17.5,33.4
			c0.1-1.5,0.1-2.2,0-2.2 M13.9,32.9l0.6-2 M10.7,31.9l0.8-2 M24.9,31.3c-0.1-0.3-0.5-1-1.2-2.1 M21.6,32.8l-0.6-2.2 M5.7,15
			c2.3-2.5,5.2-4.4,8.6-5.8c7-2.6,13.4-0.8,19.2,5.5l0.2,46c0,0.1,0,0.5,0,1.2c0.1,0.8,0.3,1.4,0.8,1.8c1.6,1.3,5,0.3,10-3"/>
	</g>
</g>
<path d="M38.7,2.6c-0.2,0.1-0.3,0.3-0.4,0.4c-0.1,0.1-0.5-0.2-0.5-0.2c-0.8,0.9-1.6,1.8-2.4,2.7c-0.8,0.8-2.1,0.1-3,0.5
	c-1.7,0.9-5.4,1.4-6.6,2.8c-0.3,0.4-0.3,1.1-0.2,1.6l0.2,0c1.2,0.1,0.4,1.3,0.2,1.8c-0.6,1.7,0.4,3.5-0.7,5.3
	c-0.8,1.3-2.8,2-3.8,3.4c-0.7,0.9,1,4.5-1.1,5.7c-0.9,0.5-1.9-0.2-2.8,0.7c-0.5,0.6-0.6,0.8-0.3,1.3c0.4,0.6,1.5,1.7,1.5,2.4
	c0,1.8-1.3,2.2-0.3,4c0.4,0.8,0.9,3.7-0.2,4.2c-0.2,0.1-1.5,0.6-1.5,0.6c-0.5,0.9,7.5,5.5,7.3,5.7c-0.1,0.1-0.3,0.6-0.3,1.3
	c-0.1,1.2,0.8,2.7,2,1.1c0.1-0.1,2.2-3.6,1.8-3.5c0.2,0,1-0.2,1,0.2c-0.1,1.3-0.5,3.6-1.1,4.7c-0.5,0.9-3.1,1.7-3.3,2.2
	c-0.4,1.2,1.6,4.8,0.7,5.9c-0.3,0.2-0.5,0.4-0.8,0.5c-0.2,0.3-1.6-0.2-2,0.1c-0.7,0.5-0.5,2.3,0.4,2.4c0.6,0,0.6,0.2,0.2,0.6
	c-0.7,0.8-0.9,1.5-0.6,1.9c0.1,0.2,0.3,0.2,0.5,0.3c0.4,0.2,0.9-0.2,2.3-1.6c1-1.1,2.8,1.6,3.8,1.8c0.2,0,0.6,0,1.2-0.3
	c0.9-0.4,4.4,4.9,4.4,5.2c0-0.2,2.6,0.7,2.7,0.5c0.1-0.2,0.3-0.9,0.3-1.1c0.2-0.1,0.5-0.2,0.7-0.3c-0.2-0.5,0.9-2,0.7-2.2
	c0.4-0.3,0.9-0.5,1.4-0.6c0.7-0.3,0.7-3.4,0.9-3.3c0,0,0.8-1.7,0.6-1.8c0.1-0.1,0.3-0.2,0.4-0.3c-0.2-0.1-0.3-0.3-0.3-0.6
	c0.1-0.1,0.6-0.4,0.7-0.4c0,0,0.8-2.4,0.8-2.2c0-0.1,0.9-3.3,0.9-3.5c0.2,0,0.4,0,0.7,0c0,0.3,0.1,1,0.4,1.1
	c0.4,0.1,0.9-0.4,0.9-0.8c0-0.3,0-0.4-0.2-0.6c-2-2.2,12.8-7.1,13.8-7.4c3.1-1,6.3-3.6,8.5-6c1.1-1.3,2.7-4.7,4.3-5.2
	c1.2-0.4,1-6.5,2.1-6.5c0.1,0,2,1,2,0.4c0-0.4-0.9-1.6-0.8-1.9c0.1-0.5,0.4-1.5,0.4-2c0-0.3-2.8-3.9-3-4.1c-0.3,0-0.6-0.1-0.9-0.3
	c0-0.1,0-0.2,0-0.2c0.9-0.1,1.6,0.5,2.4,0.4c0.9-0.2,1-0.2,1.1-0.5c0.1-0.2-4.8-1.7-5.2-1.8c-1.1-0.5-3.6-4.6-5.3-4
	c-0.1,0-0.1,0.1-0.1,0.1c0,0-0.1,0-0.2,0.1c-0.1,0-0.2,0-0.2-0.1c0,0-1.4,1.8-1.9,1.8c-2-0.2-3.9,0-5.8-0.4c-0.1-0.5-0.4-0.9-0.9-1
	c-0.1,0-1,0.4-1,0.3c0,0.1-2.6-0.4-2.2-0.7c1.2-0.4-2.2-3.5-2.2-3.6c0-0.3,0-0.4,0.1-0.4c0.1,0,0,0-0.1-0.2
	c-0.6-0.6-1.8,0.8-2.3,0.2C47.4,8,45.8,7.2,45,6.7c-0.1-0.1-0.3-0.1-0.3-0.1c-0.1-0.2-0.2-0.3-0.1-0.6c0,0-0.4-1-0.5-1.1
	c-0.1-0.1-0.3,0-0.4,0c-0.2,0-0.5,0.7-0.9,0.4c-0.2-0.2-3.5-2.6-3.5-2.6C39.2,2.6,38.8,2.6,38.7,2.6C38.6,2.6,38.8,2.6,38.7,2.6z"/>
</svg>
