<?xml version="1.0" encoding="utf-8"?>
<!-- Generator: Adobe Illustrator 24.0.0, SVG Export Plug-In . SVG Version: 6.00 Build 0)  -->
<svg version="1.1" id="Layer_1" xmlns="http://www.w3.org/2000/svg" xmlns:xlink="http://www.w3.org/1999/xlink" x="0px" y="0px"
	 viewBox="0 0 83.8 71.3" style="enable-background:new 0 0 83.8 71.3;" xml:space="preserve">
<style type="text/css">
	.st0{fill:none;stroke:#000000;stroke-width:3;stroke-linecap:round;stroke-linejoin:round;}
</style>
<g transform="matrix( 1, 0, 0, 1, 0,0) ">
	<g>
		<path id="a" class="st0" d="M72.9,29.2l-1.6-1.5c-0.6,0.5-1.3,1-2.2,1.5c0.6,1.1,1,1.8,1.2,2.1 M53,30l1.5-1.6l2.5,1.5l2.9,1
			c0.9,0.2,1.9,0.3,3,0.2c1.1-0.1,2.3-0.3,3.4-0.7c1.1-0.4,2-0.8,2.8-1.3 M59.3,32.9l0.6-2 M56.1,31.9l0.8-2 M66.9,32.8l-0.7-2.2
			 M62.9,33.4c0.1-1.5,0.1-2.2,0-2.2 M50,15c2.3-2.5,5.1-4.4,8.6-5.8c7-2.6,13.4-0.8,19.2,5.5 M7.6,30l1.6-1.6l2.4,1.5l2.9,1
			c0.9,0.2,1.9,0.3,3,0.2c1.1-0.1,2.3-0.3,3.4-0.7c1-0.4,2-0.8,2.9-1.3c0.8-0.5,1.5-1,2.2-1.5l1.6,1.5 M17.5,33.4
			c0.1-1.5,0.1-2.2,0-2.2 M13.9,32.9l0.6-2 M10.7,31.9l0.8-2 M24.9,31.3c-0.1-0.3-0.5-1-1.2-2.1 M21.6,32.8l-0.6-2.2 M5.7,15
			c2.3-2.5,5.2-4.4,8.6-5.8c7-2.6,13.4-0.8,19.2,5.5l0.2,46c0,0.1,0,0.5,0,1.2c0.1,0.8,0.3,1.4,0.8,1.8c1.6,1.3,5,0.3,10-3"/>
	</g>
</g>
</svg>
