<svg xmlns="http://www.w3.org/2000/svg" xmlns:xlink="http://www.w3.org/1999/xlink" version="1.1" preserveAspectRatio="none" x="0px" y="0px" viewBox="0 0 100 125"><defs><path id="a" stroke="#000000" stroke-width="2" stroke-linejoin="round" stroke-linecap="round" fill="none" d=" M 83.1 43.95 L 81.5 42.4 Q 80.55 43.15 79.35 43.95 80.3 45.55 80.55 46.05 M 63.2 44.75 L 64.7 43.15 67.15 44.7 70.05 45.7 Q 71.45 46.05 73.05 45.95 74.75 45.85 76.5 45.3 78.1 44.7 79.35 43.95 M 69.5 47.7 L 70.05 45.7 M 66.3 46.65 L 67.15 44.7 M 77.15 47.55 L 76.5 45.3 M 73.1 48.15 Q 73.25 45.95 73.05 45.95 M 60.2 29.75 Q 63.6 25.95 68.8 24 79.25 20.05 88.05 29.45 M 17.8 44.75 L 19.35 43.15 21.8 44.7 24.7 45.7 Q 26.1 46.05 27.7 45.95 29.4 45.85 31.15 45.3 32.7 44.7 34 43.95 35.15 43.15 36.15 42.4 L 37.75 43.95 M 27.75 48.15 Q 27.9 45.95 27.7 45.95 M 24.15 47.7 L 24.7 45.7 M 20.95 46.65 L 21.8 44.7 M 35.15 46.05 Q 34.95 45.55 34 43.95 M 31.8 47.55 L 31.15 45.3 M 15.9 29.75 Q 19.35 25.95 24.55 24 35 20.05 43.8 29.45 L 43.95 75.4 Q 43.95 75.5 43.95 76.6 44.05 77.8 44.8 78.4 47.2 80.3 54.85 75.4"/></defs><g transform="matrix( 1, 0, 0, 1, 0,0) "><use xlink:href="#a"/></g><text x="0" y="115" fill="#000000" font-size="5px" font-weight="bold" font-family="'Helvetica Neue', Helvetica, Arial-Unicode, Arial, Sans-serif">Created by cinnamon stick</text><text x="0" y="120" fill="#000000" font-size="5px" font-weight="bold" font-family="'Helvetica Neue', Helvetica, Arial-Unicode, Arial, Sans-serif">from the Noun Project</text></svg>