<?xml version="1.0" encoding="utf-8"?>
<!-- Generator: Adobe Illustrator 24.0.0, SVG Export Plug-In . SVG Version: 6.00 Build 0)  -->
<svg version="1.1" id="Layer_1" xmlns="http://www.w3.org/2000/svg" xmlns:xlink="http://www.w3.org/1999/xlink" x="0px" y="0px"
	 viewBox="0 0 83.8 71.3" style="enable-background:new 0 0 83.8 71.3;" xml:space="preserve">
<style type="text/css">
	.st0{display:none;}
	.st1{display:inline;}
	.st2{fill:none;stroke:#000000;stroke-width:3;stroke-linecap:round;stroke-linejoin:round;}
</style>
<g transform="matrix( 1, 0, 0, 1, 0,0) " class="st0">
	<g class="st1">
		<path id="a" class="st2" d="M72.9,29.2l-1.6-1.5c-0.6,0.5-1.3,1-2.2,1.5c0.6,1.1,1,1.8,1.2,2.1 M53,30l1.5-1.6l2.5,1.5l2.9,1
			c0.9,0.2,1.9,0.3,3,0.2c1.1-0.1,2.3-0.3,3.4-0.7c1.1-0.4,2-0.8,2.8-1.3 M59.3,32.9l0.6-2 M56.1,31.9l0.8-2 M66.9,32.8l-0.7-2.2
			 M62.9,33.4c0.1-1.5,0.1-2.2,0-2.2 M50,15c2.3-2.5,5.1-4.4,8.6-5.8c7-2.6,13.4-0.8,19.2,5.5 M7.6,30l1.6-1.6l2.4,1.5l2.9,1
			c0.9,0.2,1.9,0.3,3,0.2c1.1-0.1,2.3-0.3,3.4-0.7c1-0.4,2-0.8,2.9-1.3c0.8-0.5,1.5-1,2.2-1.5l1.6,1.5 M17.5,33.4
			c0.1-1.5,0.1-2.2,0-2.2 M13.9,32.9l0.6-2 M10.7,31.9l0.8-2 M24.9,31.3c-0.1-0.3-0.5-1-1.2-2.1 M21.6,32.8l-0.6-2.2 M5.7,15
			c2.3-2.5,5.2-4.4,8.6-5.8c7-2.6,13.4-0.8,19.2,5.5l0.2,46c0,0.1,0,0.5,0,1.2c0.1,0.8,0.3,1.4,0.8,1.8c1.6,1.3,5,0.3,10-3"/>
	</g>
</g>
<path class="st0" d="M38.7,2.6c-0.2,0.1-0.3,0.3-0.4,0.4c-0.1,0.1-0.5-0.2-0.5-0.2c-0.8,0.9-1.6,1.8-2.4,2.7c-0.8,0.8-2.1,0.1-3,0.5
	c-1.7,0.9-5.4,1.4-6.6,2.8c-0.3,0.4-0.3,1.1-0.2,1.6l0.2,0c1.2,0.1,0.4,1.3,0.2,1.8c-0.6,1.7,0.4,3.5-0.7,5.3
	c-0.8,1.3-2.8,2-3.8,3.4c-0.7,0.9,1,4.5-1.1,5.7c-0.9,0.5-1.9-0.2-2.8,0.7c-0.5,0.6-0.6,0.8-0.3,1.3c0.4,0.6,1.5,1.7,1.5,2.4
	c0,1.8-1.3,2.2-0.3,4c0.4,0.8,0.9,3.7-0.2,4.2c-0.2,0.1-1.5,0.6-1.5,0.6c-0.5,0.9,7.5,5.5,7.3,5.7c-0.1,0.1-0.3,0.6-0.3,1.3
	c-0.1,1.2,0.8,2.7,2,1.1c0.1-0.1,2.2-3.6,1.8-3.5c0.2,0,1-0.2,1,0.2c-0.1,1.3-0.5,3.6-1.1,4.7c-0.5,0.9-3.1,1.7-3.3,2.2
	c-0.4,1.2,1.6,4.8,0.7,5.9c-0.3,0.2-0.5,0.4-0.8,0.5c-0.2,0.3-1.6-0.2-2,0.1c-0.7,0.5-0.5,2.3,0.4,2.4c0.6,0,0.6,0.2,0.2,0.6
	c-0.7,0.8-0.9,1.5-0.6,1.9c0.1,0.2,0.3,0.2,0.5,0.3c0.4,0.2,0.9-0.2,2.3-1.6c1-1.1,2.8,1.6,3.8,1.8c0.2,0,0.6,0,1.2-0.3
	c0.9-0.4,4.4,4.9,4.4,5.2c0-0.2,2.6,0.7,2.7,0.5c0.1-0.2,0.3-0.9,0.3-1.1c0.2-0.1,0.5-0.2,0.7-0.3c-0.2-0.5,0.9-2,0.7-2.2
	c0.4-0.3,0.9-0.5,1.4-0.6c0.7-0.3,0.7-3.4,0.9-3.3c0,0,0.8-1.7,0.6-1.8c0.1-0.1,0.3-0.2,0.4-0.3c-0.2-0.1-0.3-0.3-0.3-0.6
	c0.1-0.1,0.6-0.4,0.7-0.4c0,0,0.8-2.4,0.8-2.2c0-0.1,0.9-3.3,0.9-3.5c0.2,0,0.4,0,0.7,0c0,0.3,0.1,1,0.4,1.1
	c0.4,0.1,0.9-0.4,0.9-0.8c0-0.3,0-0.4-0.2-0.6c-2-2.2,12.8-7.1,13.8-7.4c3.1-1,6.3-3.6,8.5-6c1.1-1.3,2.7-4.7,4.3-5.2
	c1.2-0.4,1-6.5,2.1-6.5c0.1,0,2,1,2,0.4c0-0.4-0.9-1.6-0.8-1.9c0.1-0.5,0.4-1.5,0.4-2c0-0.3-2.8-3.9-3-4.1c-0.3,0-0.6-0.1-0.9-0.3
	c0-0.1,0-0.2,0-0.2c0.9-0.1,1.6,0.5,2.4,0.4c0.9-0.2,1-0.2,1.1-0.5c0.1-0.2-4.8-1.7-5.2-1.8c-1.1-0.5-3.6-4.6-5.3-4
	c-0.1,0-0.1,0.1-0.1,0.1c0,0-0.1,0-0.2,0.1c-0.1,0-0.2,0-0.2-0.1c0,0-1.4,1.8-1.9,1.8c-2-0.2-3.9,0-5.8-0.4c-0.1-0.5-0.4-0.9-0.9-1
	c-0.1,0-1,0.4-1,0.3c0,0.1-2.6-0.4-2.2-0.7c1.2-0.4-2.2-3.5-2.2-3.6c0-0.3,0-0.4,0.1-0.4c0.1,0,0,0-0.1-0.2
	c-0.6-0.6-1.8,0.8-2.3,0.2C47.4,8,45.8,7.2,45,6.7c-0.1-0.1-0.3-0.1-0.3-0.1c-0.1-0.2-0.2-0.3-0.1-0.6c0,0-0.4-1-0.5-1.1
	c-0.1-0.1-0.3,0-0.4,0c-0.2,0-0.5,0.7-0.9,0.4c-0.2-0.2-3.5-2.6-3.5-2.6C39.2,2.6,38.8,2.6,38.7,2.6C38.6,2.6,38.8,2.6,38.7,2.6z"/>
<path d="M73.7,14.4c0-1.4-0.9-2.7-2.4-3.4c0.5-1.5,0.3-3.1-0.8-4.1c-0.7-0.7-1.6-1-2.6-1c-0.5,0-1,0.1-1.5,0.3
	c-0.7-1.4-2-2.3-3.4-2.3c-1.4,0-2.7,0.9-3.4,2.3c-0.5-0.2-1-0.3-1.5-0.3c-1,0-1.9,0.4-2.6,1c-1,1-1.3,2.6-0.7,4.1
	c-1.4,0.7-2.3,2-2.3,3.4c0,1.4,0.9,2.7,2.4,3.4c-0.5,1.5-0.3,3.1,0.8,4.1c0.7,0.7,1.6,1,2.6,1c0.5,0,1-0.1,1.5-0.3
	c0.6,1.2,1.5,2,2.6,2.2v1.6c-0.1-0.1-0.3-0.2-0.4-0.4c-2.5-1.9-6.3-0.9-6.5-0.9c-0.3,0.1-0.6,0.4-0.6,0.8c0,2.8,0.8,4.8,2.4,6
	c1.2,0.9,2.6,1.1,3.8,1.1c0.5,0,1,0,1.4-0.1v1.3H42.6v-3.2c1.2-0.3,2.1-1.1,2.7-2.3c0.3,0.1,0.7,0.2,1,0.2c0.2,0,0.3,0,0.5,0
	c1,0,1.9-0.4,2.6-1c1.1-1.1,1.3-2.7,0.7-4.2c1.5-0.7,2.4-2,2.4-3.5c0-1.5-0.9-2.8-2.4-3.5c0.1-0.3,0.2-0.7,0.2-1
	c0.1-1.2-0.2-2.3-1-3.1c-1.1-1.1-2.7-1.3-4.2-0.7c-0.7-1.5-2-2.4-3.5-2.4c-1.5,0-2.8,0.9-3.5,2.4c-0.3-0.1-0.7-0.2-1-0.2
	c-1.2-0.1-2.3,0.2-3.1,1c-1.1,1.1-1.3,2.7-0.7,4.2c-1.5,0.7-2.4,2-2.4,3.5c0,1.5,0.9,2.8,2.4,3.5C33,25.4,33.2,27,34.3,28
	c0.7,0.7,1.6,1,2.6,1c0.5,0,1-0.1,1.6-0.3c0.6,1.2,1.5,2,2.6,2.2v3.2H21.5V33c0.4,0.1,0.8,0.1,1.4,0.1c1.2,0,2.6-0.2,3.8-1.1
	c1.6-1.2,2.4-3.2,2.4-6c0-0.4-0.2-0.7-0.6-0.8c-0.2,0-4-1-6.5,0.9c-0.1,0.1-0.3,0.2-0.4,0.4v-1.6c1.1-0.3,2-1.1,2.6-2.2
	c0.5,0.2,1,0.3,1.5,0.3c1,0,1.9-0.3,2.6-1c1-1,1.3-2.6,0.7-4.1c1.4-0.7,2.3-2,2.3-3.4c0-1.4-0.9-2.7-2.4-3.4
	c0.5-1.5,0.3-3.1-0.8-4.1c-1-1-2.6-1.3-4.1-0.7c-0.7-1.4-2-2.3-3.4-2.3c-1.4,0-2.7,0.9-3.4,2.4c-1.5-0.5-3.1-0.3-4.1,0.8
	c-0.8,0.8-1.1,1.9-1,3.1c0,0.3,0.1,0.7,0.3,1c-1.4,0.7-2.3,2-2.3,3.4c0,1.4,0.9,2.7,2.3,3.4c-0.1,0.3-0.2,0.7-0.2,1
	c-0.1,1.2,0.2,2.3,1,3.1c0.7,0.7,1.6,1,2.6,1c0.5,0,1-0.1,1.5-0.3c0.6,1.2,1.5,2,2.6,2.2v1.6c-0.1-0.1-0.3-0.2-0.4-0.4
	c-2.5-1.9-6.4-0.9-6.5-0.9c-0.3,0.1-0.6,0.4-0.6,0.8c0,2.8,0.8,4.8,2.4,6c1.2,0.9,2.6,1.1,3.8,1.1c0.5,0,1,0,1.4-0.1v1.3h-9.1
	c-0.4,0-0.8,0.4-0.8,0.8v6.6c0,0.4,0.4,0.8,0.8,0.8h1.3v16.8h-1.3c-0.4,0-0.8,0.4-0.8,0.8v6.6c0,0.4,0.4,0.8,0.8,0.8h62.1
	c0.4,0,0.8-0.4,0.8-0.8v-6.6c0-0.4-0.4-0.8-0.8-0.8h-1.4V42.5h1.4c0.4,0,0.8-0.4,0.8-0.8v-6.6c0-0.4-0.4-0.8-0.8-0.8h-9V33
	c0.4,0.1,0.8,0.1,1.4,0.1c1.2,0,2.6-0.2,3.8-1.1c1.6-1.2,2.4-3.2,2.4-6c0-0.4-0.2-0.7-0.6-0.8c-0.2,0-4-1-6.5,0.9
	c-0.1,0.1-0.3,0.2-0.4,0.4v-1.6c1.1-0.3,2-1.1,2.6-2.2c0.5,0.2,1,0.3,1.5,0.3c0,0,0,0,0,0c1,0,1.9-0.4,2.6-1c1-1,1.2-2.6,0.7-4.1
	C72.8,17.1,73.7,15.8,73.7,14.4z M48.4,26.9c-0.4,0.4-1.1,0.6-1.8,0.6c-0.8-0.1-1.6-0.5-2.3-1.1c-0.5-0.5-0.9-1.4-1.2-2.6
	c1-0.4,1.8-1.2,2.1-2.1c1.2,0.3,2.1,0.7,2.6,1.2C49.1,24.1,49.4,25.9,48.4,26.9z M41.9,18.4c1.1,0,2,0.9,2,2c0,1.1-0.9,2-2,2
	c-1.1,0-2-0.9-2-2C39.9,19.3,40.8,18.4,41.9,18.4z M51.1,20.4c0,0.8-0.6,1.6-1.5,2c-0.2-0.3-0.4-0.5-0.6-0.7c-0.6-0.6-1.5-1-2.3-1.3
	c0.8-0.3,1.7-0.7,2.2-1.3c0.2-0.2,0.4-0.5,0.6-0.8C50.5,18.8,51.1,19.5,51.1,20.4z M46.6,13.3c0.7-0.1,1.4,0.1,1.8,0.6
	c0.4,0.4,0.6,1.1,0.6,1.8c-0.1,0.8-0.5,1.6-1.1,2.3c-0.5,0.5-1.4,0.9-2.6,1.2c-0.4-1-1.2-1.8-2.1-2.1c0.3-1.2,0.7-2.1,1.2-2.6
	C44.9,13.8,45.7,13.4,46.6,13.3z M41.8,11.2c0.8,0,1.6,0.6,2,1.5c-0.3,0.2-0.5,0.4-0.7,0.6c-0.6,0.6-1,1.5-1.3,2.3
	c-0.3-0.8-0.7-1.7-1.3-2.2c-0.2-0.2-0.5-0.4-0.8-0.6C40.2,11.8,41,11.2,41.8,11.2z M35.3,13.9c0.4-0.4,1.1-0.6,1.8-0.6
	c0.8,0.1,1.6,0.5,2.3,1.1c0.5,0.5,0.9,1.4,1.2,2.6c-1,0.4-1.8,1.2-2.1,2.1c-1.2-0.3-2.1-0.7-2.6-1.2C34.7,16.7,34.4,14.9,35.3,13.9z
	 M32.7,20.4c0-0.8,0.6-1.6,1.5-2c0.2,0.3,0.4,0.5,0.6,0.7c0.6,0.6,1.5,1,2.3,1.3c-0.8,0.3-1.7,0.7-2.2,1.3c-0.2,0.2-0.5,0.5-0.6,0.8
	C33.3,22,32.7,21.2,32.7,20.4z M35.4,26.9c-1-1-0.7-2.8,0.6-4.1c0.5-0.5,1.4-0.9,2.6-1.2c0.4,1,1.2,1.8,2.1,2.1
	c-0.3,1.2-0.7,2.1-1.2,2.6C38.2,27.6,36.3,27.9,35.4,26.9z M39.9,28.1c0.3-0.2,0.5-0.4,0.7-0.6c0.6-0.6,1-1.5,1.3-2.3
	c0.3,0.8,0.7,1.7,1.3,2.2c0.2,0.2,0.5,0.4,0.8,0.6c-0.4,0.9-1.2,1.5-2.1,1.5C41.1,29.6,40.3,29,39.9,28.1z M22.9,27.4
	c1.4-1.1,3.5-0.9,4.5-0.7c-0.1,1.9-0.7,3.2-1.7,4c-1.4,1.1-3.4,0.8-4.2,0.7v-0.5c0,0,0,0,0,0c0,0,0,0,0,0
	C21.5,29.3,21.9,28.1,22.9,27.4z M27.1,20.8c-0.4,0.4-1.1,0.6-1.8,0.5c-0.8-0.1-1.6-0.5-2.2-1.1c-0.5-0.5-0.9-1.4-1.2-2.5
	c1-0.4,1.7-1.1,2.1-2.1c1.1,0.3,2.1,0.7,2.5,1.2C27.7,18.1,28,19.9,27.1,20.8z M20.7,12.5c1.1,0,1.9,0.9,1.9,1.9
	c0,1.1-0.9,1.9-1.9,1.9c-1.1,0-1.9-0.9-1.9-1.9C18.7,13.4,19.6,12.5,20.7,12.5z M29.7,14.4c0,0.8-0.6,1.6-1.5,2
	c-0.2-0.2-0.4-0.5-0.6-0.7c-0.6-0.6-1.4-1-2.2-1.3c0.8-0.3,1.6-0.7,2.2-1.3c0.2-0.2,0.4-0.5,0.6-0.7C29.1,12.8,29.7,13.6,29.7,14.4z
	 M27,8c0.9,0.9,0.7,2.7-0.6,4c-0.5,0.5-1.4,0.9-2.5,1.2c-0.4-1-1.1-1.7-2.1-2.1c0.3-1.1,0.7-2.1,1.2-2.5C24.3,7.3,26.1,7.1,27,8z
	 M20.6,5.4c0.8,0,1.6,0.6,2,1.5c-0.2,0.2-0.5,0.4-0.7,0.6c-0.6,0.6-1,1.4-1.3,2.2c-0.3-0.8-0.7-1.6-1.3-2.2
	c-0.2-0.2-0.5-0.4-0.7-0.6C19.1,6,19.8,5.4,20.6,5.4z M14.2,8c0.9-0.9,2.7-0.7,4,0.6c0.5,0.5,0.9,1.4,1.2,2.5
	c-1,0.4-1.7,1.1-2.1,2.1c-1.2-0.3-2.1-0.7-2.5-1.2c-0.6-0.6-1-1.4-1.1-2.2C13.6,9.1,13.8,8.5,14.2,8z M11.6,14.5
	c0-0.8,0.6-1.6,1.5-2c0.2,0.2,0.4,0.5,0.6,0.7c0.6,0.6,1.4,1,2.2,1.3c-0.8,0.3-1.6,0.7-2.2,1.3c-0.2,0.2-0.4,0.5-0.6,0.7
	C12.2,16,11.6,15.3,11.6,14.5z M14.3,20.8c-0.4-0.4-0.6-1.1-0.5-1.8c0.1-0.8,0.5-1.6,1.1-2.2c0.5-0.5,1.4-0.9,2.5-1.2
	c0.4,1,1.1,1.7,2.1,2.1c-0.3,1.2-0.7,2.1-1.2,2.5C17,21.5,15.2,21.8,14.3,20.8z M18.7,22c0.2-0.2,0.5-0.4,0.7-0.6
	c0.6-0.6,1-1.4,1.3-2.2c0.3,0.8,0.7,1.6,1.3,2.2c0.2,0.2,0.5,0.4,0.7,0.6c-0.4,0.9-1.2,1.5-2,1.5C19.9,23.4,19.1,22.9,18.7,22z
	 M15.7,30.7c-1-0.8-1.6-2.1-1.7-4c1-0.2,3.2-0.3,4.5,0.7c0.9,0.7,1.4,1.9,1.4,3.5v0.5C19.1,31.6,17.1,31.8,15.7,30.7z M13.7,42.5
	h4.8v16.8h-4.8C13.7,59.3,13.7,42.5,13.7,42.5z M24.4,52.7l2.9,6.5h-5.8L24.4,52.7z M20.1,58.6V43l3.4,7.8L20.1,58.6z M25.3,50.8
	l3.6-8.2l3.6,8.2L28.9,59L25.3,50.8z M33.4,52.7l2.9,6.5h-5.8L33.4,52.7z M34.3,50.8l3.6-8.2l3.6,8.2L37.9,59L34.3,50.8z M42.4,52.7
	l2.9,6.5h-5.8L42.4,52.7z M43.3,50.8l3.6-8.2l3.6,8.2L46.9,59L43.3,50.8z M51.4,52.7l2.9,6.5h-5.8L51.4,52.7z M52.3,50.8l3.4-7.7
	l3.4,7.7l-3.4,7.7L52.3,50.8z M59.9,52.7l2.9,6.5H57L59.9,52.7z M60.8,50.8l2.8-6.4v12.9L60.8,50.8z M59.9,48.8l-2.8-6.3h5.6
	L59.9,48.8z M51.4,48.8l-2.8-6.3h5.6L51.4,48.8z M42.4,48.8l-2.8-6.3h5.6L42.4,48.8z M33.4,48.8l-2.8-6.3h5.6L33.4,48.8z M24.4,48.8
	l-2.8-6.3h5.6L24.4,48.8z M72.1,65.9H11.6v-5h60.5V65.9z M70,59.3h-4.8V42.5H70V59.3z M72.1,40.9H11.6v-5h60.5V40.9z M69.5,8
	c0.9,0.9,0.7,2.7-0.6,4c-0.5,0.5-1.4,0.9-2.5,1.2c-0.4-1-1.1-1.7-2.1-2.1c0.3-1.2,0.7-2.1,1.2-2.5c0.7-0.7,1.6-1.1,2.5-1.1
	C68.4,7.5,69,7.6,69.5,8z M63.1,16.4c-1.1,0-1.9-0.9-1.9-1.9c0-1.1,0.9-1.9,1.9-1.9c1.1,0,1.9,0.9,1.9,1.9
	C65,15.5,64.2,16.4,63.1,16.4z M63.1,5.4c0.8,0,1.6,0.6,2,1.5c-0.2,0.2-0.5,0.4-0.7,0.6c-0.6,0.6-1,1.4-1.3,2.2
	c-0.3-0.8-0.7-1.6-1.3-2.2c-0.2-0.2-0.5-0.4-0.7-0.6C61.5,6,62.3,5.4,63.1,5.4z M56.7,8c0.5-0.5,1-0.6,1.5-0.6
	c0.9,0,1.8,0.4,2.5,1.1c0.5,0.5,0.9,1.4,1.2,2.5c-1,0.4-1.7,1.1-2.1,2.1c-1.1-0.3-2-0.7-2.5-1.2C56,10.8,55.8,9,56.7,8z M54.1,14.5
	c0-0.8,0.6-1.6,1.5-2c0.2,0.2,0.4,0.5,0.6,0.7c0.6,0.6,1.4,1,2.2,1.3c-0.8,0.3-1.6,0.7-2.2,1.3c-0.2,0.2-0.4,0.5-0.6,0.7
	C54.7,16,54.1,15.3,54.1,14.5z M58.2,21.4c-0.4,0-1-0.1-1.5-0.6c-0.9-0.9-0.7-2.7,0.6-4c0.5-0.5,1.4-0.9,2.5-1.2
	c0.4,1,1.1,1.7,2.1,2.1c-0.3,1.1-0.7,2.1-1.2,2.5C60,21,59.1,21.4,58.2,21.4z M58.2,30.7c-1-0.8-1.6-2.1-1.7-4
	c1-0.2,3.1-0.3,4.5,0.7c0.9,0.7,1.4,1.9,1.4,3.5v0.5C61.5,31.5,59.6,31.8,58.2,30.7z M65.3,27.4c1.4-1.1,3.5-0.9,4.5-0.7
	c-0.1,1.9-0.7,3.2-1.7,4c-1.4,1.1-3.4,0.8-4.2,0.7v-0.5c0,0,0,0,0,0c0,0,0,0,0,0C63.9,29.3,64.4,28.1,65.3,27.4z M63.1,23.4
	c-0.8,0-1.6-0.6-2-1.5c0.2-0.2,0.5-0.4,0.7-0.6c0.6-0.6,1-1.4,1.3-2.2c0.3,0.8,0.7,1.6,1.3,2.2c0.2,0.2,0.5,0.4,0.7,0.6
	C64.7,22.9,63.9,23.4,63.1,23.4z M69.5,20.8c-0.5,0.5-1,0.6-1.5,0.6c-0.9,0-1.8-0.4-2.5-1.1c-0.5-0.5-0.9-1.4-1.2-2.5
	c1-0.4,1.7-1.1,2.1-2.1c1.1,0.3,2,0.7,2.5,1.2C70.2,18.1,70.5,19.9,69.5,20.8z M70.7,16.4c-0.2-0.2-0.4-0.5-0.6-0.7
	c-0.6-0.6-1.4-1-2.2-1.3c0.8-0.3,1.6-0.7,2.2-1.3c0.2-0.2,0.4-0.5,0.6-0.7c0.9,0.4,1.5,1.2,1.5,2C72.1,15.2,71.5,16,70.7,16.4z"/>
</svg>
