<svg id="Layer_1" data-name="Layer 1" xmlns="http://www.w3.org/2000/svg" viewBox="0 0 50.4 85.2"><defs><style>.cls-1{fill:#fff;}</style></defs><title>leftArrow</title><path class="cls-1" d="M50.28,78.25l-33-31.8,33-31.8a6.13,6.13,0,0,0,1.9-4.4,6.27,6.27,0,0,0-1.8-4.5A6.13,6.13,0,0,0,46,3.85h-.1a6.2,6.2,0,0,0-4.4,1.8L3.78,42a6.36,6.36,0,0,0-1.9,4.5A6.19,6.19,0,0,0,3.78,51l37.8,36.3a6.47,6.47,0,0,0,4.4,1.8,6.36,6.36,0,0,0,4.5-1.9,6.27,6.27,0,0,0,1.8-4.5A5.71,5.71,0,0,0,50.28,78.25Z" transform="translate(-1.88 -3.85)"/></svg>