<?xml version="1.0" encoding="utf-8"?>
<!-- Generator: Adobe Illustrator 24.0.0, SVG Export Plug-In . SVG Version: 6.00 Build 0)  -->
<svg version="1.1" id="Layer_1" xmlns="http://www.w3.org/2000/svg" xmlns:xlink="http://www.w3.org/1999/xlink" x="0px" y="0px"
	 viewBox="0 0 50.4 85.2" style="enable-background:new 0 0 50.4 85.2;" xml:space="preserve">
<style type="text/css">
	.st0{fill:#08544D;}
</style>
<title>leftArrow</title>
<path class="st0" d="M48.4,74.4l-33-31.8l33-31.8c1.2-1.1,1.9-2.7,1.9-4.4c0-1.7-0.6-3.3-1.8-4.5C47.4,0.7,45.8,0,44.1,0H44
	c-1.6,0-3.2,0.6-4.4,1.8L1.9,38.2C0.7,39.3,0,41,0,42.7c0,1.7,0.7,3.3,1.9,4.5l37.8,36.3c1.2,1.1,2.8,1.8,4.4,1.8
	c1.7,0,3.3-0.7,4.5-1.9c1.2-1.2,1.8-2.8,1.8-4.5C50.4,77.1,49.7,75.5,48.4,74.4z"/>
</svg>
