<?xml version="1.0" encoding="utf-8"?>
<!-- Generator: Adobe Illustrator 24.0.0, SVG Export Plug-In . SVG Version: 6.00 Build 0)  -->
<svg version="1.1"
	 id="Layer_1" xmlns:cc="http://creativecommons.org/ns#" xmlns:dc="http://purl.org/dc/elements/1.1/" xmlns:inkscape="http://www.inkscape.org/namespaces/inkscape" xmlns:rdf="http://www.w3.org/1999/02/22-rdf-syntax-ns#" xmlns:sodipodi="http://sodipodi.sourceforge.net/DTD/sodipodi-0.dtd" xmlns:svg="http://www.w3.org/2000/svg"
	 xmlns="http://www.w3.org/2000/svg" xmlns:xlink="http://www.w3.org/1999/xlink" x="0px" y="0px" viewBox="0 0 82.5 51.9"
	 style="enable-background:new 0 0 82.5 51.9;" xml:space="preserve">
<style type="text/css">
	.st0{fill:#FFFFFF;}
</style>
<g transform="translate(0,-952.36218)">
	<path class="st0" d="M6.2,954h70.1c1.6,0,2.7,0.3,3.4,0.9c-12.2,9.5-23.8,19.8-36,29.2c-1.7,0.8-3.3,0.8-5,0
		c-12-9.6-24-19.4-36-29.2C3.4,954.3,4.6,954,6.2,954z M80.8,956.5c0.2,0.6,0.3,1.4,0.3,2.4v38c0,1.3-0.2,2.3-0.7,3.1l-26-22.2
		L80.8,956.5z M1.6,956.6l26.2,21.3l-26,22.2c-0.4-0.7-0.6-1.7-0.6-3v-38C1.2,958,1.3,957.2,1.6,956.6L1.6,956.6z M29.4,979.2
		c2.8,2.2,5.6,4.5,8.3,6.7c2.2,1.1,4.6,1.1,6.9,0c2.8-2.2,5.6-4.5,8.3-6.7l26.1,22.3c-0.7,0.4-1.6,0.6-2.9,0.6H6.3
		c-1.3,0-2.3-0.2-3-0.6L29.4,979.2z"/>
</g>
</svg>
