<?xml version="1.0" encoding="utf-8"?>
<!-- Generator: Adobe Illustrator 24.0.0, SVG Export Plug-In . SVG Version: 6.00 Build 0)  -->
<svg version="1.1" id="Layer_1" xmlns:sketch="http://www.bohemiancoding.com/sketch/ns"
	 xmlns="http://www.w3.org/2000/svg" xmlns:xlink="http://www.w3.org/1999/xlink" x="0px" y="0px" viewBox="0 0 26.5 23.2"
	 style="enable-background:new 0 0 26.5 23.2;" xml:space="preserve">
<style type="text/css">
	.st0{fill-rule:evenodd;clip-rule:evenodd;fill:#FFFFFF;}
</style>
<title>chat_041-message-bubble-conversation-talk</title>
<desc>Created with Sketch.</desc>
<g sketch:type="MSPage">
	<g transform="translate(-45.000000, -225.000000)" sketch:type="MSArtboardGroup">
		<g transform="translate(47.000000, 229.000000)" sketch:type="MSLayerGroup">
			<path sketch:type="MSShapeGroup" class="st0" d="M-1.1-2.2c0-0.3,0.2-0.5,0.5-0.5h24c0.3,0,0.5,0.2,0.5,0.5v16
				c0,0.3-0.2,0.5-0.5,0.5H10.6l-3.9,4.1c-0.3,0.3-0.9,0.1-0.9-0.3v-3.7h-6.5c-0.3,0-0.5-0.2-0.5-0.5V-2.2z M-0.1-1.7h23v15H10.4
				c-0.1,0-0.3,0.1-0.4,0.2l-3.1,3.3v-3c0-0.3-0.2-0.5-0.5-0.5h-6.5V-1.7z"/>
			<path sketch:type="MSShapeGroup" class="st0" d="M18.4,2.3c0.3,0,0.5-0.2,0.5-0.5s-0.2-0.5-0.5-0.5h-14c-0.3,0-0.5,0.2-0.5,0.5
				s0.2,0.5,0.5,0.5H18.4z M12.4,6.3c0.3,0,0.5-0.2,0.5-0.5s-0.2-0.5-0.5-0.5h-8c-0.3,0-0.5,0.2-0.5,0.5s0.2,0.5,0.5,0.5H12.4z
				 M15.4,10.3c0.3,0,0.5-0.2,0.5-0.5s-0.2-0.5-0.5-0.5h-11c-0.3,0-0.5,0.2-0.5,0.5s0.2,0.5,0.5,0.5H15.4z"/>
		</g>
	</g>
</g>
</svg>
