<svg xmlns="http://www.w3.org/2000/svg" xmlns:xlink="http://www.w3.org/1999/xlink" version="1.1" x="0px" y="0px" viewBox="0 0 24 30" style="enable-background:new 0 0 24 24;" xml:space="preserve"><g><path d="M12.487,13.313c-0.203-0.14-0.442-0.113-0.643,0.068l-0.416,0.598c-0.455,0.909-1.186,2.39-1.234,2.537   c-0.013,0.049,0.022,0.079,0.038,0.089c0.019,0.012,0.056,0.028,0.097-0.003c0.159-0.122,1.261-1.356,1.925-2.111l0.415-0.597   C12.767,13.653,12.711,13.468,12.487,13.313z"/><path d="M21.673,0.089c-0.217-0.15-0.535-0.069-0.708,0.181l-8.732,12.553c0.167,0.004,0.333,0.055,0.484,0.159   c0.152,0.106,0.261,0.232,0.327,0.372l3.068-4.417l0.557-0.802l5.083-7.319C21.925,0.566,21.889,0.24,21.673,0.089z"/><path d="M10.575,16.92c-0.088,0.068-0.192,0.102-0.296,0.102c-0.092,0-0.185-0.027-0.268-0.082   c-0.177-0.117-0.257-0.325-0.205-0.53c0.035-0.134,0.613-1.309,1.025-2.135L7.607,15.65c0,0,0,0.001,0.001,0.001l-4.147,1.13   c-0.042,0.011-0.081,0.031-0.114,0.056l-1.106,0.844c-0.116,0.088-0.137,0.215-0.045,0.28c0.038,0.028,0.09,0.04,0.146,0.039   c0.077-0.002,0.161-0.03,0.226-0.082l1.036-0.816l4.138-1.186c0.042,0.086,0.083,0.172,0.13,0.255L3.79,17.899   c-0.036,0.015-0.069,0.036-0.096,0.061l-0.842,0.772c-0.108,0.099-0.117,0.23-0.018,0.29c0.038,0.023,0.085,0.032,0.136,0.029   c0.081-0.005,0.169-0.041,0.235-0.103l0.782-0.74l4.043-1.779c0.052,0.081,0.109,0.159,0.166,0.236l-3.868,2.316   c-0.029,0.017-0.055,0.038-0.077,0.063l-0.757,0.841c-0.1,0.111-0.096,0.245,0.009,0.299c0.036,0.018,0.08,0.025,0.125,0.02   c0.086-0.008,0.178-0.054,0.242-0.127l0.704-0.808l3.801-2.355c0.062,0.075,0.133,0.141,0.199,0.212l-3.513,2.858   c-0.022,0.018-0.042,0.039-0.058,0.061l-0.641,0.883c-0.088,0.121-0.07,0.256,0.041,0.3c0.033,0.013,0.071,0.017,0.109,0.012   c0.09-0.012,0.186-0.068,0.245-0.153l0.597-0.85l3.433-2.884c0.07,0.067,0.146,0.127,0.219,0.19L5.955,20.88L5.43,21.532   c-0.094,0.116-0.092,0.259,0.004,0.317c0.037,0.022,0.082,0.028,0.129,0.021c0.076-0.012,0.155-0.058,0.211-0.13l0.498-0.641   l2.979-3.36c0.054,0.041,0.101,0.087,0.157,0.126c0.024,0.017,0.051,0.029,0.075,0.045l-2.466,3.66l-0.556,0.743   c-0.089,0.119-0.087,0.265,0.006,0.324c0.037,0.023,0.082,0.03,0.129,0.021c0.071-0.013,0.144-0.06,0.197-0.132l0.551-0.762   l2.407-3.694c0.083,0.048,0.161,0.104,0.246,0.147l-0.512,1.073l-0.463,0.97l-0.869,1.825l-0.427,0.678   c-0.076,0.121-0.064,0.263,0.029,0.316c0.034,0.02,0.075,0.024,0.116,0.016c0.069-0.014,0.139-0.065,0.186-0.141l0.432-0.713   l0.852-1.856l0.446-0.97l0.494-1.075c0.087,0.038,0.172,0.079,0.26,0.112L9.312,22.43l-0.401,0.748   c-0.065,0.122-0.045,0.26,0.046,0.308c0.032,0.017,0.068,0.02,0.105,0.011c0.066-0.015,0.133-0.069,0.174-0.148l0.401-0.776   c0.009-0.017,0.016-0.035,0.021-0.053l1.168-3.976c0.089,0.027,0.178,0.053,0.269,0.076l-0.626,3.95l-0.418,1.028   c-0.051,0.125-0.018,0.257,0.074,0.293c0.028,0.011,0.058,0.012,0.087,0.004c0.068-0.017,0.133-0.079,0.167-0.166l0.413-1.058   c0.008-0.02,0.013-0.041,0.017-0.063l0.572-3.923c0.087,0.016,0.176,0.026,0.265,0.038l-0.067,3.786l-0.524,1.16   c-0.053,0.117-0.029,0.252,0.053,0.3c0.031,0.018,0.065,0.021,0.098,0.012c0.057-0.015,0.111-0.066,0.143-0.139l0.529-1.217   c0.015-0.034,0.023-0.07,0.023-0.107l0.026-3.755c0.005,0,0.009,0.002,0.014,0.002l0.063-1.031l0.074-1.051l0.098-1.493   C11.641,15.791,10.753,16.783,10.575,16.92z"/></g><text x="0" y="39" fill="#000000" font-size="5px" font-weight="bold" font-family="'Helvetica Neue', Helvetica, Arial-Unicode, Arial, Sans-serif">Created by Atif Arshad</text><text x="0" y="44" fill="#000000" font-size="5px" font-weight="bold" font-family="'Helvetica Neue', Helvetica, Arial-Unicode, Arial, Sans-serif">from the Noun Project</text></svg>