<svg id="Layer_1" data-name="Layer 1" xmlns="http://www.w3.org/2000/svg" viewBox="0 0 50.4 85.2"><defs><style>.cls-1{fill:#fff;}</style></defs><title>rightArrow.sv</title><path class="cls-1" d="M1.88,82.65a6.27,6.27,0,0,0,1.8,4.5,6.36,6.36,0,0,0,4.5,1.9,6.47,6.47,0,0,0,4.4-1.8L50.38,51a6.19,6.19,0,0,0,1.9-4.5,6.36,6.36,0,0,0-1.9-4.5L12.68,5.65a6.2,6.2,0,0,0-4.4-1.8h-.1a6.13,6.13,0,0,0-4.4,1.9A6.27,6.27,0,0,0,2,10.25a6.13,6.13,0,0,0,1.9,4.4l33,31.8-33,31.8A5.71,5.71,0,0,0,1.88,82.65Z" transform="translate(-1.88 -3.85)"/></svg>