<?xml version="1.0" encoding="utf-8"?>
<!-- Generator: Adobe Illustrator 24.0.0, SVG Export Plug-In . SVG Version: 6.00 Build 0)  -->
<svg version="1.1" id="Layer_1" xmlns="http://www.w3.org/2000/svg" xmlns:xlink="http://www.w3.org/1999/xlink" x="0px" y="0px"
	 viewBox="0 0 50.4 85.2" style="enable-background:new 0 0 50.4 85.2;" xml:space="preserve">
<style type="text/css">
	.st0{fill:#08544D;}
</style>
<title>leftArrow</title>
<path class="st0" d="M0,78.9c0,1.7,0.6,3.3,1.8,4.5c1.2,1.2,2.8,1.9,4.5,1.9c1.6,0,3.2-0.7,4.4-1.8l37.8-36.3
	c1.2-1.2,1.9-2.8,1.9-4.5c0-1.7-0.7-3.3-1.9-4.5L10.8,1.8C9.6,0.6,8,0,6.4,0L6.3,0C4.6,0,3,0.7,1.9,1.9C0.7,3.1,0.1,4.7,0.1,6.4
	c0,1.7,0.7,3.3,1.9,4.4l33,31.8L2,74.4C0.7,75.5,0,77.1,0,78.9z"/>
</svg>
