<?xml version="1.0" encoding="utf-8"?>
<!-- Generator: Adobe Illustrator 24.0.0, SVG Export Plug-In . SVG Version: 6.00 Build 0)  -->
<svg version="1.1" id="Layer_1" xmlns="http://www.w3.org/2000/svg" xmlns:xlink="http://www.w3.org/1999/xlink" x="0px" y="0px"
	 viewBox="0 0 24.6 19.9" style="enable-background:new 0 0 24.6 19.9;" xml:space="preserve">
<style type="text/css">
	.st0{fill:#FFFFFF;}
</style>
<path class="st0" d="M12.4,0.4c-4.5,0-8.7,1.8-11.7,4.7C0.5,5.2,0.4,5.5,0.4,5.8s0.1,0.5,0.3,0.7L3.2,9c0.2,0.2,0.4,0.3,0.7,0.3
	c0.2,0,0.5-0.1,0.7-0.3c0.8-0.7,1.7-1.4,2.7-1.9c0.3-0.2,0.6-0.5,0.6-0.9V3.1c1.4-0.5,2.9-0.7,4.5-0.7s3.1,0.2,4.6,0.7v3.1
	c0,0.4,0.2,0.7,0.6,0.9c1,0.5,1.9,1.1,2.7,1.8c0.2,0.2,0.4,0.3,0.7,0.3c0.3,0,0.5-0.1,0.7-0.3l2.5-2.5c0.1-0.1,0.2-0.4,0.2-0.6
	s-0.1-0.5-0.3-0.7C21,2.2,16.9,0.4,12.4,0.4 M9.4,4.4v3c0,0-6,5-6,8v4h18v-4c0-3-6-8-6-8v-3h-2v2h-2v-2H9.4z M12.4,9.4
	c2.2,0,4,1.8,4,4s-1.8,4-4,4s-4-1.8-4-4S10.2,9.4,12.4,9.4 M12.4,10.9c-1.4,0-2.5,1.1-2.5,2.5s1.1,2.5,2.5,2.5s2.5-1.1,2.5-2.5
	S13.8,10.9,12.4,10.9z"/>
</svg>
