<?xml version="1.0" encoding="utf-8"?>
<!-- Generator: Adobe Illustrator 24.0.0, SVG Export Plug-In . SVG Version: 6.00 Build 0)  -->
<svg version="1.1" id="Shapes" xmlns="http://www.w3.org/2000/svg" xmlns:xlink="http://www.w3.org/1999/xlink" x="0px" y="0px"
	 viewBox="0 0 613.4 38.9" style="enable-background:new 0 0 613.4 38.9;" xml:space="preserve">
<style type="text/css">
	.st0{display:none;}
	.st1{display:inline;fill-rule:evenodd;clip-rule:evenodd;fill:#08544D;}
	.st2{display:inline;}
	.st3{fill:#08544D;}
	.st4{fill:none;stroke:#08544D;stroke-miterlimit:10;}
	.st5{display:inline;fill:none;stroke:#08544D;stroke-width:3;stroke-miterlimit:10;}
	.st6{display:inline;fill:none;stroke:#08544D;stroke-width:3;stroke-linecap:round;stroke-miterlimit:10;}
	.st7{fill:none;stroke:#08544D;stroke-width:3;stroke-miterlimit:10;}
	.st8{fill:none;stroke:#08544D;stroke-width:3;stroke-linecap:round;stroke-miterlimit:10;}
	.st9{fill:none;stroke:#08544D;stroke-width:2;stroke-miterlimit:10;}
</style>
<g id="Frame" class="st0">
	<path class="st1" d="M320.2-143.2c-8,3.6-8.3,10.7-8.3,12.5c-0.8,1-1.8,1.8-2.6,2.4c0.6-3.2,1.2-7.5,1.8-12.2c0,0,0.1,0,0.1,0
		c0.1-0.1,2.8-1.2,4.8-3.1c1.8-0.6,7.8-3.5,9.3-11.7c-8.4,2.6-9.5,9.6-9.7,11.4c-1.7,1.6-3.9,2.6-4.5,2.9c0.8-1.5,1.4-3.5,1.4-5.8
		c0.8-0.8,2-2,2.8-3.5c1.6-1.1,6.5-5.7,5.5-13.9c-7.2,5-6.3,12-5.9,13.7c-0.7,1.2-1.6,2.2-2.3,3c0-0.8-0.2-1.6-0.4-2.5
		c0.2-1.9,0.4-3.7,0.5-5.4c0.3-0.7,0.5-1.5,0.6-2.3c0.3-0.3,0.7-0.7,1.3-1.3c0.8-0.5,5.1-4.3,4-11.2c-5.2,4-4.6,9.1-4.2,10.7
		c-0.3,0.4-0.7,0.7-1,1c0.1-1.2,0.1-2.6-0.1-4.1c0.3-3,0.4-5.1,0.4-5.4c0,0,0-0.1,0-0.1c0-0.1,0-0.2,0-0.2c1.2-1,4.3-4.2,2-9.9
		c-1.8,1.7-2.6,3.5-2.9,5.1c-0.7-1.1-1.8-2.1-3.6-3.1c-1,5,2.4,7.8,3.8,8.6c-0.1,0.8-0.2,2.8-0.4,5.4c-0.6,0.4-1.1,0.8-1.6,1.3
		c0.1-1.8-0.1-3.8-0.9-6c-6,5.8-4,11.8-3.2,13.6c-0.5,0.8-1,1.5-1.3,1.9c-0.5-6.4-1-13-1.4-18.7c1.3-0.8,4.8-3.6,3.2-9.7
		c-3.6,2.6-4,6.1-3.9,8.2c-0.4-1.7-1.8-4.4-5.6-5.6c0.9,5,4.7,6.8,5.6,7.1c0.1,1.3,0.4,5.3,0.8,10.4c-0.3-0.3-0.9-0.7-1.5-1.2
		c0.2-1.7,0.4-6.8-5.1-10.3c-0.6,7,4.1,10.4,5,10.8c0.9,0.8,1.5,1.3,1.7,1.4c0.2,2.7,0.4,5.7,0.7,8.7c-0.4-0.3-1.2-0.9-2-1.8
		c0.3-1.9,0.9-8.3-6.4-12.4c-0.9,8.4,5.2,12.4,6.2,12.9c1.1,1.1,2.1,1.7,2.1,1.8c0,0,0.1,0,0.1,0c0.3,3.1,0.5,6.2,0.8,9.2
		c-0.4-0.3-1.1-0.9-1.9-1.7c0.3-1.9,0.9-8.3-6.4-12.4c-0.1,1.4-0.1,2.7,0.1,3.8c-1.3-1.2-3.1-2.4-5.4-3.2c1.3,8.2,7.3,11.2,9.1,11.9
		c1.9,1.9,4.5,3,4.7,3.1c0.4,4,0.7,7.6,1,10.3c-0.3-0.3-0.9-0.7-1.5-1.3c0.2-1.7,0.5-6.8-5-10.3c-0.1,0.7-0.1,1.3,0,1.9
		c-1.2-1.5-2.9-2.9-5.4-4c0.5,8.3,6.1,11.9,7.8,12.7c1.7,2.1,4.3,3.6,4.4,3.6c0,0,0,0,0,0c0.2,1,0.3,1.7,0.4,1.9
		c0.1,0.1,0.2,0.2,0.3,0.2c0.1,0,0.1,0,0.2,0c0.2-0.1,0.2-0.3,0.1-0.4c0,0,0,0,0-0.1c0,0,0.1-0.1,0.1-0.1c0.2-0.6,0.4-1.4,0.6-2.3
		c0,0,0,0,0,0c0.1,0,3-0.8,5.2-2.5c1.9-0.4,8.2-2.6,10.6-10.5c-2.5,0.5-4.4,1.4-6,2.5C319.6-139.1,320-141,320.2-143.2z
		 M311.6-151.7C311.6-151.7,311.6-151.7,311.6-151.7c-6.1,5.7-4,11.8-3.2,13.5c-0.6,0.9-1.1,1.7-1.4,2.1c-0.3-3.4-0.7-7.4-1-11.5
		c0.3-0.2,1.1-0.9,1.9-1.8c0.6-0.3,2.5-1.7,3.9-4.3C311.7-153.1,311.6-152.4,311.6-151.7z M307.2-152.9
		C307.3-153,307.3-153,307.2-152.9c0,1.3,0.2,2.4,0.4,3c-0.7,0.8-1.4,1.4-1.7,1.7c-0.1-0.8-0.1-1.7-0.2-2.5
		C305.9-151,306.6-151.8,307.2-152.9z M301.7-142.4c0-0.2,0-0.6-0.1-1c1,1,1.9,1.5,2.3,1.7c1.1,1,2,1.7,2.1,1.8c0,0.1,0,0.3,0,0.4
		C305.3-139.9,303.2-140.9,301.7-142.4z M303.4-130c0-0.3,0-0.7,0-1.3c0.9,1,1.8,1.6,2.1,1.8c0.9,0.8,1.6,1.3,1.7,1.4c0,0,0,0,0,0
		c0.1,0.5,0.1,0.9,0.2,1.3C306.6-127.2,304.7-128.4,303.4-130z M308.1-125.9c-0.3-1.8-0.7-5.2-1.1-9.5c0,0,0,0,0,0
		c0.1-0.1,0.8-1,1.6-2.3c0.3-0.2,0.9-0.9,1.6-1.9C309.6-133.9,308.8-128.8,308.1-125.9z M313.9-129.9c-1.8,1.3-4,2.1-4.7,2.3
		c0,0,0,0,0,0c0.9-0.6,2.2-1.6,3.2-2.8c0.5-0.2,1.2-0.7,2.1-1.3C314.1-131,313.9-130.3,313.9-129.9z"/>
	<g class="st2">
		<path class="st3" d="M316.1,194.3l1.5-1.1c1.9-1.8,4.9-4.8,5.2-5.2c0.1-0.1,0-0.2,0-0.3c0,0-0.1-0.1-0.2-0.1
			c-0.4,0.1-4.1,2.2-6.4,3.5l-1.5,1.1c-0.4,0.5-0.5,1.2-0.1,1.7C315,194.5,315.5,194.6,316.1,194.3z"/>
		<path class="st3" d="M283.4,219.4l18.3-14l2-1.5l11.1-8.5c-0.4-0.2-0.7-0.4-1-0.8c-0.3-0.4-0.4-0.8-0.5-1.2l-31.4,24.1
			c-0.6,0.5-0.8,1.3-0.4,1.9C281.9,219.8,282.7,219.9,283.4,219.4z"/>
		<path class="st3" d="M319.4,192.9l3.8-0.4l2.7-0.3l2.7-0.3c0,0,0,0,0,0l9.7-0.5c0.1,0,0.2,0,0.3-0.1l3.1-1.5
			c0.2-0.1,0.3-0.2,0.3-0.4c0-0.1,0-0.2,0-0.3c-0.1-0.2-0.5-0.3-0.8-0.1l-2.9,1.5l-9.8,0.6c0-0.2-0.1-0.5-0.1-0.7l10.1-2
			c0.1,0,0.1,0,0.2-0.1l2.7-1.2c0.2-0.1,0.4-0.3,0.4-0.5c0-0.1,0-0.2,0-0.2c-0.1-0.2-0.4-0.3-0.8-0.2l-2.6,1.2l-10.1,2.1
			c-0.1-0.2-0.1-0.5-0.2-0.7l10.1-3.5c0,0,0.1,0,0.1-0.1l2-1.1c0.2-0.1,0.3-0.3,0.4-0.5c0-0.1,0-0.2,0-0.3c-0.1-0.2-0.5-0.3-0.8-0.1
			l-1.9,1.1l-10.1,3.7c-0.1-0.2-0.2-0.4-0.3-0.7l2.7-1.4l2.5-1.3l4.7-2.4l1.8-1.2c0.2-0.1,0.3-0.3,0.3-0.5c0-0.1,0-0.2-0.1-0.3
			c-0.1-0.2-0.5-0.2-0.8,0l-1.7,1.2l-4.6,2.5l-2.5,1.3l-2.7,1.5c-0.1-0.2-0.3-0.4-0.4-0.6l9.3-6.7l1.9-1.5c0.2-0.1,0.3-0.3,0.3-0.5
			c0-0.1,0-0.2-0.1-0.3c-0.2-0.2-0.5-0.2-0.8,0l-1.9,1.5l-9.2,6.8c0-0.1-0.1-0.1-0.1-0.2c-0.1-0.1-0.2-0.3-0.3-0.4l8.3-8.1l1.6-1.4
			c0.2-0.2,0.3-0.4,0.3-0.6c0-0.1,0-0.2-0.1-0.3c-0.2-0.2-0.5-0.2-0.8,0l-1.6,1.4l-8.3,8.3c-0.2-0.2-0.3-0.4-0.5-0.5l7-9.2l2.1-1.6
			c0.2-0.2,0.3-0.4,0.4-0.7c0-0.1,0-0.2,0-0.3c-0.1-0.3-0.5-0.3-0.8-0.1l-2.2,1.8c-0.1,0-0.1,0.1-0.2,0.2l-7,9.4
			c-0.2-0.2-0.4-0.3-0.6-0.5l5.6-10.1l2-1.9c0.2-0.2,0.3-0.4,0.3-0.6c0-0.1,0-0.2-0.1-0.3c-0.2-0.3-0.5-0.3-0.8,0l-2.1,2.1
			c-0.1,0.1-0.1,0.1-0.2,0.2l-5.5,10.3c-0.2-0.1-0.4-0.3-0.6-0.4l4.1-10.7l1.8-2.1c0.2-0.2,0.2-0.4,0.2-0.6c0-0.1,0-0.3-0.1-0.3
			c-0.2-0.2-0.5-0.2-0.7,0.1l-1.9,2.3c-0.1,0.1-0.1,0.2-0.1,0.3l-4,10.8c-0.2-0.1-0.4-0.2-0.7-0.3l2.6-10.8l2-2.8
			c0.1-0.2,0.2-0.4,0.2-0.6c0-0.1,0-0.3-0.1-0.4c-0.2-0.2-0.5-0.2-0.7,0.2l-2,3c-0.1,0.1-0.1,0.2-0.1,0.3L320,181c0,0,0,0,0,0
			l-3.2,8.5c2.1-1.2,5.1-2.8,5.4-2.9c0.5-0.2,1.1,0,1.4,0.5c0.2,0.2,0.2,0.4,0.2,0.7c0,0.3-0.1,0.5-0.2,0.8
			C323.3,189,320.9,191.4,319.4,192.9z"/>
	</g>
	<g class="st2">
		<path class="st3" d="M302.5,193.9c0.4-0.5,0.3-1.1-0.1-1.7l-1.5-1.1c-2.3-1.3-6-3.4-6.4-3.5c-0.1,0-0.2,0-0.2,0.1
			c0,0-0.1,0.1,0,0.3c0.3,0.4,3.4,3.4,5.2,5.2l1.5,1.1C301.6,194.6,302.1,194.5,302.5,193.9z"/>
		<path class="st3" d="M335.6,219.3c0.4-0.5,0.2-1.4-0.4-1.9l-31.4-24.1c0,0.4-0.2,0.9-0.5,1.2c-0.3,0.4-0.6,0.6-1,0.8l11.1,8.5
			l2,1.5l18.3,14C334.4,219.9,335.2,219.8,335.6,219.3z"/>
		<path class="st3" d="M293.4,188.5c-0.2-0.2-0.2-0.5-0.2-0.8c0-0.2,0.1-0.5,0.2-0.7c0.3-0.4,0.9-0.6,1.4-0.5
			c0.3,0.1,3.3,1.7,5.4,2.9l-3.2-8.5c0,0,0,0,0,0l-2.4-10.9c0-0.1-0.1-0.2-0.1-0.3l-2-3c-0.2-0.3-0.5-0.4-0.7-0.2
			c-0.1,0.1-0.1,0.2-0.1,0.4c0,0.2,0.1,0.4,0.2,0.6l2,2.8l2.6,10.8c-0.2,0.1-0.5,0.2-0.7,0.3l-4-10.8c0-0.1-0.1-0.2-0.1-0.3
			l-1.9-2.3c-0.2-0.3-0.6-0.3-0.7-0.1c-0.1,0.1-0.1,0.2-0.1,0.3c0,0.2,0.1,0.4,0.2,0.6l1.8,2.1L295,182c-0.2,0.1-0.4,0.3-0.6,0.4
			l-5.5-10.3c0-0.1-0.1-0.1-0.2-0.2l-2.1-2.1c-0.3-0.3-0.6-0.3-0.8,0c-0.1,0.1-0.1,0.2-0.1,0.3c0,0.2,0.1,0.5,0.3,0.6l2,1.9
			l5.6,10.1c-0.2,0.2-0.4,0.3-0.6,0.5l-7-9.4c0-0.1-0.1-0.1-0.2-0.2l-2.2-1.8c-0.3-0.2-0.7-0.2-0.8,0.1c0,0.1-0.1,0.2,0,0.3
			c0,0.2,0.2,0.5,0.4,0.7l2.1,1.6l7,9.2c-0.2,0.2-0.3,0.4-0.5,0.5l-8.3-8.3l-1.6-1.4c-0.3-0.3-0.7-0.3-0.8,0
			c-0.1,0.1-0.1,0.2-0.1,0.3c0,0.2,0.1,0.4,0.3,0.6l1.6,1.4l8.3,8.1c-0.1,0.1-0.2,0.3-0.3,0.4c0,0.1-0.1,0.1-0.1,0.2l-9.2-6.8
			l-1.9-1.5c-0.3-0.2-0.7-0.3-0.8,0c-0.1,0.1-0.1,0.2-0.1,0.3c0,0.2,0.1,0.4,0.3,0.5l1.9,1.5l9.3,6.7c-0.1,0.2-0.3,0.4-0.4,0.6
			l-2.7-1.5l-2.5-1.3l-4.6-2.5l-1.7-1.2c-0.3-0.2-0.7-0.2-0.8,0c-0.1,0.1-0.1,0.2-0.1,0.3c0,0.2,0.2,0.4,0.3,0.5l1.8,1.2l4.7,2.4
			l2.5,1.3l2.7,1.4c-0.1,0.2-0.2,0.4-0.3,0.7l-10.1-3.7l-1.9-1.1c-0.3-0.2-0.7-0.1-0.8,0.1c0,0.1-0.1,0.2,0,0.3
			c0,0.2,0.2,0.4,0.4,0.5l2,1.1c0,0,0.1,0,0.1,0.1l10.1,3.5c-0.1,0.2-0.2,0.5-0.2,0.7l-10.1-2.1l-2.6-1.2c-0.3-0.1-0.7-0.1-0.8,0.2
			c0,0.1,0,0.1,0,0.2c0,0.2,0.2,0.4,0.4,0.5l2.7,1.2c0.1,0,0.1,0,0.2,0.1l10.1,2c-0.1,0.2-0.1,0.5-0.1,0.7l-9.8-0.6l-2.9-1.5
			c-0.3-0.2-0.6-0.1-0.8,0.1c-0.1,0.1-0.1,0.2,0,0.3c0,0.1,0.2,0.3,0.3,0.4l3.1,1.5c0.1,0,0.2,0.1,0.3,0.1l9.7,0.5c0,0,0,0,0,0
			l2.7,0.3l2.7,0.3l3.8,0.4C296.2,191.4,293.8,189,293.4,188.5z"/>
	</g>
	<g class="st2">
		<line class="st4" x1="610.8" y1="203.5" x2="610.8" y2="-143.4"/>
		<line class="st4" x1="-12.5" y1="204" x2="-12.5" y2="-143.9"/>
		<polyline class="st4" points="610,-143.9 628.9,-143.9 628.9,204 		"/>
		<polyline class="st4" points="267.2,204 -12.5,204 -12.5,-143.9 267.1,-143.9 		"/>
		<polyline class="st4" points="349.1,-143.9 610,-143.9 628.9,-143.9 628.9,204 349.1,204 		"/>
		<polyline class="st4" points="267.2,191.2 6,191.2 6,-131.1 267.2,-131.1 		"/>
		<polyline class="st4" points="349.1,-131.1 610.5,-131.1 610.5,191.2 349.1,191.2 		"/>
		<line class="st4" x1="5.6" y1="203.9" x2="5.6" y2="-143.1"/>
	</g>
</g>
<g id="Divider" class="st0">
	<rect x="23.2" y="9" class="st5" width="570" height="22"/>
	<line class="st6" x1="7.2" y1="20" x2="609.2" y2="20"/>
</g>
<g id="Divider_1">
	<g id="Divider_1_">
		<rect x="23.2" y="9" class="st7" width="570" height="22"/>
		<line class="st8" x1="7.2" y1="20" x2="609.2" y2="20"/>
	</g>
	<path class="st7" d="M99,19.4"/>
	<line class="st9" x1="22.7" y1="9.2" x2="57.2" y2="30.5"/>
	<line class="st9" x1="23.2" y1="20" x2="40.2" y2="30.6"/>
	<line class="st9" x1="37.3" y1="9.2" x2="71.8" y2="30.5"/>
	<line class="st9" x1="51.9" y1="9.2" x2="86.4" y2="30.5"/>
	<line class="st9" x1="66.5" y1="9.2" x2="101" y2="30.5"/>
	<line class="st9" x1="81" y1="9.2" x2="115.5" y2="30.5"/>
	<line class="st9" x1="95.6" y1="9.2" x2="130.1" y2="30.5"/>
	<line class="st9" x1="110.2" y1="9.2" x2="144.7" y2="30.5"/>
	<line class="st9" x1="124.8" y1="9.2" x2="159.3" y2="30.5"/>
	<line class="st9" x1="139.4" y1="9.2" x2="173.9" y2="30.5"/>
	<line class="st9" x1="154" y1="9.2" x2="188.5" y2="30.5"/>
	<line class="st9" x1="168.5" y1="9.2" x2="203" y2="30.5"/>
	<line class="st9" x1="183.1" y1="9.2" x2="217.6" y2="30.5"/>
	<line class="st9" x1="197.7" y1="9.2" x2="232.2" y2="30.5"/>
	<line class="st9" x1="212.3" y1="9.2" x2="246.8" y2="30.5"/>
	<line class="st9" x1="226.9" y1="9.2" x2="261.4" y2="30.5"/>
	<line class="st9" x1="241.4" y1="9.2" x2="275.9" y2="30.5"/>
	<line class="st9" x1="256" y1="9.2" x2="290.5" y2="30.5"/>
	<line class="st9" x1="270.6" y1="9.2" x2="305.1" y2="30.5"/>
	<line class="st9" x1="285.2" y1="9.2" x2="319.7" y2="30.5"/>
	<line class="st9" x1="299.8" y1="9.2" x2="334.3" y2="30.5"/>
	<line class="st9" x1="314.3" y1="9.2" x2="348.8" y2="30.5"/>
	<line class="st9" x1="328.9" y1="9.2" x2="363.4" y2="30.5"/>
	<line class="st9" x1="343.5" y1="9.2" x2="378" y2="30.5"/>
	<line class="st9" x1="358.1" y1="9.2" x2="392.6" y2="30.5"/>
	<line class="st9" x1="372.7" y1="9.2" x2="407.2" y2="30.5"/>
	<line class="st9" x1="387.3" y1="9.2" x2="421.8" y2="30.5"/>
	<line class="st9" x1="401.8" y1="9.2" x2="436.3" y2="30.5"/>
	<line class="st9" x1="416.4" y1="9.2" x2="450.9" y2="30.5"/>
	<line class="st9" x1="431" y1="9.2" x2="465.5" y2="30.5"/>
	<line class="st9" x1="445.6" y1="9.2" x2="480.1" y2="30.5"/>
	<line class="st9" x1="460.2" y1="9.2" x2="494.7" y2="30.5"/>
	<line class="st9" x1="474.7" y1="9.2" x2="509.2" y2="30.5"/>
	<line class="st9" x1="489.3" y1="9.2" x2="523.8" y2="30.5"/>
	<line class="st9" x1="503.9" y1="9.2" x2="538.4" y2="30.5"/>
	<line class="st9" x1="518.5" y1="9.2" x2="553" y2="30.5"/>
	<line class="st9" x1="533.1" y1="9.2" x2="567.6" y2="30.5"/>
	<line class="st9" x1="547.6" y1="9.2" x2="582.1" y2="30.5"/>
	<line class="st9" x1="562.2" y1="9" x2="593.2" y2="28.2"/>
	<line class="st9" x1="577.7" y1="9.2" x2="593.8" y2="19.2"/>
</g>
</svg>
