<?xml version="1.0" encoding="utf-8"?>
<!-- Generator: Adobe Illustrator 24.0.0, SVG Export Plug-In . SVG Version: 6.00 Build 0)  -->
<svg version="1.1" xmlns="http://www.w3.org/2000/svg" xmlns:xlink="http://www.w3.org/1999/xlink" x="0px" y="0px"
	 viewBox="0 0 586.5 35.2" style="enable-background:new 0 0 586.5 35.2;" xml:space="preserve">
<style type="text/css">
	.st0{display:none;}
	.st1{display:inline;fill-rule:evenodd;clip-rule:evenodd;fill:#08544D;}
	.st2{display:inline;}
	.st3{fill:#08544D;}
	.st4{fill:none;stroke:#08544D;stroke-miterlimit:10;}
	.st5{fill:none;stroke:#08544D;stroke-width:3;stroke-miterlimit:10;}
	.st6{fill:none;stroke:#08544D;stroke-width:3;stroke-linecap:round;stroke-miterlimit:10;}
	.st7{display:inline;fill:none;stroke:#08544D;stroke-width:3;stroke-miterlimit:10;}
	.st8{display:inline;fill:none;stroke:#08544D;stroke-width:2;stroke-miterlimit:10;}
	.st9{display:inline;fill:none;stroke:#08544D;stroke-width:3;stroke-linecap:round;stroke-miterlimit:10;}
</style>
<g id="Frames" class="st0">
	<g id="Frame">
		<path class="st1" d="M307.5-170.9c-8,3.6-8.3,10.7-8.3,12.5c-0.8,1-1.8,1.8-2.6,2.4c0.6-3.2,1.2-7.5,1.8-12.2c0,0,0.1,0,0.1,0
			c0.1-0.1,2.8-1.2,4.8-3.1c1.8-0.6,7.8-3.5,9.3-11.7c-8.4,2.6-9.5,9.6-9.7,11.4c-1.7,1.6-3.9,2.6-4.5,2.9c0.8-1.5,1.4-3.5,1.4-5.8
			c0.8-0.8,2-2,2.8-3.5c1.6-1.1,6.5-5.7,5.5-13.9c-7.2,5-6.3,12-5.9,13.7c-0.7,1.2-1.6,2.2-2.3,3c0-0.8-0.2-1.6-0.4-2.5
			c0.2-1.9,0.4-3.7,0.5-5.4c0.3-0.7,0.5-1.5,0.6-2.3c0.3-0.3,0.7-0.7,1.3-1.3c0.8-0.5,5.1-4.3,4-11.2c-5.2,4-4.6,9.1-4.2,10.7
			c-0.3,0.4-0.7,0.7-1,1c0.1-1.2,0.1-2.6-0.1-4.1c0.3-3,0.4-5.1,0.4-5.4c0,0,0-0.1,0-0.1c0-0.1,0-0.2,0-0.2c1.2-1,4.3-4.2,2-9.9
			c-1.8,1.7-2.6,3.5-2.9,5.1c-0.7-1.1-1.8-2.1-3.6-3.1c-1,5,2.4,7.8,3.8,8.6c-0.1,0.8-0.2,2.8-0.4,5.4c-0.6,0.4-1.1,0.8-1.6,1.3
			c0.1-1.8-0.1-3.8-0.9-6c-6,5.8-4,11.8-3.2,13.6c-0.5,0.8-1,1.5-1.3,1.9c-0.5-6.4-1-13-1.4-18.7c1.3-0.8,4.8-3.6,3.2-9.7
			c-3.6,2.6-4,6.1-3.9,8.2c-0.4-1.7-1.8-4.4-5.6-5.6c0.9,5,4.7,6.8,5.6,7.1c0.1,1.3,0.4,5.3,0.8,10.4c-0.3-0.3-0.9-0.7-1.5-1.2
			c0.2-1.7,0.4-6.8-5.1-10.3c-0.6,7,4.1,10.4,5,10.8c0.9,0.8,1.5,1.3,1.7,1.4c0.2,2.7,0.4,5.7,0.7,8.7c-0.4-0.3-1.2-0.9-2-1.8
			c0.3-1.9,0.9-8.3-6.4-12.4c-0.9,8.4,5.2,12.4,6.2,12.9c1.1,1.1,2.1,1.7,2.1,1.8c0,0,0.1,0,0.1,0c0.3,3.1,0.5,6.2,0.8,9.2
			c-0.4-0.3-1.1-0.9-1.9-1.7c0.3-1.9,0.9-8.3-6.4-12.4c-0.1,1.4-0.1,2.7,0.1,3.8c-1.3-1.2-3.1-2.4-5.4-3.2
			c1.3,8.2,7.3,11.2,9.1,11.9c1.9,1.9,4.5,3,4.7,3.1c0.4,4,0.7,7.6,1,10.3c-0.3-0.3-0.9-0.7-1.5-1.3c0.2-1.7,0.5-6.8-5-10.3
			c-0.1,0.7-0.1,1.3,0,1.9c-1.2-1.5-2.9-2.9-5.4-4c0.5,8.3,6.1,11.9,7.8,12.7c1.7,2.1,4.3,3.6,4.4,3.6c0,0,0,0,0,0
			c0.2,1,0.3,1.7,0.4,1.9c0.1,0.1,0.2,0.2,0.3,0.2c0.1,0,0.1,0,0.2,0c0.2-0.1,0.2-0.3,0.1-0.4c0,0,0,0,0-0.1c0,0,0.1-0.1,0.1-0.1
			c0.2-0.6,0.4-1.4,0.6-2.3c0,0,0,0,0,0c0.1,0,3-0.8,5.2-2.5c1.9-0.4,8.2-2.6,10.6-10.5c-2.5,0.5-4.4,1.4-6,2.5
			C306.9-166.9,307.4-168.7,307.5-170.9z M298.9-179.4C298.9-179.4,298.9-179.5,298.9-179.4c-6.1,5.7-4,11.8-3.2,13.5
			c-0.6,0.9-1.1,1.7-1.4,2.1c-0.3-3.4-0.7-7.4-1-11.5c0.3-0.2,1.1-0.9,1.9-1.8c0.6-0.3,2.5-1.7,3.9-4.3
			C299-180.8,299-180.1,298.9-179.4z M294.6-180.7C294.6-180.7,294.6-180.7,294.6-180.7c0,1.3,0.2,2.4,0.4,3
			c-0.7,0.8-1.4,1.4-1.7,1.7c-0.1-0.8-0.1-1.7-0.2-2.5C293.2-178.7,293.9-179.5,294.6-180.7z M289-170.2c0-0.2,0-0.6-0.1-1
			c1,1,1.9,1.5,2.3,1.7c1.1,1,2,1.7,2.1,1.8c0,0.1,0,0.3,0,0.4C292.6-167.6,290.5-168.7,289-170.2z M290.7-157.7c0-0.3,0-0.7,0-1.3
			c0.9,1,1.8,1.6,2.1,1.8c0.9,0.8,1.6,1.3,1.7,1.4c0,0,0,0,0,0c0.1,0.5,0.1,0.9,0.2,1.3C293.9-154.9,292.1-156.1,290.7-157.7z
			 M295.4-153.6c-0.3-1.8-0.7-5.2-1.1-9.5c0,0,0,0,0,0c0.1-0.1,0.8-1,1.6-2.3c0.3-0.2,0.9-0.9,1.6-1.9
			C296.9-161.6,296.2-156.5,295.4-153.6z M301.2-157.6c-1.8,1.3-4,2.1-4.7,2.3c0,0,0,0,0,0c0.9-0.6,2.2-1.6,3.2-2.8
			c0.5-0.2,1.2-0.7,2.1-1.3C301.4-158.7,301.3-158,301.2-157.6z"/>
		<g class="st2">
			<path class="st3" d="M303.4,166.6l1.5-1.1c1.9-1.8,4.9-4.8,5.2-5.2c0.1-0.1,0-0.2,0-0.3c0,0-0.1-0.1-0.2-0.1
				c-0.4,0.1-4.1,2.2-6.4,3.5l-1.5,1.1c-0.4,0.5-0.5,1.2-0.1,1.7C302.3,166.8,302.8,166.9,303.4,166.6z"/>
			<path class="st3" d="M270.7,191.7l18.3-14l2-1.5l11.1-8.5c-0.4-0.2-0.7-0.4-1-0.8c-0.3-0.4-0.4-0.8-0.5-1.2l-31.4,24.1
				c-0.6,0.5-0.8,1.3-0.4,1.9C269.2,192.1,270.1,192.2,270.7,191.7z"/>
			<path class="st3" d="M306.7,165.2l3.8-0.4l2.7-0.3l2.7-0.3c0,0,0,0,0,0l9.7-0.5c0.1,0,0.2,0,0.3-0.1l3.1-1.5
				c0.2-0.1,0.3-0.2,0.3-0.4c0-0.1,0-0.2,0-0.3c-0.1-0.2-0.5-0.3-0.8-0.1l-2.9,1.5l-9.8,0.6c0-0.2-0.1-0.5-0.1-0.7l10.1-2
				c0.1,0,0.1,0,0.2-0.1l2.7-1.2c0.2-0.1,0.4-0.3,0.4-0.5c0-0.1,0-0.2,0-0.2c-0.1-0.2-0.4-0.3-0.8-0.2l-2.6,1.2l-10.1,2.1
				c-0.1-0.2-0.1-0.5-0.2-0.7l10.1-3.5c0,0,0.1,0,0.1-0.1l2-1.1c0.2-0.1,0.3-0.3,0.4-0.5c0-0.1,0-0.2,0-0.3
				c-0.1-0.2-0.5-0.3-0.8-0.1l-1.9,1.1l-10.1,3.7c-0.1-0.2-0.2-0.4-0.3-0.7l2.7-1.4l2.5-1.3l4.7-2.4l1.8-1.2
				c0.2-0.1,0.3-0.3,0.3-0.5c0-0.1,0-0.2-0.1-0.3c-0.1-0.2-0.5-0.2-0.8,0l-1.7,1.2l-4.6,2.5l-2.5,1.3l-2.7,1.5
				c-0.1-0.2-0.3-0.4-0.4-0.6l9.3-6.7l1.9-1.5c0.2-0.1,0.3-0.3,0.3-0.5c0-0.1,0-0.2-0.1-0.3c-0.2-0.2-0.5-0.2-0.8,0l-1.9,1.5
				l-9.2,6.8c0-0.1-0.1-0.1-0.1-0.2c-0.1-0.1-0.2-0.3-0.3-0.4l8.3-8.1l1.6-1.4c0.2-0.2,0.3-0.4,0.3-0.6c0-0.1,0-0.2-0.1-0.3
				c-0.2-0.2-0.5-0.2-0.8,0l-1.6,1.4l-8.3,8.3c-0.2-0.2-0.3-0.4-0.5-0.5l7-9.2l2.1-1.6c0.2-0.2,0.3-0.4,0.4-0.7c0-0.1,0-0.2,0-0.3
				c-0.1-0.3-0.5-0.3-0.8-0.1l-2.2,1.8c-0.1,0-0.1,0.1-0.2,0.2l-7,9.4c-0.2-0.2-0.4-0.3-0.6-0.5l5.6-10.1l2-1.9
				c0.2-0.2,0.3-0.4,0.3-0.6c0-0.1,0-0.2-0.1-0.3c-0.2-0.3-0.5-0.3-0.8,0l-2.1,2.1c-0.1,0.1-0.1,0.1-0.2,0.2l-5.5,10.3
				c-0.2-0.1-0.4-0.3-0.6-0.4l4.1-10.7l1.8-2.1c0.2-0.2,0.2-0.4,0.2-0.6c0-0.1,0-0.3-0.1-0.3c-0.2-0.2-0.5-0.2-0.7,0.1l-1.9,2.3
				c-0.1,0.1-0.1,0.2-0.1,0.3l-4,10.8c-0.2-0.1-0.4-0.2-0.7-0.3l2.6-10.8l2-2.8c0.1-0.2,0.2-0.4,0.2-0.6c0-0.1,0-0.3-0.1-0.4
				c-0.2-0.2-0.5-0.2-0.7,0.2l-2,3c-0.1,0.1-0.1,0.2-0.1,0.3l-2.4,10.9c0,0,0,0,0,0l-3.2,8.5c2.1-1.2,5.1-2.8,5.4-2.9
				c0.5-0.2,1.1,0,1.4,0.5c0.2,0.2,0.2,0.4,0.2,0.7c0,0.3-0.1,0.5-0.2,0.8C310.6,161.3,308.2,163.7,306.7,165.2z"/>
		</g>
		<g class="st2">
			<path class="st3" d="M289.9,166.2c0.4-0.5,0.3-1.1-0.1-1.7l-1.5-1.1c-2.3-1.3-6-3.4-6.4-3.5c-0.1,0-0.2,0-0.2,0.1
				c0,0-0.1,0.1,0,0.3c0.3,0.4,3.4,3.4,5.2,5.2l1.5,1.1C289,166.9,289.4,166.8,289.9,166.2z"/>
			<path class="st3" d="M323,191.6c0.4-0.5,0.2-1.4-0.4-1.9l-31.4-24.1c0,0.4-0.2,0.9-0.5,1.2c-0.3,0.4-0.6,0.6-1,0.8l11.1,8.5
				l2,1.5l18.3,14C321.7,192.2,322.5,192.1,323,191.6z"/>
			<path class="st3" d="M280.8,160.8c-0.2-0.2-0.2-0.5-0.2-0.8c0-0.2,0.1-0.5,0.2-0.7c0.3-0.4,0.9-0.6,1.4-0.5
				c0.3,0.1,3.3,1.7,5.4,2.9l-3.2-8.5c0,0,0,0,0,0l-2.4-10.9c0-0.1-0.1-0.2-0.1-0.3l-2-3c-0.2-0.3-0.5-0.4-0.7-0.2
				c-0.1,0.1-0.1,0.2-0.1,0.4c0,0.2,0.1,0.4,0.2,0.6l2,2.8l2.6,10.8c-0.2,0.1-0.5,0.2-0.7,0.3l-4-10.8c0-0.1-0.1-0.2-0.1-0.3
				l-1.9-2.3c-0.2-0.3-0.6-0.3-0.7-0.1c-0.1,0.1-0.1,0.2-0.1,0.3c0,0.2,0.1,0.4,0.2,0.6l1.8,2.1l4.1,10.7c-0.2,0.1-0.4,0.3-0.6,0.4
				l-5.5-10.3c0-0.1-0.1-0.1-0.2-0.2l-2.1-2.1c-0.3-0.3-0.6-0.3-0.8,0c-0.1,0.1-0.1,0.2-0.1,0.3c0,0.2,0.1,0.5,0.3,0.6l2,1.9
				l5.6,10.1c-0.2,0.2-0.4,0.3-0.6,0.5l-7-9.4c0-0.1-0.1-0.1-0.2-0.2l-2.2-1.8c-0.3-0.2-0.7-0.2-0.8,0.1c0,0.1-0.1,0.2,0,0.3
				c0,0.2,0.2,0.5,0.4,0.7l2.1,1.6l7,9.2c-0.2,0.2-0.3,0.4-0.5,0.5l-8.3-8.3l-1.6-1.4c-0.3-0.3-0.7-0.3-0.8,0
				c-0.1,0.1-0.1,0.2-0.1,0.3c0,0.2,0.1,0.4,0.3,0.6l1.6,1.4l8.3,8.1c-0.1,0.1-0.2,0.3-0.3,0.4c0,0.1-0.1,0.1-0.1,0.2l-9.2-6.8
				l-1.9-1.5c-0.3-0.2-0.7-0.3-0.8,0c-0.1,0.1-0.1,0.2-0.1,0.3c0,0.2,0.1,0.4,0.3,0.5l1.9,1.5l9.3,6.7c-0.1,0.2-0.3,0.4-0.4,0.6
				l-2.7-1.5l-2.5-1.3l-4.6-2.5l-1.7-1.2c-0.3-0.2-0.7-0.2-0.8,0c-0.1,0.1-0.1,0.2-0.1,0.3c0,0.2,0.2,0.4,0.3,0.5l1.8,1.2l4.7,2.4
				l2.5,1.3l2.7,1.4c-0.1,0.2-0.2,0.4-0.3,0.7l-10.1-3.7l-1.9-1.1c-0.3-0.2-0.7-0.1-0.8,0.1c0,0.1-0.1,0.2,0,0.3
				c0,0.2,0.2,0.4,0.4,0.5l2,1.1c0,0,0.1,0,0.1,0.1l10.1,3.5c-0.1,0.2-0.2,0.5-0.2,0.7l-10.1-2.1l-2.6-1.2c-0.3-0.1-0.7-0.1-0.8,0.2
				c0,0.1,0,0.1,0,0.2c0,0.2,0.2,0.4,0.4,0.5l2.7,1.2c0.1,0,0.1,0,0.2,0.1l10.1,2c-0.1,0.2-0.1,0.5-0.1,0.7l-9.8-0.6l-2.9-1.5
				c-0.3-0.2-0.6-0.1-0.8,0.1c-0.1,0.1-0.1,0.2,0,0.3c0,0.1,0.2,0.3,0.3,0.4l3.1,1.5c0.1,0,0.2,0.1,0.3,0.1l9.7,0.5c0,0,0,0,0,0
				l2.7,0.3l2.7,0.3l3.8,0.4C283.6,163.7,281.1,161.3,280.8,160.8z"/>
		</g>
		<g class="st2">
			<line class="st4" x1="598.1" y1="175.8" x2="598.1" y2="-171.2"/>
			<line class="st4" x1="-25.1" y1="176.3" x2="-25.1" y2="-171.7"/>
			<polyline class="st4" points="597.3,-171.7 616.2,-171.7 616.2,176.3 			"/>
			<polyline class="st4" points="254.5,176.3 -25.1,176.3 -25.1,-171.7 254.5,-171.7 			"/>
			<polyline class="st4" points="336.4,-171.7 597.3,-171.7 616.2,-171.7 616.2,176.3 336.4,176.3 			"/>
			<polyline class="st4" points="254.5,163.5 -6.7,163.5 -6.7,-158.8 254.5,-158.8 			"/>
			<polyline class="st4" points="336.4,-158.8 597.8,-158.8 597.8,163.5 336.5,163.5 			"/>
			<line class="st4" x1="-7" y1="176.2" x2="-7" y2="-170.8"/>
		</g>
	</g>
	<rect x="-76.9" y="-182.8" class="st3" width="745" height="350"/>
	<g class="st2">
		<g transform="translate(-90 -500)">
			<g>
				<path class="st3" d="M410.4,669.5c-1,0-1.9,0.2-2.8,0.5l8.2-13.5h-39v7.1l-10.9-4.1c-0.1-0.7-0.6-1.4-1.3-1.6l-8.7-3.4
					c-1.1-0.4-2.4,0.1-2.8,1.2c-0.4,1.1,0.1,2.4,1.2,2.8l8.7,3.4c0.3,0.1,0.5,0.1,0.8,0.1c0.5,0,1-0.2,1.4-0.5l13.8,5.1l2.9,13.7
					h6.8l6.1-7.8l8.2,3c-0.1,0.5-0.1,1-0.1,1.5c0,4.2,3.4,7.6,7.6,7.6c4.2,0,7.6-3.4,7.6-7.6C418,672.8,414.6,669.5,410.4,669.5z
					 M387.6,678.1h-4l-2.3-10.6l11.3,4.2L387.6,678.1z M410.4,680.3c-1.8,0-3.3-1.5-3.3-3.3c0-1.8,1.5-3.3,3.3-3.3s3.3,1.5,3.3,3.3
					C413.6,678.8,412.2,680.3,410.4,680.3z"/>
				<path class="st3" d="M411.1,654.3c-0.9-2.5-3.3-4.3-6.1-4.3c-1.7,0-3.2,0.7-4.4,1.7c-0.2-3.4-3-6.1-6.5-6.1
					c-3.1,0-5.7,2.2-6.3,5c-0.7-0.4-1.5-0.7-2.3-0.7c-2.4,0-4.3,1.9-4.3,4.3H411.1z"/>
			</g>
		</g>
		<g>
			<path class="st3" d="M271-185.2c-2.9,4.8-6.9,12.1-6.9,16.8c0,6.8,3.7,9.8,8.4,10.3v4.6c0,0.9,0.7,1.6,1.6,1.6
				c0.9,0,1.6-0.7,1.6-1.6v-4.6c4.8-0.5,8.4-3.5,8.4-10.3c0-4.7-3.9-12-6.9-16.8C275.9-187.5,272.4-187.5,271-185.2z M278.6-176.6
				c0.2,0.3,0.2,0.8-0.1,1l-3.6,2.8v3.6l2.7-2.1c0.3-0.2,0.8-0.2,1,0.1c0.2,0.3,0.2,0.8-0.1,1l-3.6,2.8v3.6l2.7-2.1
				c0.3-0.2,0.8-0.2,1,0.1c0.2,0.3,0.2,0.8-0.1,1l-3.9,3c-0.1,0.1-0.3,0.2-0.4,0.2s-0.3,0-0.4-0.2l-3.9-3c-0.3-0.2-0.4-0.7-0.1-1
				c0.2-0.3,0.7-0.4,1-0.1l2.7,2.1v-3.6l-3.6-2.8c-0.3-0.2-0.4-0.7-0.1-1c0.2-0.3,0.7-0.4,1-0.1l2.7,2.1v-3.6l-3.6-2.8
				c-0.3-0.2-0.4-0.7-0.1-1c0.2-0.3,0.7-0.4,1-0.1l2.7,2.1v-4.5c0-0.4,0.3-0.7,0.7-0.7s0.7,0.3,0.7,0.7l0,4.5l2.7-2.1
				C277.9-177,278.4-176.9,278.6-176.6z"/>
			<path class="st3" d="M292.8-198.4c-2.9,4.8-6.9,12.1-6.9,16.8c0,6.8,3.7,9.8,8.4,10.3v4.6c0,0.9,0.7,1.6,1.6,1.6
				c0.9,0,1.6-0.7,1.6-1.6v-4.6c4.8-0.5,8.4-3.5,8.4-10.3c0-4.7-3.9-12-6.9-16.8C297.6-200.7,294.2-200.7,292.8-198.4z M300.4-189.7
				c0.2,0.3,0.2,0.8-0.1,1l-3.6,2.8v3.6l2.7-2.1c0.3-0.2,0.8-0.2,1,0.1c0.2,0.3,0.2,0.8-0.1,1l-3.6,2.8v3.6l2.7-2.1
				c0.3-0.2,0.8-0.2,1,0.1c0.2,0.3,0.2,0.8-0.1,1l-3.9,3c-0.1,0.1-0.3,0.2-0.4,0.2s-0.3,0-0.4-0.2l-3.9-3c-0.3-0.2-0.4-0.7-0.1-1
				c0.2-0.3,0.7-0.4,1-0.1l2.7,2.1v-3.6l-3.6-2.8c-0.3-0.2-0.4-0.7-0.1-1c0.2-0.3,0.7-0.4,1-0.1l2.7,2.1v-3.6l-3.6-2.8
				c-0.3-0.2-0.4-0.7-0.1-1c0.2-0.3,0.7-0.4,1-0.1l2.7,2.1v-4.5c0-0.4,0.3-0.7,0.7-0.7s0.7,0.3,0.7,0.7l0,4.5l2.7-2.1
				C299.7-190.1,300.2-190.1,300.4-189.7z"/>
			<path class="st3" d="M314.6-185.2c-2.9,4.8-6.9,12.1-6.9,16.8c0,6.8,3.7,9.8,8.4,10.3v4.6c0,0.9,0.7,1.6,1.6,1.6
				c0.9,0,1.6-0.7,1.6-1.6v-4.6c4.8-0.5,8.4-3.5,8.4-10.3c0-4.7-3.9-12-6.9-16.8C319.4-187.5,316-187.5,314.6-185.2z M322.2-176.6
				c0.2,0.3,0.2,0.8-0.1,1l-3.6,2.8v3.6l2.7-2.1c0.3-0.2,0.8-0.2,1,0.1c0.2,0.3,0.2,0.8-0.1,1l-3.6,2.8v3.6l2.7-2.1
				c0.3-0.2,0.8-0.2,1,0.1c0.2,0.3,0.2,0.8-0.1,1l-3.9,3c-0.1,0.1-0.3,0.2-0.4,0.2s-0.3,0-0.4-0.2l-3.9-3c-0.3-0.2-0.4-0.7-0.1-1
				c0.2-0.3,0.7-0.4,1-0.1l2.7,2.1v-3.6l-3.6-2.8c-0.3-0.2-0.4-0.7-0.1-1c0.2-0.3,0.7-0.4,1-0.1l2.7,2.1v-3.6l-3.6-2.8
				c-0.3-0.2-0.4-0.7-0.1-1c0.2-0.3,0.7-0.4,1-0.1l2.7,2.1v-4.5c0-0.4,0.3-0.7,0.7-0.7s0.7,0.3,0.7,0.7l0,4.5l2.7-2.1
				C321.5-177,322-176.9,322.2-176.6z"/>
		</g>
		<g>
			<g>
				<line class="st4" x1="-25.5" y1="173.1" x2="-25.5" y2="-175.3"/>
				<polyline class="st4" points="597.7,-175.3 616.7,-175.3 616.7,173.1 				"/>
				<polyline class="st4" points="254.5,173.1 -25.5,173.1 -25.5,-175.3 254.5,-175.3 				"/>
				<polyline class="st4" points="336.5,-175.3 597.7,-175.3 616.7,-175.3 616.7,173.1 336.5,173.1 				"/>
				<polyline class="st4" points="-25.4,-162.5 254.5,-162.5 -7.1,-162.5 -7.1,160.2 254.5,160.2 -25.6,160.2 				"/>
				<polyline class="st4" points="616.7,160.2 336.6,160.2 598.3,160.2 598.3,-162.5 336.5,-162.5 616.7,-162.5 				"/>
			</g>
			<g>
				<line class="st4" x1="-7" y1="-162.6" x2="-25.5" y2="-144.2"/>
				<line class="st4" x1="-18" y1="-162.5" x2="-25.6" y2="-155"/>
				<line class="st4" x1="-7" y1="-150.5" x2="-25.5" y2="-132"/>
				<line class="st4" x1="-7" y1="-138.4" x2="-25.5" y2="-119.9"/>
				<line class="st4" x1="-7" y1="-126.3" x2="-25.5" y2="-107.8"/>
				<line class="st4" x1="-7" y1="-114.1" x2="-25.5" y2="-95.7"/>
				<line class="st4" x1="-7" y1="-102" x2="-25.5" y2="-83.6"/>
				<line class="st4" x1="-7" y1="-89.9" x2="-25.5" y2="-71.5"/>
				<line class="st4" x1="-7" y1="-77.8" x2="-25.5" y2="-59.4"/>
				<line class="st4" x1="-7" y1="-65.7" x2="-25.5" y2="-47.3"/>
				<line class="st4" x1="-7" y1="-53.6" x2="-25.5" y2="-35.1"/>
				<line class="st4" x1="-7" y1="-41.5" x2="-25.5" y2="-23"/>
				<line class="st4" x1="-7" y1="-29.4" x2="-25.5" y2="-10.9"/>
				<line class="st4" x1="-7" y1="-17.2" x2="-25.5" y2="1.2"/>
				<line class="st4" x1="-7" y1="-5.1" x2="-25.5" y2="13.3"/>
				<line class="st4" x1="-7" y1="7" x2="-25.5" y2="25.4"/>
				<line class="st4" x1="-7" y1="19.1" x2="-25.5" y2="37.5"/>
				<line class="st4" x1="-7" y1="31.2" x2="-25.5" y2="49.7"/>
				<line class="st4" x1="-7" y1="43.3" x2="-25.5" y2="61.8"/>
				<line class="st4" x1="-7" y1="55.4" x2="-25.5" y2="73.9"/>
				<line class="st4" x1="-7" y1="67.6" x2="-25.5" y2="86"/>
				<line class="st4" x1="-7" y1="79.7" x2="-25.5" y2="98.1"/>
				<line class="st4" x1="-7" y1="91.8" x2="-25.5" y2="110.2"/>
				<line class="st4" x1="-7" y1="103.9" x2="-25.5" y2="122.3"/>
				<line class="st4" x1="-7" y1="116" x2="-25.5" y2="134.4"/>
				<line class="st4" x1="-7" y1="128.1" x2="-25.5" y2="146.6"/>
				<line class="st4" x1="-7" y1="140.2" x2="-25.5" y2="158.7"/>
				<line class="st4" x1="-7.1" y1="151.7" x2="-15.7" y2="160.2"/>
			</g>
			<g>
				<line class="st4" x1="598.1" y1="-162.6" x2="616.6" y2="-144.2"/>
				<line class="st4" x1="609.1" y1="-162.5" x2="616.7" y2="-155"/>
				<line class="st4" x1="598.1" y1="-150.5" x2="616.6" y2="-132"/>
				<line class="st4" x1="598.1" y1="-138.4" x2="616.6" y2="-119.9"/>
				<line class="st4" x1="598.1" y1="-126.3" x2="616.6" y2="-107.8"/>
				<line class="st4" x1="598.1" y1="-114.1" x2="616.6" y2="-95.7"/>
				<line class="st4" x1="598.1" y1="-102" x2="616.6" y2="-83.6"/>
				<line class="st4" x1="598.1" y1="-89.9" x2="616.6" y2="-71.5"/>
				<line class="st4" x1="598.1" y1="-77.8" x2="616.6" y2="-59.4"/>
				<line class="st4" x1="598.1" y1="-65.7" x2="616.6" y2="-47.3"/>
				<line class="st4" x1="598.1" y1="-53.6" x2="616.6" y2="-35.1"/>
				<line class="st4" x1="598.1" y1="-41.5" x2="616.6" y2="-23"/>
				<line class="st4" x1="598.1" y1="-29.4" x2="616.6" y2="-10.9"/>
				<line class="st4" x1="598.1" y1="-17.2" x2="616.6" y2="1.2"/>
				<line class="st4" x1="598.1" y1="-5.1" x2="616.6" y2="13.3"/>
				<line class="st4" x1="598.1" y1="7" x2="616.6" y2="25.4"/>
				<line class="st4" x1="598.1" y1="19.1" x2="616.6" y2="37.5"/>
				<line class="st4" x1="598.1" y1="31.2" x2="616.6" y2="49.7"/>
				<line class="st4" x1="598.1" y1="43.3" x2="616.6" y2="61.8"/>
				<line class="st4" x1="598.1" y1="55.4" x2="616.6" y2="73.9"/>
				<line class="st4" x1="598.1" y1="67.6" x2="616.6" y2="86"/>
				<line class="st4" x1="598.1" y1="79.7" x2="616.6" y2="98.1"/>
				<line class="st4" x1="598.1" y1="91.8" x2="616.6" y2="110.2"/>
				<line class="st4" x1="598.1" y1="103.9" x2="616.6" y2="122.3"/>
				<line class="st4" x1="598.1" y1="116" x2="616.6" y2="134.4"/>
				<line class="st4" x1="598.1" y1="128.1" x2="616.6" y2="146.6"/>
				<line class="st4" x1="598.1" y1="140.2" x2="616.6" y2="158.7"/>
				<line class="st4" x1="598.2" y1="151.7" x2="606.8" y2="160.2"/>
			</g>
		</g>
	</g>
</g>
<g id="Dividers">
	<g id="Divider_1" class="st0">
		<g id="Divider_1_" class="st2">
			<rect x="11.9" y="119" class="st5" width="570" height="22"/>
			<line class="st6" x1="-4.1" y1="130" x2="597.9" y2="130"/>
		</g>
		<path class="st7" d="M87.7,129.4"/>
		<line class="st8" x1="11.4" y1="119.2" x2="45.9" y2="140.5"/>
		<line class="st8" x1="11.9" y1="130" x2="28.9" y2="140.6"/>
		<line class="st8" x1="26" y1="119.2" x2="60.5" y2="140.5"/>
		<line class="st8" x1="40.6" y1="119.2" x2="75.1" y2="140.5"/>
		<line class="st8" x1="55.2" y1="119.2" x2="89.7" y2="140.5"/>
		<line class="st8" x1="69.7" y1="119.2" x2="104.2" y2="140.5"/>
		<line class="st8" x1="84.3" y1="119.2" x2="118.8" y2="140.5"/>
		<line class="st8" x1="98.9" y1="119.2" x2="133.4" y2="140.5"/>
		<line class="st8" x1="113.5" y1="119.2" x2="148" y2="140.5"/>
		<line class="st8" x1="128.1" y1="119.2" x2="162.6" y2="140.5"/>
		<line class="st8" x1="142.7" y1="119.2" x2="177.2" y2="140.5"/>
		<line class="st8" x1="157.2" y1="119.2" x2="191.7" y2="140.5"/>
		<line class="st8" x1="171.8" y1="119.2" x2="206.3" y2="140.5"/>
		<line class="st8" x1="186.4" y1="119.2" x2="220.9" y2="140.5"/>
		<line class="st8" x1="201" y1="119.2" x2="235.5" y2="140.5"/>
		<line class="st8" x1="215.6" y1="119.2" x2="250.1" y2="140.5"/>
		<line class="st8" x1="230.1" y1="119.2" x2="264.6" y2="140.5"/>
		<line class="st8" x1="244.7" y1="119.2" x2="279.2" y2="140.5"/>
		<line class="st8" x1="259.3" y1="119.2" x2="293.8" y2="140.5"/>
		<line class="st8" x1="273.9" y1="119.2" x2="308.4" y2="140.5"/>
		<line class="st8" x1="288.5" y1="119.2" x2="323" y2="140.5"/>
		<line class="st8" x1="303" y1="119.2" x2="337.5" y2="140.5"/>
		<line class="st8" x1="317.6" y1="119.2" x2="352.1" y2="140.5"/>
		<line class="st8" x1="332.2" y1="119.2" x2="366.7" y2="140.5"/>
		<line class="st8" x1="346.8" y1="119.2" x2="381.3" y2="140.5"/>
		<line class="st8" x1="361.4" y1="119.2" x2="395.9" y2="140.5"/>
		<line class="st8" x1="376" y1="119.2" x2="410.5" y2="140.5"/>
		<line class="st8" x1="390.5" y1="119.2" x2="425" y2="140.5"/>
		<line class="st8" x1="405.1" y1="119.2" x2="439.6" y2="140.5"/>
		<line class="st8" x1="419.7" y1="119.2" x2="454.2" y2="140.5"/>
		<line class="st8" x1="434.3" y1="119.2" x2="468.8" y2="140.5"/>
		<line class="st8" x1="448.9" y1="119.2" x2="483.4" y2="140.5"/>
		<line class="st8" x1="463.4" y1="119.2" x2="497.9" y2="140.5"/>
		<line class="st8" x1="478" y1="119.2" x2="512.5" y2="140.5"/>
		<line class="st8" x1="492.6" y1="119.2" x2="527.1" y2="140.5"/>
		<line class="st8" x1="507.2" y1="119.2" x2="541.7" y2="140.5"/>
		<line class="st8" x1="521.8" y1="119.2" x2="556.3" y2="140.5"/>
		<line class="st8" x1="536.3" y1="119.2" x2="570.8" y2="140.5"/>
		<line class="st8" x1="550.9" y1="119" x2="581.9" y2="138.2"/>
		<line class="st8" x1="566.4" y1="119.2" x2="582.5" y2="129.2"/>
	</g>
	<g id="Divider" class="st0">
		<rect x="10.6" y="-18.8" class="st7" width="570" height="22"/>
		<line class="st9" x1="-5.4" y1="-7.8" x2="596.6" y2="-7.8"/>
	</g>
	<g class="st0">
		<rect x="10.6" y="-18.8" class="st7" width="570" height="22"/>
		<line class="st9" x1="-5.4" y1="-11.8" x2="596.6" y2="-11.8"/>
		<line class="st9" x1="-5.4" y1="-4.2" x2="596.6" y2="-4.2"/>
	</g>
	<rect x="9.1" y="7.9" class="st5" width="570" height="22"/>
	<rect x="16.1" y="15.1" class="st5" width="556" height="7.5"/>
</g>
</svg>
