<?xml version="1.0" encoding="utf-8"?>
<!-- Generator: Adobe Illustrator 24.0.0, SVG Export Plug-In . SVG Version: 6.00 Build 0)  -->
<svg version="1.1" xmlns="http://www.w3.org/2000/svg" xmlns:xlink="http://www.w3.org/1999/xlink" x="0px" y="0px"
	 viewBox="0 0 620.5 39.7" style="enable-background:new 0 0 620.5 39.7;" xml:space="preserve">
<style type="text/css">
	.st0{display:none;}
	.st1{display:inline;fill-rule:evenodd;clip-rule:evenodd;fill:#08544D;}
	.st2{display:inline;}
	.st3{fill:#08544D;}
	.st4{fill:none;stroke:#08544D;stroke-miterlimit:10;}
	.st5{fill:none;stroke:#08544D;stroke-width:3;stroke-miterlimit:10;}
	.st6{fill:none;stroke:#08544D;stroke-width:3;stroke-linecap:round;stroke-miterlimit:10;}
	.st7{display:inline;fill:none;stroke:#08544D;stroke-width:3;stroke-miterlimit:10;}
	.st8{display:inline;fill:none;stroke:#08544D;stroke-width:2;stroke-miterlimit:10;}
	.st9{display:inline;fill:none;stroke:#08544D;stroke-width:3;stroke-linecap:round;stroke-miterlimit:10;}
</style>
<g id="Frames" class="st0">
	<g id="Frame">
		<path class="st1" d="M323.7-144.3c-8,3.6-8.3,10.7-8.3,12.5c-0.8,1-1.8,1.8-2.6,2.4c0.6-3.2,1.2-7.5,1.8-12.2c0,0,0.1,0,0.1,0
			c0.1-0.1,2.8-1.2,4.8-3.1c1.8-0.6,7.8-3.5,9.3-11.7c-8.4,2.6-9.5,9.6-9.7,11.4c-1.7,1.6-3.9,2.6-4.5,2.9c0.8-1.5,1.4-3.5,1.4-5.8
			c0.8-0.8,2-2,2.8-3.5c1.6-1.1,6.5-5.7,5.5-13.9c-7.2,5-6.3,12-5.9,13.7c-0.7,1.2-1.6,2.2-2.3,3c0-0.8-0.2-1.6-0.4-2.5
			c0.2-1.9,0.4-3.7,0.5-5.4c0.3-0.7,0.5-1.5,0.6-2.3c0.3-0.3,0.7-0.7,1.3-1.3c0.8-0.5,5.1-4.3,4-11.2c-5.2,4-4.6,9.1-4.2,10.7
			c-0.3,0.4-0.7,0.7-1,1c0.1-1.2,0.1-2.6-0.1-4.1c0.3-3,0.4-5.1,0.4-5.4c0,0,0-0.1,0-0.1c0-0.1,0-0.2,0-0.2c1.2-1,4.3-4.2,2-9.9
			c-1.8,1.7-2.6,3.5-2.9,5.1c-0.7-1.1-1.8-2.1-3.6-3.1c-1,5,2.4,7.8,3.8,8.6c-0.1,0.8-0.2,2.8-0.4,5.4c-0.6,0.4-1.1,0.8-1.6,1.3
			c0.1-1.8-0.1-3.8-0.9-6c-6,5.8-4,11.8-3.2,13.6c-0.5,0.8-1,1.5-1.3,1.9c-0.5-6.4-1-13-1.4-18.7c1.3-0.8,4.8-3.6,3.2-9.7
			c-3.6,2.6-4,6.1-3.9,8.2c-0.4-1.7-1.8-4.4-5.6-5.6c0.9,5,4.7,6.8,5.6,7.1c0.1,1.3,0.4,5.3,0.8,10.4c-0.3-0.3-0.9-0.7-1.5-1.2
			c0.2-1.7,0.4-6.8-5.1-10.3c-0.6,7,4.1,10.4,5,10.8c0.9,0.8,1.5,1.3,1.7,1.4c0.2,2.7,0.4,5.7,0.7,8.7c-0.4-0.3-1.2-0.9-2-1.8
			c0.3-1.9,0.9-8.3-6.4-12.4c-0.9,8.4,5.2,12.4,6.2,12.9c1.1,1.1,2.1,1.7,2.1,1.8c0,0,0.1,0,0.1,0c0.3,3.1,0.5,6.2,0.8,9.2
			c-0.4-0.3-1.1-0.9-1.9-1.7c0.3-1.9,0.9-8.3-6.4-12.4c-0.1,1.4-0.1,2.7,0.1,3.8c-1.3-1.2-3.1-2.4-5.4-3.2
			c1.3,8.2,7.3,11.2,9.1,11.9c1.9,1.9,4.5,3,4.7,3.1c0.4,4,0.7,7.6,1,10.3c-0.3-0.3-0.9-0.7-1.5-1.3c0.2-1.7,0.5-6.8-5-10.3
			c-0.1,0.7-0.1,1.3,0,1.9c-1.2-1.5-2.9-2.9-5.4-4c0.5,8.3,6.1,11.9,7.8,12.7c1.7,2.1,4.3,3.6,4.4,3.6c0,0,0,0,0,0
			c0.2,1,0.3,1.7,0.4,1.9c0.1,0.1,0.2,0.2,0.3,0.2c0.1,0,0.1,0,0.2,0c0.2-0.1,0.2-0.3,0.1-0.4c0,0,0,0,0-0.1c0,0,0.1-0.1,0.1-0.1
			c0.2-0.6,0.4-1.4,0.6-2.3c0,0,0,0,0,0c0.1,0,3-0.8,5.2-2.5c1.9-0.4,8.2-2.6,10.6-10.5c-2.5,0.5-4.4,1.4-6,2.5
			C323.1-140.2,323.5-142.1,323.7-144.3z M315.1-152.8C315.1-152.8,315.1-152.8,315.1-152.8c-6.1,5.7-4,11.8-3.2,13.5
			c-0.6,0.9-1.1,1.7-1.4,2.1c-0.3-3.4-0.7-7.4-1-11.5c0.3-0.2,1.1-0.9,1.9-1.8c0.6-0.3,2.5-1.7,3.9-4.3
			C315.2-154.1,315.1-153.5,315.1-152.8z M310.7-154C310.8-154,310.8-154.1,310.7-154c0,1.3,0.2,2.4,0.4,3c-0.7,0.8-1.4,1.4-1.7,1.7
			c-0.1-0.8-0.1-1.7-0.2-2.5C309.4-152.1,310.1-152.9,310.7-154z M305.2-143.5c0-0.2,0-0.6-0.1-1c1,1,1.9,1.5,2.3,1.7
			c1.1,1,2,1.7,2.1,1.8c0,0.1,0,0.3,0,0.4C308.8-141,306.7-142,305.2-143.5z M306.9-131.1c0-0.3,0-0.7,0-1.3c0.9,1,1.8,1.6,2.1,1.8
			c0.9,0.8,1.6,1.3,1.7,1.4c0,0,0,0,0,0c0.1,0.5,0.1,0.9,0.2,1.3C310.1-128.2,308.2-129.5,306.9-131.1z M311.6-127
			c-0.3-1.8-0.7-5.2-1.1-9.5c0,0,0,0,0,0c0.1-0.1,0.8-1,1.6-2.3c0.3-0.2,0.9-0.9,1.6-1.9C313.1-135,312.3-129.8,311.6-127z
			 M317.4-131c-1.8,1.3-4,2.1-4.7,2.3c0,0,0,0,0,0c0.9-0.6,2.2-1.6,3.2-2.8c0.5-0.2,1.2-0.7,2.1-1.3
			C317.6-132.1,317.4-131.4,317.4-131z"/>
		<g class="st2">
			<path class="st3" d="M319.6,193.2l1.5-1.1c1.9-1.8,4.9-4.8,5.2-5.2c0.1-0.1,0-0.2,0-0.3c0,0-0.1-0.1-0.2-0.1
				c-0.4,0.1-4.1,2.2-6.4,3.5l-1.5,1.1c-0.4,0.5-0.5,1.2-0.1,1.7C318.5,193.4,319,193.5,319.6,193.2z"/>
			<path class="st3" d="M286.8,218.3l18.3-14l2-1.5l11.1-8.5c-0.4-0.2-0.7-0.4-1-0.8c-0.3-0.4-0.4-0.8-0.5-1.2l-31.4,24.1
				c-0.6,0.5-0.8,1.3-0.4,1.9C285.4,218.7,286.2,218.8,286.8,218.3z"/>
			<path class="st3" d="M322.9,191.8l3.8-0.4l2.7-0.3l2.7-0.3c0,0,0,0,0,0l9.7-0.5c0.1,0,0.2,0,0.3-0.1l3.1-1.5
				c0.2-0.1,0.3-0.2,0.3-0.4c0-0.1,0-0.2,0-0.3c-0.1-0.2-0.5-0.3-0.8-0.1l-2.9,1.5l-9.8,0.6c0-0.2-0.1-0.5-0.1-0.7l10.1-2
				c0.1,0,0.1,0,0.2-0.1l2.7-1.2c0.2-0.1,0.4-0.3,0.4-0.5c0-0.1,0-0.2,0-0.2c-0.1-0.2-0.4-0.3-0.8-0.2l-2.6,1.2l-10.1,2.1
				c-0.1-0.2-0.1-0.5-0.2-0.7l10.1-3.5c0,0,0.1,0,0.1-0.1l2-1.1c0.2-0.1,0.3-0.3,0.4-0.5c0-0.1,0-0.2,0-0.3
				c-0.1-0.2-0.5-0.3-0.8-0.1l-1.9,1.1l-10.1,3.7c-0.1-0.2-0.2-0.4-0.3-0.7l2.7-1.4l2.5-1.3l4.7-2.4l1.8-1.2
				c0.2-0.1,0.3-0.3,0.3-0.5c0-0.1,0-0.2-0.1-0.3c-0.1-0.2-0.5-0.2-0.8,0l-1.7,1.2l-4.6,2.5l-2.5,1.3l-2.7,1.5
				c-0.1-0.2-0.3-0.4-0.4-0.6l9.3-6.7l1.9-1.5c0.2-0.1,0.3-0.3,0.3-0.5c0-0.1,0-0.2-0.1-0.3c-0.2-0.2-0.5-0.2-0.8,0l-1.9,1.5
				l-9.2,6.8c0-0.1-0.1-0.1-0.1-0.2c-0.1-0.1-0.2-0.3-0.3-0.4l8.3-8.1l1.6-1.4c0.2-0.2,0.3-0.4,0.3-0.6c0-0.1,0-0.2-0.1-0.3
				c-0.2-0.2-0.5-0.2-0.8,0l-1.6,1.4l-8.3,8.3c-0.2-0.2-0.3-0.4-0.5-0.5l7-9.2l2.1-1.6c0.2-0.2,0.3-0.4,0.4-0.7c0-0.1,0-0.2,0-0.3
				c-0.1-0.3-0.5-0.3-0.8-0.1l-2.2,1.8c-0.1,0-0.1,0.1-0.2,0.2l-7,9.4c-0.2-0.2-0.4-0.3-0.6-0.5l5.6-10.1l2-1.9
				c0.2-0.2,0.3-0.4,0.3-0.6c0-0.1,0-0.2-0.1-0.3c-0.2-0.3-0.5-0.3-0.8,0l-2.1,2.1c-0.1,0.1-0.1,0.1-0.2,0.2l-5.5,10.3
				c-0.2-0.1-0.4-0.3-0.6-0.4l4.1-10.7l1.8-2.1c0.2-0.2,0.2-0.4,0.2-0.6c0-0.1,0-0.3-0.1-0.3c-0.2-0.2-0.5-0.2-0.7,0.1l-1.9,2.3
				c-0.1,0.1-0.1,0.2-0.1,0.3l-4,10.8c-0.2-0.1-0.4-0.2-0.7-0.3l2.6-10.8l2-2.8c0.1-0.2,0.2-0.4,0.2-0.6c0-0.1,0-0.3-0.1-0.4
				c-0.2-0.2-0.5-0.2-0.7,0.2l-2,3c-0.1,0.1-0.1,0.2-0.1,0.3l-2.4,10.9c0,0,0,0,0,0l-3.2,8.5c2.1-1.2,5.1-2.8,5.4-2.9
				c0.5-0.2,1.1,0,1.4,0.5c0.2,0.2,0.2,0.4,0.2,0.7c0,0.3-0.1,0.5-0.2,0.8C326.8,187.9,324.4,190.3,322.9,191.8z"/>
		</g>
		<g class="st2">
			<path class="st3" d="M306,192.8c0.4-0.5,0.3-1.1-0.1-1.7l-1.5-1.1c-2.3-1.3-6-3.4-6.4-3.5c-0.1,0-0.2,0-0.2,0.1
				c0,0-0.1,0.1,0,0.3c0.3,0.4,3.4,3.4,5.2,5.2l1.5,1.1C305.1,193.5,305.6,193.4,306,192.8z"/>
			<path class="st3" d="M339.1,218.2c0.4-0.5,0.2-1.4-0.4-1.9l-31.4-24.1c0,0.4-0.2,0.9-0.5,1.2c-0.3,0.4-0.6,0.6-1,0.8l11.1,8.5
				l2,1.5l18.3,14C337.9,218.8,338.7,218.7,339.1,218.2z"/>
			<path class="st3" d="M296.9,187.5c-0.2-0.2-0.2-0.5-0.2-0.8c0-0.2,0.1-0.5,0.2-0.7c0.3-0.4,0.9-0.6,1.4-0.5
				c0.3,0.1,3.3,1.7,5.4,2.9l-3.2-8.5c0,0,0,0,0,0l-2.4-10.9c0-0.1-0.1-0.2-0.1-0.3l-2-3c-0.2-0.3-0.5-0.4-0.7-0.2
				c-0.1,0.1-0.1,0.2-0.1,0.4c0,0.2,0.1,0.4,0.2,0.6l2,2.8l2.6,10.8c-0.2,0.1-0.5,0.2-0.7,0.3l-4-10.8c0-0.1-0.1-0.2-0.1-0.3
				l-1.9-2.3c-0.2-0.3-0.6-0.3-0.7-0.1c-0.1,0.1-0.1,0.2-0.1,0.3c0,0.2,0.1,0.4,0.2,0.6l1.8,2.1l4.1,10.7c-0.2,0.1-0.4,0.3-0.6,0.4
				l-5.5-10.3c0-0.1-0.1-0.1-0.2-0.2l-2.1-2.1c-0.3-0.3-0.6-0.3-0.8,0c-0.1,0.1-0.1,0.2-0.1,0.3c0,0.2,0.1,0.5,0.3,0.6l2,1.9
				l5.6,10.1c-0.2,0.2-0.4,0.3-0.6,0.5l-7-9.4c0-0.1-0.1-0.1-0.2-0.2l-2.2-1.8c-0.3-0.2-0.7-0.2-0.8,0.1c0,0.1-0.1,0.2,0,0.3
				c0,0.2,0.2,0.5,0.4,0.7l2.1,1.6l7,9.2c-0.2,0.2-0.3,0.4-0.5,0.5l-8.3-8.3l-1.6-1.4c-0.3-0.3-0.7-0.3-0.8,0
				c-0.1,0.1-0.1,0.2-0.1,0.3c0,0.2,0.1,0.4,0.3,0.6l1.6,1.4l8.3,8.1c-0.1,0.1-0.2,0.3-0.3,0.4c0,0.1-0.1,0.1-0.1,0.2l-9.2-6.8
				l-1.9-1.5c-0.3-0.2-0.7-0.3-0.8,0c-0.1,0.1-0.1,0.2-0.1,0.3c0,0.2,0.1,0.4,0.3,0.5l1.9,1.5l9.3,6.7c-0.1,0.2-0.3,0.4-0.4,0.6
				l-2.7-1.5l-2.5-1.3l-4.6-2.5l-1.7-1.2c-0.3-0.2-0.7-0.2-0.8,0c-0.1,0.1-0.1,0.2-0.1,0.3c0,0.2,0.2,0.4,0.3,0.5l1.8,1.2l4.7,2.4
				l2.5,1.3l2.7,1.4c-0.1,0.2-0.2,0.4-0.3,0.7l-10.1-3.7l-1.9-1.1c-0.3-0.2-0.7-0.1-0.8,0.1c0,0.1-0.1,0.2,0,0.3
				c0,0.2,0.2,0.4,0.4,0.5l2,1.1c0,0,0.1,0,0.1,0.1l10.1,3.5c-0.1,0.2-0.2,0.5-0.2,0.7l-10.1-2.1l-2.6-1.2c-0.3-0.1-0.7-0.1-0.8,0.2
				c0,0.1,0,0.1,0,0.2c0,0.2,0.2,0.4,0.4,0.5l2.7,1.2c0.1,0,0.1,0,0.2,0.1l10.1,2c-0.1,0.2-0.1,0.5-0.1,0.7l-9.8-0.6l-2.9-1.5
				c-0.3-0.2-0.6-0.1-0.8,0.1c-0.1,0.1-0.1,0.2,0,0.3c0,0.1,0.2,0.3,0.3,0.4l3.1,1.5c0.1,0,0.2,0.1,0.3,0.1l9.7,0.5c0,0,0,0,0,0
				l2.7,0.3l2.7,0.3l3.8,0.4C299.7,190.3,297.3,187.9,296.9,187.5z"/>
		</g>
		<g class="st2">
			<line class="st4" x1="614.3" y1="202.4" x2="614.3" y2="-144.5"/>
			<line class="st4" x1="-9" y1="202.9" x2="-9" y2="-145"/>
			<polyline class="st4" points="613.5,-145 632.4,-145 632.4,202.9 			"/>
			<polyline class="st4" points="270.7,202.9 -9,202.9 -9,-145 270.6,-145 			"/>
			<polyline class="st4" points="352.6,-145 613.5,-145 632.4,-145 632.4,202.9 352.6,202.9 			"/>
			<polyline class="st4" points="270.7,190.1 9.5,190.1 9.5,-132.2 270.7,-132.2 			"/>
			<polyline class="st4" points="352.6,-132.2 614,-132.2 614,190.1 352.6,190.1 			"/>
			<line class="st4" x1="9.1" y1="202.8" x2="9.1" y2="-144.2"/>
		</g>
	</g>
	<rect x="-60.8" y="-156.1" class="st3" width="745" height="350"/>
	<g class="st2">
		<g transform="translate(-90 -500)">
			<g>
				<path class="st3" d="M426.6,696.1c-1,0-1.9,0.2-2.8,0.5l8.2-13.5h-39v7.1l-10.9-4.1c-0.1-0.7-0.6-1.4-1.3-1.6l-8.7-3.4
					c-1.1-0.4-2.4,0.1-2.8,1.2c-0.4,1.1,0.1,2.4,1.2,2.8l8.7,3.4c0.3,0.1,0.5,0.1,0.8,0.1c0.5,0,1-0.2,1.4-0.5l13.8,5.1l2.9,13.7
					h6.8l6.1-7.8l8.2,3c-0.1,0.5-0.1,1-0.1,1.5c0,4.2,3.4,7.6,7.6,7.6c4.2,0,7.6-3.4,7.6-7.6C434.1,699.5,430.8,696.1,426.6,696.1z
					 M403.8,704.8h-4l-2.3-10.6l11.3,4.2L403.8,704.8z M426.6,706.9c-1.8,0-3.3-1.5-3.3-3.3c0-1.8,1.5-3.3,3.3-3.3s3.3,1.5,3.3,3.3
					C429.8,705.5,428.4,706.9,426.6,706.9z"/>
				<path class="st3" d="M427.2,680.9c-0.9-2.5-3.3-4.3-6.1-4.3c-1.7,0-3.2,0.7-4.4,1.7c-0.2-3.4-3-6.1-6.5-6.1
					c-3.1,0-5.7,2.2-6.3,5c-0.7-0.4-1.5-0.7-2.3-0.7c-2.4,0-4.3,1.9-4.3,4.3H427.2z"/>
			</g>
		</g>
		<g>
			<path class="st3" d="M287.2-158.6c-2.9,4.8-6.9,12.1-6.9,16.8c0,6.8,3.7,9.8,8.4,10.3v4.6c0,0.9,0.7,1.6,1.6,1.6
				c0.9,0,1.6-0.7,1.6-1.6v-4.6c4.8-0.5,8.4-3.5,8.4-10.3c0-4.7-3.9-12-6.9-16.8C292-160.9,288.6-160.9,287.2-158.6z M294.8-149.9
				c0.2,0.3,0.2,0.8-0.1,1l-3.6,2.8v3.6l2.7-2.1c0.3-0.2,0.8-0.2,1,0.1c0.2,0.3,0.2,0.8-0.1,1l-3.6,2.8v3.6l2.7-2.1
				c0.3-0.2,0.8-0.2,1,0.1c0.2,0.3,0.2,0.8-0.1,1l-3.9,3c-0.1,0.1-0.3,0.2-0.4,0.2c-0.2,0-0.3,0-0.4-0.2l-3.9-3
				c-0.3-0.2-0.4-0.7-0.1-1c0.2-0.3,0.7-0.4,1-0.1l2.7,2.1v-3.6l-3.6-2.8c-0.3-0.2-0.4-0.7-0.1-1c0.2-0.3,0.7-0.4,1-0.1l2.7,2.1
				v-3.6l-3.6-2.8c-0.3-0.2-0.4-0.7-0.1-1c0.2-0.3,0.7-0.4,1-0.1l2.7,2.1v-4.5c0-0.4,0.3-0.7,0.7-0.7c0.4,0,0.7,0.3,0.7,0.7l0,4.5
				l2.7-2.1C294.1-150.3,294.5-150.3,294.8-149.9z"/>
			<path class="st3" d="M308.9-171.7c-2.9,4.8-6.9,12.1-6.9,16.8c0,6.8,3.7,9.8,8.4,10.3v4.6c0,0.9,0.7,1.6,1.6,1.6s1.6-0.7,1.6-1.6
				v-4.6c4.8-0.5,8.4-3.5,8.4-10.3c0-4.7-3.9-12-6.9-16.8C313.8-174.1,310.4-174.1,308.9-171.7z M316.6-163.1c0.2,0.3,0.2,0.8-0.1,1
				l-3.6,2.8v3.6l2.7-2.1c0.3-0.2,0.8-0.2,1,0.1c0.2,0.3,0.2,0.8-0.1,1l-3.6,2.8v3.6l2.7-2.1c0.3-0.2,0.8-0.2,1,0.1
				c0.2,0.3,0.2,0.8-0.1,1l-3.9,3c-0.1,0.1-0.3,0.2-0.4,0.2s-0.3,0-0.4-0.2l-3.9-3c-0.3-0.2-0.4-0.7-0.1-1c0.2-0.3,0.7-0.4,1-0.1
				l2.7,2.1v-3.6l-3.6-2.8c-0.3-0.2-0.4-0.7-0.1-1c0.2-0.3,0.7-0.4,1-0.1l2.7,2.1v-3.6l-3.6-2.8c-0.3-0.2-0.4-0.7-0.1-1
				c0.2-0.3,0.7-0.4,1-0.1l2.7,2.1v-4.5c0-0.4,0.3-0.7,0.7-0.7s0.7,0.3,0.7,0.7l0,4.5l2.7-2.1C315.9-163.5,316.3-163.4,316.6-163.1z
				"/>
			<path class="st3" d="M330.7-158.6c-2.9,4.8-6.9,12.1-6.9,16.8c0,6.8,3.7,9.8,8.4,10.3v4.6c0,0.9,0.7,1.6,1.6,1.6
				c0.9,0,1.6-0.7,1.6-1.6v-4.6c4.8-0.5,8.4-3.5,8.4-10.3c0-4.7-3.9-12-6.9-16.8C335.6-160.9,332.2-160.9,330.7-158.6z M338.4-149.9
				c0.2,0.3,0.2,0.8-0.1,1l-3.6,2.8v3.6l2.7-2.1c0.3-0.2,0.8-0.2,1,0.1c0.2,0.3,0.2,0.8-0.1,1l-3.6,2.8v3.6l2.7-2.1
				c0.3-0.2,0.8-0.2,1,0.1c0.2,0.3,0.2,0.8-0.1,1l-3.9,3c-0.1,0.1-0.3,0.2-0.4,0.2s-0.3,0-0.4-0.2l-3.9-3c-0.3-0.2-0.4-0.7-0.1-1
				c0.2-0.3,0.7-0.4,1-0.1l2.7,2.1v-3.6l-3.6-2.8c-0.3-0.2-0.4-0.7-0.1-1c0.2-0.3,0.7-0.4,1-0.1l2.7,2.1v-3.6l-3.6-2.8
				c-0.3-0.2-0.4-0.7-0.1-1c0.2-0.3,0.7-0.4,1-0.1l2.7,2.1v-4.5c0-0.4,0.3-0.7,0.7-0.7s0.7,0.3,0.7,0.7l0,4.5l2.7-2.1
				C337.7-150.3,338.1-150.3,338.4-149.9z"/>
		</g>
		<g>
			<g>
				<line class="st4" x1="-9.3" y1="199.7" x2="-9.3" y2="-148.7"/>
				<polyline class="st4" points="613.9,-148.7 632.9,-148.7 632.9,199.7 				"/>
				<polyline class="st4" points="270.6,199.7 -9.3,199.7 -9.3,-148.7 270.6,-148.7 				"/>
				<polyline class="st4" points="352.7,-148.7 613.9,-148.7 632.9,-148.7 632.9,199.7 352.7,199.7 				"/>
				<polyline class="st4" points="-9.2,-135.9 270.7,-135.9 9.1,-135.9 9.1,186.9 270.6,186.9 -9.4,186.9 				"/>
				<polyline class="st4" points="632.9,186.9 352.7,186.9 614.4,186.9 614.4,-135.9 352.7,-135.9 632.8,-135.9 				"/>
			</g>
			<g>
				<line class="st4" x1="9.1" y1="-136" x2="-9.4" y2="-117.5"/>
				<line class="st4" x1="-1.8" y1="-135.9" x2="-9.4" y2="-128.3"/>
				<line class="st4" x1="9.1" y1="-123.9" x2="-9.4" y2="-105.4"/>
				<line class="st4" x1="9.1" y1="-111.7" x2="-9.4" y2="-93.3"/>
				<line class="st4" x1="9.1" y1="-99.6" x2="-9.4" y2="-81.2"/>
				<line class="st4" x1="9.1" y1="-87.5" x2="-9.4" y2="-69.1"/>
				<line class="st4" x1="9.1" y1="-75.4" x2="-9.4" y2="-57"/>
				<line class="st4" x1="9.1" y1="-63.3" x2="-9.4" y2="-44.8"/>
				<line class="st4" x1="9.1" y1="-51.2" x2="-9.4" y2="-32.7"/>
				<line class="st4" x1="9.1" y1="-39.1" x2="-9.4" y2="-20.6"/>
				<line class="st4" x1="9.1" y1="-26.9" x2="-9.4" y2="-8.5"/>
				<line class="st4" x1="9.1" y1="-14.8" x2="-9.4" y2="3.6"/>
				<line class="st4" x1="9.1" y1="-2.7" x2="-9.4" y2="15.7"/>
				<line class="st4" x1="9.1" y1="9.4" x2="-9.4" y2="27.8"/>
				<line class="st4" x1="9.1" y1="21.5" x2="-9.4" y2="39.9"/>
				<line class="st4" x1="9.1" y1="33.6" x2="-9.4" y2="52.1"/>
				<line class="st4" x1="9.1" y1="45.7" x2="-9.4" y2="64.2"/>
				<line class="st4" x1="9.1" y1="57.9" x2="-9.4" y2="76.3"/>
				<line class="st4" x1="9.1" y1="70" x2="-9.4" y2="88.4"/>
				<line class="st4" x1="9.1" y1="82.1" x2="-9.4" y2="100.5"/>
				<line class="st4" x1="9.1" y1="94.2" x2="-9.4" y2="112.6"/>
				<line class="st4" x1="9.1" y1="106.3" x2="-9.4" y2="124.7"/>
				<line class="st4" x1="9.1" y1="118.4" x2="-9.4" y2="136.9"/>
				<line class="st4" x1="9.1" y1="130.5" x2="-9.4" y2="149"/>
				<line class="st4" x1="9.1" y1="142.6" x2="-9.4" y2="161.1"/>
				<line class="st4" x1="9.1" y1="154.8" x2="-9.4" y2="173.2"/>
				<line class="st4" x1="9.1" y1="166.9" x2="-9.4" y2="185.3"/>
				<line class="st4" x1="9.1" y1="178.3" x2="0.5" y2="186.9"/>
			</g>
			<g>
				<line class="st4" x1="614.3" y1="-136" x2="632.8" y2="-117.5"/>
				<line class="st4" x1="625.3" y1="-135.9" x2="632.8" y2="-128.3"/>
				<line class="st4" x1="614.3" y1="-123.9" x2="632.8" y2="-105.4"/>
				<line class="st4" x1="614.3" y1="-111.7" x2="632.8" y2="-93.3"/>
				<line class="st4" x1="614.3" y1="-99.6" x2="632.8" y2="-81.2"/>
				<line class="st4" x1="614.3" y1="-87.5" x2="632.8" y2="-69.1"/>
				<line class="st4" x1="614.3" y1="-75.4" x2="632.8" y2="-57"/>
				<line class="st4" x1="614.3" y1="-63.3" x2="632.8" y2="-44.8"/>
				<line class="st4" x1="614.3" y1="-51.2" x2="632.8" y2="-32.7"/>
				<line class="st4" x1="614.3" y1="-39.1" x2="632.8" y2="-20.6"/>
				<line class="st4" x1="614.3" y1="-26.9" x2="632.8" y2="-8.5"/>
				<line class="st4" x1="614.3" y1="-14.8" x2="632.8" y2="3.6"/>
				<line class="st4" x1="614.3" y1="-2.7" x2="632.8" y2="15.7"/>
				<line class="st4" x1="614.3" y1="9.4" x2="632.8" y2="27.8"/>
				<line class="st4" x1="614.3" y1="21.5" x2="632.8" y2="39.9"/>
				<line class="st4" x1="614.3" y1="33.6" x2="632.8" y2="52.1"/>
				<line class="st4" x1="614.3" y1="45.7" x2="632.8" y2="64.2"/>
				<line class="st4" x1="614.3" y1="57.9" x2="632.8" y2="76.3"/>
				<line class="st4" x1="614.3" y1="70" x2="632.8" y2="88.4"/>
				<line class="st4" x1="614.3" y1="82.1" x2="632.8" y2="100.5"/>
				<line class="st4" x1="614.3" y1="94.2" x2="632.8" y2="112.6"/>
				<line class="st4" x1="614.3" y1="106.3" x2="632.8" y2="124.7"/>
				<line class="st4" x1="614.3" y1="118.4" x2="632.8" y2="136.9"/>
				<line class="st4" x1="614.3" y1="130.5" x2="632.8" y2="149"/>
				<line class="st4" x1="614.3" y1="142.6" x2="632.8" y2="161.1"/>
				<line class="st4" x1="614.3" y1="154.8" x2="632.8" y2="173.2"/>
				<line class="st4" x1="614.3" y1="166.9" x2="632.8" y2="185.3"/>
				<line class="st4" x1="614.4" y1="178.3" x2="622.9" y2="186.9"/>
			</g>
		</g>
	</g>
</g>
<g id="Dividers">
	<g id="Divider_1" class="st0">
		<g id="Divider_1_" class="st2">
			<rect x="28.1" y="145.6" class="st5" width="570" height="22"/>
			<line class="st6" x1="12.1" y1="156.6" x2="614.1" y2="156.6"/>
		</g>
		<path class="st7" d="M103.9,156"/>
		<line class="st8" x1="27.6" y1="145.8" x2="62.1" y2="167.1"/>
		<line class="st8" x1="28.1" y1="156.6" x2="45.1" y2="167.2"/>
		<line class="st8" x1="42.2" y1="145.8" x2="76.7" y2="167.1"/>
		<line class="st8" x1="56.8" y1="145.8" x2="91.3" y2="167.1"/>
		<line class="st8" x1="71.4" y1="145.8" x2="105.9" y2="167.1"/>
		<line class="st8" x1="85.9" y1="145.8" x2="120.4" y2="167.1"/>
		<line class="st8" x1="100.5" y1="145.8" x2="135" y2="167.1"/>
		<line class="st8" x1="115.1" y1="145.8" x2="149.6" y2="167.1"/>
		<line class="st8" x1="129.7" y1="145.8" x2="164.2" y2="167.1"/>
		<line class="st8" x1="144.3" y1="145.8" x2="178.8" y2="167.1"/>
		<line class="st8" x1="158.9" y1="145.8" x2="193.4" y2="167.1"/>
		<line class="st8" x1="173.4" y1="145.8" x2="207.9" y2="167.1"/>
		<line class="st8" x1="188" y1="145.8" x2="222.5" y2="167.1"/>
		<line class="st8" x1="202.6" y1="145.8" x2="237.1" y2="167.1"/>
		<line class="st8" x1="217.2" y1="145.8" x2="251.7" y2="167.1"/>
		<line class="st8" x1="231.8" y1="145.8" x2="266.3" y2="167.1"/>
		<line class="st8" x1="246.3" y1="145.8" x2="280.8" y2="167.1"/>
		<line class="st8" x1="260.9" y1="145.8" x2="295.4" y2="167.1"/>
		<line class="st8" x1="275.5" y1="145.8" x2="310" y2="167.1"/>
		<line class="st8" x1="290.1" y1="145.8" x2="324.6" y2="167.1"/>
		<line class="st8" x1="304.7" y1="145.8" x2="339.2" y2="167.1"/>
		<line class="st8" x1="319.2" y1="145.8" x2="353.7" y2="167.1"/>
		<line class="st8" x1="333.8" y1="145.8" x2="368.3" y2="167.1"/>
		<line class="st8" x1="348.4" y1="145.8" x2="382.9" y2="167.1"/>
		<line class="st8" x1="363" y1="145.8" x2="397.5" y2="167.1"/>
		<line class="st8" x1="377.6" y1="145.8" x2="412.1" y2="167.1"/>
		<line class="st8" x1="392.2" y1="145.8" x2="426.7" y2="167.1"/>
		<line class="st8" x1="406.7" y1="145.8" x2="441.2" y2="167.1"/>
		<line class="st8" x1="421.3" y1="145.8" x2="455.8" y2="167.1"/>
		<line class="st8" x1="435.9" y1="145.8" x2="470.4" y2="167.1"/>
		<line class="st8" x1="450.5" y1="145.8" x2="485" y2="167.1"/>
		<line class="st8" x1="465.1" y1="145.8" x2="499.6" y2="167.1"/>
		<line class="st8" x1="479.6" y1="145.8" x2="514.1" y2="167.1"/>
		<line class="st8" x1="494.2" y1="145.8" x2="528.7" y2="167.1"/>
		<line class="st8" x1="508.8" y1="145.8" x2="543.3" y2="167.1"/>
		<line class="st8" x1="523.4" y1="145.8" x2="557.9" y2="167.1"/>
		<line class="st8" x1="538" y1="145.8" x2="572.5" y2="167.1"/>
		<line class="st8" x1="552.5" y1="145.8" x2="587" y2="167.1"/>
		<line class="st8" x1="567.1" y1="145.6" x2="598.1" y2="164.8"/>
		<line class="st8" x1="582.6" y1="145.8" x2="598.7" y2="155.8"/>
	</g>
	<g id="Divider" class="st0">
		<rect x="26.7" y="7.9" class="st7" width="570" height="22"/>
		<line class="st9" x1="10.7" y1="18.9" x2="612.7" y2="18.9"/>
	</g>
	<g>
		<rect x="26.7" y="7.9" class="st5" width="570" height="22"/>
		<line class="st6" x1="10.7" y1="14.9" x2="612.7" y2="14.9"/>
		<line class="st6" x1="10.7" y1="22.4" x2="612.7" y2="22.4"/>
	</g>
</g>
</svg>
