<?xml version="1.0" encoding="utf-8"?>
<!-- Generator: Adobe Illustrator 24.0.0, SVG Export Plug-In . SVG Version: 6.00 Build 0)  -->
<svg version="1.1" xmlns="http://www.w3.org/2000/svg" xmlns:xlink="http://www.w3.org/1999/xlink" x="0px" y="0px"
	 viewBox="0 0 583.1 35.8" style="enable-background:new 0 0 583.1 35.8;" xml:space="preserve">
<style type="text/css">
	.st0{display:none;}
	.st1{display:inline;fill-rule:evenodd;clip-rule:evenodd;fill:#08544D;}
	.st2{display:inline;}
	.st3{fill:#08544D;}
	.st4{fill:none;stroke:#08544D;stroke-miterlimit:10;}
	.st5{fill:none;stroke:#08544D;stroke-width:3;stroke-miterlimit:10;}
	.st6{fill:none;stroke:#08544D;stroke-width:3;stroke-linecap:round;stroke-miterlimit:10;}
	.st7{display:inline;fill:none;stroke:#08544D;stroke-width:3;stroke-miterlimit:10;}
	.st8{display:inline;fill:none;stroke:#08544D;stroke-width:2;stroke-miterlimit:10;}
	.st9{display:inline;fill:none;stroke:#08544D;stroke-width:3;stroke-linecap:round;stroke-miterlimit:10;}
	.st10{fill:none;stroke:#08544D;stroke-width:3;stroke-linecap:round;stroke-miterlimit:10;stroke-dasharray:5;}
</style>
<g id="Frames" class="st0">
	<g id="Frame">
		<path class="st1" d="M1187.8-196.1c-8,3.6-8.3,10.7-8.3,12.5c-0.8,1-1.8,1.8-2.6,2.4c0.6-3.2,1.2-7.5,1.8-12.2c0,0,0.1,0,0.1,0
			c0.1-0.1,2.8-1.2,4.8-3.1c1.8-0.6,7.8-3.5,9.3-11.7c-8.4,2.6-9.5,9.6-9.7,11.4c-1.7,1.6-3.9,2.6-4.5,2.9c0.8-1.5,1.4-3.5,1.4-5.8
			c0.8-0.8,2-2,2.8-3.5c1.6-1.1,6.5-5.7,5.5-13.9c-7.2,5-6.3,12-5.9,13.7c-0.7,1.2-1.6,2.2-2.3,3c0-0.8-0.2-1.6-0.4-2.5
			c0.2-1.9,0.4-3.7,0.5-5.4c0.3-0.7,0.5-1.5,0.6-2.3c0.3-0.3,0.7-0.7,1.3-1.3c0.8-0.5,5.1-4.3,4-11.2c-5.2,4-4.6,9.1-4.2,10.7
			c-0.3,0.4-0.7,0.7-1,1c0.1-1.2,0.1-2.6-0.1-4.1c0.3-3,0.4-5.1,0.4-5.4c0,0,0-0.1,0-0.1c0-0.1,0-0.2,0-0.2c1.2-1,4.3-4.2,2-9.9
			c-1.8,1.7-2.6,3.5-2.9,5.1c-0.7-1.1-1.8-2.1-3.6-3.1c-1,5,2.4,7.8,3.8,8.6c-0.1,0.8-0.2,2.8-0.4,5.4c-0.6,0.4-1.1,0.8-1.6,1.3
			c0.1-1.8-0.1-3.8-0.9-6c-6,5.8-4,11.8-3.2,13.6c-0.5,0.8-1,1.5-1.3,1.9c-0.5-6.4-1-13-1.4-18.7c1.3-0.8,4.8-3.6,3.2-9.7
			c-3.6,2.6-4,6.1-3.9,8.2c-0.4-1.7-1.8-4.4-5.6-5.6c0.9,5,4.7,6.8,5.6,7.1c0.1,1.3,0.4,5.3,0.8,10.4c-0.3-0.3-0.9-0.7-1.5-1.2
			c0.2-1.7,0.4-6.8-5.1-10.3c-0.6,7,4.1,10.4,5,10.8c0.9,0.8,1.5,1.3,1.7,1.4c0.2,2.7,0.4,5.7,0.7,8.7c-0.4-0.3-1.2-0.9-2-1.8
			c0.3-1.9,0.9-8.3-6.4-12.4c-0.9,8.4,5.2,12.4,6.2,12.9c1.1,1.1,2.1,1.7,2.1,1.8c0,0,0.1,0,0.1,0c0.3,3.1,0.5,6.2,0.8,9.2
			c-0.4-0.3-1.1-0.9-1.9-1.7c0.3-1.9,0.9-8.3-6.4-12.4c-0.1,1.4-0.1,2.7,0.1,3.8c-1.3-1.2-3.1-2.4-5.4-3.2
			c1.3,8.2,7.3,11.2,9.1,11.9c1.9,1.9,4.5,3,4.7,3.1c0.4,4,0.7,7.6,1,10.3c-0.3-0.3-0.9-0.7-1.5-1.3c0.2-1.7,0.5-6.8-5-10.3
			c-0.1,0.7-0.1,1.3,0,1.9c-1.2-1.5-2.9-2.9-5.4-4c0.5,8.3,6.1,11.9,7.8,12.7c1.7,2.1,4.3,3.6,4.4,3.6c0,0,0,0,0,0
			c0.2,1,0.3,1.7,0.4,1.9c0.1,0.1,0.2,0.2,0.3,0.2c0.1,0,0.1,0,0.2,0c0.2-0.1,0.2-0.3,0.1-0.4c0,0,0,0,0-0.1c0,0,0.1-0.1,0.1-0.1
			c0.2-0.6,0.4-1.4,0.6-2.3c0,0,0,0,0,0c0.1,0,3-0.8,5.2-2.5c1.9-0.4,8.2-2.6,10.6-10.5c-2.5,0.5-4.4,1.4-6,2.5
			C1187.2-192,1187.7-193.9,1187.8-196.1z M1179.2-204.6C1179.2-204.6,1179.2-204.6,1179.2-204.6c-6.1,5.7-4,11.8-3.2,13.5
			c-0.6,0.9-1.1,1.7-1.4,2.1c-0.3-3.4-0.7-7.4-1-11.5c0.3-0.2,1.1-0.9,1.9-1.8c0.6-0.3,2.5-1.7,3.9-4.3
			C1179.3-205.9,1179.2-205.2,1179.2-204.6z M1174.8-205.8C1174.9-205.8,1174.9-205.9,1174.8-205.8c0,1.3,0.2,2.4,0.4,3
			c-0.7,0.8-1.4,1.4-1.7,1.7c-0.1-0.8-0.1-1.7-0.2-2.5C1173.5-203.9,1174.2-204.7,1174.8-205.8z M1169.3-195.3c0-0.2,0-0.6-0.1-1
			c1,1,1.9,1.5,2.3,1.7c1.1,1,2,1.7,2.1,1.8c0,0.1,0,0.3,0,0.4C1172.9-192.8,1170.8-193.8,1169.3-195.3z M1171-182.9
			c0-0.3,0-0.7,0-1.3c0.9,1,1.8,1.6,2.1,1.8c0.9,0.8,1.6,1.3,1.7,1.4c0,0,0,0,0,0c0.1,0.5,0.1,0.9,0.2,1.3
			C1174.2-180,1172.3-181.3,1171-182.9z M1175.7-178.8c-0.3-1.8-0.7-5.2-1.1-9.5c0,0,0,0,0,0c0.1-0.1,0.8-1,1.6-2.3
			c0.3-0.2,0.9-0.9,1.6-1.9C1177.2-186.8,1176.4-181.6,1175.7-178.8z M1181.5-182.7c-1.8,1.3-4,2.1-4.7,2.3c0,0,0,0,0,0
			c0.9-0.6,2.2-1.6,3.2-2.8c0.5-0.2,1.2-0.7,2.1-1.3C1181.7-183.8,1181.5-183.2,1181.5-182.7z"/>
		<g class="st2">
			<path class="st3" d="M1183.7,141.4l1.5-1.1c1.9-1.8,4.9-4.8,5.2-5.2c0.1-0.1,0-0.2,0-0.3c0,0-0.1-0.1-0.2-0.1
				c-0.4,0.1-4.1,2.2-6.4,3.5l-1.5,1.1c-0.4,0.5-0.5,1.2-0.1,1.7C1182.6,141.6,1183.1,141.7,1183.7,141.4z"/>
			<path class="st3" d="M1151,166.5l18.3-14l2-1.5l11.1-8.5c-0.4-0.2-0.7-0.4-1-0.8c-0.3-0.4-0.4-0.8-0.5-1.2l-31.4,24.1
				c-0.6,0.5-0.8,1.3-0.4,1.9C1149.5,167,1150.3,167,1151,166.5z"/>
			<path class="st3" d="M1187,140l3.8-0.4l2.7-0.3l2.7-0.3c0,0,0,0,0,0l9.7-0.5c0.1,0,0.2,0,0.3-0.1l3.1-1.5
				c0.2-0.1,0.3-0.2,0.3-0.4c0-0.1,0-0.2,0-0.3c-0.1-0.2-0.5-0.3-0.8-0.1l-2.9,1.5l-9.8,0.6c0-0.2-0.1-0.5-0.1-0.7l10.1-2
				c0.1,0,0.1,0,0.2-0.1l2.7-1.2c0.2-0.1,0.4-0.3,0.4-0.5c0-0.1,0-0.2,0-0.2c-0.1-0.2-0.4-0.3-0.8-0.2l-2.6,1.2l-10.1,2.1
				c-0.1-0.2-0.1-0.5-0.2-0.7l10.1-3.5c0,0,0.1,0,0.1-0.1l2-1.1c0.2-0.1,0.3-0.3,0.4-0.5c0-0.1,0-0.2,0-0.3
				c-0.1-0.2-0.5-0.3-0.8-0.1l-1.9,1.1l-10.1,3.7c-0.1-0.2-0.2-0.4-0.3-0.7l2.7-1.4l2.5-1.3l4.7-2.4l1.8-1.2
				c0.2-0.1,0.3-0.3,0.3-0.5c0-0.1,0-0.2-0.1-0.3c-0.1-0.2-0.5-0.2-0.8,0l-1.7,1.2l-4.6,2.5l-2.5,1.3l-2.7,1.5
				c-0.1-0.2-0.3-0.4-0.4-0.6l9.3-6.7l1.9-1.5c0.2-0.1,0.3-0.3,0.3-0.5c0-0.1,0-0.2-0.1-0.3c-0.2-0.2-0.5-0.2-0.8,0l-1.9,1.5
				l-9.2,6.8c0-0.1-0.1-0.1-0.1-0.2c-0.1-0.1-0.2-0.3-0.3-0.4l8.3-8.1l1.6-1.4c0.2-0.2,0.3-0.4,0.3-0.6c0-0.1,0-0.2-0.1-0.3
				c-0.2-0.2-0.5-0.2-0.8,0l-1.6,1.4l-8.3,8.3c-0.2-0.2-0.3-0.4-0.5-0.5l7-9.2l2.1-1.6c0.2-0.2,0.3-0.4,0.4-0.7c0-0.1,0-0.2,0-0.3
				c-0.1-0.3-0.5-0.3-0.8-0.1l-2.2,1.8c-0.1,0-0.1,0.1-0.2,0.2l-7,9.4c-0.2-0.2-0.4-0.3-0.6-0.5l5.6-10.1l2-1.9
				c0.2-0.2,0.3-0.4,0.3-0.6c0-0.1,0-0.2-0.1-0.3c-0.2-0.3-0.5-0.3-0.8,0l-2.1,2.1c-0.1,0.1-0.1,0.1-0.2,0.2l-5.5,10.3
				c-0.2-0.1-0.4-0.3-0.6-0.4l4.1-10.7l1.8-2.1c0.2-0.2,0.2-0.4,0.2-0.6c0-0.1,0-0.3-0.1-0.3c-0.2-0.2-0.5-0.2-0.7,0.1l-1.9,2.3
				c-0.1,0.1-0.1,0.2-0.1,0.3l-4,10.8c-0.2-0.1-0.4-0.2-0.7-0.3l2.6-10.8l2-2.8c0.1-0.2,0.2-0.4,0.2-0.6c0-0.1,0-0.3-0.1-0.4
				c-0.2-0.2-0.5-0.2-0.7,0.2l-2,3c-0.1,0.1-0.1,0.2-0.1,0.3l-2.4,10.9c0,0,0,0,0,0l-3.2,8.5c2.1-1.2,5.1-2.8,5.4-2.9
				c0.5-0.2,1.1,0,1.4,0.5c0.2,0.2,0.2,0.4,0.2,0.7c0,0.3-0.1,0.5-0.2,0.8C1190.9,136.1,1188.5,138.6,1187,140z"/>
		</g>
		<g class="st2">
			<path class="st3" d="M1170.1,141c0.4-0.5,0.3-1.1-0.1-1.7l-1.5-1.1c-2.3-1.3-6-3.4-6.4-3.5c-0.1,0-0.2,0-0.2,0.1
				c0,0-0.1,0.1,0,0.3c0.3,0.4,3.4,3.4,5.2,5.2l1.5,1.1C1169.2,141.7,1169.7,141.6,1170.1,141z"/>
			<path class="st3" d="M1203.2,166.4c0.4-0.5,0.2-1.4-0.4-1.9l-31.4-24.1c0,0.4-0.2,0.9-0.5,1.2c-0.3,0.4-0.6,0.6-1,0.8l11.1,8.5
				l2,1.5l18.3,14C1202,167,1202.8,167,1203.2,166.4z"/>
			<path class="st3" d="M1161,135.7c-0.2-0.2-0.2-0.5-0.2-0.8c0-0.2,0.1-0.5,0.2-0.7c0.3-0.4,0.9-0.6,1.4-0.5
				c0.3,0.1,3.3,1.7,5.4,2.9l-3.2-8.5c0,0,0,0,0,0l-2.4-10.9c0-0.1-0.1-0.2-0.1-0.3l-2-3c-0.2-0.3-0.5-0.4-0.7-0.2
				c-0.1,0.1-0.1,0.2-0.1,0.4c0,0.2,0.1,0.4,0.2,0.6l2,2.8l2.6,10.8c-0.2,0.1-0.5,0.2-0.7,0.3l-4-10.8c0-0.1-0.1-0.2-0.1-0.3
				l-1.9-2.3c-0.2-0.3-0.6-0.3-0.7-0.1c-0.1,0.1-0.1,0.2-0.1,0.3c0,0.2,0.1,0.4,0.2,0.6l1.8,2.1l4.1,10.7c-0.2,0.1-0.4,0.3-0.6,0.4
				l-5.5-10.3c0-0.1-0.1-0.1-0.2-0.2l-2.1-2.1c-0.3-0.3-0.6-0.3-0.8,0c-0.1,0.1-0.1,0.2-0.1,0.3c0,0.2,0.1,0.5,0.3,0.6l2,1.9
				l5.6,10.1c-0.2,0.2-0.4,0.3-0.6,0.5l-7-9.4c0-0.1-0.1-0.1-0.2-0.2l-2.2-1.8c-0.3-0.2-0.7-0.2-0.8,0.1c0,0.1-0.1,0.2,0,0.3
				c0,0.2,0.2,0.5,0.4,0.7l2.1,1.6l7,9.2c-0.2,0.2-0.3,0.4-0.5,0.5l-8.3-8.3l-1.6-1.4c-0.3-0.3-0.7-0.3-0.8,0
				c-0.1,0.1-0.1,0.2-0.1,0.3c0,0.2,0.1,0.4,0.3,0.6l1.6,1.4l8.3,8.1c-0.1,0.1-0.2,0.3-0.3,0.4c0,0.1-0.1,0.1-0.1,0.2l-9.2-6.8
				l-1.9-1.5c-0.3-0.2-0.7-0.3-0.8,0c-0.1,0.1-0.1,0.2-0.1,0.3c0,0.2,0.1,0.4,0.3,0.5l1.9,1.5l9.3,6.7c-0.1,0.2-0.3,0.4-0.4,0.6
				l-2.7-1.5l-2.5-1.3l-4.6-2.5l-1.7-1.2c-0.3-0.2-0.7-0.2-0.8,0c-0.1,0.1-0.1,0.2-0.1,0.3c0,0.2,0.2,0.4,0.3,0.5l1.8,1.2l4.7,2.4
				l2.5,1.3l2.7,1.4c-0.1,0.2-0.2,0.4-0.3,0.7l-10.1-3.7l-1.9-1.1c-0.3-0.2-0.7-0.1-0.8,0.1c0,0.1-0.1,0.2,0,0.3
				c0,0.2,0.2,0.4,0.4,0.5l2,1.1c0,0,0.1,0,0.1,0.1l10.1,3.5c-0.1,0.2-0.2,0.5-0.2,0.7l-10.1-2.1l-2.6-1.2c-0.3-0.1-0.7-0.1-0.8,0.2
				c0,0.1,0,0.1,0,0.2c0,0.2,0.2,0.4,0.4,0.5l2.7,1.2c0.1,0,0.1,0,0.2,0.1l10.1,2c-0.1,0.2-0.1,0.5-0.1,0.7l-9.8-0.6l-2.9-1.5
				c-0.3-0.2-0.6-0.1-0.8,0.1c-0.1,0.1-0.1,0.2,0,0.3c0,0.1,0.2,0.3,0.3,0.4l3.1,1.5c0.1,0,0.2,0.1,0.3,0.1l9.7,0.5c0,0,0,0,0,0
				l2.7,0.3l2.7,0.3l3.8,0.4C1163.8,138.6,1161.4,136.1,1161,135.7z"/>
		</g>
		<g class="st2">
			<line class="st4" x1="1478.4" y1="150.6" x2="1478.4" y2="-196.3"/>
			<line class="st4" x1="855.2" y1="151.1" x2="855.2" y2="-196.8"/>
			<polyline class="st4" points="1477.6,-196.8 1496.5,-196.8 1496.5,151.1 			"/>
			<polyline class="st4" points="1134.8,151.1 855.2,151.1 855.2,-196.8 1134.7,-196.8 			"/>
			<polyline class="st4" points="1216.7,-196.8 1477.6,-196.8 1496.5,-196.8 1496.5,151.1 1216.7,151.1 			"/>
			<polyline class="st4" points="1134.8,138.3 873.6,138.3 873.6,-184 1134.8,-184 			"/>
			<polyline class="st4" points="1216.7,-184 1478.1,-184 1478.1,138.3 1216.7,138.3 			"/>
			<line class="st4" x1="873.2" y1="151" x2="873.2" y2="-195.9"/>
		</g>
	</g>
	<rect x="803.3" y="-207.9" class="st3" width="745" height="350"/>
	<g class="st2">
		<g transform="translate(-90 -500)">
			<g>
				<path class="st3" d="M1290.7,644.3c-1,0-1.9,0.2-2.8,0.5l8.2-13.5h-39v7.1l-10.9-4.1c-0.1-0.7-0.6-1.4-1.3-1.6l-8.7-3.4
					c-1.1-0.4-2.4,0.1-2.8,1.2c-0.4,1.1,0.1,2.4,1.2,2.8l8.7,3.4c0.3,0.1,0.5,0.1,0.8,0.1c0.5,0,1-0.2,1.4-0.5l13.8,5.1l2.9,13.7
					h6.8l6.1-7.8l8.2,3c-0.1,0.5-0.1,1-0.1,1.5c0,4.2,3.4,7.6,7.6,7.6c4.2,0,7.6-3.4,7.6-7.6
					C1298.3,647.7,1294.9,644.3,1290.7,644.3z M1267.9,653h-4l-2.3-10.6l11.3,4.2L1267.9,653z M1290.7,655.1c-1.8,0-3.3-1.5-3.3-3.3
					c0-1.8,1.5-3.3,3.3-3.3c1.8,0,3.3,1.5,3.3,3.3C1293.9,653.7,1292.5,655.1,1290.7,655.1z"/>
				<path class="st3" d="M1291.4,629.1c-0.9-2.5-3.3-4.3-6.1-4.3c-1.7,0-3.2,0.7-4.4,1.7c-0.2-3.4-3-6.1-6.5-6.1
					c-3.1,0-5.7,2.2-6.3,5c-0.7-0.4-1.5-0.7-2.3-0.7c-2.4,0-4.3,1.9-4.3,4.3H1291.4z"/>
			</g>
		</g>
		<g>
			<path class="st3" d="M1151.3-210.3c-2.9,4.8-6.9,12.1-6.9,16.8c0,6.8,3.7,9.8,8.4,10.3v4.6c0,0.9,0.7,1.6,1.6,1.6
				c0.9,0,1.6-0.7,1.6-1.6v-4.6c4.8-0.5,8.4-3.5,8.4-10.3c0-4.7-3.9-12-6.9-16.8C1156.1-212.7,1152.7-212.7,1151.3-210.3z
				 M1158.9-201.7c0.2,0.3,0.2,0.8-0.1,1l-3.6,2.8v3.6l2.7-2.1c0.3-0.2,0.8-0.2,1,0.1c0.2,0.3,0.2,0.8-0.1,1l-3.6,2.8v3.6l2.7-2.1
				c0.3-0.2,0.8-0.2,1,0.1c0.2,0.3,0.2,0.8-0.1,1l-3.9,3c-0.1,0.1-0.3,0.2-0.4,0.2s-0.3,0-0.4-0.2l-3.9-3c-0.3-0.2-0.4-0.7-0.1-1
				c0.2-0.3,0.7-0.4,1-0.1l2.7,2.1v-3.6l-3.6-2.8c-0.3-0.2-0.4-0.7-0.1-1c0.2-0.3,0.7-0.4,1-0.1l2.7,2.1v-3.6l-3.6-2.8
				c-0.3-0.2-0.4-0.7-0.1-1c0.2-0.3,0.7-0.4,1-0.1l2.7,2.1v-4.5c0-0.4,0.3-0.7,0.7-0.7s0.7,0.3,0.7,0.7l0,4.5l2.7-2.1
				C1158.2-202.1,1158.6-202.1,1158.9-201.7z"/>
			<path class="st3" d="M1173.1-223.5c-2.9,4.8-6.9,12.1-6.9,16.8c0,6.8,3.7,9.8,8.4,10.3v4.6c0,0.9,0.7,1.6,1.6,1.6
				s1.6-0.7,1.6-1.6v-4.6c4.8-0.5,8.4-3.5,8.4-10.3c0-4.7-3.9-12-6.9-16.8C1177.9-225.9,1174.5-225.9,1173.1-223.5z M1180.7-214.9
				c0.2,0.3,0.2,0.8-0.1,1l-3.6,2.8v3.6l2.7-2.1c0.3-0.2,0.8-0.2,1,0.1c0.2,0.3,0.2,0.8-0.1,1l-3.6,2.8v3.6l2.7-2.1
				c0.3-0.2,0.8-0.2,1,0.1c0.2,0.3,0.2,0.8-0.1,1l-3.9,3c-0.1,0.1-0.3,0.2-0.4,0.2s-0.3,0-0.4-0.2l-3.9-3c-0.3-0.2-0.4-0.7-0.1-1
				c0.2-0.3,0.7-0.4,1-0.1l2.7,2.1v-3.6l-3.6-2.8c-0.3-0.2-0.4-0.7-0.1-1c0.2-0.3,0.7-0.4,1-0.1l2.7,2.1v-3.6l-3.6-2.8
				c-0.3-0.2-0.4-0.7-0.1-1c0.2-0.3,0.7-0.4,1-0.1l2.7,2.1v-4.5c0-0.4,0.3-0.7,0.7-0.7s0.7,0.3,0.7,0.7l0,4.5l2.7-2.1
				C1180-215.3,1180.4-215.2,1180.7-214.9z"/>
			<path class="st3" d="M1194.8-210.3c-2.9,4.8-6.9,12.1-6.9,16.8c0,6.8,3.7,9.8,8.4,10.3v4.6c0,0.9,0.7,1.6,1.6,1.6
				c0.9,0,1.6-0.7,1.6-1.6v-4.6c4.8-0.5,8.4-3.5,8.4-10.3c0-4.7-3.9-12-6.9-16.8C1199.7-212.7,1196.3-212.7,1194.8-210.3z
				 M1202.5-201.7c0.2,0.3,0.2,0.8-0.1,1l-3.6,2.8v3.6l2.7-2.1c0.3-0.2,0.8-0.2,1,0.1c0.2,0.3,0.2,0.8-0.1,1l-3.6,2.8v3.6l2.7-2.1
				c0.3-0.2,0.8-0.2,1,0.1c0.2,0.3,0.2,0.8-0.1,1l-3.9,3c-0.1,0.1-0.3,0.2-0.4,0.2s-0.3,0-0.4-0.2l-3.9-3c-0.3-0.2-0.4-0.7-0.1-1
				c0.2-0.3,0.7-0.4,1-0.1l2.7,2.1v-3.6l-3.6-2.8c-0.3-0.2-0.4-0.7-0.1-1c0.2-0.3,0.7-0.4,1-0.1l2.7,2.1v-3.6l-3.6-2.8
				c-0.3-0.2-0.4-0.7-0.1-1c0.2-0.3,0.7-0.4,1-0.1l2.7,2.1v-4.5c0-0.4,0.3-0.7,0.7-0.7s0.7,0.3,0.7,0.7l0,4.5l2.7-2.1
				C1201.8-202.1,1202.2-202.1,1202.5-201.7z"/>
		</g>
		<g>
			<g>
				<line class="st4" x1="854.8" y1="147.9" x2="854.8" y2="-200.5"/>
				<polyline class="st4" points="1478,-200.5 1497,-200.5 1497,147.9 				"/>
				<polyline class="st4" points="1134.8,147.9 854.8,147.9 854.8,-200.5 1134.7,-200.5 				"/>
				<polyline class="st4" points="1216.8,-200.5 1478,-200.5 1497,-200.5 1497,147.9 1216.8,147.9 				"/>
				<polyline class="st4" points="854.9,-187.6 1134.8,-187.6 873.2,-187.6 873.2,135.1 1134.8,135.1 854.7,135.1 				"/>
				<polyline class="st4" points="1497,135.1 1216.8,135.1 1478.5,135.1 1478.5,-187.6 1216.8,-187.6 1496.9,-187.6 				"/>
			</g>
			<g>
				<line class="st4" x1="873.3" y1="-187.8" x2="854.7" y2="-169.3"/>
				<line class="st4" x1="862.3" y1="-187.7" x2="854.7" y2="-180.1"/>
				<line class="st4" x1="873.3" y1="-175.6" x2="854.7" y2="-157.2"/>
				<line class="st4" x1="873.3" y1="-163.5" x2="854.7" y2="-145.1"/>
				<line class="st4" x1="873.3" y1="-151.4" x2="854.7" y2="-133"/>
				<line class="st4" x1="873.3" y1="-139.3" x2="854.7" y2="-120.9"/>
				<line class="st4" x1="873.3" y1="-127.2" x2="854.7" y2="-108.7"/>
				<line class="st4" x1="873.3" y1="-115.1" x2="854.7" y2="-96.6"/>
				<line class="st4" x1="873.3" y1="-103" x2="854.7" y2="-84.5"/>
				<line class="st4" x1="873.3" y1="-90.8" x2="854.7" y2="-72.4"/>
				<line class="st4" x1="873.3" y1="-78.7" x2="854.7" y2="-60.3"/>
				<line class="st4" x1="873.3" y1="-66.6" x2="854.7" y2="-48.2"/>
				<line class="st4" x1="873.3" y1="-54.5" x2="854.7" y2="-36.1"/>
				<line class="st4" x1="873.3" y1="-42.4" x2="854.7" y2="-24"/>
				<line class="st4" x1="873.3" y1="-30.3" x2="854.7" y2="-11.8"/>
				<line class="st4" x1="873.3" y1="-18.2" x2="854.7" y2="0.3"/>
				<line class="st4" x1="873.3" y1="-6.1" x2="854.7" y2="12.4"/>
				<line class="st4" x1="873.3" y1="6.1" x2="854.7" y2="24.5"/>
				<line class="st4" x1="873.3" y1="18.2" x2="854.7" y2="36.6"/>
				<line class="st4" x1="873.3" y1="30.3" x2="854.7" y2="48.7"/>
				<line class="st4" x1="873.3" y1="42.4" x2="854.7" y2="60.8"/>
				<line class="st4" x1="873.3" y1="54.5" x2="854.7" y2="73"/>
				<line class="st4" x1="873.3" y1="66.6" x2="854.7" y2="85.1"/>
				<line class="st4" x1="873.3" y1="78.7" x2="854.7" y2="97.2"/>
				<line class="st4" x1="873.3" y1="90.9" x2="854.7" y2="109.3"/>
				<line class="st4" x1="873.3" y1="103" x2="854.7" y2="121.4"/>
				<line class="st4" x1="873.3" y1="115.1" x2="854.7" y2="133.5"/>
				<line class="st4" x1="873.2" y1="126.5" x2="864.6" y2="135.1"/>
			</g>
			<g>
				<line class="st4" x1="1478.4" y1="-187.8" x2="1496.9" y2="-169.3"/>
				<line class="st4" x1="1489.4" y1="-187.7" x2="1496.9" y2="-180.1"/>
				<line class="st4" x1="1478.4" y1="-175.6" x2="1496.9" y2="-157.2"/>
				<line class="st4" x1="1478.4" y1="-163.5" x2="1496.9" y2="-145.1"/>
				<line class="st4" x1="1478.4" y1="-151.4" x2="1496.9" y2="-133"/>
				<line class="st4" x1="1478.4" y1="-139.3" x2="1496.9" y2="-120.9"/>
				<line class="st4" x1="1478.4" y1="-127.2" x2="1496.9" y2="-108.7"/>
				<line class="st4" x1="1478.4" y1="-115.1" x2="1496.9" y2="-96.6"/>
				<line class="st4" x1="1478.4" y1="-103" x2="1496.9" y2="-84.5"/>
				<line class="st4" x1="1478.4" y1="-90.8" x2="1496.9" y2="-72.4"/>
				<line class="st4" x1="1478.4" y1="-78.7" x2="1496.9" y2="-60.3"/>
				<line class="st4" x1="1478.4" y1="-66.6" x2="1496.9" y2="-48.2"/>
				<line class="st4" x1="1478.4" y1="-54.5" x2="1496.9" y2="-36.1"/>
				<line class="st4" x1="1478.4" y1="-42.4" x2="1496.9" y2="-24"/>
				<line class="st4" x1="1478.4" y1="-30.3" x2="1496.9" y2="-11.8"/>
				<line class="st4" x1="1478.4" y1="-18.2" x2="1496.9" y2="0.3"/>
				<line class="st4" x1="1478.4" y1="-6.1" x2="1496.9" y2="12.4"/>
				<line class="st4" x1="1478.4" y1="6.1" x2="1496.9" y2="24.5"/>
				<line class="st4" x1="1478.4" y1="18.2" x2="1496.9" y2="36.6"/>
				<line class="st4" x1="1478.4" y1="30.3" x2="1496.9" y2="48.7"/>
				<line class="st4" x1="1478.4" y1="42.4" x2="1496.9" y2="60.8"/>
				<line class="st4" x1="1478.4" y1="54.5" x2="1496.9" y2="73"/>
				<line class="st4" x1="1478.4" y1="66.6" x2="1496.9" y2="85.1"/>
				<line class="st4" x1="1478.4" y1="78.7" x2="1496.9" y2="97.2"/>
				<line class="st4" x1="1478.4" y1="90.9" x2="1496.9" y2="109.3"/>
				<line class="st4" x1="1478.4" y1="103" x2="1496.9" y2="121.4"/>
				<line class="st4" x1="1478.4" y1="115.1" x2="1496.9" y2="133.5"/>
				<line class="st4" x1="1478.5" y1="126.5" x2="1487" y2="135.1"/>
			</g>
		</g>
	</g>
</g>
<g id="Dividers">
	<g id="Divider_1" class="st0">
		<g id="Divider_1_" class="st2">
			<rect x="892.2" y="93.8" class="st5" width="570" height="22"/>
			<line class="st6" x1="876.2" y1="104.8" x2="1478.2" y2="104.8"/>
		</g>
		<path class="st7" d="M968,104.2"/>
		<line class="st8" x1="891.7" y1="94" x2="926.2" y2="115.3"/>
		<line class="st8" x1="892.2" y1="104.8" x2="909.2" y2="115.4"/>
		<line class="st8" x1="906.3" y1="94" x2="940.8" y2="115.3"/>
		<line class="st8" x1="920.9" y1="94" x2="955.4" y2="115.3"/>
		<line class="st8" x1="935.5" y1="94" x2="970" y2="115.3"/>
		<line class="st8" x1="950" y1="94" x2="984.5" y2="115.3"/>
		<line class="st8" x1="964.6" y1="94" x2="999.1" y2="115.3"/>
		<line class="st8" x1="979.2" y1="94" x2="1013.7" y2="115.3"/>
		<line class="st8" x1="993.8" y1="94" x2="1028.3" y2="115.3"/>
		<line class="st8" x1="1008.4" y1="94" x2="1042.9" y2="115.3"/>
		<line class="st8" x1="1023" y1="94" x2="1057.5" y2="115.3"/>
		<line class="st8" x1="1037.5" y1="94" x2="1072" y2="115.3"/>
		<line class="st8" x1="1052.1" y1="94" x2="1086.6" y2="115.3"/>
		<line class="st8" x1="1066.7" y1="94" x2="1101.2" y2="115.3"/>
		<line class="st8" x1="1081.3" y1="94" x2="1115.8" y2="115.3"/>
		<line class="st8" x1="1095.9" y1="94" x2="1130.4" y2="115.3"/>
		<line class="st8" x1="1110.4" y1="94" x2="1144.9" y2="115.3"/>
		<line class="st8" x1="1125" y1="94" x2="1159.5" y2="115.3"/>
		<line class="st8" x1="1139.6" y1="94" x2="1174.1" y2="115.3"/>
		<line class="st8" x1="1154.2" y1="94" x2="1188.7" y2="115.3"/>
		<line class="st8" x1="1168.8" y1="94" x2="1203.3" y2="115.3"/>
		<line class="st8" x1="1183.3" y1="94" x2="1217.8" y2="115.3"/>
		<line class="st8" x1="1197.9" y1="94" x2="1232.4" y2="115.3"/>
		<line class="st8" x1="1212.5" y1="94" x2="1247" y2="115.3"/>
		<line class="st8" x1="1227.1" y1="94" x2="1261.6" y2="115.3"/>
		<line class="st8" x1="1241.7" y1="94" x2="1276.2" y2="115.3"/>
		<line class="st8" x1="1256.3" y1="94" x2="1290.8" y2="115.3"/>
		<line class="st8" x1="1270.8" y1="94" x2="1305.3" y2="115.3"/>
		<line class="st8" x1="1285.4" y1="94" x2="1319.9" y2="115.3"/>
		<line class="st8" x1="1300" y1="94" x2="1334.5" y2="115.3"/>
		<line class="st8" x1="1314.6" y1="94" x2="1349.1" y2="115.3"/>
		<line class="st8" x1="1329.2" y1="94" x2="1363.7" y2="115.3"/>
		<line class="st8" x1="1343.7" y1="94" x2="1378.2" y2="115.3"/>
		<line class="st8" x1="1358.3" y1="94" x2="1392.8" y2="115.3"/>
		<line class="st8" x1="1372.9" y1="94" x2="1407.4" y2="115.3"/>
		<line class="st8" x1="1387.5" y1="94" x2="1422" y2="115.3"/>
		<line class="st8" x1="1402.1" y1="94" x2="1436.6" y2="115.3"/>
		<line class="st8" x1="1416.6" y1="94" x2="1451.1" y2="115.3"/>
		<line class="st8" x1="1431.2" y1="93.8" x2="1462.2" y2="113"/>
		<line class="st8" x1="1446.7" y1="94" x2="1462.8" y2="104"/>
	</g>
	<g id="Divider" class="st0">
		<rect x="890.8" y="-43.9" class="st7" width="570" height="22"/>
		<line class="st9" x1="874.8" y1="-32.9" x2="1476.8" y2="-32.9"/>
	</g>
	<g class="st0">
		<rect x="890.8" y="-43.9" class="st7" width="570" height="22"/>
		<line class="st9" x1="874.8" y1="-36.9" x2="1476.8" y2="-36.9"/>
		<line class="st9" x1="874.8" y1="-29.4" x2="1476.8" y2="-29.4"/>
	</g>
	<g class="st0">
		<rect x="23.2" y="-63.5" class="st7" width="570" height="22"/>
		<rect x="30.2" y="-56.3" class="st7" width="556" height="7.5"/>
	</g>
	<g>
		<rect x="5.6" y="7.9" class="st6" width="570" height="22"/>
	</g>
	<line class="st10" x1="14.3" y1="18.9" x2="566.9" y2="18.9"/>
</g>
</svg>
