<?xml version="1.0" encoding="utf-8"?>
<!-- Generator: Adobe Illustrator 24.0.0, SVG Export Plug-In . SVG Version: 6.00 Build 0)  -->
<svg version="1.1" xmlns="http://www.w3.org/2000/svg" xmlns:xlink="http://www.w3.org/1999/xlink" x="0px" y="0px"
	 viewBox="0 0 675.7 415.2" style="enable-background:new 0 0 675.7 415.2;" xml:space="preserve">
<style type="text/css">
	.st0{display:none;}
	.st1{display:inline;fill-rule:evenodd;clip-rule:evenodd;fill:#08544D;}
	.st2{display:inline;}
	.st3{fill:#08544D;}
	.st4{fill:none;stroke:#08544D;stroke-miterlimit:10;}
	.st5{display:none;fill:#08544D;}
	.st6{fill:none;stroke:#08544D;stroke-width:3;stroke-miterlimit:10;}
	.st7{fill:none;stroke:#08544D;stroke-width:3;stroke-linecap:round;stroke-miterlimit:10;}
	.st8{display:inline;fill:none;stroke:#08544D;stroke-width:3;stroke-miterlimit:10;}
	.st9{display:inline;fill:none;stroke:#08544D;stroke-width:2;stroke-miterlimit:10;}
	.st10{display:inline;fill:none;stroke:#08544D;stroke-width:3;stroke-linecap:round;stroke-miterlimit:10;}
</style>
<g id="Frames">
	<g id="Frame" class="st0">
		<path class="st1" d="M349.8,44.4c-8,3.6-8.3,10.7-8.3,12.5c-0.8,1-1.8,1.8-2.6,2.4c0.6-3.2,1.2-7.5,1.8-12.2c0,0,0.1,0,0.1,0
			c0.1-0.1,2.8-1.2,4.8-3.1c1.8-0.6,7.8-3.5,9.3-11.7c-8.4,2.6-9.5,9.6-9.7,11.4c-1.7,1.6-3.9,2.6-4.5,2.9c0.8-1.5,1.4-3.5,1.4-5.8
			c0.8-0.8,2-2,2.8-3.5c1.6-1.1,6.5-5.7,5.5-13.9c-7.2,5-6.3,12-5.9,13.7c-0.7,1.2-1.6,2.2-2.3,3c0-0.8-0.2-1.6-0.4-2.5
			c0.2-1.9,0.4-3.7,0.5-5.4c0.3-0.7,0.5-1.5,0.6-2.3c0.3-0.3,0.7-0.7,1.3-1.3c0.8-0.5,5.1-4.3,4-11.2c-5.2,4-4.6,9.1-4.2,10.7
			c-0.3,0.4-0.7,0.7-1,1c0.1-1.2,0.1-2.6-0.1-4.1c0.3-3,0.4-5.1,0.4-5.4c0,0,0-0.1,0-0.1c0-0.1,0-0.2,0-0.2c1.2-1,4.3-4.2,2-9.9
			c-1.8,1.7-2.6,3.5-2.9,5.1c-0.7-1.1-1.8-2.1-3.6-3.1c-1,5,2.4,7.8,3.8,8.6c-0.1,0.8-0.2,2.8-0.4,5.4c-0.6,0.4-1.1,0.8-1.6,1.3
			c0.1-1.8-0.1-3.8-0.9-6c-6,5.8-4,11.8-3.2,13.6c-0.5,0.8-1,1.5-1.3,1.9c-0.5-6.4-1-13-1.4-18.7c1.3-0.8,4.8-3.6,3.2-9.7
			c-3.6,2.6-4,6.1-3.9,8.2c-0.4-1.7-1.8-4.4-5.6-5.6c0.9,5,4.7,6.8,5.6,7.1c0.1,1.3,0.4,5.3,0.8,10.4c-0.3-0.3-0.9-0.7-1.5-1.2
			c0.2-1.7,0.4-6.8-5.1-10.3c-0.6,7,4.1,10.4,5,10.8c0.9,0.8,1.5,1.3,1.7,1.4c0.2,2.7,0.4,5.7,0.7,8.7c-0.4-0.3-1.2-0.9-2-1.8
			c0.3-1.9,0.9-8.3-6.4-12.4c-0.9,8.4,5.2,12.4,6.2,12.9c1.1,1.1,2.1,1.7,2.1,1.8c0,0,0.1,0,0.1,0c0.3,3.1,0.5,6.2,0.8,9.2
			c-0.4-0.3-1.1-0.9-1.9-1.7c0.3-1.9,0.9-8.3-6.4-12.4c-0.1,1.4-0.1,2.7,0.1,3.8c-1.3-1.2-3.1-2.4-5.4-3.2
			c1.3,8.2,7.3,11.2,9.1,11.9c1.9,1.9,4.5,3,4.7,3.1c0.4,4,0.7,7.6,1,10.3c-0.3-0.3-0.9-0.7-1.5-1.3c0.2-1.7,0.5-6.8-5-10.3
			c-0.1,0.7-0.1,1.3,0,1.9c-1.2-1.5-2.9-2.9-5.4-4c0.5,8.3,6.1,11.9,7.8,12.7c1.7,2.1,4.3,3.6,4.4,3.6c0,0,0,0,0,0
			c0.2,1,0.3,1.7,0.4,1.9c0.1,0.1,0.2,0.2,0.3,0.2c0.1,0,0.1,0,0.2,0c0.2-0.1,0.2-0.3,0.1-0.4c0,0,0,0,0-0.1c0,0,0.1-0.1,0.1-0.1
			c0.2-0.6,0.4-1.4,0.6-2.3c0,0,0,0,0,0c0.1,0,3-0.8,5.2-2.5c1.9-0.4,8.2-2.6,10.6-10.5c-2.5,0.5-4.4,1.4-6,2.5
			C349.2,48.5,349.7,46.6,349.8,44.4z M341.2,35.9C341.2,35.9,341.2,35.9,341.2,35.9c-6.1,5.7-4,11.8-3.2,13.5
			c-0.6,0.9-1.1,1.7-1.4,2.1c-0.3-3.4-0.7-7.4-1-11.5c0.3-0.2,1.1-0.9,1.9-1.8c0.6-0.3,2.5-1.7,3.9-4.3
			C341.3,34.6,341.3,35.3,341.2,35.9z M336.9,34.7C336.9,34.7,336.9,34.6,336.9,34.7c0,1.3,0.2,2.4,0.4,3c-0.7,0.8-1.4,1.4-1.7,1.7
			c-0.1-0.8-0.1-1.7-0.2-2.5C335.5,36.6,336.2,35.8,336.9,34.7z M331.3,45.2c0-0.2,0-0.6-0.1-1c1,1,1.9,1.5,2.3,1.7
			c1.1,1,2,1.7,2.1,1.8c0,0.1,0,0.3,0,0.4C334.9,47.7,332.8,46.7,331.3,45.2z M333,57.6c0-0.3,0-0.7,0-1.3c0.9,1,1.8,1.6,2.1,1.8
			c0.9,0.8,1.6,1.3,1.7,1.4c0,0,0,0,0,0c0.1,0.5,0.1,0.9,0.2,1.3C336.2,60.5,334.4,59.2,333,57.6z M337.7,61.7
			c-0.3-1.8-0.7-5.2-1.1-9.5c0,0,0,0,0,0c0.1-0.1,0.8-1,1.6-2.3c0.3-0.2,0.9-0.9,1.6-1.9C339.2,53.7,338.5,58.9,337.7,61.7z
			 M343.5,57.8c-1.8,1.3-4,2.1-4.7,2.3c0,0,0,0,0,0c0.9-0.6,2.2-1.6,3.2-2.8c0.5-0.2,1.2-0.7,2.1-1.3
			C343.7,56.6,343.6,57.3,343.5,57.8z"/>
		<g class="st2">
			<path class="st3" d="M345.7,381.9l1.5-1.1c1.9-1.8,4.9-4.8,5.2-5.2c0.1-0.1,0-0.2,0-0.3c0,0-0.1-0.1-0.2-0.1
				c-0.4,0.1-4.1,2.2-6.4,3.5l-1.5,1.1c-0.4,0.5-0.5,1.2-0.1,1.7C344.6,382.1,345.1,382.2,345.7,381.9z"/>
			<path class="st3" d="M313,407l18.3-14l2-1.5l11.1-8.5c-0.4-0.2-0.7-0.4-1-0.8c-0.3-0.4-0.4-0.8-0.5-1.2l-31.4,24.1
				c-0.6,0.5-0.8,1.3-0.4,1.9C311.5,407.5,312.4,407.5,313,407z"/>
			<path class="st3" d="M349,380.5l3.8-0.4l2.7-0.3l2.7-0.3c0,0,0,0,0,0l9.7-0.5c0.1,0,0.2,0,0.3-0.1l3.1-1.5
				c0.2-0.1,0.3-0.2,0.3-0.4c0-0.1,0-0.2,0-0.3c-0.1-0.2-0.5-0.3-0.8-0.1l-2.9,1.5l-9.8,0.6c0-0.2-0.1-0.5-0.1-0.7l10.1-2
				c0.1,0,0.1,0,0.2-0.1l2.7-1.2c0.2-0.1,0.4-0.3,0.4-0.5c0-0.1,0-0.2,0-0.2c-0.1-0.2-0.4-0.3-0.8-0.2l-2.6,1.2l-10.1,2.1
				c-0.1-0.2-0.1-0.5-0.2-0.7l10.1-3.5c0,0,0.1,0,0.1-0.1l2-1.1c0.2-0.1,0.3-0.3,0.4-0.5c0-0.1,0-0.2,0-0.3
				c-0.1-0.2-0.5-0.3-0.8-0.1l-1.9,1.1l-10.1,3.7c-0.1-0.2-0.2-0.4-0.3-0.7l2.7-1.4l2.5-1.3l4.7-2.4l1.8-1.2
				c0.2-0.1,0.3-0.3,0.3-0.5c0-0.1,0-0.2-0.1-0.3c-0.1-0.2-0.5-0.2-0.8,0l-1.7,1.2l-4.6,2.5l-2.5,1.3l-2.7,1.5
				c-0.1-0.2-0.3-0.4-0.4-0.6l9.3-6.7l1.9-1.5c0.2-0.1,0.3-0.3,0.3-0.5c0-0.1,0-0.2-0.1-0.3c-0.2-0.2-0.5-0.2-0.8,0l-1.9,1.5
				l-9.2,6.8c0-0.1-0.1-0.1-0.1-0.2c-0.1-0.1-0.2-0.3-0.3-0.4l8.3-8.1l1.6-1.4c0.2-0.2,0.3-0.4,0.3-0.6c0-0.1,0-0.2-0.1-0.3
				c-0.2-0.2-0.5-0.2-0.8,0l-1.6,1.4l-8.3,8.3c-0.2-0.2-0.3-0.4-0.5-0.5l7-9.2l2.1-1.6c0.2-0.2,0.3-0.4,0.4-0.7c0-0.1,0-0.2,0-0.3
				c-0.1-0.3-0.5-0.3-0.8-0.1l-2.2,1.8c-0.1,0-0.1,0.1-0.2,0.2l-7,9.4c-0.2-0.2-0.4-0.3-0.6-0.5l5.6-10.1l2-1.9
				c0.2-0.2,0.3-0.4,0.3-0.6c0-0.1,0-0.2-0.1-0.3c-0.2-0.3-0.5-0.3-0.8,0l-2.1,2.1c-0.1,0.1-0.1,0.1-0.2,0.2l-5.5,10.3
				c-0.2-0.1-0.4-0.3-0.6-0.4l4.1-10.7l1.8-2.1c0.2-0.2,0.2-0.4,0.2-0.6c0-0.1,0-0.3-0.1-0.3c-0.2-0.2-0.5-0.2-0.7,0.1l-1.9,2.3
				c-0.1,0.1-0.1,0.2-0.1,0.3l-4,10.8c-0.2-0.1-0.4-0.2-0.7-0.3l2.6-10.8l2-2.8c0.1-0.2,0.2-0.4,0.2-0.6c0-0.1,0-0.3-0.1-0.4
				c-0.2-0.2-0.5-0.2-0.7,0.2l-2,3c-0.1,0.1-0.1,0.2-0.1,0.3l-2.4,10.9c0,0,0,0,0,0l-3.2,8.5c2.1-1.2,5.1-2.8,5.4-2.9
				c0.5-0.2,1.1,0,1.4,0.5c0.2,0.2,0.2,0.4,0.2,0.7c0,0.3-0.1,0.5-0.2,0.8C352.9,376.6,350.5,379.1,349,380.5z"/>
		</g>
		<g class="st2">
			<path class="st3" d="M332.2,381.5c0.4-0.5,0.3-1.1-0.1-1.7l-1.5-1.1c-2.3-1.3-6-3.4-6.4-3.5c-0.1,0-0.2,0-0.2,0.1
				c0,0-0.1,0.1,0,0.3c0.3,0.4,3.4,3.4,5.2,5.2l1.5,1.1C331.3,382.2,331.7,382.1,332.2,381.5z"/>
			<path class="st3" d="M365.3,406.9c0.4-0.5,0.2-1.4-0.4-1.9l-31.4-24.1c0,0.4-0.2,0.9-0.5,1.2c-0.3,0.4-0.6,0.6-1,0.8l11.1,8.5
				l2,1.5l18.3,14C364,407.5,364.8,407.5,365.3,406.9z"/>
			<path class="st3" d="M323.1,376.2c-0.2-0.2-0.2-0.5-0.2-0.8c0-0.2,0.1-0.5,0.2-0.7c0.3-0.4,0.9-0.6,1.4-0.5
				c0.3,0.1,3.3,1.7,5.4,2.9l-3.2-8.5c0,0,0,0,0,0l-2.4-10.9c0-0.1-0.1-0.2-0.1-0.3l-2-3c-0.2-0.3-0.5-0.4-0.7-0.2
				c-0.1,0.1-0.1,0.2-0.1,0.4c0,0.2,0.1,0.4,0.2,0.6l2,2.8L326,369c-0.2,0.1-0.5,0.2-0.7,0.3l-4-10.8c0-0.1-0.1-0.2-0.1-0.3
				l-1.9-2.3c-0.2-0.3-0.6-0.3-0.7-0.1c-0.1,0.1-0.1,0.2-0.1,0.3c0,0.2,0.1,0.4,0.2,0.6l1.8,2.1l4.1,10.7c-0.2,0.1-0.4,0.3-0.6,0.4
				l-5.5-10.3c0-0.1-0.1-0.1-0.2-0.2l-2.1-2.1c-0.3-0.3-0.6-0.3-0.8,0c-0.1,0.1-0.1,0.2-0.1,0.3c0,0.2,0.1,0.5,0.3,0.6l2,1.9
				l5.6,10.1c-0.2,0.2-0.4,0.3-0.6,0.5l-7-9.4c0-0.1-0.1-0.1-0.2-0.2l-2.2-1.8c-0.3-0.2-0.7-0.2-0.8,0.1c0,0.1-0.1,0.2,0,0.3
				c0,0.2,0.2,0.5,0.4,0.7l2.1,1.6l7,9.2c-0.2,0.2-0.3,0.4-0.5,0.5l-8.3-8.3l-1.6-1.4c-0.3-0.3-0.7-0.3-0.8,0
				c-0.1,0.1-0.1,0.2-0.1,0.3c0,0.2,0.1,0.4,0.3,0.6l1.6,1.4l8.3,8.1c-0.1,0.1-0.2,0.3-0.3,0.4c0,0.1-0.1,0.1-0.1,0.2l-9.2-6.8
				l-1.9-1.5c-0.3-0.2-0.7-0.3-0.8,0c-0.1,0.1-0.1,0.2-0.1,0.3c0,0.2,0.1,0.4,0.3,0.5l1.9,1.5l9.3,6.7c-0.1,0.2-0.3,0.4-0.4,0.6
				l-2.7-1.5l-2.5-1.3l-4.6-2.5l-1.7-1.2c-0.3-0.2-0.7-0.2-0.8,0c-0.1,0.1-0.1,0.2-0.1,0.3c0,0.2,0.2,0.4,0.3,0.5l1.8,1.2l4.7,2.4
				l2.5,1.3l2.7,1.4c-0.1,0.2-0.2,0.4-0.3,0.7l-10.1-3.7l-1.9-1.1c-0.3-0.2-0.7-0.1-0.8,0.1c0,0.1-0.1,0.2,0,0.3
				c0,0.2,0.2,0.4,0.4,0.5l2,1.1c0,0,0.1,0,0.1,0.1l10.1,3.5c-0.1,0.2-0.2,0.5-0.2,0.7l-10.1-2.1l-2.6-1.2c-0.3-0.1-0.7-0.1-0.8,0.2
				c0,0.1,0,0.1,0,0.2c0,0.2,0.2,0.4,0.4,0.5l2.7,1.2c0.1,0,0.1,0,0.2,0.1l10.1,2c-0.1,0.2-0.1,0.5-0.1,0.7l-9.8-0.6l-2.9-1.5
				c-0.3-0.2-0.6-0.1-0.8,0.1c-0.1,0.1-0.1,0.2,0,0.3c0,0.1,0.2,0.3,0.3,0.4l3.1,1.5c0.1,0,0.2,0.1,0.3,0.1l9.7,0.5c0,0,0,0,0,0
				l2.7,0.3l2.7,0.3l3.8,0.4C325.9,379.1,323.4,376.6,323.1,376.2z"/>
		</g>
		<g class="st2">
			<line class="st4" x1="640.5" y1="391.1" x2="640.5" y2="44.2"/>
			<line class="st4" x1="17.2" y1="391.6" x2="17.2" y2="43.7"/>
			<polyline class="st4" points="639.6,43.7 658.5,43.7 658.5,391.6 			"/>
			<polyline class="st4" points="296.8,391.6 17.2,391.6 17.2,43.7 296.8,43.7 			"/>
			<polyline class="st4" points="378.8,43.7 639.6,43.7 658.5,43.7 658.5,391.6 378.7,391.6 			"/>
			<polyline class="st4" points="296.8,378.8 35.6,378.8 35.6,56.5 296.8,56.5 			"/>
			<polyline class="st4" points="378.8,56.5 640.1,56.5 640.1,378.8 378.8,378.8 			"/>
			<line class="st4" x1="35.3" y1="391.5" x2="35.3" y2="44.6"/>
		</g>
	</g>
	<rect x="-34.6" y="32.6" class="st5" width="745" height="350"/>
	<g>
		<g transform="translate(-90 -500)">
			<g>
				<path class="st3" d="M452.7,884.8c-1,0-1.9,0.2-2.8,0.5l8.2-13.5h-39v7.1l-10.9-4.1c-0.1-0.7-0.6-1.4-1.3-1.6l-8.7-3.4
					c-1.1-0.4-2.4,0.1-2.8,1.2c-0.4,1.1,0.1,2.4,1.2,2.8l8.7,3.4c0.3,0.1,0.5,0.1,0.8,0.1c0.5,0,1-0.2,1.4-0.5l13.8,5.1l2.9,13.7
					h6.8l6.1-7.8l8.2,3c-0.1,0.5-0.1,1-0.1,1.5c0,4.2,3.4,7.6,7.6,7.6c4.2,0,7.6-3.4,7.6-7.6C460.3,888.2,456.9,884.8,452.7,884.8z
					 M430,893.5h-4l-2.3-10.6l11.3,4.2L430,893.5z M452.7,895.6c-1.8,0-3.3-1.5-3.3-3.3c0-1.8,1.5-3.3,3.3-3.3
					c1.8,0,3.3,1.5,3.3,3.3C455.9,894.2,454.5,895.6,452.7,895.6z"/>
				<path class="st3" d="M453.4,869.6c-0.9-2.5-3.3-4.3-6.1-4.3c-1.7,0-3.2,0.7-4.4,1.7c-0.2-3.4-3-6.1-6.5-6.1
					c-3.1,0-5.7,2.2-6.3,5c-0.7-0.4-1.5-0.7-2.3-0.7c-2.4,0-4.3,1.9-4.3,4.3H453.4z"/>
			</g>
		</g>
		<g>
			<path class="st3" d="M313.3,30.2c-2.9,4.8-6.9,12.1-6.9,16.8c0,6.8,3.7,9.8,8.4,10.3v4.6c0,0.9,0.7,1.6,1.6,1.6
				c0.9,0,1.6-0.7,1.6-1.6v-4.6c4.8-0.5,8.4-3.5,8.4-10.3c0-4.7-3.9-12-6.9-16.8C318.2,27.8,314.7,27.8,313.3,30.2z M320.9,38.8
				c0.2,0.3,0.2,0.8-0.1,1l-3.6,2.8v3.6l2.7-2.1c0.3-0.2,0.8-0.2,1,0.1s0.2,0.8-0.1,1l-3.6,2.8v3.6l2.7-2.1c0.3-0.2,0.8-0.2,1,0.1
				c0.2,0.3,0.2,0.8-0.1,1l-3.9,3c-0.1,0.1-0.3,0.2-0.4,0.2s-0.3,0-0.4-0.2l-3.9-3c-0.3-0.2-0.4-0.7-0.1-1c0.2-0.3,0.7-0.4,1-0.1
				l2.7,2.1V48l-3.6-2.8c-0.3-0.2-0.4-0.7-0.1-1c0.2-0.3,0.7-0.4,1-0.1l2.7,2.1v-3.6l-3.6-2.8c-0.3-0.2-0.4-0.7-0.1-1
				c0.2-0.3,0.7-0.4,1-0.1l2.7,2.1v-4.5c0-0.4,0.3-0.7,0.7-0.7s0.7,0.3,0.7,0.7l0,4.5l2.7-2.1C320.2,38.4,320.7,38.4,320.9,38.8z"/>
			<path class="st3" d="M335.1,17c-2.9,4.8-6.9,12.1-6.9,16.8c0,6.8,3.7,9.8,8.4,10.3v4.6c0,0.9,0.7,1.6,1.6,1.6
				c0.9,0,1.6-0.7,1.6-1.6v-4.6c4.8-0.5,8.4-3.5,8.4-10.3c0-4.7-3.9-12-6.9-16.8C339.9,14.6,336.5,14.6,335.1,17z M342.7,25.6
				c0.2,0.3,0.2,0.8-0.1,1l-3.6,2.8V33l2.7-2.1c0.3-0.2,0.8-0.2,1,0.1s0.2,0.8-0.1,1l-3.6,2.8v3.6l2.7-2.1c0.3-0.2,0.8-0.2,1,0.1
				s0.2,0.8-0.1,1l-3.9,3c-0.1,0.1-0.3,0.2-0.4,0.2s-0.3,0-0.4-0.2l-3.9-3c-0.3-0.2-0.4-0.7-0.1-1c0.2-0.3,0.7-0.4,1-0.1l2.7,2.1
				v-3.6l-3.6-2.8c-0.3-0.2-0.4-0.7-0.1-1c0.2-0.3,0.7-0.4,1-0.1l2.7,2.1v-3.6l-3.6-2.8c-0.3-0.2-0.4-0.7-0.1-1
				c0.2-0.3,0.7-0.4,1-0.1l2.7,2.1v-4.5c0-0.4,0.3-0.7,0.7-0.7s0.7,0.3,0.7,0.7l0,4.5l2.7-2.1C342,25.2,342.5,25.3,342.7,25.6z"/>
			<path class="st3" d="M356.9,30.2c-2.9,4.8-6.9,12.1-6.9,16.8c0,6.8,3.7,9.8,8.4,10.3v4.6c0,0.9,0.7,1.6,1.6,1.6
				c0.9,0,1.6-0.7,1.6-1.6v-4.6c4.8-0.5,8.4-3.5,8.4-10.3c0-4.7-3.9-12-6.9-16.8C361.7,27.8,358.3,27.8,356.9,30.2z M364.5,38.8
				c0.2,0.3,0.2,0.8-0.1,1l-3.6,2.8v3.6l2.7-2.1c0.3-0.2,0.8-0.2,1,0.1c0.2,0.3,0.2,0.8-0.1,1l-3.6,2.8v3.6l2.7-2.1
				c0.3-0.2,0.8-0.2,1,0.1c0.2,0.3,0.2,0.8-0.1,1l-3.9,3c-0.1,0.1-0.3,0.2-0.4,0.2s-0.3,0-0.4-0.2l-3.9-3c-0.3-0.2-0.4-0.7-0.1-1
				c0.2-0.3,0.7-0.4,1-0.1l2.7,2.1V48l-3.6-2.8c-0.3-0.2-0.4-0.7-0.1-1c0.2-0.3,0.7-0.4,1-0.1l2.7,2.1v-3.6l-3.6-2.8
				c-0.3-0.2-0.4-0.7-0.1-1c0.2-0.3,0.7-0.4,1-0.1l2.7,2.1v-4.5c0-0.4,0.3-0.7,0.7-0.7s0.7,0.3,0.7,0.7l0,4.5l2.7-2.1
				C363.8,38.4,364.3,38.4,364.5,38.8z"/>
		</g>
		<g>
			<g>
				<line class="st4" x1="16.8" y1="388.4" x2="16.8" y2="40"/>
				<polyline class="st4" points="640,40 659,40 659,388.4 				"/>
				<polyline class="st4" points="296.8,388.4 16.8,388.4 16.8,40 296.8,40 				"/>
				<polyline class="st4" points="378.9,40 640,40 659,40 659,388.4 378.8,388.4 				"/>
				<polyline class="st4" points="16.9,52.9 296.8,52.9 35.2,52.9 35.2,375.6 296.8,375.6 16.7,375.6 				"/>
				<polyline class="st4" points="659,375.6 378.9,375.6 640.6,375.6 640.6,52.9 378.9,52.9 659,52.9 				"/>
			</g>
			<g>
				<line class="st4" x1="35.3" y1="52.7" x2="16.8" y2="71.2"/>
				<line class="st4" x1="24.3" y1="52.8" x2="16.7" y2="60.4"/>
				<line class="st4" x1="35.3" y1="64.9" x2="16.8" y2="83.3"/>
				<line class="st4" x1="35.3" y1="77" x2="16.8" y2="95.4"/>
				<line class="st4" x1="35.3" y1="89.1" x2="16.8" y2="107.5"/>
				<line class="st4" x1="35.3" y1="101.2" x2="16.8" y2="119.6"/>
				<line class="st4" x1="35.3" y1="113.3" x2="16.8" y2="131.8"/>
				<line class="st4" x1="35.3" y1="125.4" x2="16.8" y2="143.9"/>
				<line class="st4" x1="35.3" y1="137.5" x2="16.8" y2="156"/>
				<line class="st4" x1="35.3" y1="149.7" x2="16.8" y2="168.1"/>
				<line class="st4" x1="35.3" y1="161.8" x2="16.8" y2="180.2"/>
				<line class="st4" x1="35.3" y1="173.9" x2="16.8" y2="192.3"/>
				<line class="st4" x1="35.3" y1="186" x2="16.8" y2="204.4"/>
				<line class="st4" x1="35.3" y1="198.1" x2="16.8" y2="216.5"/>
				<line class="st4" x1="35.3" y1="210.2" x2="16.8" y2="228.7"/>
				<line class="st4" x1="35.3" y1="222.3" x2="16.8" y2="240.8"/>
				<line class="st4" x1="35.3" y1="234.4" x2="16.8" y2="252.9"/>
				<line class="st4" x1="35.3" y1="246.6" x2="16.8" y2="265"/>
				<line class="st4" x1="35.3" y1="258.7" x2="16.8" y2="277.1"/>
				<line class="st4" x1="35.3" y1="270.8" x2="16.8" y2="289.2"/>
				<line class="st4" x1="35.3" y1="282.9" x2="16.8" y2="301.3"/>
				<line class="st4" x1="35.3" y1="295" x2="16.8" y2="313.5"/>
				<line class="st4" x1="35.3" y1="307.1" x2="16.8" y2="325.6"/>
				<line class="st4" x1="35.3" y1="319.2" x2="16.8" y2="337.7"/>
				<line class="st4" x1="35.3" y1="331.4" x2="16.8" y2="349.8"/>
				<line class="st4" x1="35.3" y1="343.5" x2="16.8" y2="361.9"/>
				<line class="st4" x1="35.3" y1="355.6" x2="16.8" y2="374"/>
				<line class="st4" x1="35.2" y1="367" x2="26.6" y2="375.6"/>
			</g>
			<g>
				<line class="st4" x1="640.4" y1="52.7" x2="658.9" y2="71.2"/>
				<line class="st4" x1="651.4" y1="52.8" x2="659" y2="60.4"/>
				<line class="st4" x1="640.4" y1="64.9" x2="658.9" y2="83.3"/>
				<line class="st4" x1="640.4" y1="77" x2="658.9" y2="95.4"/>
				<line class="st4" x1="640.4" y1="89.1" x2="658.9" y2="107.5"/>
				<line class="st4" x1="640.4" y1="101.2" x2="658.9" y2="119.6"/>
				<line class="st4" x1="640.4" y1="113.3" x2="658.9" y2="131.8"/>
				<line class="st4" x1="640.4" y1="125.4" x2="658.9" y2="143.9"/>
				<line class="st4" x1="640.4" y1="137.5" x2="658.9" y2="156"/>
				<line class="st4" x1="640.4" y1="149.7" x2="658.9" y2="168.1"/>
				<line class="st4" x1="640.4" y1="161.8" x2="658.9" y2="180.2"/>
				<line class="st4" x1="640.4" y1="173.9" x2="658.9" y2="192.3"/>
				<line class="st4" x1="640.4" y1="186" x2="658.9" y2="204.4"/>
				<line class="st4" x1="640.4" y1="198.1" x2="658.9" y2="216.5"/>
				<line class="st4" x1="640.4" y1="210.2" x2="658.9" y2="228.7"/>
				<line class="st4" x1="640.4" y1="222.3" x2="658.9" y2="240.8"/>
				<line class="st4" x1="640.4" y1="234.4" x2="658.9" y2="252.9"/>
				<line class="st4" x1="640.4" y1="246.6" x2="658.9" y2="265"/>
				<line class="st4" x1="640.4" y1="258.7" x2="658.9" y2="277.1"/>
				<line class="st4" x1="640.4" y1="270.8" x2="658.9" y2="289.2"/>
				<line class="st4" x1="640.4" y1="282.9" x2="658.9" y2="301.3"/>
				<line class="st4" x1="640.4" y1="295" x2="658.9" y2="313.5"/>
				<line class="st4" x1="640.4" y1="307.1" x2="658.9" y2="325.6"/>
				<line class="st4" x1="640.4" y1="319.2" x2="658.9" y2="337.7"/>
				<line class="st4" x1="640.4" y1="331.4" x2="658.9" y2="349.8"/>
				<line class="st4" x1="640.4" y1="343.5" x2="658.9" y2="361.9"/>
				<line class="st4" x1="640.4" y1="355.6" x2="658.9" y2="374"/>
				<line class="st4" x1="640.5" y1="367" x2="649.1" y2="375.6"/>
			</g>
		</g>
	</g>
</g>
<g id="Dividers">
	<g id="Divider_1" class="st0">
		<g id="Divider_1_" class="st2">
			<rect x="54.2" y="334.3" class="st6" width="570" height="22"/>
			<line class="st7" x1="38.2" y1="345.3" x2="640.2" y2="345.3"/>
		</g>
		<path class="st8" d="M130,344.7"/>
		<line class="st9" x1="53.7" y1="334.5" x2="88.2" y2="355.8"/>
		<line class="st9" x1="54.2" y1="345.3" x2="71.2" y2="355.9"/>
		<line class="st9" x1="68.3" y1="334.5" x2="102.8" y2="355.8"/>
		<line class="st9" x1="82.9" y1="334.5" x2="117.4" y2="355.8"/>
		<line class="st9" x1="97.5" y1="334.5" x2="132" y2="355.8"/>
		<line class="st9" x1="112" y1="334.5" x2="146.5" y2="355.8"/>
		<line class="st9" x1="126.6" y1="334.5" x2="161.1" y2="355.8"/>
		<line class="st9" x1="141.2" y1="334.5" x2="175.7" y2="355.8"/>
		<line class="st9" x1="155.8" y1="334.5" x2="190.3" y2="355.8"/>
		<line class="st9" x1="170.4" y1="334.5" x2="204.9" y2="355.8"/>
		<line class="st9" x1="185" y1="334.5" x2="219.5" y2="355.8"/>
		<line class="st9" x1="199.5" y1="334.5" x2="234" y2="355.8"/>
		<line class="st9" x1="214.1" y1="334.5" x2="248.6" y2="355.8"/>
		<line class="st9" x1="228.7" y1="334.5" x2="263.2" y2="355.8"/>
		<line class="st9" x1="243.3" y1="334.5" x2="277.8" y2="355.8"/>
		<line class="st9" x1="257.9" y1="334.5" x2="292.4" y2="355.8"/>
		<line class="st9" x1="272.4" y1="334.5" x2="306.9" y2="355.8"/>
		<line class="st9" x1="287" y1="334.5" x2="321.5" y2="355.8"/>
		<line class="st9" x1="301.6" y1="334.5" x2="336.1" y2="355.8"/>
		<line class="st9" x1="316.2" y1="334.5" x2="350.7" y2="355.8"/>
		<line class="st9" x1="330.8" y1="334.5" x2="365.3" y2="355.8"/>
		<line class="st9" x1="345.3" y1="334.5" x2="379.8" y2="355.8"/>
		<line class="st9" x1="359.9" y1="334.5" x2="394.4" y2="355.8"/>
		<line class="st9" x1="374.5" y1="334.5" x2="409" y2="355.8"/>
		<line class="st9" x1="389.1" y1="334.5" x2="423.6" y2="355.8"/>
		<line class="st9" x1="403.7" y1="334.5" x2="438.2" y2="355.8"/>
		<line class="st9" x1="418.3" y1="334.5" x2="452.8" y2="355.8"/>
		<line class="st9" x1="432.8" y1="334.5" x2="467.3" y2="355.8"/>
		<line class="st9" x1="447.4" y1="334.5" x2="481.9" y2="355.8"/>
		<line class="st9" x1="462" y1="334.5" x2="496.5" y2="355.8"/>
		<line class="st9" x1="476.6" y1="334.5" x2="511.1" y2="355.8"/>
		<line class="st9" x1="491.2" y1="334.5" x2="525.7" y2="355.8"/>
		<line class="st9" x1="505.7" y1="334.5" x2="540.2" y2="355.8"/>
		<line class="st9" x1="520.3" y1="334.5" x2="554.8" y2="355.8"/>
		<line class="st9" x1="534.9" y1="334.5" x2="569.4" y2="355.8"/>
		<line class="st9" x1="549.5" y1="334.5" x2="584" y2="355.8"/>
		<line class="st9" x1="564.1" y1="334.5" x2="598.6" y2="355.8"/>
		<line class="st9" x1="578.6" y1="334.5" x2="613.1" y2="355.8"/>
		<line class="st9" x1="593.2" y1="334.3" x2="624.2" y2="353.5"/>
		<line class="st9" x1="608.7" y1="334.5" x2="624.8" y2="344.5"/>
	</g>
	<g id="Divider" class="st0">
		<rect x="52.9" y="196.6" class="st8" width="570" height="22"/>
		<line class="st10" x1="36.9" y1="207.6" x2="638.9" y2="207.6"/>
	</g>
</g>
</svg>
