<svg id="Layer_1" data-name="Layer 1" xmlns="http://www.w3.org/2000/svg" viewBox="0 0 642.35 399.52"><defs><style>.cls-1,.cls-2{fill:#08544d;}.cls-1{fill-rule:evenodd;}.cls-3{fill:none;stroke:#08544d;stroke-miterlimit:10;}</style></defs><title>Frame</title><path class="cls-1" d="M367,55.12c-8,3.61-8.3,10.65-8.25,12.45A14.5,14.5,0,0,1,356.07,70c.61-3.17,1.21-7.51,1.76-12.16l.1,0a17.54,17.54,0,0,0,4.84-3.06A14.81,14.81,0,0,0,372.08,43c-8.38,2.63-9.53,9.57-9.69,11.38a17.29,17.29,0,0,1-4.48,2.85,12.8,12.8,0,0,0,1.35-5.83A16.25,16.25,0,0,0,362,48,14.75,14.75,0,0,0,367.48,34c-7.22,5-6.28,12-5.91,13.72a15.38,15.38,0,0,1-2.33,3,13.35,13.35,0,0,0-.38-2.48c.19-1.86.36-3.68.52-5.41a12.86,12.86,0,0,0,.65-2.34,17.86,17.86,0,0,0,1.27-1.26,11.39,11.39,0,0,0,4-11.22,10.27,10.27,0,0,0-4.17,10.71c-.35.39-.67.72-.95,1a14.4,14.4,0,0,0-.12-4.11c.25-3,.41-5.07.44-5.41,0,0,0-.05,0-.08s0-.16.05-.25c1.18-.95,4.34-4.18,2-9.92a9.14,9.14,0,0,0-2.93,5.13A9.09,9.09,0,0,0,356,22.05a8,8,0,0,0,3.78,8.56c-.06.81-.21,2.77-.44,5.43a14.72,14.72,0,0,0-1.55,1.29,14,14,0,0,0-.89-6c-6,5.8-4,11.83-3.16,13.59a20.68,20.68,0,0,1-1.33,1.93c-.52-6.39-1-13-1.44-18.66,1.25-.79,4.85-3.63,3.16-9.66a9.07,9.07,0,0,0-3.89,8.19,7.86,7.86,0,0,0-5.55-5.59,8.81,8.81,0,0,0,5.63,7.06c.1,1.31.39,5.27.78,10.35-.33-.25-.86-.68-1.46-1.23A10.23,10.23,0,0,0,344.53,27a11.4,11.4,0,0,0,5,10.82,17.79,17.79,0,0,0,1.67,1.35c.21,2.7.45,5.69.7,8.75a22.07,22.07,0,0,1-2-1.76c.35-1.89.87-8.26-6.41-12.39a12.94,12.94,0,0,0,6.24,12.92,19.21,19.21,0,0,0,2.14,1.78.17.17,0,0,0,.12,0c.25,3.07.52,6.2.78,9.17a19.79,19.79,0,0,1-1.9-1.65c.34-1.9.87-8.26-6.42-12.39a14.55,14.55,0,0,0,.09,3.82A14.49,14.49,0,0,0,339,44.33a14.79,14.79,0,0,0,9.08,11.88,17.48,17.48,0,0,0,4.75,3.14c.36,4,.72,7.6,1,10.25a19.44,19.44,0,0,1-1.5-1.27,10.25,10.25,0,0,0-5-10.33,13.67,13.67,0,0,0,0,1.91,14.33,14.33,0,0,0-5.39-4,14.75,14.75,0,0,0,7.83,12.73,17.43,17.43,0,0,0,4.43,3.62l0,0a8.85,8.85,0,0,0,.41,1.88.35.35,0,0,0,.28.15.33.33,0,0,0,.16-.05.32.32,0,0,0,.11-.44l0-.08a.28.28,0,0,0,.07-.09q.3-.93.6-2.31h0A17.93,17.93,0,0,0,361,68.82,14.77,14.77,0,0,0,371.62,58.3a14.61,14.61,0,0,0-6,2.47A16.2,16.2,0,0,0,367,55.12Zm-8.59-8.47,0-.08c-6,5.8-4,11.84-3.16,13.59a19.14,19.14,0,0,1-1.44,2.06c-.32-3.42-.67-7.37-1-11.52a18.44,18.44,0,0,0,1.91-1.83,12,12,0,0,0,3.94-4.27C358.5,45.27,358.44,46,358.37,46.65ZM354,45.38l.06-.06a11.38,11.38,0,0,0,.32,3,18.08,18.08,0,0,1-1.75,1.73c-.07-.83-.14-1.68-.21-2.53A18.07,18.07,0,0,0,354,45.38Zm-5.57,10.51c0-.24-.05-.58-.12-1a9.65,9.65,0,0,0,2.25,1.66,17.36,17.36,0,0,0,2.14,1.78c0,.15,0,.29,0,.43A17,17,0,0,1,348.47,55.89Zm1.69,12.43a11.9,11.9,0,0,0,0-1.27,8.61,8.61,0,0,0,2.08,1.81,20.64,20.64,0,0,0,1.69,1.39l0,0c.07.49.12.93.18,1.34A17.23,17.23,0,0,1,350.16,68.32Zm4.71,4.11c-.28-1.79-.65-5.2-1.06-9.53l0,0a18.91,18.91,0,0,0,1.64-2.26,9.58,9.58,0,0,0,1.59-1.88A122.92,122.92,0,0,1,354.87,72.43Zm5.78-4a17.65,17.65,0,0,1-4.73,2.29.09.09,0,0,1,0,0,16.61,16.61,0,0,0,3.2-2.84,12.44,12.44,0,0,0,2.11-1.35A12.44,12.44,0,0,0,360.65,68.46Z" transform="translate(-33.84 -18.53)"/><path class="cls-2" d="M362.87,392.65l1.49-1.15c1.88-1.81,4.93-4.81,5.23-5.24a.21.21,0,0,0,0-.25.21.21,0,0,0-.24-.08c-.37.14-4.11,2.21-6.41,3.5l-1.5,1.14a1.3,1.3,0,0,0-.09,1.68A1.12,1.12,0,0,0,362.87,392.65Z" transform="translate(-33.84 -18.53)"/><path class="cls-2" d="M330.14,417.73l18.32-14,2-1.54,11-8.47a2.42,2.42,0,0,1-1-.8,2.26,2.26,0,0,1-.47-1.23l-31.41,24.11a1.35,1.35,0,0,0-.39,1.85A1.36,1.36,0,0,0,330.14,417.73Z" transform="translate(-33.84 -18.53)"/><path class="cls-2" d="M366.16,391.21l3.85-.43,2.71-.32,2.66-.29a0,0,0,0,0,0,0l9.71-.53a.68.68,0,0,0,.28-.07l3.08-1.52a.57.57,0,0,0,.34-.38.31.31,0,0,0,0-.25.6.6,0,0,0-.78-.1L385,388.78l-9.78.63c0-.22-.08-.45-.13-.68l10.07-2,.17,0,2.68-1.2a.67.67,0,0,0,.41-.45.36.36,0,0,0,0-.23.57.57,0,0,0-.77-.15L385,385.9,374.9,388c-.07-.23-.14-.46-.23-.69l10.15-3.5a.38.38,0,0,0,.13-.06l2-1.13a.73.73,0,0,0,.36-.47.36.36,0,0,0,0-.27.58.58,0,0,0-.8-.08l-1.89,1.13-10.14,3.66c-.09-.23-.21-.44-.32-.66l2.72-1.41,2.46-1.27,4.69-2.43,1.8-1.2a.79.79,0,0,0,.34-.5.44.44,0,0,0-.06-.3.58.58,0,0,0-.82,0l-1.7,1.19-4.62,2.47-2.45,1.32-2.71,1.45c-.12-.21-.28-.41-.41-.62l9.26-6.67,1.91-1.52a.82.82,0,0,0,.31-.53.43.43,0,0,0-.07-.33c-.16-.23-.54-.22-.84,0L382,377.1l-9.17,6.82-.12-.19c-.11-.14-.24-.26-.35-.39l8.33-8.11,1.6-1.37a.86.86,0,0,0,.31-.56.52.52,0,0,0-.07-.33c-.16-.24-.53-.23-.82,0l-1.62,1.44-8.27,8.3c-.17-.18-.33-.37-.51-.55l7-9.22,2.13-1.65a1,1,0,0,0,.36-.65.52.52,0,0,0,0-.28c-.13-.29-.48-.32-.78-.07l-2.21,1.76a.77.77,0,0,0-.15.16l-7,9.43c-.19-.16-.37-.34-.57-.49l5.63-10.11,2-1.92a1,1,0,0,0,.3-.65.71.71,0,0,0-.07-.32c-.15-.26-.5-.26-.78,0l-2.08,2.06a1,1,0,0,0-.15.2l-5.52,10.29c-.21-.14-.42-.28-.64-.4L373,369.67l1.82-2.12a1,1,0,0,0,.23-.62.53.53,0,0,0-.09-.35c-.17-.24-.5-.21-.75.09l-1.89,2.27a1,1,0,0,0-.15.25l-4,10.77c-.22-.11-.45-.21-.68-.3l2.57-10.85,2-2.78a1,1,0,0,0,.19-.59.66.66,0,0,0-.12-.38c-.18-.23-.51-.16-.72.15l-2,3a.74.74,0,0,0-.13.3l-2.42,10.86h0l-3.17,8.51c2.09-1.17,5.06-2.81,5.4-2.92a1.27,1.27,0,0,1,1.64,1.15,1.23,1.23,0,0,1-.23.78C370.11,387.34,367.65,389.76,366.16,391.21Z" transform="translate(-33.84 -18.53)"/><path class="cls-2" d="M349.33,392.25a1.3,1.3,0,0,0-.09-1.68l-1.5-1.14c-2.3-1.29-6-3.36-6.41-3.5a.21.21,0,0,0-.24.08.21.21,0,0,0,0,.25c.3.43,3.35,3.43,5.23,5.24l1.49,1.15A1.12,1.12,0,0,0,349.33,392.25Z" transform="translate(-33.84 -18.53)"/><path class="cls-2" d="M382.43,417.61a1.35,1.35,0,0,0-.39-1.85l-31.41-24.11a2.26,2.26,0,0,1-.47,1.23,2.42,2.42,0,0,1-1,.8l11,8.47,2,1.54,18.32,14A1.36,1.36,0,0,0,382.43,417.61Z" transform="translate(-33.84 -18.53)"/><path class="cls-2" d="M340.24,386.86a1.23,1.23,0,0,1-.23-.78,1.27,1.27,0,0,1,.24-.68,1.29,1.29,0,0,1,1.4-.47c.34.11,3.31,1.75,5.4,2.92l-3.17-8.51h0l-2.42-10.86a.74.74,0,0,0-.13-.3l-2.05-3c-.21-.31-.54-.38-.72-.15a.66.66,0,0,0-.12.38,1,1,0,0,0,.19.59l2,2.78,2.57,10.85c-.23.09-.46.19-.68.3l-4-10.77a1,1,0,0,0-.15-.25l-1.89-2.27c-.25-.3-.58-.33-.75-.09a.59.59,0,0,0-.09.35,1,1,0,0,0,.23.62l1.82,2.12,4.12,10.67c-.22.12-.43.26-.64.4l-5.52-10.29a1,1,0,0,0-.15-.2l-2.08-2.06c-.28-.28-.63-.28-.78,0a.71.71,0,0,0-.07.32,1,1,0,0,0,.3.65l2,1.92,5.63,10.11c-.2.15-.38.33-.57.49l-7-9.43a.77.77,0,0,0-.15-.16l-2.21-1.76c-.3-.25-.65-.22-.78.07a.52.52,0,0,0,0,.28,1,1,0,0,0,.36.65l2.13,1.65,7,9.22c-.18.18-.34.37-.51.55l-8.27-8.3L328.93,373c-.29-.25-.66-.26-.82,0a.52.52,0,0,0-.07.33.86.86,0,0,0,.31.56l1.6,1.37,8.33,8.11c-.11.13-.24.25-.35.39l-.12.19-9.17-6.82-1.85-1.53c-.3-.25-.68-.26-.84,0a.43.43,0,0,0-.07.33.82.82,0,0,0,.31.53l1.91,1.52,9.26,6.67c-.13.21-.29.41-.41.62l-2.71-1.45-2.45-1.32L327.17,380l-1.7-1.19a.58.58,0,0,0-.82,0,.44.44,0,0,0-.06.3.79.79,0,0,0,.34.5l1.8,1.2,4.69,2.43,2.46,1.27,2.72,1.41c-.11.22-.23.43-.32.66l-10.14-3.66-1.89-1.13a.58.58,0,0,0-.8.08.36.36,0,0,0,0,.27.73.73,0,0,0,.36.47l2,1.13a.38.38,0,0,0,.13.06l10.15,3.5c-.09.23-.16.46-.23.69l-10.14-2.1L323,384.7a.57.57,0,0,0-.77.15.36.36,0,0,0,0,.23.67.67,0,0,0,.41.45l2.68,1.2.17,0,10.07,2c-.05.23-.08.46-.13.68l-9.78-.63-2.94-1.49a.6.6,0,0,0-.78.1.31.31,0,0,0,0,.25.57.57,0,0,0,.34.38l3.08,1.52a.68.68,0,0,0,.28.07l9.71.53v0l2.66.29,2.71.32,3.85.43C343,389.76,340.57,387.34,340.24,386.86Z" transform="translate(-33.84 -18.53)"/><line class="cls-3" x1="623.77" y1="383.31" x2="623.77" y2="36.36"/><line class="cls-3" x1="0.5" y1="383.82" x2="0.5" y2="35.85"/><polyline class="cls-3" points="622.92 35.85 641.85 35.85 641.85 383.82"/><polyline class="cls-3" points="280.1 383.82 0.5 383.82 0.5 35.85 280.09 35.85"/><polyline class="cls-3" points="362.07 35.85 622.92 35.85 641.85 35.85 641.85 383.82 362.04 383.82"/><polyline class="cls-3" points="280.1 370.99 18.91 370.99 18.91 48.68 280.17 48.68"/><polyline class="cls-3" points="362.07 48.68 623.45 48.68 623.45 370.99 362.09 370.99"/><line class="cls-3" x1="18.58" y1="383.68" x2="18.58" y2="36.73"/></svg>