<?xml version="1.0" encoding="utf-8"?>
<!-- Generator: Adobe Illustrator 24.0.0, SVG Export Plug-In . SVG Version: 6.00 Build 0)  -->
<svg version="1.1" xmlns="http://www.w3.org/2000/svg" xmlns:xlink="http://www.w3.org/1999/xlink" x="0px" y="0px"
	 viewBox="0 0 658 390.6" style="enable-background:new 0 0 658 390.6;" xml:space="preserve">
<style type="text/css">
	.st0{display:none;}
	.st1{display:inline;fill-rule:evenodd;clip-rule:evenodd;fill:#08544D;}
	.st2{display:inline;}
	.st3{fill:#08544D;}
	.st4{fill:none;stroke:#08544D;stroke-miterlimit:10;}
	.st5{display:none;fill:#08544D;}
	.st6{fill:#6AC446;}
	.st7{fill:none;stroke:#6AC446;stroke-miterlimit:10;}
	.st8{fill:none;stroke:#08544D;stroke-width:3;stroke-miterlimit:10;}
	.st9{fill:none;stroke:#08544D;stroke-width:3;stroke-linecap:round;stroke-miterlimit:10;}
	.st10{display:inline;fill:none;stroke:#08544D;stroke-width:3;stroke-miterlimit:10;}
	.st11{display:inline;fill:none;stroke:#08544D;stroke-width:2;stroke-miterlimit:10;}
	.st12{display:inline;fill:none;stroke:#08544D;stroke-width:3;stroke-linecap:round;stroke-miterlimit:10;}
	.st13{display:inline;fill:none;stroke:#08544D;stroke-width:3;stroke-linecap:round;stroke-miterlimit:10;stroke-dasharray:5;}
</style>
<g id="Frames">
	<g id="Frame" class="st0">
		<path class="st1" d="M343.2,27.2c-8,3.6-8.3,10.7-8.3,12.5c-0.8,1-1.8,1.8-2.6,2.4c0.6-3.2,1.2-7.5,1.8-12.2c0,0,0.1,0,0.1,0
			c0.1-0.1,2.8-1.2,4.8-3.1c1.8-0.6,7.8-3.5,9.3-11.7c-8.4,2.6-9.5,9.6-9.7,11.4c-1.7,1.6-3.9,2.6-4.5,2.9c0.8-1.5,1.4-3.5,1.4-5.8
			c0.8-0.8,2-2,2.8-3.5c1.6-1.1,6.5-5.7,5.5-13.9c-7.2,5-6.3,12-5.9,13.7c-0.7,1.2-1.6,2.2-2.3,3c0-0.8-0.2-1.6-0.4-2.5
			c0.2-1.9,0.4-3.7,0.5-5.4c0.3-0.7,0.5-1.5,0.6-2.3c0.3-0.3,0.7-0.7,1.3-1.3c0.8-0.5,5.1-4.3,4-11.2c-5.2,4-4.6,9.1-4.2,10.7
			c-0.3,0.4-0.7,0.7-1,1c0.1-1.2,0.1-2.6-0.1-4.1c0.3-3,0.4-5.1,0.4-5.4c0,0,0-0.1,0-0.1c0-0.1,0-0.2,0-0.2c1.2-1,4.3-4.2,2-9.9
			c-1.8,1.7-2.6,3.5-2.9,5.1c-0.7-1.1-1.8-2.1-3.6-3.1c-1,5,2.4,7.8,3.8,8.6c-0.1,0.8-0.2,2.8-0.4,5.4C335,8.6,334.5,9,334,9.4
			c0.1-1.8-0.1-3.8-0.9-6c-6,5.8-4,11.8-3.2,13.6c-0.5,0.8-1,1.5-1.3,1.9c-0.5-6.4-1-13-1.4-18.7c1.3-0.8,4.8-3.6,3.2-9.7
			c-3.6,2.6-4,6.1-3.9,8.2c-0.4-1.7-1.8-4.4-5.6-5.6c0.9,5,4.7,6.8,5.6,7.1c0.1,1.3,0.4,5.3,0.8,10.4c-0.3-0.3-0.9-0.7-1.5-1.2
			c0.2-1.7,0.4-6.8-5.1-10.3c-0.6,7,4.1,10.4,5,10.8c0.9,0.8,1.5,1.3,1.7,1.4c0.2,2.7,0.4,5.7,0.7,8.7c-0.4-0.3-1.2-0.9-2-1.8
			c0.3-1.9,0.9-8.3-6.4-12.4c-0.9,8.4,5.2,12.4,6.2,12.9c1.1,1.1,2.1,1.7,2.1,1.8c0,0,0.1,0,0.1,0c0.3,3.1,0.5,6.2,0.8,9.2
			c-0.4-0.3-1.1-0.9-1.9-1.7c0.3-1.9,0.9-8.3-6.4-12.4c-0.1,1.4-0.1,2.7,0.1,3.8c-1.3-1.2-3.1-2.4-5.4-3.2
			c1.3,8.2,7.3,11.2,9.1,11.9c1.9,1.9,4.5,3,4.7,3.1c0.4,4,0.7,7.6,1,10.3c-0.3-0.3-0.9-0.7-1.5-1.3c0.2-1.7,0.5-6.8-5-10.3
			c-0.1,0.7-0.1,1.3,0,1.9c-1.2-1.5-2.9-2.9-5.4-4c0.5,8.3,6.1,11.9,7.8,12.7c1.7,2.1,4.3,3.6,4.4,3.6c0,0,0,0,0,0
			c0.2,1,0.3,1.7,0.4,1.9c0.1,0.1,0.2,0.2,0.3,0.2c0.1,0,0.1,0,0.2,0c0.2-0.1,0.2-0.3,0.1-0.4c0,0,0,0,0-0.1c0,0,0.1-0.1,0.1-0.1
			c0.2-0.6,0.4-1.4,0.6-2.3c0,0,0,0,0,0c0.1,0,3-0.8,5.2-2.5c1.9-0.4,8.2-2.6,10.6-10.5c-2.5,0.5-4.4,1.4-6,2.5
			C342.6,31.3,343.1,29.4,343.2,27.2z M334.6,18.7C334.6,18.7,334.6,18.7,334.6,18.7c-6.1,5.7-4,11.8-3.2,13.5
			c-0.6,0.9-1.1,1.7-1.4,2.1c-0.3-3.4-0.7-7.4-1-11.5c0.3-0.2,1.1-0.9,1.9-1.8c0.6-0.3,2.5-1.7,3.9-4.3
			C334.7,17.4,334.6,18,334.6,18.7z M330.2,17.5C330.3,17.5,330.3,17.4,330.2,17.5c0,1.3,0.2,2.4,0.4,3c-0.7,0.8-1.4,1.4-1.7,1.7
			c-0.1-0.8-0.1-1.7-0.2-2.5C328.9,19.4,329.6,18.6,330.2,17.5z M324.7,28c0-0.2,0-0.6-0.1-1c1,1,1.9,1.5,2.3,1.7
			c1.1,1,2,1.7,2.1,1.8c0,0.1,0,0.3,0,0.4C328.3,30.5,326.2,29.5,324.7,28z M326.4,40.4c0-0.3,0-0.7,0-1.3c0.9,1,1.8,1.6,2.1,1.8
			c0.9,0.8,1.6,1.3,1.7,1.4c0,0,0,0,0,0c0.1,0.5,0.1,0.9,0.2,1.3C329.6,43.3,327.7,42,326.4,40.4z M331.1,44.5
			c-0.3-1.8-0.7-5.2-1.1-9.5c0,0,0,0,0,0c0.1-0.1,0.8-1,1.6-2.3c0.3-0.2,0.9-0.9,1.6-1.9C332.6,36.5,331.8,41.7,331.1,44.5z
			 M336.9,40.5c-1.8,1.3-4,2.1-4.7,2.3c0,0,0,0,0,0c0.9-0.6,2.2-1.6,3.2-2.8c0.5-0.2,1.2-0.7,2.1-1.3
			C337.1,39.4,336.9,40.1,336.9,40.5z"/>
		<g class="st2">
			<path class="st3" d="M339.1,364.7l1.5-1.1c1.9-1.8,4.9-4.8,5.2-5.2c0.1-0.1,0-0.2,0-0.3c0,0-0.1-0.1-0.2-0.1
				c-0.4,0.1-4.1,2.2-6.4,3.5l-1.5,1.1c-0.4,0.5-0.5,1.2-0.1,1.7C338,364.9,338.5,365,339.1,364.7z"/>
			<path class="st3" d="M306.4,389.8l18.3-14l2-1.5l11.1-8.5c-0.4-0.2-0.7-0.4-1-0.8c-0.3-0.4-0.4-0.8-0.5-1.2l-31.4,24.1
				c-0.6,0.5-0.8,1.3-0.4,1.9C304.9,390.2,305.7,390.3,306.4,389.8z"/>
			<path class="st3" d="M342.4,363.3l3.8-0.4l2.7-0.3l2.7-0.3c0,0,0,0,0,0l9.7-0.5c0.1,0,0.2,0,0.3-0.1l3.1-1.5
				c0.2-0.1,0.3-0.2,0.3-0.4c0-0.1,0-0.2,0-0.3c-0.1-0.2-0.5-0.3-0.8-0.1l-2.9,1.5l-9.8,0.6c0-0.2-0.1-0.5-0.1-0.7l10.1-2
				c0.1,0,0.1,0,0.2-0.1l2.7-1.2c0.2-0.1,0.4-0.3,0.4-0.5c0-0.1,0-0.2,0-0.2c-0.1-0.2-0.4-0.3-0.8-0.2l-2.6,1.2l-10.1,2.1
				c-0.1-0.2-0.1-0.5-0.2-0.7l10.1-3.5c0,0,0.1,0,0.1-0.1l2-1.1c0.2-0.1,0.3-0.3,0.4-0.5c0-0.1,0-0.2,0-0.3
				c-0.1-0.2-0.5-0.3-0.8-0.1l-1.9,1.1l-10.1,3.7c-0.1-0.2-0.2-0.4-0.3-0.7l2.7-1.4l2.5-1.3l4.7-2.4l1.8-1.2
				c0.2-0.1,0.3-0.3,0.3-0.5c0-0.1,0-0.2-0.1-0.3c-0.1-0.2-0.5-0.2-0.8,0l-1.7,1.2l-4.6,2.5l-2.5,1.3l-2.7,1.5
				c-0.1-0.2-0.3-0.4-0.4-0.6l9.3-6.7l1.9-1.5c0.2-0.1,0.3-0.3,0.3-0.5c0-0.1,0-0.2-0.1-0.3c-0.2-0.2-0.5-0.2-0.8,0l-1.9,1.5
				l-9.2,6.8c0-0.1-0.1-0.1-0.1-0.2c-0.1-0.1-0.2-0.3-0.3-0.4l8.3-8.1l1.6-1.4c0.2-0.2,0.3-0.4,0.3-0.6c0-0.1,0-0.2-0.1-0.3
				c-0.2-0.2-0.5-0.2-0.8,0l-1.6,1.4l-8.3,8.3c-0.2-0.2-0.3-0.4-0.5-0.5l7-9.2l2.1-1.6c0.2-0.2,0.3-0.4,0.4-0.7c0-0.1,0-0.2,0-0.3
				c-0.1-0.3-0.5-0.3-0.8-0.1l-2.2,1.8c-0.1,0-0.1,0.1-0.2,0.2l-7,9.4c-0.2-0.2-0.4-0.3-0.6-0.5l5.6-10.1l2-1.9
				c0.2-0.2,0.3-0.4,0.3-0.6c0-0.1,0-0.2-0.1-0.3c-0.2-0.3-0.5-0.3-0.8,0l-2.1,2.1c-0.1,0.1-0.1,0.1-0.2,0.2l-5.5,10.3
				c-0.2-0.1-0.4-0.3-0.6-0.4l4.1-10.7l1.8-2.1c0.2-0.2,0.2-0.4,0.2-0.6c0-0.1,0-0.3-0.1-0.3c-0.2-0.2-0.5-0.2-0.7,0.1l-1.9,2.3
				c-0.1,0.1-0.1,0.2-0.1,0.3l-4,10.8c-0.2-0.1-0.4-0.2-0.7-0.3l2.6-10.8l2-2.8c0.1-0.2,0.2-0.4,0.2-0.6c0-0.1,0-0.3-0.1-0.4
				c-0.2-0.2-0.5-0.2-0.7,0.2l-2,3c-0.1,0.1-0.1,0.2-0.1,0.3l-2.4,10.9c0,0,0,0,0,0l-3.2,8.5c2.1-1.2,5.1-2.8,5.4-2.9
				c0.5-0.2,1.1,0,1.4,0.5c0.2,0.2,0.2,0.4,0.2,0.7c0,0.3-0.1,0.5-0.2,0.8C346.3,359.4,343.9,361.8,342.4,363.3z"/>
		</g>
		<g class="st2">
			<path class="st3" d="M325.5,364.3c0.4-0.5,0.3-1.1-0.1-1.7l-1.5-1.1c-2.3-1.3-6-3.4-6.4-3.5c-0.1,0-0.2,0-0.2,0.1
				c0,0-0.1,0.1,0,0.3c0.3,0.4,3.4,3.4,5.2,5.2l1.5,1.1C324.6,365,325.1,364.9,325.5,364.3z"/>
			<path class="st3" d="M358.6,389.7c0.4-0.5,0.2-1.4-0.4-1.9l-31.4-24.1c0,0.4-0.2,0.9-0.5,1.2c-0.3,0.4-0.6,0.6-1,0.8l11.1,8.5
				l2,1.5l18.3,14C357.4,390.3,358.2,390.2,358.6,389.7z"/>
			<path class="st3" d="M316.4,359c-0.2-0.2-0.2-0.5-0.2-0.8c0-0.2,0.1-0.5,0.2-0.7c0.3-0.4,0.9-0.6,1.4-0.5
				c0.3,0.1,3.3,1.7,5.4,2.9l-3.2-8.5c0,0,0,0,0,0l-2.4-10.9c0-0.1-0.1-0.2-0.1-0.3l-2-3c-0.2-0.3-0.5-0.4-0.7-0.2
				c-0.1,0.1-0.1,0.2-0.1,0.4c0,0.2,0.1,0.4,0.2,0.6l2,2.8l2.6,10.8c-0.2,0.1-0.5,0.2-0.7,0.3l-4-10.8c0-0.1-0.1-0.2-0.1-0.3
				l-1.9-2.3c-0.2-0.3-0.6-0.3-0.7-0.1c-0.1,0.1-0.1,0.2-0.1,0.3c0,0.2,0.1,0.4,0.2,0.6l1.8,2.1l4.1,10.7c-0.2,0.1-0.4,0.3-0.6,0.4
				l-5.5-10.3c0-0.1-0.1-0.1-0.2-0.2l-2.1-2.1c-0.3-0.3-0.6-0.3-0.8,0c-0.1,0.1-0.1,0.2-0.1,0.3c0,0.2,0.1,0.5,0.3,0.6l2,1.9
				l5.6,10.1c-0.2,0.2-0.4,0.3-0.6,0.5l-7-9.4c0-0.1-0.1-0.1-0.2-0.2l-2.2-1.8c-0.3-0.2-0.7-0.2-0.8,0.1c0,0.1-0.1,0.2,0,0.3
				c0,0.2,0.2,0.5,0.4,0.7l2.1,1.6l7,9.2c-0.2,0.2-0.3,0.4-0.5,0.5l-8.3-8.3l-1.6-1.4c-0.3-0.3-0.7-0.3-0.8,0
				c-0.1,0.1-0.1,0.2-0.1,0.3c0,0.2,0.1,0.4,0.3,0.6l1.6,1.4l8.3,8.1c-0.1,0.1-0.2,0.3-0.3,0.4c0,0.1-0.1,0.1-0.1,0.2l-9.2-6.8
				l-1.9-1.5c-0.3-0.2-0.7-0.3-0.8,0c-0.1,0.1-0.1,0.2-0.1,0.3c0,0.2,0.1,0.4,0.3,0.5l1.9,1.5l9.3,6.7c-0.1,0.2-0.3,0.4-0.4,0.6
				l-2.7-1.5l-2.5-1.3l-4.6-2.5l-1.7-1.2c-0.3-0.2-0.7-0.2-0.8,0c-0.1,0.1-0.1,0.2-0.1,0.3c0,0.2,0.2,0.4,0.3,0.5l1.8,1.2l4.7,2.4
				l2.5,1.3l2.7,1.4c-0.1,0.2-0.2,0.4-0.3,0.7l-10.1-3.7l-1.9-1.1c-0.3-0.2-0.7-0.1-0.8,0.1c0,0.1-0.1,0.2,0,0.3
				c0,0.2,0.2,0.4,0.4,0.5l2,1.1c0,0,0.1,0,0.1,0.1l10.1,3.5c-0.1,0.2-0.2,0.5-0.2,0.7l-10.1-2.1l-2.6-1.2c-0.3-0.1-0.7-0.1-0.8,0.2
				c0,0.1,0,0.1,0,0.2c0,0.2,0.2,0.4,0.4,0.5l2.7,1.2c0.1,0,0.1,0,0.2,0.1l10.1,2c-0.1,0.2-0.1,0.5-0.1,0.7l-9.8-0.6l-2.9-1.5
				c-0.3-0.2-0.6-0.1-0.8,0.1c-0.1,0.1-0.1,0.2,0,0.3c0,0.1,0.2,0.3,0.3,0.4l3.1,1.5c0.1,0,0.2,0.1,0.3,0.1l9.7,0.5c0,0,0,0,0,0
				l2.7,0.3l2.7,0.3l3.8,0.4C319.2,361.8,316.8,359.4,316.4,359z"/>
		</g>
		<g class="st2">
			<line class="st4" x1="633.8" y1="373.9" x2="633.8" y2="27"/>
			<line class="st4" x1="10.6" y1="374.4" x2="10.6" y2="26.5"/>
			<polyline class="st4" points="633,26.5 651.9,26.5 651.9,374.4 			"/>
			<polyline class="st4" points="290.2,374.4 10.6,374.4 10.6,26.5 290.1,26.5 			"/>
			<polyline class="st4" points="372.1,26.5 633,26.5 651.9,26.5 651.9,374.4 372.1,374.4 			"/>
			<polyline class="st4" points="290.2,361.6 29,361.6 29,39.3 290.2,39.3 			"/>
			<polyline class="st4" points="372.1,39.3 633.5,39.3 633.5,361.6 372.1,361.6 			"/>
			<line class="st4" x1="28.6" y1="374.3" x2="28.6" y2="27.4"/>
		</g>
	</g>
	<rect x="-41.3" y="15.4" class="st5" width="745" height="350"/>
	<g transform="translate(-90 -500)">
		<g>
			<path class="st6" d="M443.8,872.5c-1,0-1.9,0.2-2.8,0.5l8.2-13.5h-39v7.1l-10.9-4.1c-0.1-0.7-0.6-1.4-1.3-1.6l-8.7-3.4
				c-1.1-0.4-2.4,0.1-2.8,1.2c-0.4,1.1,0.1,2.4,1.2,2.8l8.7,3.4c0.3,0.1,0.5,0.1,0.8,0.1c0.5,0,1-0.2,1.4-0.5l13.8,5.1l2.9,13.7h6.8
				l6.1-7.8l8.2,3c-0.1,0.5-0.1,1-0.1,1.5c0,4.2,3.4,7.6,7.6,7.6c4.2,0,7.6-3.4,7.6-7.6C451.4,875.9,448,872.5,443.8,872.5z
				 M421.1,881.2h-4l-2.3-10.6l11.3,4.2L421.1,881.2z M443.8,883.3c-1.8,0-3.3-1.5-3.3-3.3c0-1.8,1.5-3.3,3.3-3.3s3.3,1.5,3.3,3.3
				C447.1,881.9,445.6,883.3,443.8,883.3z"/>
			<path class="st6" d="M444.5,857.3c-0.9-2.5-3.3-4.3-6.1-4.3c-1.7,0-3.2,0.7-4.4,1.7c-0.2-3.4-3-6.1-6.5-6.1c-3.1,0-5.7,2.2-6.3,5
				c-0.7-0.4-1.5-0.7-2.3-0.7c-2.4,0-4.3,1.9-4.3,4.3H444.5z"/>
		</g>
	</g>
	<g>
		<path class="st6" d="M304.4,17.8c-2.9,4.8-6.9,12.1-6.9,16.8c0,6.8,3.7,9.8,8.4,10.3v4.6c0,0.9,0.7,1.6,1.6,1.6
			c0.9,0,1.6-0.7,1.6-1.6V45c4.8-0.5,8.4-3.5,8.4-10.3c0-4.7-3.9-12-6.9-16.8C309.3,15.5,305.9,15.5,304.4,17.8z M312.1,26.5
			c0.2,0.3,0.2,0.8-0.1,1l-3.6,2.8v3.6l2.7-2.1c0.3-0.2,0.8-0.2,1,0.1c0.2,0.3,0.2,0.8-0.1,1l-3.6,2.8v3.6l2.7-2.1
			c0.3-0.2,0.8-0.2,1,0.1c0.2,0.3,0.2,0.8-0.1,1l-3.9,3c-0.1,0.1-0.3,0.2-0.4,0.2s-0.3,0-0.4-0.2l-3.9-3c-0.3-0.2-0.4-0.7-0.1-1
			c0.2-0.3,0.7-0.4,1-0.1l2.7,2.1v-3.6l-3.6-2.8c-0.3-0.2-0.4-0.7-0.1-1c0.2-0.3,0.7-0.4,1-0.1l2.7,2.1v-3.6l-3.6-2.8
			c-0.3-0.2-0.4-0.7-0.1-1c0.2-0.3,0.7-0.4,1-0.1l2.7,2.1v-4.5c0-0.4,0.3-0.7,0.7-0.7c0.4,0,0.7,0.3,0.7,0.7l0,4.5l2.7-2.1
			C311.3,26.1,311.8,26.1,312.1,26.5z"/>
		<path class="st6" d="M326.2,4.7c-2.9,4.8-6.9,12.1-6.9,16.8c0,6.8,3.7,9.8,8.4,10.3v4.6c0,0.9,0.7,1.6,1.6,1.6
			c0.9,0,1.6-0.7,1.6-1.6v-4.6c4.8-0.5,8.4-3.5,8.4-10.3c0-4.7-3.9-12-6.9-16.8C331.1,2.3,327.7,2.3,326.2,4.7z M333.8,13.3
			c0.2,0.3,0.2,0.8-0.1,1l-3.6,2.8v3.6l2.7-2.1c0.3-0.2,0.8-0.2,1,0.1c0.2,0.3,0.2,0.8-0.1,1l-3.6,2.8v3.6l2.7-2.1
			c0.3-0.2,0.8-0.2,1,0.1c0.2,0.3,0.2,0.8-0.1,1l-3.9,3c-0.1,0.1-0.3,0.2-0.4,0.2c-0.2,0-0.3,0-0.4-0.2l-3.9-3
			c-0.3-0.2-0.4-0.7-0.1-1c0.2-0.3,0.7-0.4,1-0.1l2.7,2.1v-3.6l-3.6-2.8c-0.3-0.2-0.4-0.7-0.1-1c0.2-0.3,0.7-0.4,1-0.1l2.7,2.1v-3.6
			l-3.6-2.8c-0.3-0.2-0.4-0.7-0.1-1c0.2-0.3,0.7-0.4,1-0.1l2.7,2.1v-4.5c0-0.4,0.3-0.7,0.7-0.7s0.7,0.3,0.7,0.7l0,4.5l2.7-2.1
			C333.1,12.9,333.6,13,333.8,13.3z"/>
		<path class="st6" d="M348,17.8c-2.9,4.8-6.9,12.1-6.9,16.8c0,6.8,3.7,9.8,8.4,10.3v4.6c0,0.9,0.7,1.6,1.6,1.6
			c0.9,0,1.6-0.7,1.6-1.6V45c4.8-0.5,8.4-3.5,8.4-10.3c0-4.7-3.9-12-6.9-16.8C352.9,15.5,349.4,15.5,348,17.8z M355.6,26.5
			c0.2,0.3,0.2,0.8-0.1,1l-3.6,2.8v3.6l2.7-2.1c0.3-0.2,0.8-0.2,1,0.1s0.2,0.8-0.1,1l-3.6,2.8v3.6l2.7-2.1c0.3-0.2,0.8-0.2,1,0.1
			c0.2,0.3,0.2,0.8-0.1,1l-3.9,3c-0.1,0.1-0.3,0.2-0.4,0.2s-0.3,0-0.4-0.2l-3.9-3c-0.3-0.2-0.4-0.7-0.1-1c0.2-0.3,0.7-0.4,1-0.1
			l2.7,2.1v-3.6l-3.6-2.8c-0.3-0.2-0.4-0.7-0.1-1c0.2-0.3,0.7-0.4,1-0.1l2.7,2.1v-3.6l-3.6-2.8c-0.3-0.2-0.4-0.7-0.1-1
			c0.2-0.3,0.7-0.4,1-0.1l2.7,2.1v-4.5c0-0.4,0.3-0.7,0.7-0.7s0.7,0.3,0.7,0.7l0,4.5l2.7-2.1C354.9,26.1,355.4,26.1,355.6,26.5z"/>
	</g>
	<g>
		<g>
			<line class="st7" x1="7.9" y1="376.1" x2="7.9" y2="27.7"/>
			<polyline class="st7" points="631.2,27.7 650.1,27.7 650.1,376.1 			"/>
			<polyline class="st7" points="287.9,376.1 7.9,376.1 7.9,27.7 287.9,27.7 			"/>
			<polyline class="st7" points="370,27.7 631.2,27.7 650.1,27.7 650.1,376.1 369.9,376.1 			"/>
			<polyline class="st7" points="8,40.5 288,40.5 26.4,40.5 26.4,363.3 287.9,363.3 7.8,363.3 			"/>
			<polyline class="st7" points="650.1,363.3 370,363.3 631.7,363.3 631.7,40.5 370,40.5 650.1,40.5 			"/>
		</g>
		<g>
			<line class="st7" x1="26.4" y1="40.4" x2="7.9" y2="58.9"/>
			<line class="st7" x1="15.4" y1="40.5" x2="7.9" y2="48.1"/>
			<line class="st7" x1="26.4" y1="52.5" x2="7.9" y2="71"/>
			<line class="st7" x1="26.4" y1="64.7" x2="7.9" y2="83.1"/>
			<line class="st7" x1="26.4" y1="76.8" x2="7.9" y2="95.2"/>
			<line class="st7" x1="26.4" y1="88.9" x2="7.9" y2="107.3"/>
			<line class="st7" x1="26.4" y1="101" x2="7.9" y2="119.4"/>
			<line class="st7" x1="26.4" y1="113.1" x2="7.9" y2="131.6"/>
			<line class="st7" x1="26.4" y1="125.2" x2="7.9" y2="143.7"/>
			<line class="st7" x1="26.4" y1="137.3" x2="7.9" y2="155.8"/>
			<line class="st7" x1="26.4" y1="149.5" x2="7.9" y2="167.9"/>
			<line class="st7" x1="26.4" y1="161.6" x2="7.9" y2="180"/>
			<line class="st7" x1="26.4" y1="173.7" x2="7.9" y2="192.1"/>
			<line class="st7" x1="26.4" y1="185.8" x2="7.9" y2="204.2"/>
			<line class="st7" x1="26.4" y1="197.9" x2="7.9" y2="216.4"/>
			<line class="st7" x1="26.4" y1="210" x2="7.9" y2="228.5"/>
			<line class="st7" x1="26.4" y1="222.1" x2="7.9" y2="240.6"/>
			<line class="st7" x1="26.4" y1="234.3" x2="7.9" y2="252.7"/>
			<line class="st7" x1="26.4" y1="246.4" x2="7.9" y2="264.8"/>
			<line class="st7" x1="26.4" y1="258.5" x2="7.9" y2="276.9"/>
			<line class="st7" x1="26.4" y1="270.6" x2="7.9" y2="289"/>
			<line class="st7" x1="26.4" y1="282.7" x2="7.9" y2="301.1"/>
			<line class="st7" x1="26.4" y1="294.8" x2="7.9" y2="313.3"/>
			<line class="st7" x1="26.4" y1="306.9" x2="7.9" y2="325.4"/>
			<line class="st7" x1="26.4" y1="319" x2="7.9" y2="337.5"/>
			<line class="st7" x1="26.4" y1="331.2" x2="7.9" y2="349.6"/>
			<line class="st7" x1="26.4" y1="343.3" x2="7.9" y2="361.7"/>
			<line class="st7" x1="26.3" y1="354.7" x2="17.8" y2="363.3"/>
		</g>
		<g>
			<line class="st7" x1="631.5" y1="40.4" x2="650.1" y2="58.9"/>
			<line class="st7" x1="642.5" y1="40.5" x2="650.1" y2="48.1"/>
			<line class="st7" x1="631.5" y1="52.5" x2="650.1" y2="71"/>
			<line class="st7" x1="631.5" y1="64.7" x2="650.1" y2="83.1"/>
			<line class="st7" x1="631.5" y1="76.8" x2="650.1" y2="95.2"/>
			<line class="st7" x1="631.5" y1="88.9" x2="650.1" y2="107.3"/>
			<line class="st7" x1="631.5" y1="101" x2="650.1" y2="119.4"/>
			<line class="st7" x1="631.5" y1="113.1" x2="650.1" y2="131.6"/>
			<line class="st7" x1="631.5" y1="125.2" x2="650.1" y2="143.7"/>
			<line class="st7" x1="631.5" y1="137.3" x2="650.1" y2="155.8"/>
			<line class="st7" x1="631.5" y1="149.5" x2="650.1" y2="167.9"/>
			<line class="st7" x1="631.5" y1="161.6" x2="650.1" y2="180"/>
			<line class="st7" x1="631.5" y1="173.7" x2="650.1" y2="192.1"/>
			<line class="st7" x1="631.5" y1="185.8" x2="650.1" y2="204.2"/>
			<line class="st7" x1="631.5" y1="197.9" x2="650.1" y2="216.4"/>
			<line class="st7" x1="631.5" y1="210" x2="650.1" y2="228.5"/>
			<line class="st7" x1="631.5" y1="222.1" x2="650.1" y2="240.6"/>
			<line class="st7" x1="631.5" y1="234.3" x2="650.1" y2="252.7"/>
			<line class="st7" x1="631.5" y1="246.4" x2="650.1" y2="264.8"/>
			<line class="st7" x1="631.5" y1="258.5" x2="650.1" y2="276.9"/>
			<line class="st7" x1="631.5" y1="270.6" x2="650.1" y2="289"/>
			<line class="st7" x1="631.5" y1="282.7" x2="650.1" y2="301.1"/>
			<line class="st7" x1="631.5" y1="294.8" x2="650.1" y2="313.3"/>
			<line class="st7" x1="631.5" y1="306.9" x2="650.1" y2="325.4"/>
			<line class="st7" x1="631.5" y1="319" x2="650.1" y2="337.5"/>
			<line class="st7" x1="631.5" y1="331.2" x2="650.1" y2="349.6"/>
			<line class="st7" x1="631.5" y1="343.3" x2="650.1" y2="361.7"/>
			<line class="st7" x1="631.6" y1="354.7" x2="640.2" y2="363.3"/>
		</g>
	</g>
</g>
<g id="Dividers" class="st0">
	<g id="Divider_1">
		<g id="Divider_1_" class="st2">
			<rect x="47.6" y="317.1" class="st8" width="570" height="22"/>
			<line class="st9" x1="31.6" y1="328.1" x2="633.6" y2="328.1"/>
		</g>
		<path class="st10" d="M123.4,327.5"/>
		<line class="st11" x1="47.1" y1="317.3" x2="81.6" y2="338.6"/>
		<line class="st11" x1="47.6" y1="328.1" x2="64.6" y2="338.7"/>
		<line class="st11" x1="61.7" y1="317.3" x2="96.2" y2="338.6"/>
		<line class="st11" x1="76.3" y1="317.3" x2="110.8" y2="338.6"/>
		<line class="st11" x1="90.9" y1="317.3" x2="125.4" y2="338.6"/>
		<line class="st11" x1="105.4" y1="317.3" x2="139.9" y2="338.6"/>
		<line class="st11" x1="120" y1="317.3" x2="154.5" y2="338.6"/>
		<line class="st11" x1="134.6" y1="317.3" x2="169.1" y2="338.6"/>
		<line class="st11" x1="149.2" y1="317.3" x2="183.7" y2="338.6"/>
		<line class="st11" x1="163.8" y1="317.3" x2="198.3" y2="338.6"/>
		<line class="st11" x1="178.4" y1="317.3" x2="212.9" y2="338.6"/>
		<line class="st11" x1="192.9" y1="317.3" x2="227.4" y2="338.6"/>
		<line class="st11" x1="207.5" y1="317.3" x2="242" y2="338.6"/>
		<line class="st11" x1="222.1" y1="317.3" x2="256.6" y2="338.6"/>
		<line class="st11" x1="236.7" y1="317.3" x2="271.2" y2="338.6"/>
		<line class="st11" x1="251.3" y1="317.3" x2="285.8" y2="338.6"/>
		<line class="st11" x1="265.8" y1="317.3" x2="300.3" y2="338.6"/>
		<line class="st11" x1="280.4" y1="317.3" x2="314.9" y2="338.6"/>
		<line class="st11" x1="295" y1="317.3" x2="329.5" y2="338.6"/>
		<line class="st11" x1="309.6" y1="317.3" x2="344.1" y2="338.6"/>
		<line class="st11" x1="324.2" y1="317.3" x2="358.7" y2="338.6"/>
		<line class="st11" x1="338.7" y1="317.3" x2="373.2" y2="338.6"/>
		<line class="st11" x1="353.3" y1="317.3" x2="387.8" y2="338.6"/>
		<line class="st11" x1="367.9" y1="317.3" x2="402.4" y2="338.6"/>
		<line class="st11" x1="382.5" y1="317.3" x2="417" y2="338.6"/>
		<line class="st11" x1="397.1" y1="317.3" x2="431.6" y2="338.6"/>
		<line class="st11" x1="411.7" y1="317.3" x2="446.2" y2="338.6"/>
		<line class="st11" x1="426.2" y1="317.3" x2="460.7" y2="338.6"/>
		<line class="st11" x1="440.8" y1="317.3" x2="475.3" y2="338.6"/>
		<line class="st11" x1="455.4" y1="317.3" x2="489.9" y2="338.6"/>
		<line class="st11" x1="470" y1="317.3" x2="504.5" y2="338.6"/>
		<line class="st11" x1="484.6" y1="317.3" x2="519.1" y2="338.6"/>
		<line class="st11" x1="499.1" y1="317.3" x2="533.6" y2="338.6"/>
		<line class="st11" x1="513.7" y1="317.3" x2="548.2" y2="338.6"/>
		<line class="st11" x1="528.3" y1="317.3" x2="562.8" y2="338.6"/>
		<line class="st11" x1="542.9" y1="317.3" x2="577.4" y2="338.6"/>
		<line class="st11" x1="557.5" y1="317.3" x2="592" y2="338.6"/>
		<line class="st11" x1="572" y1="317.3" x2="606.5" y2="338.6"/>
		<line class="st11" x1="586.6" y1="317.1" x2="617.6" y2="336.3"/>
		<line class="st11" x1="602.1" y1="317.3" x2="618.2" y2="327.3"/>
	</g>
	<g id="Divider">
		<rect x="46.2" y="179.4" class="st10" width="570" height="22"/>
		<line class="st12" x1="30.2" y1="190.4" x2="632.2" y2="190.4"/>
	</g>
	<g>
		<rect x="46.2" y="179.4" class="st10" width="570" height="22"/>
		<line class="st12" x1="30.2" y1="186.4" x2="632.2" y2="186.4"/>
		<line class="st12" x1="30.2" y1="193.9" x2="632.2" y2="193.9"/>
	</g>
	<g>
		<rect x="-821.4" y="159.8" class="st10" width="570" height="22"/>
		<rect x="-814.4" y="167" class="st10" width="556" height="7.5"/>
	</g>
	<g class="st2">
		<rect x="-839" y="231.2" class="st9" width="570" height="22"/>
	</g>
	<line class="st13" x1="-830.3" y1="242.2" x2="-277.7" y2="242.2"/>
</g>
</svg>
