<svg id="Layer_1" data-name="Layer 1" xmlns="http://www.w3.org/2000/svg" viewBox="0 0 495.57 476.72"><defs><style>.cls-1{fill:#90a39f;}.cls-2{fill:#91a4a0;}.cls-3{fill:#4f6d67;}.cls-4{fill:#8fa29e;}.cls-5{fill:#4e6c67;}.cls-6{fill:#8ea29e;}.cls-7{fill:#4e6c66;}.cls-8{fill:#476661;}.cls-9{fill:#8ca09c;}.cls-10{fill:#8fa29f;}.cls-11{fill:#81c49e;}.cls-12{fill:#7a918d;}.cls-13{fill:#7cc19a;}.cls-14{fill:#7d938f;}.cls-15{fill:#6f8a83;}.cls-16{fill:#91a3a0;}.cls-17{fill:#7bc199;}.cls-18{fill:#99aaa7;}.cls-19{fill:#768d89;}.cls-20{fill:#7ec29b;}.cls-21{fill:#83c59f;}.cls-22{fill:#61b585;}.cls-23{fill:#9baca9;}.cls-24{fill:#6e8782;}.cls-25{fill:#56ab7b;}.cls-26{fill:#647e79;}.cls-27{fill:#6f8783;}.cls-28{fill:#64917e;}.cls-29{fill:#b5c2bf;}.cls-30{fill:#fefefe;}.cls-31{fill:#56736d;}.cls-32{fill:#607b76;}.cls-33{fill:none;}.cls-34{fill:#4d6c66;}.cls-35{fill:#edf5f1;}.cls-36{fill:#509f74;}.cls-37{fill:#657f7a;}.cls-38{fill:#5f7b76;}.cls-39{fill:#f6f7f7;}.cls-40{fill:#fcfcfc;}</style></defs><title>Papa_Niño_(Verde)</title><path class="cls-1" d="M393.57,313.32h0l0,0h0Z" transform="translate(-31.35 -19.42)"/><path class="cls-1" d="M410.39,463.5c-1.34-1.56-2.7-3.1-4-4.69a2.67,2.67,0,0,0-2.95-.93c-1.42.31-1.28,1.45-1.62,2.35-.6,1.6-.05,3,.59,4.53.92,2.16,2.41,4,3.58,6.39a77.13,77.13,0,0,0-7.59-1.63c-2.2-.51-4.71-.67-6.46-2.55-.42-.45-1.13-.5-1.72-.72-2.15-.8-4.35-.48-6.53-.44a31.8,31.8,0,0,0-8.71,1.37,26.2,26.2,0,0,0-9.76,5.19c-2.24,1.93-5.17,3-7.74,4.6-1.06.65-1.63,1.2-2-.66s-1.68-2.86-3.82-2.86c-3.21,0-6.43-.31-9.64-.43-2.6-.09-5.21-.15-7.8-.08-1.4,0-1.35-.59-1.19-1.62.54-3.57,1-7.16,1.5-10.73,1.46-9.75,2.89-19.5,4.47-29.22.78-4.88,2.11-9.66,2.53-14.6.1-1.2,0-2.71.73-3.52a25.15,25.15,0,0,0,5.36-9.35c1-3.55,2.25-7,3.22-10.61,1.12-4.13,2.07-8.3,3.06-12.46.59-2.5,1.14-5,1.68-7.53.81-3.75,1.39-7.58,2.45-11.26s1.19-7.42,2.23-11c.59-2.09-.65-5.06,2.92-5.6.44-.07.59-.59.51-1-.43-2.07,1-2.5,2.49-2.95a7,7,0,0,0,2-.79c.63-.42,1.57-.9,1.18-1.85a1.75,1.75,0,0,0-2.23-.86c-1,.37-2.21.18-3,.86-1.49-2.78-.29-5.7-.75-8.48-.62-3.84-.17-7.71-.5-11.55-.1-1.12.13-1.76,1.52-1.73,4,.11,8,0,11.94.13,2.4.08,5.11-.37,7.14.82,3,1.75,6.25,2.2,9.49,2.68a3.69,3.69,0,0,0,3.88-2.62c.54-1.48-.62-2.53-1.83-3.25a3.74,3.74,0,0,1-1.42-1.51c-1.24,0-2.15-.24-2-1.83a15.9,15.9,0,0,0-.25-2.35c-.39-5.06-.93-10.12-1.09-15.2-.11-3.43-.45-6.89,0-10.33h0c-.84-1.43-2.72-.09-3.63-1.35l-.16,0a2.63,2.63,0,0,0-1.9.32h0a.82.82,0,0,0-.2.12c-2,1.5-4.37,1.82-6.59,2.64a8.61,8.61,0,0,1-7.57-.75c-3.4-2-3.43-5.56-.05-7.56a9.26,9.26,0,0,1,7.05-1.42c1.39.33,2.79.64,4.18,1,.69.16,1.43.3,1.76-.23a1.15,1.15,0,0,0,.17-.54s0,0,0,0a2.47,2.47,0,0,0,0-.39c-.73-1-.08-2.71-1.63-3.32-.23.83-.59,1.06-1.55.8-4.89-1.34-9.22-1-12.68,3.51-2.7,3.51-1.27,9.38,3.09,10.6,4.88,1.38,9.43.09,13.79-2.16.64-.34.92-1.65,1.87-1,.74.52.65,1.65.63,2.45-.07,4.05.54,8,.78,12.05.14,2.52,0,5.05,0,7.57-1.46-1.48-2.67-3-2.64-5.08a1.71,1.71,0,0,0-1.44-1.89c-.91-.24-1.41.25-1.93,1a2.76,2.76,0,0,0-.06,3.26,55.93,55.93,0,0,0,5.51,8.65,3.89,3.89,0,0,1-1.14.05,98.5,98.5,0,0,1-13.8-6.08c-1.82-1-3.46-2.17-5.19-3.2a22,22,0,0,1-8.74-9c-.42-.35-1-.55-1.17-1.15-1.67-5.34-3.64-10.57-4.25-16.21A59.61,59.61,0,0,0,350.88,265c-.23-.75-.39-1.51.33-1.93,1.61-.93,2.29-2.54,3.33-4.67.67,7.25,2.2,13.67,2.7,20.33.34,4.46.21,9.09,1.27,13.53.78.47.08,2.2,1.57,2a1.75,1.75,0,0,0,1.62-1.55c0-2.5.25-5.11-.4-7.45-.91-3.31-.51-6.67-1.2-10-1-4.64-1-9.5-1.93-14.2s-2.08-9.47-3.21-14.18a16,16,0,0,0-2-5.35c-.45-.67-1.11-1.27-2-.88s-.91,1.11-.7,2a9.38,9.38,0,0,0,1.08,3.58,4.82,4.82,0,0,1,.66,4.07c-1,2.51-.66,5.14-1.3,7.64a4,4,0,0,1-1.88,2.85,12.19,12.19,0,0,1-6.36,1.48c-4.3-.13-8.7-.07-12.93-1.35-4-1.2-7.14-3.43-8.88-7.22a2.76,2.76,0,0,0-2-1.67c-.59-.18-.77.37-.94.83-.38,1-.93,2.21.05,2.89,1.63,1.13,2,3,3.12,4.4.29.37.43,1.08.93,1,2.1-.32,1.72,1.19,1.67,2.28-.24,4.81.68,9.5,1.38,14.21.58,3.92,1.23,7.82,2,11.71,1,5,1.38,10,3.92,14.62A22.91,22.91,0,0,0,341,313.3a31.74,31.74,0,0,0,8.79,2.55c2.56.48,5.18,1.46,7.74,1,2.31-.4,2.46.65,2.44,2.26,0,2-.53,4.13-.16,5.9.73,3.46.25,6.9.58,10.33.42,4.4.11,4.41-4.21,5.4-.68.15-1.27.72-1.95.85A145.73,145.73,0,0,1,329.85,344a153.14,153.14,0,0,1-18.78-.7c-4.78-.54-9.67-.14-14.28-1.9a3,3,0,0,0-2.55.3c-1.29.68-1.41.22-1.43-1-.08-5.2-.28-10.4-.07-15.61.22-5.42.67-10.81.95-16.22s1.71-10.55,2.75-15.76a144.83,144.83,0,0,1,5.14-18.22c3.12-9.22,6.44-18.35,11-27,1.44-2.72,3.5-5.19,4.3-8.14.61-2.27,1.51-2.33,3.44-2a23.36,23.36,0,0,0,10.85-.13c4.23-1.26,8.22-.89,12.33-.37a6.29,6.29,0,0,0,6.28-2.51,6.4,6.4,0,0,0,.13-7.16,16.89,16.89,0,0,0-3.31-3.7,23.68,23.68,0,0,0,4.5-5.3c.7-1.14,1.32-1.78,2.83-1.36a5,5,0,0,0,5.16-1.49c1.47-1.46,1.84-3.32,2.58-5,.51-1.17.94-1.8,2.31-1.93,1.85-.17,2.88-1.11,2.82-3.3-.1-3.24-1.07-6.41-.66-9.68.17-1.3-.19-2.71-1.63-2.68-1.1,0-1.69,1.38-1.62,2.57.14,2.42-.08,4.87.58,7.27.32,1.18.28,2.47-1.67,1.88a2.12,2.12,0,0,0-3,2.28c.2,1.59-.5,2.7-.86,4-.86,3-1.66,3.26-4.64,2-3.8-1.57-5.53-5-7.81-8-1-1.35-1.67-3.25-3.94-2.77-.72.15-.93-.23-.82-.75.54-2.58-.17-5.1-.38-7.64-1.51.06-1.13,1.29-1.14,2.07,0,1.85-.36,3.65-.57,5.47a1.79,1.79,0,0,1-1.77,1.83,6.92,6.92,0,0,1-7.55-3.73,11.43,11.43,0,0,1,2.49-13.35,3.61,3.61,0,0,0,1.31-4.36,10.92,10.92,0,0,1-.23-6.36,2,2,0,0,0-.28-2.24c-1.81,1.08-2.19,3-2.84,4.78-1,2.72.15,5.84-2,8.41-1.84,2.16-2.31,4.92-2.57,7.87-.22,2.51.54,4.73,1,6.95.71,3.52,2.8,6.39,6.86,7a6.61,6.61,0,0,1,2.49.77c-.18,2-.09,4.41-1.15,6s-2.81,3-4,4.69a4,4,0,0,1-4.53,1.89c-3.48-.6-7-.42-10.55-1.18s-6.95-1.54-10.33-2.55c-5-1.49-9.75-3.54-14.59-5.39a40.7,40.7,0,0,1-6.91-2.92c-2.07-1.28-4.36-2-6.47-3.08-4.89-2.6-10.17-4.46-14.95-7.34-2.47-1.48-5-2-4.71-6.31a47.56,47.56,0,0,0-.25-12.08c-.42-2.32-.07-4.68-.06-7a39.53,39.53,0,0,0-.56-7.92c-.59-2.91.61-6-1.18-8.76-.57-.88.06-1,.73-1.26A11,11,0,0,0,262,150c.28-.62,1.11-1.37-.1-2-1-.52-1.87-.57-2.47.46-2.84,4.8-7.94,6.22-12.63,7.3-6,1.39-11.85,3.82-18.1,4.32-.37,0-.7.35-1.07.49a28.86,28.86,0,0,1-11.57,1.72c-.92,0-2.08-1.23-2.66.34a2,2,0,0,0,1.26,2.92c.52.19.74.4.69,1-.47,6.06,2,11.63,3.22,17.37.82,3.79,2.34,7.53,3.48,11.28a78.43,78.43,0,0,0,7.55,16.75c4.46,7.63,9.53,14.83,17.58,19.64a53.43,53.43,0,0,0,12.2,4.9c3.33,1,6.86,1.24,10.33,1.7a73.93,73.93,0,0,0,15.28.52c4-.3,8.12-.1,12.17-.68a105.93,105.93,0,0,1,16.23-.75c.42,0,.81-.07,1.07.28s-.14.7-.37,1c-1.83,2.21-3,4.84-4.35,7.32-1.66,3-2.62,6.42-4.34,9.39-3,5.24-4.63,11-6.51,16.66a170.78,170.78,0,0,0-5.76,21.48c-.69,3.51-1.3,7-1.74,10.58-.42,3.37-.59,6.82-1.23,10.07-1.15,5.8-.59,11.6-.92,17.37-.29,5.09.49,10.24.75,15.36a6.33,6.33,0,0,0,1,3.15,1.41,1.41,0,0,0,1.62.73c.73-.17.51-.84.68-1.34.72-2,.24-3.92-.48-6.05,1,.39,1.13,1.19,2,1.15,2.43-.11,4,.83,3.91,3.56a2.27,2.27,0,0,0,.23.91c1.68,3.89,2.4,8.05,3.53,12.1.93,3.31,1.9,6.61,2.86,9.92.64-.28.4-1.35,1.24-1.51.57.55.56,1.35,1,1.88s.64.85,1.09.6h0l0,0c-1.58-6.75-2.68-13.61-5.39-20.06-.78-1.87-.87-4-2.41-6.13,19.18,2.38,37.89,2.69,56.47-1.42,0,5.3-1,10-2,14.79s-2.43,9.61-3.37,14.45c-.78,4-1.43,8-2.51,11.94-1.7,6.12-2.78,12.41-5.33,18.33-1.18,2.74-1.94,5.49-4.6,7.19-.38.24-.86.89-1.18.38-1.93-3.09-4.81-1.31-7.28-1.49-5.32-.39-10.9.18-14.5-5.17-1.81-2.68-1.78-5.82-2.57-8.74a137.29,137.29,0,0,1-2.65-14c-.38-2.36-1.46-4.73-2.11-7.14-.21-.76-.38-1.55-.53-2.32l-.27.16c-.82.53-.81.89-.46,2.42a20.14,20.14,0,0,1,.38,8.19c-.68-4.07-1-4.76-2.5-6.11-.2.22-.6.49-.57.67,1.11,5.58.15,11.27.89,16.87.64,4.86-.27,10,2.83,14.4a1.28,1.28,0,0,1,0,.91c-.75,3,0,6.06.56,8.94.9,4.51.75,9.09,1.54,13.59.49,2.77.63,5.61.89,8.42.25,2.61.69,5.3.82,7.86.15,3,.43,6.07.55,9.1.21,5.05.87,10.08.71,15.15-.06,1.87-.77,2.12-2.43,1.53a39.67,39.67,0,0,0-14.74-2.62c-6.51.21-12.16,3-18,5-2.68.94-5.4,2.06-8.06,3.21-1.27.55-2.71,1.34-2.5,2.38s2,.87,3.14.87a2.23,2.23,0,0,0,.69-.19c4.55-1.75,9.11-3.48,13.64-5.27a46.88,46.88,0,0,1,11-2.6c4.91-.67,9.41,1,14,2.09,1.3.31,3.57.43,3.79,1.59.54,2.91,2.29,1.64,3.75,1.6,0-1.37-1.42-1.58-2.08-2.41-.54-.66-1.35-1.24-.76-2.27.84-1.46,3.72-2.61,5.3-1.82a10.44,10.44,0,0,0,7.24.58c4.46-1,8.92-.44,13.33.05,2.61.29,5,2.17,7.84,1.33.7-.21,2-.42,2.16.79a1.83,1.83,0,0,1-1.72,2c-5.54.88-11,2.69-16.74.89-3.11-1-6.4-1.34-9.47-2.49-1.17-.43-2.19-.3-1.89,1.34.23,1.26-.33,1.57-1.42,1.53a2.06,2.06,0,0,0-1.77.51,3.83,3.83,0,0,0,2.84,1c5.31.17,10.56,1.2,15.9,1.05,3.14-.09,6.28.16,9.43-.16,3.38-.33,6.39-2.92,10-1.6.17.06.44-.13.65-.21a43.21,43.21,0,0,0,9.59-5.64c3-2.22,5.84-4.67,9.87-4.73a7.42,7.42,0,0,0,2.05-.58,15.89,15.89,0,0,1,9.62-.15c3.59,1.1,7,2.61,10.73,3.41s7.2,1.84,10.9,2.31c.18-1.19-.69-1.87-1.31-2.67-.27-.33-1.05-.68-.59-1.08,1.66-1.48-.11-2.56-.49-3.88.56.22.95.29,1.33.42,2.39.8,2.73.93,2.87-.89,0-.16,0-.34,0-.53s0-.35,0-.55C411.73,465,411.6,464,410.39,463.5ZM353.24,313.09a43.72,43.72,0,0,1-14.93-5.2c-3.61-2.09-5.11-5.85-6.28-9.68-1.65-5.4-2.12-11-3-16.54-.84-5.18-1.9-10.31-2.26-15.56-.12-1.79-.31-2.77,2.43-2,4.38,1.19,9,2.07,13.61.93,1.64-.4,3.45,1,5-.56.19-.19.66.34.63.79a47.5,47.5,0,0,0,1.14,12c1.45,8,3,16.24,8.65,22.57a27.63,27.63,0,0,0,9,7,48.48,48.48,0,0,1,7.74,4.45,17.09,17.09,0,0,0,6.1,2.47,40,40,0,0,1,4.75,1.72c-.72.85-1.34.69-1.77.38-3.44-2.47-7.42-1.62-11.23-2C366.29,313.16,359.77,314.18,353.24,313.09ZM340.82,203.33a26.72,26.72,0,0,0,8.24,11c.88.73.56,1.17,0,1.7a29.19,29.19,0,0,0-4.23,5.72c-.88,1.41-1.8,1.53-2.77-.09-1.07-1.79-2.92-2.88-4.33-4.37-.45-.48-.88-.8-.37-1.59A19.3,19.3,0,0,0,340,205.59,3.31,3.31,0,0,1,340.82,203.33Zm-6.33,16.41c.36-.47.81-.34,1.21,0l2,1.77c-1,.05-1.85.12-2.67.12-.48,0-1.06-.15-1.07-.69A2.28,2.28,0,0,1,334.49,219.74Zm-24.7,14.36c-4,.05-7.93.07-11.91.37a107.85,107.85,0,0,1-11.66.78c-4-.13-8,.31-12-.06-6.28-.57-12.72-.93-18.58-3.15a36.16,36.16,0,0,1-12.76-7.89,60.36,60.36,0,0,1-8.39-10.49,92.7,92.7,0,0,1-7.55-14.79c-1.47-3.55-2.54-7.24-3.93-10.82s-1.69-7.53-2.66-11.26a74.2,74.2,0,0,1-1.81-9.21c-.23-1.8.68-2.41,2.33-2.39,4.76.08,9.08-1.78,13.53-3.05,1.31-.38,2.65-.82,3.92-1,4.49-.81,8.68-2.51,13-3.79,1.16-.35,1.65-.21,1.62,1.07,0,1.43,0,2.87,0,4.31.29,4.85.56,9.7,1,14.55.41,4.61.2,9.27.25,13.9,0,1.55.15,3.08.08,4.65-.16,3.5,2.82,4.84,5.25,6,9.9,4.89,19.79,9.86,30,14.11a105,105,0,0,0,15.47,5.48c4.51,1.09,9,2.05,13.58,3,3.31.67,6.74.19,10.11.3a131.32,131.32,0,0,1,14.8,1.38c2.12.31,5.13,4.31,4.48,6.27-.57,1.72-2.06,1.94-3.73,1.82-2-.16-4-.8-6-.79-4.68,0-9.19,1.58-13.89,1.36S314.61,234,309.79,234.1Zm-.15,168.71a62,62,0,0,1,.14-10.46c-.09,3.21,1.4,6.06,1.87,9.15s2.85,5.36,4.3,8.05C312.21,409.09,309.9,405.36,309.64,402.81Zm2.42,9.56c3.69.49,4.92,1.29,5.12,4.74.3,5.39,1.32,10.69,1.7,16.07.29,4.14.71,8.28,1,12.43.46,6.46.18,12.93.34,19.39,0,.88,0,1.75,0,2.63,0,1.08.44,2.16,1.43,2.11a2.29,2.29,0,0,0,2.07-2.29c0-2.25-.24-4.47-.07-6.74a64.47,64.47,0,0,0-.21-9.42c-.53-7.61-1-15.22-1.86-22.82-.63-5.53-1.81-11.05-1.58-16.77,5.59,1.8,11.11,1.43,16.79,1-1.51,1.63-1.67,2.76,1.07,2.6,1-.06.74.53.76,1.25.07,2.27-1.07,4.23-1.36,6.44-.76,5.75-2.09,11.4-2.87,17.17-.47,3.45-1.15,6.94-1.72,10.41-.87,5.24-2.28,10.41-2.37,15.78,0,1.65-.92,3.17-.81,4.9.07,1.32-1.22.74-1.75.68-2.74-.29-5.47.95-8.2,0-.67-.24-1.1.4-1.87.67C316,452.47,315,432.34,312.06,412.37Z" transform="translate(-31.35 -19.42)"/><path class="cls-2" d="M242.6,76.77l0-.07,0,.18,0,0,.16.08Zm0,0,0-.07,0,.18,0,0,.16.08ZM285,44.37a11.83,11.83,0,0,0-4.11-7.78c-.75.72-.29,1.48-.1,2.23.14.54.39,1.29-.1,1.57-2,1.13-1,2.52-.55,3.94.78,2.48,0,3.37-2.06,4.79-1.63,1.11-2.66,0-4-.09a95.26,95.26,0,0,0-11.94-.54c-.8,0-1.8,0-2.22.66-1.08,1.75-3.08,2.16-4.46,3.34-2.14,1.82-4.21,1.41-6.44.83-1-.26-1.93-.78-2.92-1.08-1.49-.44-2.57.06-2.92,1.59A18.18,18.18,0,0,1,241,58.57a6.1,6.1,0,0,0-1,2.9c0,3.42-.09,6.84-.25,10.26l.14.41c.12.33.23.65.34,1,0,0,0,0,0,0h0l2.37,3.57.79-6.52a61.83,61.83,0,0,1,1.17-10.93c.42-2.81,1.84-3.9,4.35-2.59,3.53,1.84,6.62,1.26,9.43-1.26A20.63,20.63,0,0,1,266,50.9a9.69,9.69,0,0,1,8.28,1.5c.85.58.59,3.2.4,4.84-.63,5.36-1,10.73-1.26,16.11-.07,1.27-.22,1.77-1.71,1.72-4.48-.16-5.61,1.14-5,5.66.21,1.42,0,2.83-1,3.43-1.17.7-2.31-.42-3.26-1.3-1.4-1.3-5-1.18-6.16.28C254.79,85,253.35,86.9,253,89.4c-.23,1.56-1.13.62-1.65.2-2.68-2.17-4.47-5.07-6.27-7.94-.89-1.41-1.72-2.85-2.58-4.28l.06-.5c-2.62-1.38-3.08-1.18-3.83,1.49-2,2.31-2.2,5.28-2.86,8a23.35,23.35,0,0,0-.84,8.23c.46,3.52-3.05,4.5-3.66,7.18-.31,1.32-1.61,1.93-2.39,2.9-1.91,2.36-3.07,5.16-4.89,7.58a71.09,71.09,0,0,0-6.51,10.57,48.63,48.63,0,0,1-3.11,6.11c-4.34,6.05-7.09,12.94-10.63,19.4-2.84,5.18-4.41,11-7,16.39-4.69,9.62-7.38,19.92-10.2,30.13a89,89,0,0,0-2.51,12.3c-.69,5.24-1.55,10.41-1.76,15.73-.25,6.42-.19,12.8.1,19.2.18,4.15.21,8.32.75,12.43.49,3.81,1.54,7.67,1.1,11.43-.58,4.91.31,9.63,1,14.35a166.42,166.42,0,0,0,3.54,17.08c.77,3.09,1.42,6.22,2.27,9.28.9,3.26,2.16,6.22.49,9.68s-.75,7.18-1.55,10.68c-1.24,5.46-2.23,11-3.4,16.43-1.43,6.64-3.13,13.24-4.21,20-.67,4.17-2,8.28-3,12.39a132.57,132.57,0,0,1-3.74,13.08c-.63,1.71-.5,3.72-1.51,5.09-1.94,2.65-2.29,5.86-3.43,8.74-2.33,5.88-4.59,11.81-7,17.63-2.05,4.85-4.51,9.56-6.67,14.4-2.44,5.49-6.15,10.26-9.06,15.49-.54,1-1.51,2.08,0,2.79,1.3.62,2.48,0,2.93-1.53.24-.84.49-1.86,1.52-1.91s1.13,1,1.65,1.57c3.36,3.7,5.86,8.05,11.28,9.79a11.53,11.53,0,0,0,12.33-2.66c4.84-4.42,6.71-10.67,9.12-16.47,3.14-7.52,6.27-15,9.79-22.4,4.53-9.51,9-19,12.63-28.94.94,1.44.31,3.1.46,4.67a59.05,59.05,0,0,1,.05,10.55c-.31,3.75-.05,7.51-.55,11.28-.58,4.42-.2,9-.26,13.48s-.24,9.05-.25,13.57a24.71,24.71,0,0,1,.07,4.14c-.74,4.5-.25,9.09-.1,13.63a1.45,1.45,0,0,0,1.72,1.54,1.35,1.35,0,0,0,1.39-1.57c0-3.41.12-6.81.14-10.21,0-4.49-.34-9,.05-13.46.45-5.29.25-10.6.72-15.89.34-3.91-.58-7.95,0-11.68s-.09-7.14.35-10.73c.68-5.56.07-11.28,0-16.93a22.45,22.45,0,0,0,.06-3.75c-.9-4.81-.49-9.73-1.63-14.54-1-4.32-1.41-8.83-2.87-13-1.64-4.68-2.68-9.52-4.38-14.18-1.24-3.4-1.9-7-3-10.46-2.2-6.77-4.66-13.45-6.21-20.41a8.08,8.08,0,0,0-.56-1.56c-1.5-3.15-1.84-6.62-2.76-9.93a113.57,113.57,0,0,1-2.91-15.4c-.38-2.75-1.53-5.39-1.08-8.24,3.9,2.48,8,4.55,12.69,4.91,3.94.3,7.88.62,11.82.84,4.34.23,8.64-.33,13-.55,3.15-.16,6.21-.85,9.38-.93A50.4,50.4,0,0,0,244.46,274c3.29-.77,6.5-1.87,9.76-2.79,1.14-.31,1.69-.1,1.61,1.39-.14,2.37-1,4.7-.86,7,.27,5.56-1.19,10.94-1.63,16.41-.26,3.34-.53,6.89-1.13,10.33a145.13,145.13,0,0,0-1.47,17c-.4,7.44-1.4,14.83-1.69,22.28-.07,1.84-.29,3.74-.45,5.62-.37,4.28-.81,8.56-1.21,12.84-.37,4-.65,8-1.15,11.95-.15,1.17-.32,2.33-.44,3.51-.28,2.81-.47,5.66-.83,8.43-.49,3.8-1.46,7.58-2.14,11.39-1,5.6-1.42,11.37-3,16.81-1.42,5-1.47,10.15-2.88,15.15a86.22,86.22,0,0,0-2.88,13.37c-.42,3.69-2.28,6.87-3.76,10.11a11.48,11.48,0,0,1-7,6c-2.69,1-5.09.52-7.66.28-1-.09-2.26-.28-2.49,1.18s.82,1.82,1.86,2.09c5.76,1.49,10.78-.05,15.17-3.88,4.12-3.6,5.38-8.73,6.74-13.66,1.47-5.31,2.35-10.78,3.55-16.16,1.93-8.68,3.09-17.51,5.12-26.17a30.76,30.76,0,0,0,1.06-4.58c.52-7.13,2.21-14.11,2.5-21.27.17-4.34,1.41-8.56,1.31-13a55,55,0,0,1,.46-6.07c.53-6,1.54-11.89,1.86-17.85q.35-6.62.93-13.2c.36-4.22.95-8.43,1.11-12.66a116,116,0,0,1,1.28-13c.49-3.34.57-6.72.91-10.06.21-2.11-.15-4.54.41-6.45,1.08-3.77.4-7.67,1.5-11.34.73-2.42-.09-5.47,2.89-7A12.34,12.34,0,0,0,268,260c1.63-5.54,1.54-11.41,3.1-17,.25-.89.7-2.27-.66-3-.54-.28-1.15-.71-1.77-.15a3.65,3.65,0,0,0-1.41,2.92c.42,5.58-1.44,10.8-2.51,16.12a8.17,8.17,0,0,1-2.75,4.9c-4.93,4-10.93,5.23-16.83,6.65-2,.49-4.11.81-6.17,1.13-4.81.77-9.6,1.63-14.48,2a106.32,106.32,0,0,1-16.26-.09c-4.92-.4-10-.1-14.57-2.44-2.06-1.06-4.92-1.4-5.47-4.22a41.53,41.53,0,0,1-1-6.05c-.23-4.31-.92-8.58-1.07-12.92-.1-3-.67-5.85-.59-8.87a41.37,41.37,0,0,0,.05-6.1,60.19,60.19,0,0,1,0-12.73C186,215.07,187,210,187.77,205a15.76,15.76,0,0,1,.78-3.92c1.4-3.21,2-6.66,2.86-10,1.34-5,2.69-9.92,4.43-14.75,2.64-7.35,5.66-14.55,8.82-21.7,3.48-7.91,7.73-15.39,11.77-23,2.85-5.37,6.33-10.35,9.39-15.59a118.4,118.4,0,0,1,10.47-15.54c.89-1.07,2.6-2.44,2.05-3.53-1-1.92.14-3.33.26-5a48.92,48.92,0,0,1,2.2-10.9c6.39,9.85,13.65,18,26.1,20.19-2.06,1.37-2.61,3.29-4.07,4.37-2.06,1.52-3.05,3.82-4.39,5.84-.92,1.38-1.24,3.15.69,4.37a2.47,2.47,0,0,1,1.09,1.52c.88,3.8,2,7.59,2.68,11.37,1.32,7,3,14,3.8,21.06.5,4.49,1.21,9,1.61,13.46.29,3.31.15,6.65.37,10,.32,4.85.36,9.72.42,14.55,0,2.36.73,4.89-.16,7.36-.42,1.2,0,2.69,0,4a1.45,1.45,0,0,0,1,1.49c.76.17,1.29-.38,1.66-1.07a4.48,4.48,0,0,0,.54-2.29c-.11-3.43.4-6.82.12-10.3-.45-5.58.25-11.26-.39-16.8-.59-5.12-.35-10.28-1.25-15.36a39.83,39.83,0,0,1-1.06-6.62c0-5.74-1.95-11.15-2.71-16.76a62.36,62.36,0,0,0-2.32-9.62c-.64-2.11-.84-4.4-2.4-6-1.21-1.24-1-2.22-.29-3.41.31-.55.67-1.08,1-1.63,1.93-3.36,5-5.79,7.43-8.69,1.14-1.36,1.65-2.31-.62-3A81.53,81.53,0,0,1,257,93.89c-1.08-.57-1.41-1.1-1.21-2.18a22.55,22.55,0,0,0,.42-2.57c.13-2,1.6-2.92,3-3.79s1.62.88,2.44,1.33a18,18,0,0,1,1.58,1,4,4,0,0,0,5.14-.48c1.87-1.69,1.47-4,1.7-6,.26-2.26,1.52-2.55,3-2.29,2.39.44,3.26-1.22,3.39-2.71.54-6.39.77-12.81,1.34-19.2.29-3.2.47-6.23,3.92-7.74a2.54,2.54,0,0,0,1-.69C283.71,47.31,285.17,46.08,285,44.37Zm-90.91,276.2A12.58,12.58,0,0,1,195,318c.53,5,2.35,9,3.67,13,2.19,6.74,4.24,13.53,6.28,20.31,2.23,7.41,4.38,14.94,4.12,22.85a14.33,14.33,0,0,0,.36,2.11,14.11,14.11,0,0,1-1.58,8.25c-2.4,5-4.08,10.39-6.29,15.54-1.63,3.79-3.24,7.66-5,11.37a59.7,59.7,0,0,1-3.6,7.08c-1.51,2.33-2.23,5.21-3.34,7.83-1.24,2.95-2.82,5.74-4,8.74a147.52,147.52,0,0,1-6.19,15.23c-1.59,3.12-3.59,6.4-7.33,7.69s-9.15-.88-11.82-4.54c-1.08-1.47-2.27-2.87-3.36-4.33a4,4,0,0,0-3.43-1.75,225.87,225.87,0,0,0,10.65-20.12c1.95-4.05,3.45-8.3,5.2-12.4a146.08,146.08,0,0,0,6-15.13c1.63-5.46,3.82-10.77,5.26-16.31,1.68-6.46,3.65-12.84,5.08-19.4,1-4.59,1.79-9.26,3.07-13.83a136.28,136.28,0,0,0,3.95-18.61C193.21,328,193.81,324.28,194.06,320.57ZM242.73,77l-.13-.21,0-.07,0,.18,0,0Zm-.13-.21,0-.07,0,.18,0,0,.16.08Zm0,0,0-.07,0,.18,0,0,.16.08Z" transform="translate(-31.35 -19.42)"/><path class="cls-3" d="M280.86,36.59a2.73,2.73,0,0,0,.46,1.79c.76,1.54.58,2-1.08,2.93A.76.76,0,0,0,280,42.5c.76.85.67,2,1,2.91.61,2-.56,3.34-2.37,4.22-1.63.8-2.57.64-4.38.19-4.08-1-8.51-.56-12.8-.71-.24,0-.65,0-.69.07-1,2.57-4,2.7-5.59,4.53a2,2,0,0,1-1.9.87,17.33,17.33,0,0,1-7.61-2,1.23,1.23,0,0,0-1.9,1.07c.29,1.46-.58,2.33-1.21,3.22a11.75,11.75,0,0,0-2,8.36,25,25,0,0,1-.43,6.4c.49,1.36-.23,2.49-.87,3.5-1.14,1.77-3.2,1.48-5-.59a9.56,9.56,0,0,1-3.76-3.46c-1.59-3.16-4-5.75-6-8.62s-2.58-5.94-.41-9.08a3.6,3.6,0,0,0,.77-3.36,3,3,0,0,1,.74-2.67,21.15,21.15,0,0,1,6.28-5.82,6.89,6.89,0,0,0,3.17-5.09c.71-5.12,2.72-9.47,7.48-12.11a6.13,6.13,0,0,0,1.84-1.85c1.42-1.92,2.64-2.31,4.43-.95a16.62,16.62,0,0,0,7.9,3.09c1.34.19,2.25,1.18,3.2,2s2.15,1.44,3.49.8a4,4,0,0,1,2.57.06,5,5,0,0,0,3.23-.39,5.32,5.32,0,0,1,6.43,1.58c1.45,1.86,2.58,3.94,3.86,5.92A3.29,3.29,0,0,0,280.86,36.59Z" transform="translate(-31.35 -19.42)"/><path class="cls-4" d="M177.38,487.32c-3.67-2.4-7.81-4-11.23-6.84-6.36-5.25-11.92-11.35-17.94-17A11.29,11.29,0,0,0,138,460.58c-3.4.55-6.5,2.34-10,2.51a1.51,1.51,0,0,0-1.57,1.25c-.15,1.64-.55,3.41-.12,4.91.83,2.85,1.6,5.74,2.63,8.55.53,1.47,1.73,2.81,1.69,4.6a8.19,8.19,0,0,1-2.16-1.29,83.76,83.76,0,0,0-8.67-5.67c-2.45-1.26-5.48-1.2-7.79-3-.84.44-1,1.39-1.54,2a1.36,1.36,0,0,1-1.69.42.76.76,0,0,1-.57-.67c0-.67.49-.9,1-1.06,1.62-.46,1.31-1.08.13-1.76l-.14.06-.17.07a27.22,27.22,0,0,1-6-.57c-6.81-.81-12,2.9-17,6.73-2.74,2.1-5.17,4.77-8.74,5.22-5.39.67-10.79,1.5-16.27,1.06-1.25-.33-2.49.16-3.74,0-1.23.58-1.75-.42-2.31-1.12-3.26-4-6.57-8-9.43-12.34-.81-1.24-1.08-2.8-2.29-3.78s-1.34-2.25-1.21-3.83c.17-2.23,1.56-4.42,1-6.5-.69-2.82-.46-5.69-1.39-8.57-1-3.23-1.87-6.44-3.57-9.44a4,4,0,0,0-4.11-2.22c-1.53.17-2.14,1.67-2.39,3.11a26.65,26.65,0,0,0,1,12.74,69.37,69.37,0,0,0,6.77,14.55,143,143,0,0,0,8.35,12.59c1.44,1.92,3.24,3.58,4.7,5.74-5.55.29-10.67.12-15.31-2.77a4,4,0,0,0-2.06-.52,2,2,0,0,0-2.06,1.65c-.32,1.13.36,1.35,1.15,1.68A49.2,49.2,0,0,0,46,488.3c2.65.42,5.22-.71,7.82-.3,2,.31,4,1.47,5.85-.4a1.42,1.42,0,0,1,.91-.25,53.33,53.33,0,0,1,7.57-.23c4.83.5,9.23-1.16,13.71-2.36a10.48,10.48,0,0,0,3.9-2.24c3.82-3.24,7.48-6.78,12.7-7.75,2.39-.44,5.21-1.28,7.09,0,2.54,1.7,5.23,1.32,7.81,2,.46.12,1,0,1.4.25,4.61,2.68,9.76,4.49,13.69,8.29.67.64,1.5.93,2.15.39,1.92-1.61,3,.37,3.34,1.23,1.4,3.63,4.67,5,7.62,6.45,7.52,3.59,15.68,2.77,23.71,2.61a47.77,47.77,0,0,0,8-.88,10,10,0,0,0,4.82-2.16C180.2,491.08,179.79,488.9,177.38,487.32ZM39.34,457a2.38,2.38,0,0,1-2-1.73,83.69,83.69,0,0,1-2.69-9.3,9.67,9.67,0,0,1,.14-4.11c.08-.44.28-.8.68-.84.2,0,.48.33.65.56C38,444,40,453.73,39.34,457Z" transform="translate(-31.35 -19.42)"/><path class="cls-5" d="M340.37,194c-1.34,2.15-.27,4.65-1,6.93-.35,1.1-.48,3.3-1.05,3.09-1.73-.63-3.11.88-4.79.17-3.71-1.57-6.69-6.33-5.88-10.64.67-3.57,1.88-6.4,4.68-8.57.48-.36,1-.79.77-1.32-1.69-3.39-1.13-6.86-.48-10.34a12.6,12.6,0,0,1,3.28-2.94c2-1.13,4.15-1,6.29-1.06a19.18,19.18,0,0,0,7.52-1.1,6.07,6.07,0,0,1,5.52.58c2.34,1.35,4.94,2.2,7,4.06.86.77,2.1.7,3.18,1,2.9.68,4.16,2.4,3.9,5.37A3.71,3.71,0,0,0,370,182c1.4,1.88.41,3.83-.56,5.6-.84,1.52-2.31,1-3.72,1.22-3.63.52-6.82-1.08-10.23-1.44a9.7,9.7,0,0,0-6.87,1.43,7.39,7.39,0,0,1-3.54,1.41,5.07,5.07,0,0,0-4.73,3.74Z" transform="translate(-31.35 -19.42)"/><path class="cls-6" d="M421.38,459.05c1.76-.39,3.48-1.47,5.15.48s1,3.64.13,5.5a31.66,31.66,0,0,1-6.32,8.88c-.4.41-.87.84-.71,1.4s.87.51,1.42.54a49.2,49.2,0,0,0,20.64-2.93,25.43,25.43,0,0,1,6.28-1.3c.85-.1,1.76-.36,1.95-1.13.23-.95-.88-1.15-1.5-1.57-1.37-.92-2.83-1.72-4.13-2.73-.88-.69-1.65-1.68-.74-2.86s1.73-.47,2.65.16,2.08,2.6,3.24,2c1.46-.81-.07-2.61.12-3.94a37.89,37.89,0,0,1,2.36-9.34c2.07-5,4.64-9.73,5.7-15.09a3.28,3.28,0,0,0-.47-2.89,14.53,14.53,0,0,1-2.41-7.11c-.17-1.66.2-3.64,2.2-4s3.08,1.56,3.51,2.94a21.65,21.65,0,0,1,.26,12.71c-1.69,6-4.76,11.44-6.56,17.36a20.37,20.37,0,0,0-1,8.33,16.21,16.21,0,0,0,3.37-3.48c.85-1.3,2.1-1.68,3.22-.74s-.05,1.93-.63,2.66c-1.57,2-3.21,3.89-3.9,6.61a100.45,100.45,0,0,1,13.4-.43c1.34.05.88-1.18.71-1.8-.58-2.05-.27-4.13-.42-6.19-.11-1.59,1.05-2.52,2.17-3.18a1.71,1.71,0,0,1,2.63.72c-.65,1.06-2.29.43-2.81,1.52s.87,2,.86,3.08c0,2.32.48,4.76-1.13,6.78-.66.84,0,1.71-.3,2.51-3.16.29-6.31-.28-9.48-.14a71.84,71.84,0,0,0-11.89,2c-2.73.59-5.23,2-7.8,2.64-8,1.84-16.05,3.92-24.24,1a2.73,2.73,0,0,0-1.87,0c-2.06.76-3.11-.31-3.86-2,.86-.58,1.46.23,2.17.43s1.27.3,1.61-.46c.47-1-.43-.86-1-1.08-1.52-.62-.86-1.45-.06-2.09a3,3,0,0,1,2.73-.2c1.27.3,2-.2,2-1.54.4-1.74,1.84-2.87,2.59-4.41a7.14,7.14,0,0,0,.71-2.45c-.53-.45-1.27.25-1.75-.35-.39-1.49.33-2.79.67-4.16A1.25,1.25,0,0,1,421.38,459.05Z" transform="translate(-31.35 -19.42)"/><path class="cls-7" d="M383,275.43c-1.58-.68-.38-2.46-1.35-3.39a80.2,80.2,0,0,1-2.86-8.42c-.73-2.43-1-4.92-1.54-7.36a15.71,15.71,0,0,1,1.07-10.41,3.41,3.41,0,0,1,1.82-1.8c1-.15,1.66.28,1.48,1.27a2.57,2.57,0,0,0,1,2.69,2,2,0,0,1,.24,2.8c-.33.54-.7,1.06-1,1.62s-.76,1.43-.18,2,1.12-.27,1.66-.51c3.33-1.43,6.49.39,6.44,4,0,1.79,1.2,2.87,1.59,4.36.63,3.06,0,6.1-.17,9.15-.06.84-.53,1.78.38,2.4,1.09.75,1.69-.36,2.47-.78h0c4.52-1.18,9.05-1.66,13.45.38,2.11,1,3.37,2.93,4.39,4.92.83,1.62,0,3-1.28,4a14.79,14.79,0,0,1-6.65,2.51,1.83,1.83,0,0,1-1.71-.66,6.19,6.19,0,0,0-7.34-1.64,2.54,2.54,0,0,1-1.83.32,2.81,2.81,0,0,0-2.84.8h0c-1-1-2.72,1-3.41-.94-.37-.46-.86-.31-1.31-.24-1.7.27-2.53.25-1.9-2.08C384,278.92,383.05,277.11,383,275.43Z" transform="translate(-31.35 -19.42)"/><path class="cls-8" d="M212.15,486.94l-1.35-.58c-1.05-.54-2.27-.78-3.1-1.72a1.66,1.66,0,0,1-.5-1.73,1.16,1.16,0,0,1,1.35-.74c3.42.52,5.38-1.59,7.31-3.87a8.06,8.06,0,0,1,6.88-2.72c3.16.25,6.14-.55,9.21-.68a7.55,7.55,0,0,1,4.37.81c1.75,1.72,4.13,1.32,6.24,1.84,3.45.85,7.1.66,10.49,1.9,1.71.62,3.1,1.58,3.06,3.49s-1.61,2.38-3.11,2.81c-3.17.89-5.74,2.9-8.51,4.55-1.15.54-2.35.22-3.52.11-5.28-.46-10.62-.63-15.67-2.51-.94-.34-1.78-.54-2.56.42-.48.6-1.3.51-2,.38C217.86,488.16,214.89,488.13,212.15,486.94Z" transform="translate(-31.35 -19.42)"/><path class="cls-9" d="M236.18,475.88a18.21,18.21,0,0,0-8.49.37c-2.52.7-5.11-.55-7.74.36a8.94,8.94,0,0,0-4.59,3.16,6.77,6.77,0,0,1-6.66,3c-.41,0-.86-.16-1.08.22s0,.89.4,1.24c.86.8,2.13,1.09,2.78,2.16-3.75-.14-7.21-1.47-10.77-2.45-6.45-1.79-12.75-4.53-19.73-3.39a43.94,43.94,0,0,0-5.67,1.79c-.89.27-2,.68-2.49-.54s.7-1.4,1.42-1.87a19.22,19.22,0,0,1,11.61-2.78c5.59.22,10.77,2,16,3.62,1.42.46,3.06.1,4.3,1.24a1,1,0,0,0,.84-.14c.54-1.94,2.52-2.29,3.76-3.44a20.85,20.85,0,0,1,14.46-5.84,116,116,0,0,1,12.6,1.07c3.33.35,6.76.33,10.15.57s6.75.41,10.1.82c2.23.27,4.34,3.11,4.82,5.35,1.44,6.8-4.64,10.21-9.7,10.57-3.94.28-7.81,1.09-11.84.83-3.63-.23-7.26-.57-10.89-.84a121.92,121.92,0,0,1-12.45-1.78,10.68,10.68,0,0,1-5.15-2.21c2.95.48,6,.36,8.88,1.18.57.16,1.54.61,1.52-.68,0-1.65.91-1,1.7-.77,4.09,1.31,8,2.86,12.6,2.47a25.13,25.13,0,0,1,5.93.8,2.36,2.36,0,0,0,1.58-.23,101.63,101.63,0,0,1,12.45-2.87c1.22-.18,2.61-.59,3-2s-.8-2.28-1.82-3.06a1.37,1.37,0,0,1-.36-.31c-2.9-4.46-7.49-4.18-11.9-4.05a24.57,24.57,0,0,1-8.24-.88A3.78,3.78,0,0,1,236.18,475.88Z" transform="translate(-31.35 -19.42)"/><path class="cls-10" d="M90.39,376.58c-1.77-3.8-6.19-7.08-9.39-5.94a13.45,13.45,0,0,0-9,15,58.18,58.18,0,0,0,2.44,11.88c2,5.52,5.1,10.43,7.69,15.61,1.33-1.12,1-2.75,1.22-4.19,1.24.68,2.47,1.31,2.83,2.87a1,1,0,0,0,1.28.74,154.36,154.36,0,0,0,4.8-16A30,30,0,0,0,90.39,376.58Zm-1.21,16.28c-.78,3.84-1.21,7.76-2.24,11.56-.17.61-.09,1.5-1,1.29s-.13-.89-.11-1.39c.12-4.82,1-9.61-.54-14.47C84.16,386,83.76,382,83.13,378c-.22-1.4-.87-2.21-2.17-1.72-1.07.4-1.25,1.23-.79,2.63A67.91,67.91,0,0,1,81.75,387a109.82,109.82,0,0,1,1.14,11.59c.21,2.33-1,4.25-.73,6.43a1,1,0,0,1-1.09-.62A109.83,109.83,0,0,1,76.8,394c-1.09-3.54-1.26-7.14-1.74-10.73-.4-3,4-9,7-9.54,1.75-.3,4,1.54,5.35,4.27A22.73,22.73,0,0,1,89.18,392.86Z" transform="translate(-31.35 -19.42)"/><path class="cls-10" d="M526,444.11c1,1.65.51,3.49.24,5.12q-2.49,15-6.43,29.68c-.69,2.58-1.38,5.17-2.22,7.71-.36,1.07,0,1.86.86,1.59,1.39-.45,2.41.67,3.67.41.89-.18,1.35.58,1.57,1.18s-.55,1-1.08,1.31c-2.11,1.07-4.25.41-6.31-.1-3.27-.8-6.5-1.75-9.71-2.75a16.7,16.7,0,0,1-4.2-2.2c-4-2.65-7.86-5.5-12.14-7.56-4.45-2.15-9-4.44-14.11-4.81a7.53,7.53,0,0,1-2-.74c-.57-1.68.59-1.7,1.66-1.64a38.82,38.82,0,0,1,4.62,1,38.85,38.85,0,0,0-4.52-1c-1-.1-1.64-.58-1.67-1.63s.61-1.43,1.48-1.56,2.05-.44,3,.18c.2,1.61.2,1.61,2.09,2.19-.79-.67-1.37-1.15-1.56-1.9.51-1.44,1.59-1.17,2.73-1,2.25.34,3.57-.72,3.64-2.55.06-1.47-1.34-1.37-1.91-2.13,1.56-1.8,2.77-.47,3.75.6,1.44,1.56.31,3-.67,4.22a6.42,6.42,0,0,1-2.61,2c-2.14.75-1.32,1.33-.14,2.23,2.92,2.19,6.56,2.92,9.62,4.82,3.25,2,6.65,3.84,9.68,6.16s6.48,2.63,9.73,3.87c1.23.47,1.45-1,1.73-1.85.81-2.3,1.12-4.77,1.84-7.06,1-3,1.26-6.19,2.11-9.24a77,77,0,0,0,2.44-10.61c.45-3.61,1.77-7.18,1.25-10.91C524.92,447.63,524.9,445.21,526,444.11Z" transform="translate(-31.35 -19.42)"/><path class="cls-11" d="M78.43,429.53c-.87-.33-1-1.16-1.34-1.88-.89-2.07-1.61-4.19-2.63-6.24-2.39-4.83-4.71-9.64-7.93-14-2.26-3.09-4.75-5.74-8.41-7a7.33,7.33,0,0,0-7.18,1.32c-1.86,1.51-2.07,3.92-1.72,6.16.69,4.47,3.28,8,6.24,11.2.75.81.9,2.12,2.07,2.52,2.09.73,3.31,2.61,4.89,3.93,2.59,2.18,6,3.25,8.1,6,.16.22.75.12,1.15.16,0-2.33-2.21-3.25-3.43-5.28,2.18,1.48,4,2.81,6.19,3.36a2.05,2.05,0,0,1,1.43,1.45c.76,2,1,2.17,2.25.81a2.61,2.61,0,0,0,.22-.24,2.39,2.39,0,0,0,.22-.23C78.8,430.88,79.51,430.15,78.43,429.53ZM60,418.9a21.73,21.73,0,0,1-7.33-11c-.5-1.75.39-3,1.36-4.05s2.57-.61,3.57-.08a19,19,0,0,1,7.09,6.58c2.51,3.86,4.43,8,6.82,11.94,1,1.57,1,3.6,2.19,5.18l-.67.38a70.18,70.18,0,0,1-5.3-6.57c-1.33-2.08-3-3.89-4.25-6-.44-.75-1.05-1.95-2.16-1.3s-.85,2-.37,3c.83,1.61,1.92,3.08,3,4.7C61.66,422.07,61.15,419.83,60,418.9Z" transform="translate(-31.35 -19.42)"/><path class="cls-4" d="M78.35,431.29c0-.59.56-1.15.08-1.76a21.66,21.66,0,0,0,3-8.79c.17-1.06,1.52-1.65,1.3-2.92,2.74,1.4,2.74,1.4,3.89-1.95a1,1,0,0,1,.45-.53c.81.76.82,1.88,1.28,2.79.74,1.46.26,2.37-1.33,2.46a2.54,2.54,0,0,0-2.4,2.25,74.12,74.12,0,0,1-4.28,12.23,81.52,81.52,0,0,1-6.1,11.5c-3.57,5.43-4.55,11.28-4.71,17.52-.13,5.27,2.44,8.9,6.54,11.79a9.3,9.3,0,0,1,3,3.33c.39.76.51,1.57-.34,2.12a1.87,1.87,0,0,1-2.21-.14c-2.91-2-5-4.82-7.54-7.15-1.55-1.41-2-3.5-2.37-5.36a29,29,0,0,1,1.7-17.14c2.16-5.23,5.13-10,7.54-15.07,1.19-.39,2.15-.82,1.78-2.47C77.46,433.11,78.19,432.22,78.35,431.29Z" transform="translate(-31.35 -19.42)"/><path class="cls-1" d="M279.48,34.65a17.86,17.86,0,0,1-3.35-4.47C274.35,27.24,272,27,268.79,28c-2.46.8-5.38.21-8.1.22-.06,0-.14-.08-.18-.14-1.76-2.63-4.72-3.1-7.39-3.6a9.91,9.91,0,0,1-4.25-2.23c-2-1.44-2.91-1.25-4,1-.5,1.05-1.52,1.4-2.32,1.95-2.87,2-5.21,4-5.88,7.82-.26,1.42-.81,3-1.11,4.48a6.63,6.63,0,0,1-3.35,4.63,20.15,20.15,0,0,0-5.68,5c-.85,1.14-1.73,2.19-.74,3.83.85,1.41-.79,2.4-1.39,3.2-2.18,2.91-1.09,5.31.46,7.84s3.69,4.34,5,6.92a4.63,4.63,0,0,1,.61,2.24c-.68-.08-1.48.23-1.92-.6-1.58-2.91-4.42-4.88-5.54-8.25-.8-2.42-.69-4.73-.79-7.1-.21-5.19,3.51-8.56,6-12.5a44.79,44.79,0,0,0,5.07-11.06,17.4,17.4,0,0,1,10.46-11.46c3.89-1.5,7.91-.61,11.45,1.86a55.28,55.28,0,0,0,5,3.15,10.8,10.8,0,0,0,8,1.27c4.76-1.22,6.84-.14,9.23,4.27C278.14,32,279.17,33.14,279.48,34.65Z" transform="translate(-31.35 -19.42)"/><path class="cls-2" d="M340.38,194c-.36-2.75,1.29-3.89,3.62-4.23s4.08-1.55,6.09-2.44c3.35-1.48,6.79-.73,10.13.42.14,0,.22.28.35.3,2.51.39,5.06,0,7.57,0,1.33,0,1.83-2.57,1.84-4.28,0-.48.76-1.65-1-1.43-.62.08-.67-2-.56-2.92.41-3.42-.53-4.88-3.92-5.09a6.49,6.49,0,0,1-4.47-2.27c-2.46-2.58-8-3.83-11.33-2.63a7.9,7.9,0,0,1-2.55.49,66.11,66.11,0,0,0-10.24.42c2-1.94,4.76-2.19,7.23-2.84,3.94-1,7.93-2.37,12.15-1.37a5.65,5.65,0,0,1,3,1.41,13.47,13.47,0,0,0,5.79,3.21c6.06,2.07,8.3,6.86,8.78,11.75.29,2.91-2.27,6.38-5,7.45-3.73,1.47-7.17,1.83-10.51-1.06-1.35-1.17-5.76.1-7.66,1.89-2.44,2.31-5.1,3.85-8.63,3C340.86,193.7,340.61,193.89,340.38,194Z" transform="translate(-31.35 -19.42)"/><path class="cls-12" d="M412.65,432.73c-1.61-2.29-.44-4.78-.34-7.13.18-3.91.94-7.8,1.26-11.69.33-4.07,1.43-8,1.8-12a18.19,18.19,0,0,1,1.69-5.08c.68-1.64,2.12-1.75,3.78-.41,1,1.94.74,4.08.58,6.06-.25,3.11.12,6.44-2,9.17a2.51,2.51,0,0,0-.48,2.06c.89,3.38-.64,6.44-1.31,9.58-.43,2-.63,4.06-1,6.07l-.56,1.43C415.08,431.74,414.73,433.72,412.65,432.73Z" transform="translate(-31.35 -19.42)"/><path class="cls-13" d="M411.28,466.23a4.71,4.71,0,0,0-.89-2.73c.56-1.71-.88-2.76-1.44-4.08-2.32-5.52-4.07-11.28-6.77-16.65-.29-.56-.49-1.16-1.13-1.47-3-1.45-4.78-4.08-6.63-6.66a7,7,0,0,1-1-3.16c-.17-1,.53-1.63,1.21-2.16a1.94,1.94,0,0,1,2.46.15c2.22,1.72,4.29,3.44,5.5,6.24,3.34,7.75,6.93,15.4,9.94,23.29.12.34.53.56.81.84,1.17,1.08.6,2.63,1,3.91a8.12,8.12,0,0,1,.14,1.9c0,1.08,0,2.27-1.29,2.52S411.7,467.14,411.28,466.23Z" transform="translate(-31.35 -19.42)"/><path class="cls-10" d="M521.62,445.17c-1.67-4.81-4.15-9.32-4.78-14.51-.3-2.48-1-4.91-1.45-7.4-.49-3,1.37-5.81,4.27-6,1.7-.1,2.48,1.07,3.14,2.15a27.48,27.48,0,0,1,3.73,17.13,10.73,10.73,0,0,0,.19,4.17,2.64,2.64,0,0,1-.71,3.07,1.44,1.44,0,0,1-.86-1.08c-.3-1.76-1.79-2.65-2.74-3.93.89-5-.3-13.35-2.29-15.89a5.81,5.81,0,0,0-.17,4.87c.68,2.11,1,4.33,2.1,6.32a6.06,6.06,0,0,1,.38,4.41c-.43,1.32-.13,2.66-.16,4C522.24,443.43,522.42,444.42,521.62,445.17Z" transform="translate(-31.35 -19.42)"/><path class="cls-1" d="M390.22,283.61c.14-1.61.76-2.37,2.47-1.54a1.39,1.39,0,0,0,2.14-.56c.49-.8,7.14.12,7.78.92.47.6-.51,2.46,1.25,1.85,2.66-.91,5.86-.9,7.53-3.8a2,2,0,0,0,.2-1.6c-1.06-3.59-6.23-6.56-10-6.06a69.8,69.8,0,0,1-7.52.2c0-.43.07-.85.51-1,4.6-1.3,9.15-2.86,14-.9,4.16,1.67,6.7,8.46,3.65,11.36a14.63,14.63,0,0,1-11.62,4.15C396.85,286.41,393.64,284.74,390.22,283.61Z" transform="translate(-31.35 -19.42)"/><path class="cls-14" d="M478.91,468.63a7.38,7.38,0,0,0-2.81,0c-.76,0-1.5.06-1.44,1.1.06.87.63,1.14,1.42,1.31,2.14.45,4.43.33,6.37,1.58-.23.87-.74.68-1.3.49-1.43-.5-2.85-1-4.3-1.41-1.19-.33-2.43-.56-2.71,1.23-1.48,1.4-2.67.53-3.84-.49-1-1.24-1.65-2.37.36-3.38.68-.34.74-5.83.23-6.72-1.57-2.78-1.45-3.05,1.62-3.66.39-.07.78-.09,1.17-.13,2,1,2.07,3.07,2.55,4.84.53,2,1.29,2.6,3.13,1.24a10.63,10.63,0,0,1,4.36-1.76c1.4.09,3.23,0,2.39,2.17-.31.8,1.09,1.76-.28,2.12s-2.22,1.77-3.67,1.11c-1.05-.48-1.92-.63-2.75.27A.3.3,0,0,1,478.91,468.63Z" transform="translate(-31.35 -19.42)"/><path class="cls-15" d="M411.28,466.23a11.49,11.49,0,0,1,1,1c.24.31.39.76.88.63s1-.64.87-1c-.31-1,.37-2.06-.29-3,.28-2.38,2-2.52,3.82-2.4v0c1.15-.88,1.9-2.59,3.84-1.82l-1,4.17a5.46,5.46,0,0,1-.93,2.91,4.76,4.76,0,0,0-.53,4.31c1,1.79-.19,2.18-1.55,2.38a2.08,2.08,0,0,1-1.11-.36,2.11,2.11,0,0,0-2.42.28c-.19.15-.34.74-.24.83.66.57,1.48.12,2.23.2-.59,3.73-.68,3.76-4.68,1.57l-1.29-.62c-.86-1-1.36-2.32-2.61-3a1.29,1.29,0,0,1-.37-.78c3.39-2.1-1.24-3.17-.53-5l4.61,1.9C411.78,467.72,410.34,466.81,411.28,466.23Z" transform="translate(-31.35 -19.42)"/><path class="cls-16" d="M394,273c-.77.51-.38,2.26-2.25,1.7-1.58-.48-1.64-1.19-1.4-2.56a27.21,27.21,0,0,0,.32-9.65c.39-1.71-.81-3.15-.58-5,.57-4.43-1.28-8.19-4-11.65-1.55-2-3-2.57-5.58-1.67-2.5,1.69-2.81,4.44-3.23,7.05a34.38,34.38,0,0,0-.12,5c-2.09-.7-.53-2.43-.65-3.46a12.81,12.81,0,0,1,2.81-10.15c2.15-2.52,3.89-2.56,6.6-.81,3.45,2.22,5.38,5.69,6.41,9.52,1.7,6.33,1.48,12.73.3,19.16C392.56,271.24,391.55,273.3,394,273Z" transform="translate(-31.35 -19.42)"/><path class="cls-17" d="M61.12,484c-1.25.53-2.49,1.16-3.75,0,.18-.59.67-1.19.33-1.82-1.82-3.3-1.23-7.13-2.37-10.57-.37-1.09.27-2.07,0-3-.53-2,.31-4.46-2.37-5.72-1.18-.56-1.34-4.21-.59-5.36,1-1.46,2.81-1.28,3.76.5a20.27,20.27,0,0,1,2,7.06c.76,5.79,1.59,11.57,2.42,17.36A8.49,8.49,0,0,0,61.12,484Z" transform="translate(-31.35 -19.42)"/><path class="cls-18" d="M116.36,431.15c2.56,1.68,2.42,4.47,2.68,7,.47,4.67-.3,9.34-1.16,13.88a82.25,82.25,0,0,1-5.42,18.56c-1.68,0-1.67-1.36-2-2.43a4.1,4.1,0,0,1,0-1.05c.92-3.9,1.72-7.83,2.81-11.68.87-3.06,1.83-6.06,1.58-9.28,1.79.23,2.81-.53,2.57-2.42-.36-2.82,0-5.73-1.14-8.48A3.94,3.94,0,0,1,116.36,431.15Z" transform="translate(-31.35 -19.42)"/><path class="cls-4" d="M417.52,461.46c-.2.22-.49.68-.58.64-1.83-.75-2.43.69-3.24,1.76-.11-1.34-.23-2.68-.35-4,.17-6.45-1.64-12.8-1-19.25.27-2.63-.57-5.27.29-7.86,1.67.3,2.07-1.6,3.37-2-1.14,4-.51,8-.25,12,.18,2.67.23,5.33.34,8C416.27,454.34,416.33,458,417.52,461.46Z" transform="translate(-31.35 -19.42)"/><path class="cls-19" d="M116.36,431.15c0,3.83,1.45,7.46,1.67,11.31a10.21,10.21,0,0,1-1.24,4.86c-.33.78-.51.7-2-1.19a12.18,12.18,0,0,1-2.56-5.92c-.45-2.86-1.32-5.87,0-8.78C113.09,429.61,114.94,429.5,116.36,431.15Z" transform="translate(-31.35 -19.42)"/><path class="cls-20" d="M110.41,467.09l.59.58c-1.37.89-.67,2.76-1.78,3.78l-.16.09a42.53,42.53,0,0,1-5.65-18.4,4.35,4.35,0,0,1,1.19-3.71c.62-.6,1.19-1,2.09-.68s1.56.89,1.52,1.91c0,1.19.18,2.6-.38,3.51-1.89,3.11.32,5.83.68,8.65A13.36,13.36,0,0,0,110.41,467.09Z" transform="translate(-31.35 -19.42)"/><path class="cls-21" d="M421.35,459.62c-1.57,0-2.29,1.77-3.84,1.82.15-4.41,1.82-8.45,3.28-12.51.95-2.64,1.54-5.45,3.37-7.71a3.65,3.65,0,0,1,2.92,1,132.17,132.17,0,0,0-5.7,16.79Z" transform="translate(-31.35 -19.42)"/><path class="cls-22" d="M427.08,442.26a4.17,4.17,0,0,1-2.92-1,14.23,14.23,0,0,1,7.27-9.11,2.33,2.33,0,0,1,3.15.78c.82,1.12.19,2.2-.56,3a42.9,42.9,0,0,1-4.77,4.27A25.81,25.81,0,0,0,427.08,442.26Z" transform="translate(-31.35 -19.42)"/><path class="cls-23" d="M416.58,429.34c-.18-3.86,1-7.52,1.54-11.26a65.6,65.6,0,0,1,2-10.56,27.93,27.93,0,0,0,.68-11.13c2,2.95,1.68,6.35,1.33,9.53C421.31,413.94,418.79,421.61,416.58,429.34Z" transform="translate(-31.35 -19.42)"/><path class="cls-24" d="M87.08,415.34a9.08,9.08,0,0,1-.06,1.17c-.23,1.29-.18,2.86-1.73,3.3s-1.67-1.35-2.55-2c-.08-1.58.35-3.22-.59-4.69a18.3,18.3,0,0,0,.57-5.49c2.42,1,3.6,2.93,4.77,4.91A5.54,5.54,0,0,1,87.08,415.34Z" transform="translate(-31.35 -19.42)"/><path class="cls-1" d="M393.58,313.31c-.8-.62-1.53-1.48-.87-2.41a22.11,22.11,0,0,0,3.55-7.75c.28-1.13.85-1.64,2.06-1.06,1,.48,2.16.82,1.81,2.32-.13.54-.35,1-.53,1.57-.81,2.26-2.94,3.71-3.68,6.06a2.16,2.16,0,0,1-2.38,1.24Z" transform="translate(-31.35 -19.42)"/><path class="cls-25" d="M78.35,431.29c-.13,1.79.77,3.75-.95,5.27-.6.53-1,.05-1.52-.09a1.42,1.42,0,0,1,.08-.42c-.28-1.28-1.65-1.5-2.33-2.39-1.17-.13-1.17-1.43-2-2A26.17,26.17,0,0,0,68,427.29c-.44-.44-.94-1.07-.2-1.59.56-.4,1.09-.18,1.55.5a6.94,6.94,0,0,0,4.26,2.7c2.2.44,3.22,1.27,3,3.46C77.64,432.55,77.62,431.35,78.35,431.29Z" transform="translate(-31.35 -19.42)"/><path class="cls-26" d="M308.72,385c-1.73-2.39-1.3-5.55-3-7.91l-.51-6.2c0-.48,0-.95.05-1.43s.14-1.17.8-1.3.89.49,1.2,1c.55.85.12,2.15,1.28,2.71l0,0a.23.23,0,0,1,.08.27c0,.09-.08.14-.11.14a3.29,3.29,0,0,0-.23.33c-.52.95.05,1.9.28,2.84A22.7,22.7,0,0,1,308.72,385Z" transform="translate(-31.35 -19.42)"/><path class="cls-27" d="M521.62,445.17c.45-2.24-1-4.65.6-6.8a.43.43,0,0,1,.43.43c2.69.61,2.6,3.1,3.36,5a1.5,1.5,0,0,1,0,.3c.31,1.93-1.61,2.92-1.77,4.67-1-.27-.46-1.94-1.78-1.63C521.84,446.63,522,445.8,521.62,445.17Z" transform="translate(-31.35 -19.42)"/><path class="cls-28" d="M109.22,471.45c.52-1.3-.8-3.46,1.78-3.78a3,3,0,0,0,1.46,2.9,3,3,0,0,1-.47,1.89c-1,3.25-1.76,3.82-3.59,3a1.2,1.2,0,0,1-.81-1.63c.18-.78.31-1.43,1.27-1.29C111.08,472.85,109.56,472,109.22,471.45Z" transform="translate(-31.35 -19.42)"/><path class="cls-29" d="M243.34,70.18c-.93,1.31.16,3.69-2.26,4.24-.16-1-.07-2-1-2.74l-.24.46a9,9,0,0,0-.47,1c-1.34,3.42-2.08,3.64-5.13,1.46.37,1.25.82,2.85,2.43,2.19,2.06-.85,1.76.57,2,1.59.78-2.14,2.13-2.13,3.77-1Z" transform="translate(-31.35 -19.42)"/><path class="cls-4" d="M73.63,433.66c.77.8,3.07.11,2.33,2.39A4.4,4.4,0,0,1,73.63,433.66Z" transform="translate(-31.35 -19.42)"/><path class="cls-30" d="M308.68,372.11c0,.09-.08.14-.11.14a1.08,1.08,0,0,0,0-.4v0l0,0A.23.23,0,0,1,308.68,372.11Z" transform="translate(-31.35 -19.42)"/><path class="cls-31" d="M318.25,480.61c-.5-.38-1-.78-1.51-1.13-3.08-2-3.23-3.81-.25-5.44,1.64-.9,3.45-1.56,5.38-.17,1.6,1.15,3.6.76,5.31.3,4.82-1.29,9.61-.27,14.42-.19a1.66,1.66,0,0,1,.89.32c2.24,1.52,4.69,1.35,7.22,1.1.87-.09,2.3-.65,2.52.94s-.78,2.54-2.08,3.13a7.46,7.46,0,0,1-2.09.41c-2.69.41-5.39.85-8.09,1.2-3.56.46-6.91-.59-10.29-1.45a37.15,37.15,0,0,1-7.63-2.33c-.09.29-.19.44-.17.57.49,3,.5,3-2.9,2.73-.24,0-.48,0-.72,0Z" transform="translate(-31.35 -19.42)"/><path class="cls-32" d="M383,275.43c1.28,1.09-.2,3.48,1.95,4.18a.49.49,0,0,1,.1.4c-3.71,3.47,1.13,1.45,1.48,2.31a1.45,1.45,0,0,0,.31.35,5.46,5.46,0,0,0-3.13.92,18.77,18.77,0,0,1-9.86,2.82c-4.11-.14-6.72-2.73-6.81-6.35,0-1.81,1.29-2.53,2.41-3.37,3.3-2.46,6.9-2.23,10.64-1.15C380.92,275.78,382.09,277.08,383,275.43Z" transform="translate(-31.35 -19.42)"/><path class="cls-33" d="M243.34,70.18l-.79,6.52,0,.18-.06.5c0-.16.07-.32.1-.48l0-.13" transform="translate(-31.35 -19.42)"/><path class="cls-34" d="M166.16,494.32c-4.1-.45-8.2-.87-12.29-1.37-.41-.05-.74-.56-1.14-.79-.61-.35-1.17-1.2-1.86-.94-3.56,1.38-6.14-1.38-9.18-2.1-2.47-.58-3.6-2.93-5.06-4.77-.5-.62-.59-2-2-1.1-.43.26-1.26-.57-.61-.94,1.7-1,.59-2.08.07-2.7-1.33-1.59-1.82-3.58-3.74-5-2.65-2-3.25-6.24.95-8.85a7.56,7.56,0,0,1,5.47-1.47c3.18.47,6.45.09,9.69.68,2.78.51,4.44,2.52,5.9,4.34a28.73,28.73,0,0,1,3.42,4.49c.58,1.11,1.92,2,.35,3.41-.6.53.23.95.55,1.33,1.81,2.13,4.44,2.68,6.9,3.56,1.78.63,3.81.92,4.14,3.36a.69.69,0,0,0,.85.64c1.64-.38,2.55,1.08,3.87,1.51,1,.31,2.28,1,1.73,2.16s-.08,3.11-2.06,3.34S168.26,494.54,166.16,494.32Z" transform="translate(-31.35 -19.42)"/><path class="cls-35" d="M418.93,471a2.11,2.11,0,0,1-.73-3.36c.89-1.24,1.19-2.74,2.19-3.86.93-.12,1.58-1.1,2.78-.8C422.66,466.16,420.76,468.57,418.93,471Z" transform="translate(-31.35 -19.42)"/><path class="cls-36" d="M453.11,466.22c.69,1.29.21,2.48,1.05,3.44s-.23,1.84-.81,2.62a1.48,1.48,0,0,1-1.91.52c-1-.49-.86-1.38-.55-2.26a1,1,0,0,0,.08-.46c-.27-1.34-1.87-3.28,1.39-3C452.54,467.08,452.75,466.64,453.11,466.22Z" transform="translate(-31.35 -19.42)"/><path class="cls-37" d="M380.57,244.23a2.92,2.92,0,0,1,4.61-.3c2.71,3.39,5.76,6.63,5.56,11.6-.07,1.83-.55,3.86.38,5.71a1,1,0,0,1-.42,1.26,16,16,0,0,1-1.65-6.16c-.19-2.31-4.71-3-6.45-1.19-.26.28-.48.59-.77,1-1.66-1.54-1.37-3-.23-4.5,1-1.33,2.32-2.73-.4-3.82-.84-.34-.81-1.36-.28-2.09S381.33,244.57,380.57,244.23Z" transform="translate(-31.35 -19.42)"/><path class="cls-38" d="M236.18,475.88c2-.43,3.68,1,5.61.93a57.64,57.64,0,0,1,11.81.44c1.07.2,1.82.27,2.42,1.44a7,7,0,0,0,3,3,3.08,3.08,0,0,1,1.67,2.91c.06,1.47-1,2-2,2.31a81.77,81.77,0,0,1-14.29,2.83c2-.9,3.26-2.89,5.57-3.47,1.25-.31,2.45-1,3.78-1.33a2.22,2.22,0,0,0,1.94-1.85,2.45,2.45,0,0,0-1.52-2.5,22.68,22.68,0,0,0-5.18-1.45c-4.16-.36-8.29-1.19-12.42-1.87C235.59,477.09,236.34,476.33,236.18,475.88Z" transform="translate(-31.35 -19.42)"/><path class="cls-39" d="M478.91,468.63l.5-.07a9.84,9.84,0,0,1,2.42,2.6c-1.53-.39-3-.2-4-1.42A13.81,13.81,0,0,1,478.91,468.63Z" transform="translate(-31.35 -19.42)"/><path class="cls-40" d="M522.65,438.8l-.43-.43c.32-3.31-1.8-5.94-2.55-9-.68-2.74-1.19-5.28.14-7.94C522.72,424.23,524.38,434.51,522.65,438.8Z" transform="translate(-31.35 -19.42)"/></svg>